<svg width="12" height="12" viewBox="0 0 12 12" fill="none" xmlns="http://www.w3.org/2000/svg">
<path d="M10.7716 1.22852H1.17969V10.8203H10.7716V1.22852Z" fill="white"/>
<path d="M11.4621 9.04688V11.4101H8.99609V12H11.9985V9.04688H11.4621Z" fill="#F8B137"/>
<path d="M2.95312 0.536411H0.589728V3.00247H0V0H2.95312V0.536411Z" fill="#F8B137"/>
<path d="M3.86035 2.0957H2.04688V3.90888H3.86035V2.0957ZM3.568 3.61656H2.33956V2.38802H3.568V3.61656Z" fill="#1D2342"/>
<path d="M3.31154 2.62891H2.5625V3.37783H3.31154V2.62891Z" fill="#1D2342"/>
<path d="M5.06931 2.0957H4.46484V2.70006H5.06931V2.0957Z" fill="#1D2342"/>
<path d="M2.65135 5.11719H2.04688V5.7216V6.3261H2.65135V5.7216V5.11719Z" fill="#1D2342"/>
<path d="M3.85841 5.11719H3.25391V5.7216H3.85841V5.11719Z" fill="#1D2342"/>
<path d="M3.25685 4.51367H2.65234V5.11808H3.25685V4.51367Z" fill="#1D2342"/>
<path d="M8.69405 5.11782V4.51341H8.08955H7.48505V5.11782H8.08955V5.72223H8.69405V6.32673H8.08955H7.48505V5.72223V5.11782H6.88058V4.51341H7.48505V3.90891V3.30456H6.88058V2.70006H7.48505V2.0957H6.88058H6.27607H5.67188V2.70006H6.27607V3.30456V3.90891H5.67188V4.51341H6.27607V5.11782V5.72223H5.67188V6.32673H6.27607V6.93109V7.53556H5.67188V8.13991H6.27607V8.74432V9.34876H5.67188V9.95317H6.27607H6.88058H7.48505V9.34876H6.88058V8.74432H7.48505V8.13991V7.53556H6.88058V6.93109H7.48505H8.08955V7.53556H8.69405V6.93109H9.29856V7.53556H9.90303V6.93109V6.32673H9.29856V5.72223H9.90303V5.11782H9.29856H8.69405Z" fill="#1D2342"/>
<path d="M8.08984 2.0957V3.90888H9.90332V2.0957H8.08984ZM9.61097 3.61656H8.38249V2.38802H9.61097V3.61656Z" fill="#1D2342"/>
<path d="M9.35811 2.62891H8.60938V3.37783H9.35811V2.62891Z" fill="#1D2342"/>
<path d="M2.04688 9.95389H3.86035V8.14062H2.04688V9.95389ZM2.33953 8.43306H3.56797V9.66169H2.33953V8.43306Z" fill="#1D2342"/>
<path d="M3.31154 8.67188H2.5625V9.42086H3.31154V8.67188Z" fill="#1D2342"/>
<path d="M5.67483 8.14102H5.07032V7.53667H5.67483V6.9322V6.32785H5.07032V5.72335H5.67483V5.11894H5.07032V4.51453V3.91002H5.67483V3.30567V2.70117H5.07032V3.30567H4.46585V3.91002V4.51453H3.86135V5.11894H4.46585V5.72335H3.86135V6.32785H4.46585V6.9322H3.86135V6.32785H3.25685H2.65234V6.9322H3.25685V7.53667H3.86135H4.46585V8.14102V8.74544H5.07032V9.34988H5.67483V8.74544V8.14102Z" fill="#1D2342"/>
<path d="M5.06931 9.34766H4.46484V9.95207H5.06931V9.34766Z" fill="#1D2342"/>
<path d="M2.65135 6.93164H2.04688V7.53614H2.65135V6.93164Z" fill="#1D2342"/>
<path d="M8.08984 9.95389H9.90332V8.14062H8.08984V9.95389ZM8.38253 8.43306H9.611V9.66169H8.38253V8.43306Z" fill="#1D2342"/>
<path d="M9.35811 8.67188H8.60938V9.42086H9.35811V8.67188Z" fill="#1D2342"/>
</svg>
