<svg width="323" height="140" viewBox="0 0 323 140" fill="none" xmlns="http://www.w3.org/2000/svg">
<rect width="323" height="140" fill="white"/>
<path d="M13.264 15.544L15.312 13.384C15.52 13.1707 15.6827 12.9867 15.8 12.832C15.9173 12.672 16 12.5253 16.048 12.392C16.1013 12.2587 16.128 12.12 16.128 11.976C16.128 11.6933 16.0373 11.472 15.856 11.312C15.6747 11.152 15.44 11.072 15.152 11.072C14.8693 11.072 14.6213 11.1413 14.408 11.28C14.1947 11.4133 14.0053 11.6213 13.84 11.904L13.312 11.464C13.5307 11.1013 13.7947 10.8293 14.104 10.648C14.4133 10.4613 14.7707 10.368 15.176 10.368C15.5173 10.368 15.8133 10.4347 16.064 10.568C16.32 10.7013 16.5173 10.888 16.656 11.128C16.7947 11.368 16.864 11.648 16.864 11.968C16.864 12.1973 16.8347 12.4027 16.776 12.584C16.7227 12.7653 16.624 12.952 16.48 13.144C16.3413 13.3307 16.1467 13.5547 15.896 13.816L14.24 15.52L13.264 15.544ZM13.264 16V15.544L13.904 15.328H16.992V16H13.264ZM19.3121 16.08C18.9335 16.08 18.5948 16.0133 18.2961 15.88C18.0028 15.7413 17.7548 15.5413 17.5521 15.28L18.0641 14.768C18.1868 14.9547 18.3548 15.104 18.5681 15.216C18.7868 15.3227 19.0295 15.376 19.2961 15.376C19.5468 15.376 19.7655 15.328 19.9521 15.232C20.1441 15.136 20.2935 15.0027 20.4001 14.832C20.5121 14.656 20.5681 14.448 20.5681 14.208C20.5681 13.9627 20.5148 13.7547 20.4081 13.584C20.3015 13.4133 20.1575 13.2853 19.9761 13.2C19.8001 13.1093 19.6055 13.064 19.3921 13.064C19.1735 13.064 18.9735 13.0907 18.7921 13.144C18.6161 13.1973 18.4481 13.288 18.2881 13.416L18.2961 12.936C18.3868 12.824 18.4908 12.7333 18.6081 12.664C18.7255 12.5947 18.8588 12.5413 19.0081 12.504C19.1575 12.4667 19.3308 12.448 19.5281 12.448C19.9121 12.448 20.2375 12.528 20.5041 12.688C20.7708 12.848 20.9735 13.064 21.1121 13.336C21.2561 13.608 21.3281 13.912 21.3281 14.248C21.3281 14.6 21.2401 14.9147 21.0641 15.192C20.8935 15.4693 20.6561 15.688 20.3521 15.848C20.0481 16.0027 19.7015 16.08 19.3121 16.08ZM18.2881 13.416L17.8801 13.008L18.1281 10.448H18.8161L18.5361 13.08L18.2881 13.416ZM18.2801 11.12L18.1281 10.448H21.0481V11.12H18.2801ZM24.2963 16.08C23.8803 16.08 23.4989 15.9627 23.1523 15.728C22.8109 15.4933 22.5389 15.1627 22.3363 14.736C22.1336 14.304 22.0323 13.7973 22.0323 13.216C22.0323 12.6347 22.1309 12.1307 22.3283 11.704C22.5309 11.2773 22.8029 10.9493 23.1443 10.72C23.4856 10.4853 23.8616 10.368 24.2723 10.368C24.6936 10.368 25.0749 10.4853 25.4163 10.72C25.7576 10.9493 26.0269 11.2773 26.2243 11.704C26.4269 12.1307 26.5283 12.6373 26.5283 13.224C26.5283 13.8053 26.4269 14.312 26.2243 14.744C26.0269 15.1707 25.7576 15.5013 25.4163 15.736C25.0803 15.9653 24.7069 16.08 24.2963 16.08ZM24.2803 15.368C24.5736 15.368 24.8296 15.288 25.0483 15.128C25.2723 14.9627 25.4483 14.72 25.5763 14.4C25.7043 14.08 25.7682 13.6853 25.7682 13.216C25.7682 12.7467 25.7043 12.3547 25.5763 12.04C25.4483 11.72 25.2723 11.48 25.0483 11.32C24.8243 11.1547 24.5656 11.072 24.2723 11.072C23.9843 11.072 23.7283 11.1547 23.5043 11.32C23.2803 11.48 23.1043 11.72 22.9763 12.04C22.8536 12.3547 22.7923 12.7467 22.7923 13.216C22.7923 13.6853 22.8536 14.08 22.9763 14.4C23.1043 14.72 23.2803 14.9627 23.5043 15.128C23.7283 15.288 23.9869 15.368 24.2803 15.368Z" fill="black" fill-opacity="0.7"/>
<path d="M12.264 35.544L14.312 33.384C14.52 33.1707 14.6827 32.9867 14.8 32.832C14.9173 32.672 15 32.5253 15.048 32.392C15.1013 32.2587 15.128 32.12 15.128 31.976C15.128 31.6933 15.0373 31.472 14.856 31.312C14.6747 31.152 14.44 31.072 14.152 31.072C13.8693 31.072 13.6213 31.1413 13.408 31.28C13.1947 31.4133 13.0053 31.6213 12.84 31.904L12.312 31.464C12.5307 31.1013 12.7947 30.8293 13.104 30.648C13.4133 30.4613 13.7707 30.368 14.176 30.368C14.5173 30.368 14.8133 30.4347 15.064 30.568C15.32 30.7013 15.5173 30.888 15.656 31.128C15.7947 31.368 15.864 31.648 15.864 31.968C15.864 32.1973 15.8347 32.4027 15.776 32.584C15.7227 32.7653 15.624 32.952 15.48 33.144C15.3413 33.3307 15.1467 33.5547 14.896 33.816L13.24 35.52L12.264 35.544ZM12.264 36V35.544L12.904 35.328H15.992V36H12.264ZM18.9681 36.08C18.5521 36.08 18.1708 35.9627 17.8241 35.728C17.4828 35.4933 17.2108 35.1627 17.0081 34.736C16.8055 34.304 16.7041 33.7973 16.7041 33.216C16.7041 32.6347 16.8028 32.1307 17.0001 31.704C17.2028 31.2773 17.4748 30.9493 17.8161 30.72C18.1575 30.4853 18.5335 30.368 18.9441 30.368C19.3655 30.368 19.7468 30.4853 20.0881 30.72C20.4295 30.9493 20.6988 31.2773 20.8961 31.704C21.0988 32.1307 21.2001 32.6373 21.2001 33.224C21.2001 33.8053 21.0988 34.312 20.8961 34.744C20.6988 35.1707 20.4295 35.5013 20.0881 35.736C19.7521 35.9653 19.3788 36.08 18.9681 36.08ZM18.9521 35.368C19.2455 35.368 19.5015 35.288 19.7201 35.128C19.9441 34.9627 20.1201 34.72 20.2481 34.4C20.3761 34.08 20.4401 33.6853 20.4401 33.216C20.4401 32.7467 20.3761 32.3547 20.2481 32.04C20.1201 31.72 19.9441 31.48 19.7201 31.32C19.4961 31.1547 19.2375 31.072 18.9441 31.072C18.6561 31.072 18.4001 31.1547 18.1761 31.32C17.9521 31.48 17.7761 31.72 17.6481 32.04C17.5255 32.3547 17.4641 32.7467 17.4641 33.216C17.4641 33.6853 17.5255 34.08 17.6481 34.4C17.7761 34.72 17.9521 34.9627 18.1761 35.128C18.4001 35.288 18.6588 35.368 18.9521 35.368ZM24.2181 36.08C23.8021 36.08 23.4208 35.9627 23.0741 35.728C22.7328 35.4933 22.4608 35.1627 22.2581 34.736C22.0555 34.304 21.9541 33.7973 21.9541 33.216C21.9541 32.6347 22.0528 32.1307 22.2501 31.704C22.4528 31.2773 22.7248 30.9493 23.0661 30.72C23.4075 30.4853 23.7835 30.368 24.1941 30.368C24.6155 30.368 24.9968 30.4853 25.3381 30.72C25.6795 30.9493 25.9488 31.2773 26.1461 31.704C26.3488 32.1307 26.4501 32.6373 26.4501 33.224C26.4501 33.8053 26.3488 34.312 26.1461 34.744C25.9488 35.1707 25.6795 35.5013 25.3381 35.736C25.0021 35.9653 24.6288 36.08 24.2181 36.08ZM24.2021 35.368C24.4955 35.368 24.7515 35.288 24.9701 35.128C25.1941 34.9627 25.3701 34.72 25.4981 34.4C25.6261 34.08 25.6901 33.6853 25.6901 33.216C25.6901 32.7467 25.6261 32.3547 25.4981 32.04C25.3701 31.72 25.1941 31.48 24.9701 31.32C24.7461 31.1547 24.4875 31.072 24.1941 31.072C23.9061 31.072 23.6501 31.1547 23.4261 31.32C23.2021 31.48 23.0261 31.72 22.8981 32.04C22.7755 32.3547 22.7141 32.7467 22.7141 33.216C22.7141 33.6853 22.7755 34.08 22.8981 34.4C23.0261 34.72 23.2021 34.9627 23.4261 35.128C23.6501 35.288 23.9088 35.368 24.2021 35.368Z" fill="black" fill-opacity="0.7"/>
<path d="M15.384 56V50.448H16.128V56H15.384ZM14.248 51.12V50.448H16.048V51.12H14.248ZM18.7574 56.08C18.3788 56.08 18.0401 56.0133 17.7414 55.88C17.4481 55.7413 17.2001 55.5413 16.9974 55.28L17.5094 54.768C17.6321 54.9547 17.8001 55.104 18.0134 55.216C18.2321 55.3227 18.4748 55.376 18.7414 55.376C18.9921 55.376 19.2108 55.328 19.3974 55.232C19.5894 55.136 19.7388 55.0027 19.8454 54.832C19.9574 54.656 20.0134 54.448 20.0134 54.208C20.0134 53.9627 19.9601 53.7547 19.8534 53.584C19.7468 53.4133 19.6028 53.2853 19.4214 53.2C19.2454 53.1093 19.0508 53.064 18.8374 53.064C18.6188 53.064 18.4188 53.0907 18.2374 53.144C18.0614 53.1973 17.8934 53.288 17.7334 53.416L17.7414 52.936C17.8321 52.824 17.9361 52.7333 18.0534 52.664C18.1708 52.5947 18.3041 52.5413 18.4534 52.504C18.6028 52.4667 18.7761 52.448 18.9734 52.448C19.3574 52.448 19.6828 52.528 19.9494 52.688C20.2161 52.848 20.4188 53.064 20.5574 53.336C20.7014 53.608 20.7734 53.912 20.7734 54.248C20.7734 54.6 20.6854 54.9147 20.5094 55.192C20.3388 55.4693 20.1014 55.688 19.7974 55.848C19.4934 56.0027 19.1468 56.08 18.7574 56.08ZM17.7334 53.416L17.3254 53.008L17.5734 50.448H18.2614L17.9814 53.08L17.7334 53.416ZM17.7254 51.12L17.5734 50.448H20.4934V51.12H17.7254ZM23.7416 56.08C23.3256 56.08 22.9442 55.9627 22.5976 55.728C22.2562 55.4933 21.9842 55.1627 21.7816 54.736C21.5789 54.304 21.4776 53.7973 21.4776 53.216C21.4776 52.6347 21.5762 52.1307 21.7736 51.704C21.9762 51.2773 22.2482 50.9493 22.5896 50.72C22.9309 50.4853 23.3069 50.368 23.7176 50.368C24.1389 50.368 24.5202 50.4853 24.8616 50.72C25.2029 50.9493 25.4722 51.2773 25.6696 51.704C25.8722 52.1307 25.9736 52.6373 25.9736 53.224C25.9736 53.8053 25.8722 54.312 25.6696 54.744C25.4722 55.1707 25.2029 55.5013 24.8616 55.736C24.5256 55.9653 24.1522 56.08 23.7416 56.08ZM23.7256 55.368C24.0189 55.368 24.2749 55.288 24.4936 55.128C24.7176 54.9627 24.8936 54.72 25.0216 54.4C25.1496 54.08 25.2136 53.6853 25.2136 53.216C25.2136 52.7467 25.1496 52.3547 25.0216 52.04C24.8936 51.72 24.7176 51.48 24.4936 51.32C24.2696 51.1547 24.0109 51.072 23.7176 51.072C23.4296 51.072 23.1736 51.1547 22.9496 51.32C22.7256 51.48 22.5496 51.72 22.4216 52.04C22.2989 52.3547 22.2376 52.7467 22.2376 53.216C22.2376 53.6853 22.2989 54.08 22.4216 54.4C22.5496 54.72 22.7256 54.9627 22.9496 55.128C23.1736 55.288 23.4322 55.368 23.7256 55.368Z" fill="black" fill-opacity="0.7"/>
<path d="M14.384 76V70.448H15.128V76H14.384ZM13.248 71.12V70.448H15.048V71.12H13.248ZM18.4134 76.08C17.9974 76.08 17.6161 75.9627 17.2694 75.728C16.9281 75.4933 16.6561 75.1627 16.4534 74.736C16.2508 74.304 16.1494 73.7973 16.1494 73.216C16.1494 72.6347 16.2481 72.1307 16.4454 71.704C16.6481 71.2773 16.9201 70.9493 17.2614 70.72C17.6028 70.4853 17.9788 70.368 18.3894 70.368C18.8108 70.368 19.1921 70.4853 19.5334 70.72C19.8748 70.9493 20.1441 71.2773 20.3414 71.704C20.5441 72.1307 20.6454 72.6373 20.6454 73.224C20.6454 73.8053 20.5441 74.312 20.3414 74.744C20.1441 75.1707 19.8748 75.5013 19.5334 75.736C19.1974 75.9653 18.8241 76.08 18.4134 76.08ZM18.3974 75.368C18.6908 75.368 18.9468 75.288 19.1654 75.128C19.3894 74.9627 19.5654 74.72 19.6934 74.4C19.8214 74.08 19.8854 73.6853 19.8854 73.216C19.8854 72.7467 19.8214 72.3547 19.6934 72.04C19.5654 71.72 19.3894 71.48 19.1654 71.32C18.9414 71.1547 18.6828 71.072 18.3894 71.072C18.1014 71.072 17.8454 71.1547 17.6214 71.32C17.3974 71.48 17.2214 71.72 17.0934 72.04C16.9708 72.3547 16.9094 72.7467 16.9094 73.216C16.9094 73.6853 16.9708 74.08 17.0934 74.4C17.2214 74.72 17.3974 74.9627 17.6214 75.128C17.8454 75.288 18.1041 75.368 18.3974 75.368ZM23.6634 76.08C23.2474 76.08 22.8661 75.9627 22.5194 75.728C22.1781 75.4933 21.9061 75.1627 21.7034 74.736C21.5008 74.304 21.3994 73.7973 21.3994 73.216C21.3994 72.6347 21.4981 72.1307 21.6954 71.704C21.8981 71.2773 22.1701 70.9493 22.5114 70.72C22.8528 70.4853 23.2288 70.368 23.6394 70.368C24.0608 70.368 24.4421 70.4853 24.7834 70.72C25.1248 70.9493 25.3941 71.2773 25.5914 71.704C25.7941 72.1307 25.8954 72.6373 25.8954 73.224C25.8954 73.8053 25.7941 74.312 25.5914 74.744C25.3941 75.1707 25.1248 75.5013 24.7834 75.736C24.4474 75.9653 24.0741 76.08 23.6634 76.08ZM23.6474 75.368C23.9408 75.368 24.1968 75.288 24.4154 75.128C24.6394 74.9627 24.8154 74.72 24.9434 74.4C25.0714 74.08 25.1354 73.6853 25.1354 73.216C25.1354 72.7467 25.0714 72.3547 24.9434 72.04C24.8154 71.72 24.6394 71.48 24.4154 71.32C24.1914 71.1547 23.9328 71.072 23.6394 71.072C23.3514 71.072 23.0954 71.1547 22.8714 71.32C22.6474 71.48 22.4714 71.72 22.3434 72.04C22.2208 72.3547 22.1594 72.7467 22.1594 73.216C22.1594 73.6853 22.2208 74.08 22.3434 74.4C22.4714 74.72 22.6474 74.9627 22.8714 75.128C23.0954 75.288 23.3541 75.368 23.6474 75.368Z" fill="black" fill-opacity="0.7"/>
<path d="M18.984 96.08C18.6053 96.08 18.2667 96.0133 17.968 95.88C17.6747 95.7413 17.4267 95.5413 17.224 95.28L17.736 94.768C17.8587 94.9547 18.0267 95.104 18.24 95.216C18.4587 95.3227 18.7013 95.376 18.968 95.376C19.2187 95.376 19.4373 95.328 19.624 95.232C19.816 95.136 19.9653 95.0027 20.072 94.832C20.184 94.656 20.24 94.448 20.24 94.208C20.24 93.9627 20.1867 93.7547 20.08 93.584C19.9733 93.4133 19.8293 93.2853 19.648 93.2C19.472 93.1093 19.2773 93.064 19.064 93.064C18.8453 93.064 18.6453 93.0907 18.464 93.144C18.288 93.1973 18.12 93.288 17.96 93.416L17.968 92.936C18.0587 92.824 18.1627 92.7333 18.28 92.664C18.3973 92.5947 18.5307 92.5413 18.68 92.504C18.8293 92.4667 19.0027 92.448 19.2 92.448C19.584 92.448 19.9093 92.528 20.176 92.688C20.4427 92.848 20.6453 93.064 20.784 93.336C20.928 93.608 21 93.912 21 94.248C21 94.6 20.912 94.9147 20.736 95.192C20.5653 95.4693 20.328 95.688 20.024 95.848C19.72 96.0027 19.3733 96.08 18.984 96.08ZM17.96 93.416L17.552 93.008L17.8 90.448H18.488L18.208 93.08L17.96 93.416ZM17.952 91.12L17.8 90.448H20.72V91.12H17.952ZM23.9681 96.08C23.5521 96.08 23.1708 95.9627 22.8241 95.728C22.4828 95.4933 22.2108 95.1627 22.0081 94.736C21.8055 94.304 21.7041 93.7973 21.7041 93.216C21.7041 92.6347 21.8028 92.1307 22.0001 91.704C22.2028 91.2773 22.4748 90.9493 22.8161 90.72C23.1575 90.4853 23.5335 90.368 23.9441 90.368C24.3655 90.368 24.7468 90.4853 25.0881 90.72C25.4295 90.9493 25.6988 91.2773 25.8961 91.704C26.0988 92.1307 26.2001 92.6373 26.2001 93.224C26.2001 93.8053 26.0988 94.312 25.8961 94.744C25.6988 95.1707 25.4295 95.5013 25.0881 95.736C24.7521 95.9653 24.3788 96.08 23.9681 96.08ZM23.9521 95.368C24.2455 95.368 24.5015 95.288 24.7201 95.128C24.9441 94.9627 25.1201 94.72 25.2481 94.4C25.3761 94.08 25.4401 93.6853 25.4401 93.216C25.4401 92.7467 25.3761 92.3547 25.2481 92.04C25.1201 91.72 24.9441 91.48 24.7201 91.32C24.4961 91.1547 24.2375 91.072 23.9441 91.072C23.6561 91.072 23.4001 91.1547 23.1761 91.32C22.9521 91.48 22.7761 91.72 22.6481 92.04C22.5255 92.3547 22.4641 92.7467 22.4641 93.216C22.4641 93.6853 22.5255 94.08 22.6481 94.4C22.7761 94.72 22.9521 94.9627 23.1761 95.128C23.4001 95.288 23.6588 95.368 23.9521 95.368Z" fill="black" fill-opacity="0.7"/>
<path d="M23.64 116.08C23.224 116.08 22.8427 115.963 22.496 115.728C22.1547 115.493 21.8827 115.163 21.68 114.736C21.4773 114.304 21.376 113.797 21.376 113.216C21.376 112.635 21.4747 112.131 21.672 111.704C21.8747 111.277 22.1467 110.949 22.488 110.72C22.8293 110.485 23.2053 110.368 23.616 110.368C24.0373 110.368 24.4187 110.485 24.76 110.72C25.1013 110.949 25.3707 111.277 25.568 111.704C25.7707 112.131 25.872 112.637 25.872 113.224C25.872 113.805 25.7707 114.312 25.568 114.744C25.3707 115.171 25.1013 115.501 24.76 115.736C24.424 115.965 24.0507 116.08 23.64 116.08ZM23.624 115.368C23.9173 115.368 24.1733 115.288 24.392 115.128C24.616 114.963 24.792 114.72 24.92 114.4C25.048 114.08 25.112 113.685 25.112 113.216C25.112 112.747 25.048 112.355 24.92 112.04C24.792 111.72 24.616 111.48 24.392 111.32C24.168 111.155 23.9093 111.072 23.616 111.072C23.328 111.072 23.072 111.155 22.848 111.32C22.624 111.48 22.448 111.72 22.32 112.04C22.1973 112.355 22.136 112.747 22.136 113.216C22.136 113.685 22.1973 114.08 22.32 114.4C22.448 114.72 22.624 114.963 22.848 115.128C23.072 115.288 23.3307 115.368 23.624 115.368Z" fill="black" fill-opacity="0.7"/>
<line x1="32" y1="13.5" x2="314" y2="13.5" stroke="#00001A" stroke-opacity="0.05" stroke-dasharray="2"/>
<line x1="32" y1="33.1001" x2="314" y2="33.1001" stroke="#00001A" stroke-opacity="0.05" stroke-dasharray="2"/>
<line x1="32" y1="52.7002" x2="314" y2="52.7002" stroke="#00001A" stroke-opacity="0.05" stroke-dasharray="2"/>
<line x1="32" y1="72.2998" x2="314" y2="72.2998" stroke="#00001A" stroke-opacity="0.05" stroke-dasharray="2"/>
<line x1="32" y1="91.8999" x2="314" y2="91.8999" stroke="#00001A" stroke-opacity="0.05" stroke-dasharray="2"/>
<line x1="32" y1="111.5" x2="314" y2="111.5" stroke="#00001A" stroke-opacity="0.3"/>
<rect opacity="0.8" x="45.2856" y="90.2324" width="12" height="20.9528" fill="#FFB02A"/>
<rect opacity="0.8" x="45.2856" y="81.5215" width="12" height="8.62939" fill="#591783"/>
<path opacity="0.8" d="M45.2856 61.0039C45.2856 57.6902 47.9719 55.0039 51.2856 55.0039C54.5994 55.0039 57.2856 57.6902 57.2856 61.0039V81.8981H45.2856V61.0039Z" fill="#2DB0AB"/>
<rect opacity="0.8" x="85.8569" y="90.2324" width="12" height="20.9528" fill="#FFB02A"/>
<rect opacity="0.8" x="85.8569" y="81.5215" width="12" height="8.62939" fill="#591783"/>
<path opacity="0.8" d="M85.8569 61.0039C85.8569 57.6902 88.5432 55.0039 91.8569 55.0039C95.1706 55.0039 97.8569 57.6902 97.8569 61.0039V81.8981H85.8569V61.0039Z" fill="#2DB0AB"/>
<rect opacity="0.8" x="126.429" y="96.3828" width="12" height="14.973" fill="#FFB02A"/>
<rect opacity="0.8" x="126.429" y="81.6445" width="12" height="15.2915" fill="#591783"/>
<path opacity="0.8" d="M126.429 62.4141C126.429 59.1004 129.115 56.4141 132.429 56.4141C135.742 56.4141 138.429 59.1004 138.429 62.4141V80.9567H126.429V62.4141Z" fill="#2DB0AB"/>
<rect opacity="0.8" x="167" y="88.3672" width="12" height="22.7962" fill="#FFB02A"/>
<rect opacity="0.8" x="167" y="60.1621" width="12" height="28.2764" fill="#591783"/>
<path opacity="0.8" d="M167 59.8197C167 56.6714 169.552 54.1191 172.701 54.1191H173.299C176.448 54.1191 179 56.6714 179 59.8197H167Z" fill="#2DB0AB"/>
<rect opacity="0.8" x="207.571" y="90.1777" width="12" height="21.0946" fill="#FFB02A"/>
<rect opacity="0.8" x="207.571" y="52.7188" width="12" height="37.3129" fill="#591783"/>
<path opacity="0.8" d="M207.571 34.5977C207.571 31.284 210.258 28.5977 213.571 28.5977C216.885 28.5977 219.571 31.2839 219.571 34.5977V52.2628H207.571V34.5977Z" fill="#2DB0AB"/>
<rect opacity="0.8" x="248.143" y="90.3203" width="12" height="20.7235" fill="#FFB02A"/>
<rect opacity="0.8" x="248.143" y="82.8906" width="12" height="7.30431" fill="#591783"/>
<path opacity="0.8" d="M248.143 81.4453C248.143 78.1316 250.829 75.4453 254.143 75.4453C257.456 75.4453 260.143 78.1316 260.143 81.4453V82.7898H248.143V81.4453Z" fill="#2DB0AB"/>
<rect opacity="0.8" x="288.714" y="83.918" width="12" height="27.3561" fill="#FFB02A"/>
<rect opacity="0.8" x="288.714" y="71.0215" width="12" height="12.5049" fill="#591783"/>
<path opacity="0.8" d="M288.714 71.1522C288.714 68.27 291.051 65.9336 293.933 65.9336H295.496C298.378 65.9336 300.714 68.27 300.714 71.1522H288.714Z" fill="#2DB0AB"/>
<path d="M44.1292 124V118.448H44.6572L47.0092 122.312H46.6492L49.0012 118.448H49.5292V124H48.7772V119.768L48.9532 119.816L47.0972 122.864H46.5692L44.7132 119.816L44.8812 119.768V124H44.1292ZM52.4482 124.08C52.0748 124.08 51.7388 123.992 51.4402 123.816C51.1415 123.64 50.9042 123.403 50.7282 123.104C50.5522 122.8 50.4642 122.461 50.4642 122.088C50.4642 121.72 50.5522 121.389 50.7282 121.096C50.9042 120.797 51.1415 120.56 51.4402 120.384C51.7388 120.208 52.0748 120.12 52.4482 120.12C52.8162 120.12 53.1495 120.208 53.4482 120.384C53.7522 120.555 53.9922 120.789 54.1682 121.088C54.3442 121.387 54.4322 121.72 54.4322 122.088C54.4322 122.461 54.3442 122.8 54.1682 123.104C53.9922 123.403 53.7522 123.64 53.4482 123.816C53.1495 123.992 52.8162 124.08 52.4482 124.08ZM52.4482 123.384C52.6882 123.384 52.9015 123.328 53.0882 123.216C53.2748 123.104 53.4215 122.952 53.5282 122.76C53.6348 122.563 53.6882 122.339 53.6882 122.088C53.6882 121.843 53.6322 121.624 53.5202 121.432C53.4135 121.24 53.2668 121.091 53.0802 120.984C52.8988 120.872 52.6882 120.816 52.4482 120.816C52.2082 120.816 51.9948 120.872 51.8082 120.984C51.6215 121.091 51.4748 121.24 51.3682 121.432C51.2615 121.624 51.2082 121.843 51.2082 122.088C51.2082 122.339 51.2615 122.563 51.3682 122.76C51.4748 122.952 51.6215 123.104 51.8082 123.216C51.9948 123.328 52.2082 123.384 52.4482 123.384ZM57.9314 124V121.784C57.9314 121.496 57.8407 121.259 57.6594 121.072C57.4781 120.885 57.2434 120.792 56.9554 120.792C56.7634 120.792 56.5927 120.835 56.4434 120.92C56.2941 121.005 56.1767 121.123 56.0914 121.272C56.0061 121.421 55.9634 121.592 55.9634 121.784L55.6674 121.616C55.6674 121.328 55.7314 121.072 55.8594 120.848C55.9874 120.624 56.1661 120.448 56.3954 120.32C56.6247 120.187 56.8834 120.12 57.1714 120.12C57.4594 120.12 57.7127 120.192 57.9314 120.336C58.1554 120.48 58.3314 120.669 58.4594 120.904C58.5874 121.133 58.6514 121.379 58.6514 121.64V124H57.9314ZM55.2434 124V120.2H55.9634V124H55.2434Z" fill="black" fill-opacity="0.7"/>
<path d="M87.6686 124V118.608H88.4206V124H87.6686ZM85.7806 119.136V118.448H90.3006V119.136H85.7806ZM91.8153 124.08C91.506 124.08 91.226 124.011 90.9753 123.872C90.73 123.728 90.538 123.531 90.3993 123.28C90.2607 123.029 90.1913 122.739 90.1913 122.408V120.2H90.9113V122.376C90.9113 122.584 90.946 122.765 91.0153 122.92C91.09 123.069 91.1967 123.184 91.3353 123.264C91.474 123.344 91.6367 123.384 91.8233 123.384C92.106 123.384 92.3273 123.296 92.4873 123.12C92.6473 122.939 92.7273 122.691 92.7273 122.376V120.2H93.4473V122.408C93.4473 122.739 93.378 123.029 93.2393 123.28C93.1007 123.531 92.9087 123.728 92.6633 123.872C92.4233 124.011 92.1407 124.08 91.8153 124.08ZM96.1723 124.08C95.7937 124.08 95.4523 123.995 95.1483 123.824C94.8443 123.648 94.6043 123.411 94.4283 123.112C94.2523 122.813 94.1643 122.475 94.1643 122.096C94.1643 121.723 94.2497 121.387 94.4203 121.088C94.5963 120.789 94.831 120.555 95.1243 120.384C95.423 120.208 95.7563 120.12 96.1243 120.12C96.4763 120.12 96.7857 120.2 97.0523 120.36C97.3243 120.52 97.535 120.741 97.6843 121.024C97.839 121.307 97.9163 121.627 97.9163 121.984C97.9163 122.037 97.9137 122.096 97.9083 122.16C97.903 122.219 97.8923 122.288 97.8763 122.368H94.6683V121.768H97.4923L97.2283 122C97.2283 121.744 97.183 121.528 97.0923 121.352C97.0017 121.171 96.8737 121.032 96.7083 120.936C96.543 120.835 96.343 120.784 96.1083 120.784C95.863 120.784 95.647 120.837 95.4603 120.944C95.2737 121.051 95.1297 121.2 95.0283 121.392C94.927 121.584 94.8763 121.811 94.8763 122.072C94.8763 122.339 94.9297 122.573 95.0363 122.776C95.143 122.973 95.295 123.128 95.4923 123.24C95.6897 123.347 95.9163 123.4 96.1723 123.4C96.3857 123.4 96.5803 123.363 96.7563 123.288C96.9377 123.213 97.0923 123.101 97.2203 122.952L97.6843 123.424C97.503 123.637 97.279 123.8 97.0123 123.912C96.751 124.024 96.471 124.08 96.1723 124.08Z" fill="black" fill-opacity="0.7"/>
<path d="M126.395 124L124.579 118.448H125.331L126.771 122.976H126.555L127.971 118.448H128.515L129.931 122.976H129.723L131.163 118.448H131.907L130.099 124H129.563L128.139 119.48H128.347L126.931 124H126.395ZM133.877 124.08C133.498 124.08 133.157 123.995 132.853 123.824C132.549 123.648 132.309 123.411 132.133 123.112C131.957 122.813 131.869 122.475 131.869 122.096C131.869 121.723 131.954 121.387 132.125 121.088C132.301 120.789 132.536 120.555 132.829 120.384C133.128 120.208 133.461 120.12 133.829 120.12C134.181 120.12 134.49 120.2 134.757 120.36C135.029 120.52 135.24 120.741 135.389 121.024C135.544 121.307 135.621 121.627 135.621 121.984C135.621 122.037 135.618 122.096 135.613 122.16C135.608 122.219 135.597 122.288 135.581 122.368H132.373V121.768H135.197L134.933 122C134.933 121.744 134.888 121.528 134.797 121.352C134.706 121.171 134.578 121.032 134.413 120.936C134.248 120.835 134.048 120.784 133.813 120.784C133.568 120.784 133.352 120.837 133.165 120.944C132.978 121.051 132.834 121.2 132.733 121.392C132.632 121.584 132.581 121.811 132.581 122.072C132.581 122.339 132.634 122.573 132.741 122.776C132.848 122.973 133 123.128 133.197 123.24C133.394 123.347 133.621 123.4 133.877 123.4C134.09 123.4 134.285 123.363 134.461 123.288C134.642 123.213 134.797 123.101 134.925 122.952L135.389 123.424C135.208 123.637 134.984 123.8 134.717 123.912C134.456 124.024 134.176 124.08 133.877 124.08ZM138.014 124.08C137.662 124.08 137.347 123.995 137.07 123.824C136.793 123.648 136.571 123.411 136.406 123.112C136.246 122.813 136.166 122.477 136.166 122.104C136.166 121.731 136.246 121.395 136.406 121.096C136.571 120.797 136.793 120.56 137.07 120.384C137.347 120.208 137.662 120.12 138.014 120.12C138.297 120.12 138.553 120.181 138.782 120.304C139.011 120.421 139.195 120.587 139.334 120.8C139.478 121.008 139.558 121.251 139.574 121.528V122.672C139.558 122.944 139.481 123.187 139.342 123.4C139.203 123.613 139.019 123.781 138.79 123.904C138.561 124.021 138.302 124.08 138.014 124.08ZM138.134 123.4C138.374 123.4 138.582 123.344 138.758 123.232C138.939 123.12 139.081 122.968 139.182 122.776C139.283 122.579 139.334 122.355 139.334 122.104C139.334 121.843 139.281 121.616 139.174 121.424C139.073 121.232 138.931 121.08 138.75 120.968C138.574 120.856 138.366 120.8 138.126 120.8C137.886 120.8 137.675 120.856 137.494 120.968C137.313 121.08 137.169 121.235 137.062 121.432C136.961 121.624 136.91 121.845 136.91 122.096C136.91 122.352 136.961 122.579 137.062 122.776C137.169 122.968 137.313 123.12 137.494 123.232C137.681 123.344 137.894 123.4 138.134 123.4ZM140.014 124H139.286V122.976L139.422 122.048L139.286 121.128V118.288H140.014V124Z" fill="black" fill-opacity="0.7"/>
<path d="M168.374 124V118.608H169.126V124H168.374ZM166.486 119.136V118.448H171.006V119.136H166.486ZM174.462 124V121.784C174.462 121.496 174.371 121.259 174.19 121.072C174.009 120.885 173.774 120.792 173.486 120.792C173.294 120.792 173.123 120.835 172.974 120.92C172.825 121.005 172.707 121.123 172.622 121.272C172.537 121.421 172.494 121.592 172.494 121.784L172.198 121.616C172.198 121.328 172.262 121.072 172.39 120.848C172.518 120.624 172.697 120.448 172.926 120.32C173.155 120.187 173.414 120.12 173.702 120.12C173.99 120.12 174.243 120.184 174.462 120.312C174.686 120.44 174.862 120.619 174.99 120.848C175.118 121.077 175.182 121.341 175.182 121.64V124H174.462ZM171.774 124V118.288H172.494V124H171.774ZM177.685 124.08C177.376 124.08 177.096 124.011 176.845 123.872C176.6 123.728 176.408 123.531 176.269 123.28C176.13 123.029 176.061 122.739 176.061 122.408V120.2H176.781V122.376C176.781 122.584 176.816 122.765 176.885 122.92C176.96 123.069 177.066 123.184 177.205 123.264C177.344 123.344 177.506 123.384 177.693 123.384C177.976 123.384 178.197 123.296 178.357 123.12C178.517 122.939 178.597 122.691 178.597 122.376V120.2H179.317V122.408C179.317 122.739 179.248 123.029 179.109 123.28C178.97 123.531 178.778 123.728 178.533 123.872C178.293 124.011 178.01 124.08 177.685 124.08Z" fill="black" fill-opacity="0.7"/>
<path d="M209.462 124V118.448H210.214V124H209.462ZM209.974 121.56V120.872H212.87V121.56H209.974ZM209.974 119.136V118.448H213.006V119.136H209.974ZM213.865 124V120.2H214.585V124H213.865ZM214.585 121.832L214.313 121.712C214.313 121.227 214.425 120.84 214.649 120.552C214.873 120.264 215.196 120.12 215.617 120.12C215.809 120.12 215.982 120.155 216.137 120.224C216.292 120.288 216.436 120.397 216.569 120.552L216.097 121.04C216.017 120.955 215.929 120.893 215.833 120.856C215.737 120.819 215.625 120.8 215.497 120.8C215.23 120.8 215.012 120.885 214.841 121.056C214.67 121.227 214.585 121.485 214.585 121.832ZM217.084 124V120.2H217.804V124H217.084ZM217.444 119.44C217.311 119.44 217.201 119.397 217.116 119.312C217.031 119.221 216.988 119.109 216.988 118.976C216.988 118.848 217.031 118.741 217.116 118.656C217.201 118.565 217.311 118.52 217.444 118.52C217.577 118.52 217.687 118.565 217.772 118.656C217.857 118.741 217.9 118.848 217.9 118.976C217.9 119.109 217.857 119.221 217.772 119.312C217.687 119.397 217.577 119.44 217.444 119.44Z" fill="black" fill-opacity="0.7"/>
<path d="M250.358 124.08C249.921 124.08 249.548 124 249.238 123.84C248.929 123.68 248.654 123.448 248.414 123.144L248.926 122.632C249.102 122.877 249.305 123.064 249.534 123.192C249.764 123.315 250.046 123.376 250.382 123.376C250.713 123.376 250.977 123.304 251.174 123.16C251.377 123.016 251.478 122.819 251.478 122.568C251.478 122.36 251.43 122.192 251.334 122.064C251.238 121.936 251.108 121.832 250.942 121.752C250.782 121.667 250.606 121.592 250.414 121.528C250.222 121.459 250.03 121.387 249.838 121.312C249.646 121.232 249.47 121.136 249.31 121.024C249.15 120.907 249.02 120.755 248.918 120.568C248.822 120.381 248.774 120.147 248.774 119.864C248.774 119.549 248.849 119.283 248.998 119.064C249.153 118.84 249.361 118.669 249.622 118.552C249.889 118.429 250.188 118.368 250.518 118.368C250.881 118.368 251.206 118.44 251.494 118.584C251.782 118.723 252.017 118.907 252.198 119.136L251.686 119.648C251.521 119.456 251.342 119.312 251.15 119.216C250.964 119.12 250.748 119.072 250.502 119.072C250.204 119.072 249.966 119.139 249.79 119.272C249.614 119.4 249.526 119.581 249.526 119.816C249.526 120.003 249.574 120.155 249.67 120.272C249.772 120.384 249.902 120.48 250.062 120.56C250.222 120.64 250.398 120.715 250.59 120.784C250.788 120.848 250.982 120.92 251.174 121C251.366 121.08 251.542 121.181 251.702 121.304C251.862 121.427 251.99 121.587 252.086 121.784C252.188 121.976 252.238 122.219 252.238 122.512C252.238 123.003 252.068 123.387 251.726 123.664C251.39 123.941 250.934 124.08 250.358 124.08ZM254.685 124.08C254.338 124.08 254.024 123.995 253.741 123.824C253.458 123.648 253.234 123.411 253.069 123.112C252.909 122.813 252.829 122.477 252.829 122.104C252.829 121.731 252.909 121.395 253.069 121.096C253.234 120.797 253.456 120.56 253.733 120.384C254.016 120.208 254.333 120.12 254.685 120.12C254.973 120.12 255.229 120.181 255.453 120.304C255.682 120.421 255.866 120.587 256.005 120.8C256.144 121.008 256.221 121.251 256.237 121.528V122.672C256.221 122.944 256.144 123.187 256.005 123.4C255.872 123.613 255.69 123.781 255.461 123.904C255.237 124.021 254.978 124.08 254.685 124.08ZM254.805 123.4C255.162 123.4 255.45 123.28 255.669 123.04C255.888 122.795 255.997 122.483 255.997 122.104C255.997 121.843 255.946 121.616 255.845 121.424C255.749 121.227 255.61 121.075 255.429 120.968C255.248 120.856 255.037 120.8 254.797 120.8C254.557 120.8 254.344 120.856 254.157 120.968C253.976 121.08 253.832 121.235 253.725 121.432C253.624 121.624 253.573 121.845 253.573 122.096C253.573 122.352 253.624 122.579 253.725 122.776C253.832 122.968 253.978 123.12 254.165 123.232C254.352 123.344 254.565 123.4 254.805 123.4ZM255.949 124V122.976L256.085 122.048L255.949 121.128V120.2H256.677V124H255.949ZM258.294 124V118.608H259.014V124H258.294ZM257.358 120.856V120.2H259.95V120.856H257.358Z" fill="black" fill-opacity="0.7"/>
<path d="M290.442 124.08C290.004 124.08 289.631 124 289.322 123.84C289.012 123.68 288.738 123.448 288.498 123.144L289.01 122.632C289.186 122.877 289.388 123.064 289.618 123.192C289.847 123.315 290.13 123.376 290.466 123.376C290.796 123.376 291.06 123.304 291.258 123.16C291.46 123.016 291.562 122.819 291.562 122.568C291.562 122.36 291.514 122.192 291.418 122.064C291.322 121.936 291.191 121.832 291.026 121.752C290.866 121.667 290.69 121.592 290.498 121.528C290.306 121.459 290.114 121.387 289.922 121.312C289.73 121.232 289.554 121.136 289.394 121.024C289.234 120.907 289.103 120.755 289.002 120.568C288.906 120.381 288.858 120.147 288.858 119.864C288.858 119.549 288.932 119.283 289.082 119.064C289.236 118.84 289.444 118.669 289.706 118.552C289.972 118.429 290.271 118.368 290.602 118.368C290.964 118.368 291.29 118.44 291.578 118.584C291.866 118.723 292.1 118.907 292.282 119.136L291.77 119.648C291.604 119.456 291.426 119.312 291.234 119.216C291.047 119.12 290.831 119.072 290.586 119.072C290.287 119.072 290.05 119.139 289.874 119.272C289.698 119.4 289.61 119.581 289.61 119.816C289.61 120.003 289.658 120.155 289.754 120.272C289.855 120.384 289.986 120.48 290.146 120.56C290.306 120.64 290.482 120.715 290.674 120.784C290.871 120.848 291.066 120.92 291.258 121C291.45 121.08 291.626 121.181 291.786 121.304C291.946 121.427 292.074 121.587 292.17 121.784C292.271 121.976 292.322 122.219 292.322 122.512C292.322 123.003 292.151 123.387 291.81 123.664C291.474 123.941 291.018 124.08 290.442 124.08ZM294.735 124.08C294.426 124.08 294.146 124.011 293.895 123.872C293.65 123.728 293.458 123.531 293.319 123.28C293.181 123.029 293.111 122.739 293.111 122.408V120.2H293.831V122.376C293.831 122.584 293.866 122.765 293.935 122.92C294.01 123.069 294.117 123.184 294.255 123.264C294.394 123.344 294.557 123.384 294.743 123.384C295.026 123.384 295.247 123.296 295.407 123.12C295.567 122.939 295.647 122.691 295.647 122.376V120.2H296.367V122.408C296.367 122.739 296.298 123.029 296.159 123.28C296.021 123.531 295.829 123.728 295.583 123.872C295.343 124.011 295.061 124.08 294.735 124.08ZM300.02 124V121.784C300.02 121.496 299.93 121.259 299.748 121.072C299.567 120.885 299.332 120.792 299.044 120.792C298.852 120.792 298.682 120.835 298.532 120.92C298.383 121.005 298.266 121.123 298.18 121.272C298.095 121.421 298.052 121.592 298.052 121.784L297.756 121.616C297.756 121.328 297.82 121.072 297.948 120.848C298.076 120.624 298.255 120.448 298.484 120.32C298.714 120.187 298.972 120.12 299.26 120.12C299.548 120.12 299.802 120.192 300.02 120.336C300.244 120.48 300.42 120.669 300.548 120.904C300.676 121.133 300.74 121.379 300.74 121.64V124H300.02ZM297.332 124V120.2H298.052V124H297.332Z" fill="black" fill-opacity="0.7"/>
</svg>
