<svg width="360" height="167" viewBox="0 0 360 167" fill="none" xmlns="http://www.w3.org/2000/svg">
<path d="M366 56.5145C330.067 67.0207 290.864 64.5507 256.994 49.6428L253.792 48.2329L253.765 48.2216L253.741 48.2073L223.834 30.6557C207.169 20.8754 186.901 17.0459 167.144 19.9445C150.937 22.3225 135.979 29.0989 124.36 39.3265L107.558 54.117C94.1302 65.9382 75.0431 71.3228 56.3104 68.5745C39.6911 66.1363 22.6912 70.1945 9.74854 79.6892L7.21809 81.5451C-12.9217 96.3196 -41.0869 99.1973 -64.5365 88.8765L-82 81.1894V167H366V56.5145Z" fill="url(#paint0_linear_1001_11300)"/>
<path d="M366 56.5098C330.067 67.0146 290.864 64.5449 256.994 49.639L253.792 48.2292L253.765 48.218L253.741 48.2037L223.834 30.6543C207.169 20.8752 186.901 17.0462 167.144 19.9443C150.937 22.322 135.979 29.0976 124.36 39.3239L107.558 54.1126C94.1302 65.9323 75.0431 71.3163 56.3104 68.5683C39.6911 66.1304 22.6912 70.1881 9.74854 79.6816L7.2181 81.5373C-12.9217 96.3099 -41.0869 99.1872 -64.5365 88.8677L-82 81.1815" stroke="#EFEBF1" stroke-opacity="0.5" stroke-width="0.8"/>
<path d="M34.0251 64.4291C33.9538 61.9719 33.1625 60.0015 32.2578 60.0276L32.4643 67.154V76.0733C33.1532 76.0733 33.7332 75.4236 33.9047 73.9657C34.0542 72.748 33.3669 69.4427 33.2544 68.405C33.7586 67.6493 34.075 66.1482 34.0251 64.4291Z" fill="#118411"/>
<path d="M38.5414 60.0388C38.2848 60.0352 38.0731 60.2405 38.0695 60.4974L38.027 63.3713L37.6338 63.3656L37.6764 60.4917C37.6802 60.2345 37.4747 60.0235 37.218 60.0196C36.9608 60.0159 36.7495 60.2209 36.7457 60.4781L36.7033 63.3521L36.3101 63.3464L36.3525 60.4725C36.3561 60.2153 36.1508 60.004 35.8938 60C35.6367 59.9964 35.4253 60.2017 35.4217 60.4586L35.3793 63.3325C35.3597 64.6582 36.1449 65.7448 37.1333 65.7595C38.1212 65.7738 38.938 64.7114 38.9577 63.3854L39.0001 60.5115C39.0038 60.2542 38.7988 60.0429 38.5414 60.0388Z" fill="#118411"/>
<path d="M36.8283 64.5879H37.459C37.459 64.5879 37.9677 74.3051 37.988 74.3936C38.0084 74.4819 38.2525 76.0722 37.1843 76.0722C36.1163 76.0722 36.3805 74.3494 36.3805 74.3494L36.8283 64.5879Z" fill="#118411"/>
<path d="M28.7421 64.5879H29.3728C29.3728 64.5879 29.8817 74.3052 29.902 74.3936C29.9222 74.4821 30.1665 76.0723 29.0983 76.0723C28.0302 76.0723 28.2946 74.3497 28.2946 74.3497L28.7421 64.5879Z" fill="#118411"/>
<path d="M31.2122 63.653C31.2122 64.8164 30.2693 65.7594 29.1061 65.7594C27.9428 65.7594 27 64.8164 27 63.653C27 62.4898 27.4739 60.0273 29.1061 60.0273C30.7384 60.0273 31.2122 62.49 31.2122 63.653Z" fill="#118411"/>
<path d="M28.1343 64.3074C28.102 63.4709 28.3748 61.6864 29.549 61.6415C29.9648 61.6256 30.2843 61.8362 30.5254 62.1517C30.3005 61.4114 29.8616 60.6904 29.1044 60.7196C27.9306 60.7647 27.6575 62.5491 27.69 63.3856C27.7053 63.7879 27.8771 64.1463 28.143 64.4077C28.1397 64.3744 28.1357 64.3413 28.1343 64.3074Z" fill="white"/>
<path d="M21.8277 94.048C22.4904 94.048 22.9571 94.0293 23.2277 93.992C23.2651 94.1227 23.2837 94.2487 23.2837 94.37C23.2837 94.8087 23.1017 95.028 22.7377 95.028C22.6724 95.028 22.3597 95.0233 21.7997 95.014C21.2491 95.0047 20.7684 95 20.3577 95C19.5551 95 19.0091 95.0047 18.7197 95.014C18.6731 94.846 18.6497 94.706 18.6497 94.594C18.6497 94.202 18.9204 94.006 19.4617 94.006H20.3577C20.3577 93.838 20.3624 93.3433 20.3717 92.522C20.3811 91.7007 20.3857 90.9493 20.3857 90.268C20.3857 88.952 20.3717 87.776 20.3437 86.74C19.3544 86.852 18.7897 86.922 18.6497 86.95C18.6217 86.81 18.6077 86.684 18.6077 86.572C18.6077 86.1333 18.7897 85.8813 19.1537 85.816C20.1617 85.6573 20.8524 85.578 21.2257 85.578C21.3844 85.578 21.5244 85.6293 21.6457 85.732C21.7764 85.8347 21.8417 86.0027 21.8417 86.236C21.8417 86.2547 21.8231 86.8193 21.7857 87.93C21.7484 89.0407 21.7297 90.0207 21.7297 90.87C21.7297 92.4193 21.7624 93.4787 21.8277 94.048ZM29.1099 87.356C28.2139 88.448 27.3272 89.6847 26.4499 91.066C26.8606 91.094 27.2852 91.108 27.7239 91.108C28.1906 91.108 28.6432 91.094 29.0819 91.066C29.0819 90.0673 29.0912 88.8307 29.1099 87.356ZM29.0399 85.746C29.2172 85.634 29.5439 85.578 30.0199 85.578C30.1506 85.578 30.3279 85.5873 30.5519 85.606C30.5519 85.634 30.5426 85.8347 30.5239 86.208C30.5052 86.5813 30.4819 87.0993 30.4539 87.762C30.4352 88.4153 30.4259 89.0967 30.4259 89.806V91.024C31.1166 90.968 31.5739 90.8887 31.7979 90.786C31.8726 90.9913 31.9099 91.206 31.9099 91.43C31.9099 91.7567 31.8166 91.9573 31.6299 92.032C31.4059 92.1253 30.9999 92.1767 30.4119 92.186C30.4119 93.5113 30.5099 94.4587 30.7059 95.028C30.5006 95.1027 30.2486 95.14 29.9499 95.14C29.6046 95.14 29.3666 95.0793 29.2359 94.958C29.1146 94.8367 29.0539 94.6313 29.0539 94.342C29.0539 93.978 29.0632 93.264 29.0819 92.2C27.1126 92.2 25.8666 92.1673 25.3439 92.102C25.1292 92.074 25.0219 91.8593 25.0219 91.458C25.0219 91.318 25.0312 91.1733 25.0499 91.024C25.4512 90.3333 26.1139 89.372 27.0379 88.14C27.9619 86.908 28.6292 86.11 29.0399 85.746ZM38.3241 93.838C37.6988 94.706 36.8588 95.14 35.8041 95.14C34.7494 95.14 33.9094 94.7107 33.2841 93.852C32.6588 92.984 32.3461 91.822 32.3461 90.366C32.3461 88.9007 32.6588 87.7387 33.2841 86.88C33.9094 86.012 34.7494 85.578 35.8041 85.578C36.8588 85.578 37.6988 86.012 38.3241 86.88C38.9588 87.7387 39.2761 88.9007 39.2761 90.366C39.2761 91.8127 38.9588 92.97 38.3241 93.838ZM37.7641 90.59C37.7641 89.946 37.6941 89.3347 37.5541 88.756C37.4234 88.168 37.2041 87.664 36.8961 87.244C36.5881 86.824 36.2288 86.614 35.8181 86.614C35.2488 86.614 34.7774 86.9407 34.4041 87.594C34.0401 88.238 33.8581 89.0267 33.8581 89.96C33.8581 90.6507 33.9234 91.304 34.0541 91.92C34.1941 92.5267 34.4134 93.0447 34.7121 93.474C35.0201 93.894 35.3841 94.104 35.8041 94.104C36.3921 94.104 36.8634 93.768 37.2181 93.096C37.5821 92.424 37.7641 91.5887 37.7641 90.59ZM45.8163 93.838C45.1909 94.706 44.3509 95.14 43.2963 95.14C42.2416 95.14 41.4016 94.7107 40.7763 93.852C40.1509 92.984 39.8383 91.822 39.8383 90.366C39.8383 88.9007 40.1509 87.7387 40.7763 86.88C41.4016 86.012 42.2416 85.578 43.2963 85.578C44.3509 85.578 45.1909 86.012 45.8163 86.88C46.4509 87.7387 46.7683 88.9007 46.7683 90.366C46.7683 91.8127 46.4509 92.97 45.8163 93.838ZM45.2563 90.59C45.2563 89.946 45.1863 89.3347 45.0463 88.756C44.9156 88.168 44.6963 87.664 44.3883 87.244C44.0803 86.824 43.7209 86.614 43.3103 86.614C42.7409 86.614 42.2696 86.9407 41.8963 87.594C41.5323 88.238 41.3503 89.0267 41.3503 89.96C41.3503 90.6507 41.4156 91.304 41.5463 91.92C41.6863 92.5267 41.9056 93.0447 42.2043 93.474C42.5123 93.894 42.8763 94.104 43.2963 94.104C43.8843 94.104 44.3556 93.768 44.7103 93.096C45.0743 92.424 45.2563 91.5887 45.2563 90.59ZM27.7911 102.88C27.4844 102.88 27.1344 103.03 26.7411 103.33C26.7478 103.583 26.7511 104.133 26.7511 104.98C26.7578 105.827 26.7811 106.493 26.8211 106.98C26.6411 107.007 26.4744 107.02 26.3211 107.02C25.8878 107.02 25.6711 106.887 25.6711 106.62C25.6711 106.573 25.6744 106.41 25.6811 106.13C25.6944 105.85 25.7044 105.423 25.7111 104.85C25.7178 104.277 25.7211 103.613 25.7211 102.86C25.7211 101.287 25.6911 100.207 25.6311 99.62C25.8178 99.5867 25.9911 99.57 26.1511 99.57C26.6244 99.57 26.8611 99.7533 26.8611 100.12C26.8611 100.18 26.8511 100.323 26.8311 100.55C26.8178 100.77 26.8011 101.067 26.7811 101.44C26.7611 101.807 26.7511 102.197 26.7511 102.61C27.1911 102.303 27.6378 102.15 28.0911 102.15C28.5578 102.15 28.9111 102.277 29.1511 102.53C29.3978 102.777 29.5211 103.083 29.5211 103.45C29.5211 103.83 29.3944 104.173 29.1411 104.48C28.8944 104.787 28.5511 104.977 28.1111 105.05C28.3578 105.477 28.5978 105.807 28.8311 106.04C29.0244 106.227 29.1878 106.32 29.3211 106.32C29.4544 106.32 29.5844 106.3 29.7111 106.26C29.7844 106.427 29.8211 106.553 29.8211 106.64C29.8211 106.793 29.7378 106.91 29.5711 106.99C29.4111 107.063 29.2111 107.1 28.9711 107.1C28.6978 107.1 28.4378 106.96 28.1911 106.68C27.8378 106.273 27.4944 105.693 27.1611 104.94C27.0478 104.893 26.9911 104.803 26.9911 104.67C26.9911 104.583 27.0144 104.477 27.0611 104.35C27.2011 104.39 27.3511 104.41 27.5111 104.41C27.8044 104.41 28.0344 104.323 28.2011 104.15C28.3744 103.977 28.4611 103.777 28.4611 103.55C28.4611 103.363 28.4011 103.207 28.2811 103.08C28.1678 102.947 28.0044 102.88 27.7911 102.88ZM32.8827 106.38C33.0627 106.38 33.2494 106.333 33.4427 106.24C33.6361 106.147 33.7794 106.013 33.8727 105.84C34.1994 106.013 34.3627 106.2 34.3627 106.4C34.3627 106.627 34.2061 106.8 33.8927 106.92C33.5794 107.04 33.2294 107.1 32.8427 107.1C32.5561 107.1 32.2727 107.053 31.9927 106.96C31.7194 106.86 31.4627 106.717 31.2227 106.53C30.9827 106.343 30.7894 106.09 30.6427 105.77C30.5027 105.45 30.4327 105.083 30.4327 104.67C30.4327 103.843 30.6727 103.217 31.1527 102.79C31.6327 102.363 32.1794 102.15 32.7927 102.15C33.1661 102.15 33.5194 102.24 33.8527 102.42C34.1927 102.593 34.3627 102.837 34.3627 103.15C34.3627 103.29 34.2927 103.403 34.1527 103.49C34.0127 103.577 33.8227 103.633 33.5827 103.66C33.5294 103.42 33.4094 103.233 33.2227 103.1C33.0361 102.967 32.8461 102.9 32.6527 102.9C32.3327 102.9 32.0661 103.053 31.8527 103.36C31.6394 103.667 31.5327 104.067 31.5327 104.56C31.5327 105.193 31.6561 105.657 31.9027 105.95C32.1561 106.237 32.4827 106.38 32.8827 106.38ZM37.7214 105.57C37.7214 105.263 37.7281 105.027 37.7414 104.86C37.5414 104.887 37.3947 104.907 37.3014 104.92C37.2147 104.933 37.0947 104.953 36.9414 104.98C36.7881 105.007 36.6747 105.037 36.6014 105.07C36.5347 105.103 36.4614 105.143 36.3814 105.19C36.3014 105.237 36.2447 105.297 36.2114 105.37C36.1781 105.437 36.1614 105.517 36.1614 105.61C36.1614 105.877 36.2281 106.073 36.3614 106.2C36.4947 106.327 36.6647 106.39 36.8714 106.39C37.2114 106.39 37.5014 106.263 37.7414 106.01C37.7281 105.923 37.7214 105.777 37.7214 105.57ZM37.7614 104.25C37.7614 104.023 37.7547 103.85 37.7414 103.73C37.7347 103.61 37.7081 103.473 37.6614 103.32C37.6214 103.167 37.5481 103.057 37.4414 102.99C37.3414 102.917 37.2047 102.88 37.0314 102.88C36.8114 102.88 36.6014 102.953 36.4014 103.1C36.2081 103.24 36.0681 103.437 35.9814 103.69C35.3881 103.683 35.0914 103.507 35.0914 103.16C35.0914 102.873 35.2914 102.633 35.6914 102.44C36.0981 102.247 36.5581 102.15 37.0714 102.15C37.6847 102.15 38.1314 102.277 38.4114 102.53C38.6981 102.783 38.8414 103.237 38.8414 103.89C38.8414 103.91 38.8381 104.067 38.8314 104.36C38.8247 104.653 38.8214 104.94 38.8214 105.22C38.8214 105.98 38.8847 106.55 39.0114 106.93C38.8181 107.003 38.6281 107.04 38.4414 107.04C38.0681 107.04 37.8447 106.887 37.7714 106.58C37.3714 106.927 36.9214 107.1 36.4214 107.1C36.0347 107.1 35.7114 106.98 35.4514 106.74C35.1981 106.5 35.0714 106.147 35.0714 105.68C35.0714 105.307 35.1514 105.03 35.3114 104.85C35.4714 104.67 35.6847 104.537 35.9514 104.45C36.3514 104.323 36.9547 104.257 37.7614 104.25ZM40.4968 99.57C40.9701 99.57 41.2068 99.7533 41.2068 100.12C41.2068 100.16 41.1968 100.317 41.1768 100.59C41.1568 100.857 41.1368 101.243 41.1168 101.75C41.1035 102.257 41.0968 102.82 41.0968 103.44C41.0968 104.72 41.1101 105.543 41.1368 105.91C41.1635 106.277 41.2401 106.61 41.3668 106.91C41.1735 106.997 40.9768 107.04 40.7768 107.04C40.4901 107.04 40.2968 106.98 40.1968 106.86C40.0968 106.733 40.0468 106.523 40.0468 106.23C40.0601 104.977 40.0668 104.057 40.0668 103.47C40.0668 101.45 40.0368 100.167 39.9768 99.62C40.1635 99.5867 40.3368 99.57 40.4968 99.57Z" fill="black"/>
<defs>
<linearGradient id="paint0_linear_1001_11300" x1="142" y1="19" x2="142" y2="167" gradientUnits="userSpaceOnUse">
<stop stop-color="#1BAE36" stop-opacity="0.2"/>
<stop offset="1" stop-color="#19A333" stop-opacity="0"/>
</linearGradient>
</defs>
</svg>
