<svg width="89" height="27" viewBox="0 0 89 27" fill="none" xmlns="http://www.w3.org/2000/svg">
<g filter="url(#filter0_dd_1001_9799)">
<rect x="3" y="3" width="81" height="19" rx="5" fill="url(#paint0_linear_1001_9799)" shape-rendering="crispEdges"/>
<path d="M26.3317 9.84C26.5117 9.79333 26.6951 9.77 26.8817 9.77C27.0951 9.77 27.2451 9.80667 27.3317 9.88C27.4184 9.95333 27.4617 10.08 27.4617 10.26C27.4617 10.9933 27.2284 11.9767 26.7617 13.21C26.2951 14.4367 25.8184 15.36 25.3317 15.98C25.1584 16.2 25.0017 16.3467 24.8617 16.42C24.7284 16.4933 24.5651 16.53 24.3717 16.53C24.1984 16.53 24.0684 16.52 23.9817 16.5C23.7684 15.4267 23.4051 14.2 22.8917 12.82C22.3851 11.44 21.9517 10.5733 21.5917 10.22C21.9451 9.96 22.2417 9.83 22.4817 9.83C22.7217 9.83 22.9051 9.95333 23.0317 10.2C23.2984 10.7467 23.5984 11.5233 23.9317 12.53C24.2717 13.5367 24.5484 14.46 24.7617 15.3C25.2017 14.66 25.5784 13.85 25.8917 12.87C26.2117 11.89 26.3717 11.0433 26.3717 10.33C26.3717 10.0967 26.3584 9.93333 26.3317 9.84ZM28.703 11.72C29.183 11.72 29.423 11.8967 29.423 12.25C29.423 12.29 29.413 12.4267 29.393 12.66C29.373 12.8867 29.353 13.17 29.333 13.51C29.3196 13.85 29.313 14.1733 29.313 14.48C29.313 15.3733 29.3996 16.0233 29.573 16.43C29.4063 16.5033 29.2163 16.54 29.003 16.54C28.7096 16.54 28.5096 16.48 28.403 16.36C28.303 16.24 28.253 16.0367 28.253 15.75C28.253 15.6433 28.2563 15.3867 28.263 14.98C28.2696 14.5667 28.273 14.25 28.273 14.03C28.273 13.0633 28.243 12.3067 28.183 11.76C28.343 11.7333 28.5163 11.72 28.703 11.72ZM28.753 11.3C28.553 11.3 28.383 11.2333 28.243 11.1C28.103 10.9667 28.033 10.7967 28.033 10.59C28.033 10.39 28.1063 10.2233 28.253 10.09C28.3996 9.95 28.573 9.88 28.773 9.88C28.9663 9.88 29.133 9.95 29.273 10.09C29.413 10.2233 29.483 10.39 29.483 10.59C29.483 10.79 29.4096 10.96 29.263 11.1C29.1163 11.2333 28.9463 11.3 28.753 11.3ZM32.2632 14.53C32.0832 14.53 31.8399 14.5233 31.5332 14.51C31.5999 14.9833 31.7499 15.33 31.9832 15.55C32.2232 15.77 32.5165 15.88 32.8632 15.88C33.0432 15.88 33.2299 15.8333 33.4232 15.74C33.6165 15.6467 33.7599 15.5133 33.8532 15.34C34.1799 15.5133 34.3432 15.7 34.3432 15.9C34.3432 16.1267 34.1865 16.3 33.8732 16.42C33.5599 16.54 33.2099 16.6 32.8232 16.6C32.1965 16.6 31.6365 16.3933 31.1432 15.98C30.6565 15.5667 30.4132 14.97 30.4132 14.19C30.4132 13.37 30.6465 12.7433 31.1132 12.31C31.5865 11.87 32.1432 11.65 32.7832 11.65C33.2965 11.65 33.7099 11.79 34.0232 12.07C34.3432 12.35 34.5032 12.6833 34.5032 13.07C34.5032 13.3833 34.4432 13.6433 34.3232 13.85C34.2099 14.05 34.0399 14.1967 33.8132 14.29C33.5865 14.3833 33.3565 14.4467 33.1232 14.48C32.8899 14.5133 32.6032 14.53 32.2632 14.53ZM32.6932 12.38C32.3799 12.38 32.1132 12.5 31.8932 12.74C31.6732 12.98 31.5432 13.36 31.5032 13.88C31.9299 13.88 32.2432 13.87 32.4432 13.85C33.0899 13.77 33.4132 13.5167 33.4132 13.09C33.4132 12.8967 33.3432 12.73 33.2032 12.59C33.0699 12.45 32.8999 12.38 32.6932 12.38ZM41.3767 11.65C41.7501 11.65 41.9367 11.7833 41.9367 12.05C41.9367 12.5033 41.7701 13.19 41.4367 14.11C41.1034 15.03 40.7667 15.7033 40.4267 16.13C40.2067 16.3967 39.9567 16.53 39.6767 16.53C39.4767 16.53 39.3234 16.5167 39.2167 16.49C39.0767 15.7833 38.8867 15.0567 38.6467 14.31C38.3267 15.13 38.0101 15.7367 37.6967 16.13C37.4834 16.3967 37.2367 16.53 36.9567 16.53C36.7567 16.53 36.6001 16.5167 36.4867 16.49C36.3334 15.71 36.0834 14.8333 35.7367 13.86C35.3901 12.88 35.0967 12.27 34.8567 12.03C35.1501 11.8033 35.4134 11.69 35.6467 11.69C35.8734 11.69 36.0434 11.8067 36.1567 12.04C36.2767 12.2733 36.4567 12.7433 36.6967 13.45C36.9434 14.1567 37.1467 14.79 37.3067 15.35C37.5067 14.9967 37.7067 14.4833 37.9067 13.81C38.1067 13.13 38.2067 12.54 38.2067 12.04C38.2067 11.92 38.1967 11.81 38.1767 11.71C38.3234 11.67 38.4834 11.65 38.6567 11.65C39.0301 11.65 39.2167 11.7833 39.2167 12.05C39.2167 12.23 39.1867 12.4433 39.1267 12.69C39.5334 13.77 39.8334 14.6567 40.0267 15.35C40.2467 14.9767 40.4534 14.4633 40.6467 13.81C40.8401 13.15 40.9367 12.56 40.9367 12.04C40.9367 11.92 40.9267 11.81 40.9067 11.71C41.0401 11.67 41.1967 11.65 41.3767 11.65ZM46.9589 13.38C47.3389 13.38 47.6356 13.26 47.8489 13.02C48.0622 12.7733 48.1689 12.4433 48.1689 12.03C48.1689 11.4633 48.0489 11.0733 47.8089 10.86C47.5689 10.6467 47.1956 10.54 46.6889 10.54C46.5489 10.54 46.3456 10.5533 46.0789 10.58C46.1056 10.94 46.1189 11.56 46.1189 12.44V13.21C46.3389 13.3233 46.6189 13.38 46.9589 13.38ZM45.0689 14.19V12.19C45.0689 11.27 45.0256 10.5033 44.9389 9.89C45.4522 9.81 45.9722 9.77 46.4989 9.77C48.3722 9.77 49.3089 10.5067 49.3089 11.98C49.3089 12.6933 49.1056 13.2367 48.6989 13.61C48.2989 13.9833 47.8256 14.17 47.2789 14.17C46.8322 14.17 46.4456 14.0633 46.1189 13.85V14.54C46.1189 15.4067 46.1822 16.0433 46.3089 16.45C46.1489 16.5033 45.9456 16.53 45.6989 16.53C45.4389 16.53 45.2656 16.4867 45.1789 16.4C45.0922 16.3133 45.0489 16.1667 45.0489 15.96C45.0489 15.8533 45.0522 15.59 45.0589 15.17C45.0656 14.75 45.0689 14.4233 45.0689 14.19ZM50.5066 9.07C50.9799 9.07 51.2166 9.25333 51.2166 9.62C51.2166 9.66 51.2066 9.81667 51.1866 10.09C51.1666 10.3567 51.1466 10.7433 51.1266 11.25C51.1132 11.7567 51.1066 12.32 51.1066 12.94C51.1066 14.22 51.1199 15.0433 51.1466 15.41C51.1732 15.7767 51.2499 16.11 51.3766 16.41C51.1832 16.4967 50.9866 16.54 50.7866 16.54C50.4999 16.54 50.3066 16.48 50.2066 16.36C50.1066 16.2333 50.0566 16.0233 50.0566 15.73C50.0699 14.4767 50.0766 13.5567 50.0766 12.97C50.0766 10.95 50.0466 9.66667 49.9866 9.12C50.1732 9.08667 50.3466 9.07 50.5066 9.07ZM54.9187 15.07C54.9187 14.7633 54.9253 14.5267 54.9387 14.36C54.7387 14.3867 54.592 14.4067 54.4987 14.42C54.412 14.4333 54.292 14.4533 54.1387 14.48C53.9853 14.5067 53.872 14.5367 53.7987 14.57C53.732 14.6033 53.6587 14.6433 53.5787 14.69C53.4987 14.7367 53.442 14.7967 53.4087 14.87C53.3753 14.9367 53.3587 15.0167 53.3587 15.11C53.3587 15.3767 53.4253 15.5733 53.5587 15.7C53.692 15.8267 53.862 15.89 54.0687 15.89C54.4087 15.89 54.6987 15.7633 54.9387 15.51C54.9253 15.4233 54.9187 15.2767 54.9187 15.07ZM54.9587 13.75C54.9587 13.5233 54.952 13.35 54.9387 13.23C54.932 13.11 54.9053 12.9733 54.8587 12.82C54.8187 12.6667 54.7453 12.5567 54.6387 12.49C54.5387 12.4167 54.402 12.38 54.2287 12.38C54.0087 12.38 53.7987 12.4533 53.5987 12.6C53.4053 12.74 53.2653 12.9367 53.1787 13.19C52.5853 13.1833 52.2887 13.0067 52.2887 12.66C52.2887 12.3733 52.4887 12.1333 52.8887 11.94C53.2953 11.7467 53.7553 11.65 54.2687 11.65C54.882 11.65 55.3287 11.7767 55.6087 12.03C55.8953 12.2833 56.0387 12.7367 56.0387 13.39C56.0387 13.41 56.0353 13.5667 56.0287 13.86C56.022 14.1533 56.0187 14.44 56.0187 14.72C56.0187 15.48 56.082 16.05 56.2087 16.43C56.0153 16.5033 55.8253 16.54 55.6387 16.54C55.2653 16.54 55.042 16.3867 54.9687 16.08C54.5687 16.4267 54.1187 16.6 53.6187 16.6C53.232 16.6 52.9087 16.48 52.6487 16.24C52.3953 16 52.2687 15.6467 52.2687 15.18C52.2687 14.8067 52.3487 14.53 52.5087 14.35C52.6687 14.17 52.882 14.0367 53.1487 13.95C53.5487 13.8233 54.152 13.7567 54.9587 13.75ZM57.1541 11.76C57.2141 11.7533 57.3641 11.75 57.6041 11.75C57.5907 11.3567 57.5707 11.02 57.5441 10.74C57.6841 10.7133 57.8474 10.7 58.0341 10.7C58.4941 10.7 58.7241 10.8233 58.7241 11.07C58.7241 11.23 58.7141 11.46 58.6941 11.76C59.4141 11.76 59.9141 11.74 60.1941 11.7C60.2341 11.7733 60.2541 11.8767 60.2541 12.01C60.2541 12.19 60.2141 12.3133 60.1341 12.38C60.0541 12.44 59.9274 12.4733 59.7541 12.48C59.5541 12.4867 59.1941 12.49 58.6741 12.49C58.6607 13.1167 58.6541 13.7933 58.6541 14.52C58.6541 14.7333 58.6607 14.91 58.6741 15.05C58.6874 15.19 58.7174 15.33 58.7641 15.47C58.8107 15.61 58.8807 15.7167 58.9741 15.79C59.0674 15.8567 59.1874 15.89 59.3341 15.89C59.5407 15.89 59.7541 15.7733 59.9741 15.54C60.1474 15.7333 60.2341 15.8967 60.2341 16.03C60.2341 16.2233 60.1341 16.3667 59.9341 16.46C59.7407 16.5533 59.5207 16.6 59.2741 16.6C58.1607 16.6 57.6041 15.9933 57.6041 14.78C57.6041 14.4667 57.6041 14.0333 57.6041 13.48C57.6107 12.92 57.6141 12.5867 57.6141 12.48C57.1874 12.5067 56.8841 12.5333 56.7041 12.56C56.6774 12.4867 56.6641 12.3767 56.6641 12.23C56.6641 12.0567 56.7007 11.94 56.7741 11.88C56.8541 11.82 56.9807 11.78 57.1541 11.76ZM62.6148 14.53C62.4348 14.53 62.1914 14.5233 61.8848 14.51C61.9514 14.9833 62.1014 15.33 62.3348 15.55C62.5748 15.77 62.8681 15.88 63.2148 15.88C63.3948 15.88 63.5814 15.8333 63.7748 15.74C63.9681 15.6467 64.1114 15.5133 64.2048 15.34C64.5314 15.5133 64.6948 15.7 64.6948 15.9C64.6948 16.1267 64.5381 16.3 64.2248 16.42C63.9114 16.54 63.5614 16.6 63.1748 16.6C62.5481 16.6 61.9881 16.3933 61.4948 15.98C61.0081 15.5667 60.7648 14.97 60.7648 14.19C60.7648 13.37 60.9981 12.7433 61.4648 12.31C61.9381 11.87 62.4948 11.65 63.1348 11.65C63.6481 11.65 64.0614 11.79 64.3748 12.07C64.6948 12.35 64.8548 12.6833 64.8548 13.07C64.8548 13.3833 64.7948 13.6433 64.6748 13.85C64.5614 14.05 64.3914 14.1967 64.1648 14.29C63.9381 14.3833 63.7081 14.4467 63.4748 14.48C63.2414 14.5133 62.9548 14.53 62.6148 14.53ZM63.0448 12.38C62.7314 12.38 62.4648 12.5 62.2448 12.74C62.0248 12.98 61.8948 13.36 61.8548 13.88C62.2814 13.88 62.5948 13.87 62.7948 13.85C63.4414 13.77 63.7648 13.5167 63.7648 13.09C63.7648 12.8967 63.6948 12.73 63.5548 12.59C63.4214 12.45 63.2514 12.38 63.0448 12.38Z" fill="white"/>
</g>
<defs>
<filter id="filter0_dd_1001_9799" x="0" y="0" width="89" height="27" filterUnits="userSpaceOnUse" color-interpolation-filters="sRGB">
<feFlood flood-opacity="0" result="BackgroundImageFix"/>
<feColorMatrix in="SourceAlpha" type="matrix" values="0 0 0 0 0 0 0 0 0 0 0 0 0 0 0 0 0 0 127 0" result="hardAlpha"/>
<feOffset dx="1" dy="1"/>
<feGaussianBlur stdDeviation="2"/>
<feComposite in2="hardAlpha" operator="out"/>
<feColorMatrix type="matrix" values="0 0 0 0 0.74902 0 0 0 0 0.482353 0 0 0 0 0.72549 0 0 0 0.2 0"/>
<feBlend mode="normal" in2="BackgroundImageFix" result="effect1_dropShadow_1001_9799"/>
<feColorMatrix in="SourceAlpha" type="matrix" values="0 0 0 0 0 0 0 0 0 0 0 0 0 0 0 0 0 0 127 0" result="hardAlpha"/>
<feOffset dx="1" dy="1"/>
<feGaussianBlur stdDeviation="2"/>
<feComposite in2="hardAlpha" operator="out"/>
<feColorMatrix type="matrix" values="0 0 0 0 0.952941 0 0 0 0 0.901961 0 0 0 0 0.94902 0 0 0 0.4 0"/>
<feBlend mode="normal" in2="effect1_dropShadow_1001_9799" result="effect2_dropShadow_1001_9799"/>
<feBlend mode="normal" in="SourceGraphic" in2="effect2_dropShadow_1001_9799" result="shape"/>
</filter>
<linearGradient id="paint0_linear_1001_9799" x1="43.5" y1="3" x2="43.5" y2="22" gradientUnits="userSpaceOnUse">
<stop stop-color="#93D056"/>
<stop offset="1" stop-color="#35A329"/>
</linearGradient>
</defs>
</svg>
