<svg width="59" height="21" viewBox="0 0 59 21" fill="none" xmlns="http://www.w3.org/2000/svg">
<path d="M2.09916 16.504C2.40316 16.504 2.64049 16.408 2.81116 16.216C2.98182 16.0187 3.06716 15.7547 3.06716 15.424C3.06716 14.9707 2.97116 14.6587 2.77916 14.488C2.58716 14.3173 2.28849 14.232 1.88316 14.232C1.77116 14.232 1.60849 14.2427 1.39516 14.264C1.41649 14.552 1.42716 15.048 1.42716 15.752V16.368C1.60316 16.4587 1.82716 16.504 2.09916 16.504ZM0.587156 17.152V15.552C0.587156 14.816 0.55249 14.2027 0.483156 13.712C0.893823 13.648 1.30982 13.616 1.73116 13.616C3.22982 13.616 3.97916 14.2053 3.97916 15.384C3.97916 15.9547 3.81649 16.3893 3.49116 16.688C3.17116 16.9867 2.79249 17.136 2.35516 17.136C1.99782 17.136 1.68849 17.0507 1.42716 16.88V17.432C1.42716 18.1253 1.47782 18.6347 1.57916 18.96C1.45116 19.0027 1.28849 19.024 1.09116 19.024C0.883156 19.024 0.74449 18.9893 0.675156 18.92C0.605823 18.8507 0.571156 18.7333 0.571156 18.568C0.571156 18.4827 0.573823 18.272 0.579156 17.936C0.58449 17.6 0.587156 17.3387 0.587156 17.152ZM4.93728 15.176C5.12928 15.176 5.26528 15.2107 5.34528 15.28C5.43061 15.3493 5.47328 15.4587 5.47328 15.608V15.704C5.78261 15.3147 6.08395 15.12 6.37728 15.12C6.68661 15.12 6.84128 15.232 6.84128 15.456C6.84128 15.6053 6.74528 15.8 6.55328 16.04C6.44128 15.944 6.31595 15.896 6.17728 15.896C5.90528 15.896 5.65995 16.0427 5.44128 16.336C5.42528 16.6773 5.41728 17.024 5.41728 17.376C5.41728 18.0747 5.48928 18.592 5.63328 18.928C5.48928 18.9973 5.33195 19.032 5.16128 19.032C4.93195 19.032 4.77728 18.9813 4.69728 18.88C4.61728 18.7787 4.57728 18.616 4.57728 18.392C4.57728 18.328 4.57995 18.1467 4.58528 17.848C4.59061 17.5493 4.59328 17.3147 4.59328 17.144C4.59328 16.2533 4.56928 15.6107 4.52128 15.216C4.67595 15.1893 4.81461 15.176 4.93728 15.176ZM9.92134 17.2C9.92134 16.7733 9.83068 16.4187 9.64934 16.136C9.47334 15.848 9.23334 15.704 8.92934 15.704C8.62001 15.704 8.38001 15.8213 8.20934 16.056C8.03868 16.2907 7.95334 16.6027 7.95334 16.992C7.95334 17.424 8.03868 17.7813 8.20934 18.064C8.38534 18.3467 8.62534 18.488 8.92934 18.488C9.24401 18.488 9.48668 18.3707 9.65734 18.136C9.83334 17.9013 9.92134 17.5893 9.92134 17.2ZM8.92934 19.08C8.37468 19.08 7.92668 18.9013 7.58534 18.544C7.24934 18.1813 7.08134 17.6987 7.08134 17.096C7.08134 16.4933 7.24934 16.0133 7.58534 15.656C7.92668 15.2987 8.37468 15.12 8.92934 15.12C9.48934 15.12 9.94001 15.2987 10.2813 15.656C10.6227 16.0133 10.7933 16.4933 10.7933 17.096C10.7933 17.6987 10.6227 18.1813 10.2813 18.544C9.94001 18.9013 9.48934 19.08 8.92934 19.08ZM11.4897 15.208C11.5377 15.2027 11.6577 15.2 11.8497 15.2C11.839 14.8853 11.823 14.616 11.8017 14.392C11.9137 14.3707 12.0443 14.36 12.1937 14.36C12.5617 14.36 12.7457 14.4587 12.7457 14.656C12.7457 14.784 12.7377 14.968 12.7217 15.208C13.2977 15.208 13.6977 15.192 13.9217 15.16C13.9537 15.2187 13.9697 15.3013 13.9697 15.408C13.9697 15.552 13.9377 15.6507 13.8737 15.704C13.8097 15.752 13.7083 15.7787 13.5697 15.784C13.4097 15.7893 13.1217 15.792 12.7057 15.792C12.695 16.2933 12.6897 16.8347 12.6897 17.416C12.6897 17.5867 12.695 17.728 12.7057 17.84C12.7163 17.952 12.7403 18.064 12.7777 18.176C12.815 18.288 12.871 18.3733 12.9457 18.432C13.0203 18.4853 13.1163 18.512 13.2337 18.512C13.399 18.512 13.5697 18.4187 13.7457 18.232C13.8843 18.3867 13.9537 18.5173 13.9537 18.624C13.9537 18.7787 13.8737 18.8933 13.7137 18.968C13.559 19.0427 13.383 19.08 13.1857 19.08C12.295 19.08 11.8497 18.5947 11.8497 17.624C11.8497 17.3733 11.8497 17.0267 11.8497 16.584C11.855 16.136 11.8577 15.8693 11.8577 15.784C11.5163 15.8053 11.2737 15.8267 11.1297 15.848C11.1083 15.7893 11.0977 15.7013 11.0977 15.584C11.0977 15.4453 11.127 15.352 11.1857 15.304C11.2497 15.256 11.351 15.224 11.4897 15.208ZM15.0022 15.176C15.3862 15.176 15.5782 15.3173 15.5782 15.6C15.5782 15.632 15.5702 15.7413 15.5542 15.928C15.5382 16.1093 15.5222 16.336 15.5062 16.608C15.4956 16.88 15.4902 17.1387 15.4902 17.384C15.4902 18.0987 15.5596 18.6187 15.6982 18.944C15.5649 19.0027 15.4129 19.032 15.2422 19.032C15.0076 19.032 14.8476 18.984 14.7622 18.888C14.6822 18.792 14.6422 18.6293 14.6422 18.4C14.6422 18.3147 14.6449 18.1093 14.6502 17.784C14.6556 17.4533 14.6582 17.2 14.6582 17.024C14.6582 16.2507 14.6342 15.6453 14.5862 15.208C14.7142 15.1867 14.8529 15.176 15.0022 15.176ZM15.0422 14.84C14.8822 14.84 14.7462 14.7867 14.6342 14.68C14.5222 14.5733 14.4662 14.4373 14.4662 14.272C14.4662 14.112 14.5249 13.9787 14.6422 13.872C14.7596 13.76 14.8982 13.704 15.0582 13.704C15.2129 13.704 15.3462 13.76 15.4582 13.872C15.5702 13.9787 15.6262 14.112 15.6262 14.272C15.6262 14.432 15.5676 14.568 15.4502 14.68C15.3329 14.7867 15.1969 14.84 15.0422 14.84ZM17.8504 17.424C17.7064 17.424 17.5117 17.4187 17.2664 17.408C17.3197 17.7867 17.4397 18.064 17.6264 18.24C17.8184 18.416 18.0531 18.504 18.3304 18.504C18.4744 18.504 18.6237 18.4667 18.7784 18.392C18.9331 18.3173 19.0477 18.2107 19.1224 18.072C19.3837 18.2107 19.5144 18.36 19.5144 18.52C19.5144 18.7013 19.3891 18.84 19.1384 18.936C18.8877 19.032 18.6077 19.08 18.2984 19.08C17.7971 19.08 17.3491 18.9147 16.9544 18.584C16.5651 18.2533 16.3704 17.776 16.3704 17.152C16.3704 16.496 16.5571 15.9947 16.9304 15.648C17.3091 15.296 17.7544 15.12 18.2664 15.12C18.6771 15.12 19.0077 15.232 19.2584 15.456C19.5144 15.68 19.6424 15.9467 19.6424 16.256C19.6424 16.5067 19.5944 16.7147 19.4984 16.88C19.4077 17.04 19.2717 17.1573 19.0904 17.232C18.9091 17.3067 18.7251 17.3573 18.5384 17.384C18.3517 17.4107 18.1224 17.424 17.8504 17.424ZM18.1944 15.704C17.9437 15.704 17.7304 15.8 17.5544 15.992C17.3784 16.184 17.2744 16.488 17.2424 16.904C17.5837 16.904 17.8344 16.896 17.9944 16.88C18.5117 16.816 18.7704 16.6133 18.7704 16.272C18.7704 16.1173 18.7144 15.984 18.6024 15.872C18.4957 15.76 18.3597 15.704 18.1944 15.704ZM21.2932 15.568C21.6719 15.2693 22.0986 15.12 22.5732 15.12C22.8986 15.12 23.1626 15.216 23.3652 15.408C23.5679 15.6 23.6692 15.9093 23.6692 16.336C23.6692 16.3947 23.6639 16.6027 23.6532 16.96C23.6479 17.3173 23.6452 17.5787 23.6452 17.744C23.6452 18.1813 23.7146 18.576 23.8532 18.928C23.6879 18.9973 23.5386 19.032 23.4052 19.032C23.1866 19.032 23.0319 18.9867 22.9412 18.896C22.8506 18.8053 22.8052 18.6347 22.8052 18.384C22.8052 18.1067 22.8106 17.7733 22.8212 17.384C22.8319 16.9893 22.8372 16.7173 22.8372 16.568C22.8372 16.2747 22.7786 16.056 22.6612 15.912C22.5439 15.768 22.3919 15.696 22.2052 15.696C21.9226 15.696 21.6292 15.8347 21.3252 16.112C21.3359 16.8267 21.3412 17.3467 21.3412 17.672C21.3412 18.184 21.3572 18.6213 21.3892 18.984C21.2452 19.0053 21.1119 19.016 20.9892 19.016C20.6426 19.016 20.4692 18.9093 20.4692 18.696C20.4692 18.5413 20.4746 18.2907 20.4852 17.944C20.5012 17.5973 20.5092 17.2853 20.5092 17.008C20.5092 16.1227 20.4586 15.5413 20.3572 15.264C20.4852 15.2053 20.6239 15.176 20.7732 15.176C20.9279 15.176 21.0479 15.2 21.1332 15.248C21.2186 15.296 21.2719 15.4027 21.2932 15.568Z" fill="black"/>
<path d="M33.0032 19.08C32.6298 19.08 32.2912 19.0133 31.9872 18.88C31.6885 18.7413 31.4352 18.5413 31.2272 18.28L31.8512 17.656C31.9632 17.8267 32.1205 17.9627 32.3232 18.064C32.5258 18.1653 32.7472 18.216 32.9872 18.216C33.2165 18.216 33.4138 18.1733 33.5792 18.088C33.7445 18.0027 33.8725 17.8827 33.9632 17.728C34.0592 17.5733 34.1072 17.3947 34.1072 17.192C34.1072 16.9787 34.0592 16.7973 33.9632 16.648C33.8725 16.4987 33.7392 16.384 33.5632 16.304C33.3925 16.2187 33.1845 16.176 32.9392 16.176C32.8432 16.176 32.7445 16.184 32.6432 16.2C32.5418 16.2107 32.4512 16.2293 32.3712 16.256L32.7792 15.728C32.8912 15.6853 33.0085 15.6507 33.1312 15.624C33.2592 15.592 33.3818 15.576 33.4992 15.576C33.7872 15.576 34.0458 15.6453 34.2752 15.784C34.5098 15.9227 34.6938 16.1173 34.8272 16.368C34.9658 16.6133 35.0352 16.904 35.0352 17.24C35.0352 17.6027 34.9498 17.9227 34.7792 18.2C34.6085 18.4773 34.3712 18.6933 34.0672 18.848C33.7632 19.0027 33.4085 19.08 33.0032 19.08ZM32.3712 16.256V15.712L33.8672 13.968L34.9712 13.944L33.4112 15.736L32.3712 16.256ZM31.5072 14.224V13.4H34.9712V13.944L34.1792 14.224H31.5072ZM37.9475 19.08C37.5261 19.08 37.1395 18.9627 36.7875 18.728C36.4408 18.488 36.1635 18.152 35.9555 17.72C35.7475 17.288 35.6435 16.7787 35.6435 16.192C35.6435 15.6053 35.7448 15.0987 35.9475 14.672C36.1555 14.24 36.4328 13.9067 36.7795 13.672C37.1261 13.4373 37.5101 13.32 37.9315 13.32C38.3581 13.32 38.7448 13.4373 39.0915 13.672C39.4381 13.9067 39.7128 14.24 39.9155 14.672C40.1235 15.0987 40.2275 15.608 40.2275 16.2C40.2275 16.7867 40.1235 17.296 39.9155 17.728C39.7128 18.16 39.4381 18.4933 39.0915 18.728C38.7501 18.9627 38.3688 19.08 37.9475 19.08ZM37.9315 18.216C38.2088 18.216 38.4488 18.1413 38.6515 17.992C38.8541 17.8427 39.0115 17.6187 39.1235 17.32C39.2408 17.0213 39.2995 16.6453 39.2995 16.192C39.2995 15.744 39.2408 15.3707 39.1235 15.072C39.0115 14.7733 38.8515 14.552 38.6435 14.408C38.4408 14.2587 38.2035 14.184 37.9315 14.184C37.6595 14.184 37.4195 14.2587 37.2115 14.408C37.0088 14.552 36.8515 14.7733 36.7395 15.072C36.6275 15.3653 36.5715 15.7387 36.5715 16.192C36.5715 16.6453 36.6275 17.0213 36.7395 17.32C36.8515 17.6187 37.0088 17.8427 37.2115 17.992C37.4195 18.1413 37.6595 18.216 37.9315 18.216ZM40.5897 19.32L42.8297 13.08H43.6537L41.4137 19.32H40.5897ZM45.6646 19.08C45.2753 19.08 44.9286 19.0133 44.6246 18.88C44.3206 18.7413 44.0646 18.5413 43.8566 18.28L44.4806 17.656C44.5926 17.8267 44.7499 17.9627 44.9526 18.064C45.1606 18.1653 45.3926 18.216 45.6486 18.216C45.8833 18.216 46.0886 18.1733 46.2646 18.088C46.4406 18.0027 46.5793 17.88 46.6806 17.72C46.7819 17.56 46.8326 17.3707 46.8326 17.152C46.8326 16.9227 46.7819 16.7333 46.6806 16.584C46.5846 16.4293 46.4539 16.3147 46.2886 16.24C46.1286 16.16 45.9553 16.12 45.7686 16.12C45.5553 16.12 45.3633 16.144 45.1926 16.192C45.0273 16.24 44.8646 16.3253 44.7046 16.448L44.7286 15.872C44.8139 15.76 44.9126 15.6693 45.0246 15.6C45.1366 15.5253 45.2673 15.4693 45.4166 15.432C45.5659 15.3947 45.7419 15.376 45.9446 15.376C46.3393 15.376 46.6699 15.4587 46.9366 15.624C47.2086 15.7893 47.4139 16.0107 47.5526 16.288C47.6913 16.56 47.7606 16.864 47.7606 17.2C47.7606 17.5627 47.6699 17.8853 47.4886 18.168C47.3126 18.4507 47.0673 18.6747 46.7526 18.84C46.4379 19 46.0753 19.08 45.6646 19.08ZM44.7046 16.448L44.2006 15.944L44.4486 13.4H45.2886L45.0006 16.048L44.7046 16.448ZM44.6086 14.224L44.4486 13.4H47.4486V14.224H44.6086ZM50.64 19.08C50.2186 19.08 49.832 18.9627 49.48 18.728C49.1333 18.488 48.856 18.152 48.648 17.72C48.44 17.288 48.336 16.7787 48.336 16.192C48.336 15.6053 48.4373 15.0987 48.64 14.672C48.848 14.24 49.1253 13.9067 49.472 13.672C49.8186 13.4373 50.2026 13.32 50.624 13.32C51.0506 13.32 51.4373 13.4373 51.784 13.672C52.1306 13.9067 52.4053 14.24 52.608 14.672C52.816 15.0987 52.92 15.608 52.92 16.2C52.92 16.7867 52.816 17.296 52.608 17.728C52.4053 18.16 52.1306 18.4933 51.784 18.728C51.4426 18.9627 51.0613 19.08 50.64 19.08ZM50.624 18.216C50.9013 18.216 51.1413 18.1413 51.344 17.992C51.5466 17.8427 51.704 17.6187 51.816 17.32C51.9333 17.0213 51.992 16.6453 51.992 16.192C51.992 15.744 51.9333 15.3707 51.816 15.072C51.704 14.7733 51.544 14.552 51.336 14.408C51.1333 14.2587 50.896 14.184 50.624 14.184C50.352 14.184 50.112 14.2587 49.904 14.408C49.7013 14.552 49.544 14.7733 49.432 15.072C49.32 15.3653 49.264 15.7387 49.264 16.192C49.264 16.6453 49.32 17.0213 49.432 17.32C49.544 17.6187 49.7013 17.8427 49.904 17.992C50.112 18.1413 50.352 18.216 50.624 18.216ZM55.2982 20.68C54.8928 20.68 54.5382 20.6053 54.2342 20.456C53.9302 20.312 53.6848 20.1067 53.4982 19.84L54.0742 19.264C54.2288 19.456 54.4048 19.6 54.6022 19.696C54.7995 19.792 55.0368 19.84 55.3142 19.84C55.6608 19.84 55.9355 19.7493 56.1382 19.568C56.3408 19.392 56.4422 19.1493 56.4422 18.84V17.896L56.5942 17.048L56.4422 16.192V15.16H57.3222V18.84C57.3222 19.208 57.2368 19.528 57.0662 19.8C56.8955 20.0773 56.6582 20.2933 56.3542 20.448C56.0502 20.6027 55.6982 20.68 55.2982 20.68ZM55.2582 18.92C54.9168 18.92 54.6075 18.8373 54.3302 18.672C54.0582 18.5013 53.8422 18.2693 53.6822 17.976C53.5275 17.6827 53.4502 17.3547 53.4502 16.992C53.4502 16.6293 53.5275 16.304 53.6822 16.016C53.8422 15.728 54.0582 15.5013 54.3302 15.336C54.6075 15.1653 54.9168 15.08 55.2582 15.08C55.5622 15.08 55.8288 15.1413 56.0582 15.264C56.2875 15.3867 56.4662 15.5573 56.5942 15.776C56.7222 15.9893 56.7862 16.24 56.7862 16.528V17.472C56.7862 17.7547 56.7195 18.0053 56.5862 18.224C56.4582 18.4427 56.2795 18.6133 56.0502 18.736C55.8208 18.8587 55.5568 18.92 55.2582 18.92ZM55.4342 18.088C55.6475 18.088 55.8342 18.0427 55.9942 17.952C56.1542 17.8613 56.2768 17.736 56.3622 17.576C56.4528 17.4107 56.4982 17.2187 56.4982 17C56.4982 16.7813 56.4528 16.592 56.3622 16.432C56.2768 16.2667 56.1542 16.1387 55.9942 16.048C55.8342 15.9573 55.6475 15.912 55.4342 15.912C55.2208 15.912 55.0315 15.9573 54.8662 16.048C54.7062 16.1387 54.5808 16.2667 54.4902 16.432C54.3995 16.592 54.3542 16.7813 54.3542 17C54.3542 17.2133 54.3995 17.4027 54.4902 17.568C54.5808 17.7333 54.7062 17.8613 54.8662 17.952C55.0315 18.0427 55.2208 18.088 55.4342 18.088Z" fill="black" fill-opacity="0.65"/>
<rect width="58" height="10" rx="5" fill="white"/>
<rect width="26" height="10" rx="5" fill="#1C6BF3"/>
</svg>
