<svg width="58" height="21" viewBox="0 0 58 21" fill="none" xmlns="http://www.w3.org/2000/svg">
<path d="M4.136 17.76C4.25333 17.8187 4.35467 17.896 4.44 17.992C4.52533 18.0827 4.568 18.1787 4.568 18.28C4.568 18.4987 4.41067 18.688 4.096 18.848C3.78667 19.0027 3.39467 19.08 2.92 19.08C2.14133 19.08 1.51467 18.8293 1.04 18.328C0.570667 17.8213 0.336 17.16 0.336 16.344C0.336 15.4907 0.570667 14.824 1.04 14.344C1.51467 13.8587 2.15467 13.616 2.96 13.616C3.392 13.616 3.75467 13.7013 4.048 13.872C4.34133 14.0373 4.488 14.2427 4.488 14.488C4.488 14.616 4.43467 14.728 4.328 14.824C4.22667 14.92 4.06933 14.984 3.856 15.016C3.776 14.7653 3.632 14.576 3.424 14.448C3.22133 14.3147 3.008 14.248 2.784 14.248C2.33067 14.248 1.96 14.432 1.672 14.8C1.38933 15.168 1.248 15.632 1.248 16.192C1.248 16.8373 1.392 17.376 1.68 17.808C1.97333 18.2347 2.384 18.448 2.912 18.448C3.152 18.448 3.384 18.392 3.608 18.28C3.832 18.1627 4.008 17.9893 4.136 17.76ZM7.299 17.856C7.299 17.6107 7.30433 17.4213 7.315 17.288C7.155 17.3093 7.03767 17.3253 6.963 17.336C6.89367 17.3467 6.79767 17.3627 6.675 17.384C6.55233 17.4053 6.46167 17.4293 6.403 17.456C6.34967 17.4827 6.291 17.5147 6.227 17.552C6.163 17.5893 6.11767 17.6373 6.091 17.696C6.06433 17.7493 6.051 17.8133 6.051 17.888C6.051 18.1013 6.10433 18.2587 6.211 18.36C6.31767 18.4613 6.45367 18.512 6.619 18.512C6.891 18.512 7.123 18.4107 7.315 18.208C7.30433 18.1387 7.299 18.0213 7.299 17.856ZM7.331 16.8C7.331 16.6187 7.32567 16.48 7.315 16.384C7.30967 16.288 7.28833 16.1787 7.251 16.056C7.219 15.9333 7.16033 15.8453 7.075 15.792C6.995 15.7333 6.88567 15.704 6.747 15.704C6.571 15.704 6.403 15.7627 6.243 15.88C6.08833 15.992 5.97633 16.1493 5.907 16.352C5.43233 16.3467 5.195 16.2053 5.195 15.928C5.195 15.6987 5.355 15.5067 5.675 15.352C6.00033 15.1973 6.36833 15.12 6.779 15.12C7.26967 15.12 7.627 15.2213 7.851 15.424C8.08033 15.6267 8.195 15.9893 8.195 16.512C8.195 16.528 8.19233 16.6533 8.187 16.888C8.18167 17.1227 8.179 17.352 8.179 17.576C8.179 18.184 8.22967 18.64 8.331 18.944C8.17633 19.0027 8.02433 19.032 7.875 19.032C7.57633 19.032 7.39767 18.9093 7.339 18.664C7.019 18.9413 6.659 19.08 6.259 19.08C5.94967 19.08 5.691 18.984 5.483 18.792C5.28033 18.6 5.179 18.3173 5.179 17.944C5.179 17.6453 5.243 17.424 5.371 17.28C5.499 17.136 5.66967 17.0293 5.883 16.96C6.203 16.8587 6.68567 16.8053 7.331 16.8ZM9.51931 15.176C9.71131 15.176 9.84731 15.2107 9.92731 15.28C10.0126 15.3493 10.0553 15.4587 10.0553 15.608V15.704C10.3646 15.3147 10.666 15.12 10.9593 15.12C11.2686 15.12 11.4233 15.232 11.4233 15.456C11.4233 15.6053 11.3273 15.8 11.1353 16.04C11.0233 15.944 10.898 15.896 10.7593 15.896C10.4873 15.896 10.242 16.0427 10.0233 16.336C10.0073 16.6773 9.99931 17.024 9.99931 17.376C9.99931 18.0747 10.0713 18.592 10.2153 18.928C10.0713 18.9973 9.91398 19.032 9.74331 19.032C9.51398 19.032 9.35931 18.9813 9.27931 18.88C9.19931 18.7787 9.15931 18.616 9.15931 18.392C9.15931 18.328 9.16198 18.1467 9.16731 17.848C9.17265 17.5493 9.17531 17.3147 9.17531 17.144C9.17531 16.2533 9.15131 15.6107 9.10331 15.216C9.25798 15.1893 9.39665 15.176 9.51931 15.176ZM14.6025 17.016C14.6025 16.5733 14.5225 16.2453 14.3625 16.032C14.2078 15.8133 14.0132 15.704 13.7785 15.704C13.4692 15.704 13.1812 15.8373 12.9145 16.104C12.9198 16.424 12.9225 16.7787 12.9225 17.168C12.9225 17.5307 12.9145 17.8427 12.8985 18.104C13.1545 18.36 13.4372 18.488 13.7465 18.488C14.0345 18.488 14.2478 18.344 14.3865 18.056C14.5305 17.768 14.6025 17.4213 14.6025 17.016ZM14.0665 15.12C14.4825 15.12 14.8212 15.2773 15.0825 15.592C15.3438 15.9013 15.4745 16.368 15.4745 16.992C15.4745 17.5787 15.3198 18.0747 15.0105 18.48C14.7012 18.88 14.2558 19.08 13.6745 19.08C13.0398 19.08 12.4958 18.8933 12.0425 18.52C12.0798 18.2053 12.0985 17.6373 12.0985 16.816C12.0985 16.3413 12.0852 15.6533 12.0585 14.752C12.0318 13.8453 12.0025 13.2907 11.9705 13.088C12.0718 13.0667 12.2132 13.056 12.3945 13.056C12.7678 13.056 12.9545 13.2 12.9545 13.488C12.9545 13.552 12.9465 13.784 12.9305 14.184C12.9145 14.584 12.9065 15.0347 12.9065 15.536C13.2478 15.2587 13.6345 15.12 14.0665 15.12ZM18.2942 16.272C18.1875 15.9253 17.8915 15.752 17.4062 15.752C17.2675 15.752 17.1475 15.792 17.0462 15.872C16.9449 15.9467 16.8942 16.0507 16.8942 16.184C16.8942 16.344 16.9635 16.4693 17.1022 16.56C17.2462 16.6507 17.4195 16.7173 17.6222 16.76C17.8249 16.8027 18.0275 16.8533 18.2302 16.912C18.4329 16.9707 18.6035 17.08 18.7422 17.24C18.8862 17.4 18.9582 17.6133 18.9582 17.88C18.9582 18.2693 18.8035 18.568 18.4942 18.776C18.1902 18.9787 17.8302 19.08 17.4142 19.08C17.0462 19.08 16.7209 19.0187 16.4382 18.896C16.1555 18.7733 16.0142 18.6213 16.0142 18.44C16.0142 18.2107 16.1795 18.0267 16.5102 17.888C16.6702 18.2613 17.0169 18.448 17.5502 18.448C17.9555 18.448 18.1582 18.312 18.1582 18.04C18.1582 17.88 18.0862 17.76 17.9422 17.68C17.8035 17.5947 17.6329 17.5333 17.4302 17.496C17.2275 17.4533 17.0249 17.4 16.8222 17.336C16.6195 17.272 16.4462 17.1547 16.3022 16.984C16.1635 16.8133 16.0942 16.584 16.0942 16.296C16.0942 15.912 16.2462 15.6213 16.5502 15.424C16.8595 15.2213 17.2222 15.12 17.6382 15.12C17.7982 15.12 17.9635 15.1387 18.1342 15.176C18.3102 15.208 18.4782 15.28 18.6382 15.392C18.8035 15.4987 18.8862 15.6347 18.8862 15.8C18.8862 15.9067 18.8329 16.0027 18.7262 16.088C18.6195 16.168 18.4755 16.2293 18.2942 16.272Z" fill="black"/>
<path d="M32.968 19.08C32.5947 19.08 32.256 19.0133 31.952 18.88C31.6533 18.7413 31.4 18.5413 31.192 18.28L31.816 17.656C31.928 17.8267 32.0853 17.9627 32.288 18.064C32.4907 18.1653 32.712 18.216 32.952 18.216C33.1813 18.216 33.3787 18.1733 33.544 18.088C33.7093 18.0027 33.8373 17.8827 33.928 17.728C34.024 17.5733 34.072 17.3947 34.072 17.192C34.072 16.9787 34.024 16.7973 33.928 16.648C33.8373 16.4987 33.704 16.384 33.528 16.304C33.3573 16.2187 33.1493 16.176 32.904 16.176C32.808 16.176 32.7093 16.184 32.608 16.2C32.5067 16.2107 32.416 16.2293 32.336 16.256L32.744 15.728C32.856 15.6853 32.9733 15.6507 33.096 15.624C33.224 15.592 33.3467 15.576 33.464 15.576C33.752 15.576 34.0107 15.6453 34.24 15.784C34.4747 15.9227 34.6587 16.1173 34.792 16.368C34.9307 16.6133 35 16.904 35 17.24C35 17.6027 34.9147 17.9227 34.744 18.2C34.5733 18.4773 34.336 18.6933 34.032 18.848C33.728 19.0027 33.3733 19.08 32.968 19.08ZM32.336 16.256V15.712L33.832 13.968L34.936 13.944L33.376 15.736L32.336 16.256ZM31.472 14.224V13.4H34.936V13.944L34.144 14.224H31.472ZM37.9123 19.08C37.491 19.08 37.1043 18.9627 36.7523 18.728C36.4056 18.488 36.1283 18.152 35.9203 17.72C35.7123 17.288 35.6083 16.7787 35.6083 16.192C35.6083 15.6053 35.7096 15.0987 35.9123 14.672C36.1203 14.24 36.3976 13.9067 36.7443 13.672C37.091 13.4373 37.475 13.32 37.8963 13.32C38.323 13.32 38.7096 13.4373 39.0563 13.672C39.403 13.9067 39.6776 14.24 39.8803 14.672C40.0883 15.0987 40.1923 15.608 40.1923 16.2C40.1923 16.7867 40.0883 17.296 39.8803 17.728C39.6776 18.16 39.403 18.4933 39.0563 18.728C38.715 18.9627 38.3336 19.08 37.9123 19.08ZM37.8963 18.216C38.1736 18.216 38.4136 18.1413 38.6163 17.992C38.819 17.8427 38.9763 17.6187 39.0883 17.32C39.2056 17.0213 39.2643 16.6453 39.2643 16.192C39.2643 15.744 39.2056 15.3707 39.0883 15.072C38.9763 14.7733 38.8163 14.552 38.6083 14.408C38.4056 14.2587 38.1683 14.184 37.8963 14.184C37.6243 14.184 37.3843 14.2587 37.1763 14.408C36.9736 14.552 36.8163 14.7733 36.7043 15.072C36.5923 15.3653 36.5363 15.7387 36.5363 16.192C36.5363 16.6453 36.5923 17.0213 36.7043 17.32C36.8163 17.6187 36.9736 17.8427 37.1763 17.992C37.3843 18.1413 37.6243 18.216 37.8963 18.216ZM40.5545 19.32L42.7945 13.08H43.6185L41.3785 19.32H40.5545ZM45.6294 19.08C45.2401 19.08 44.8934 19.0133 44.5894 18.88C44.2854 18.7413 44.0294 18.5413 43.8214 18.28L44.4454 17.656C44.5574 17.8267 44.7148 17.9627 44.9174 18.064C45.1254 18.1653 45.3574 18.216 45.6134 18.216C45.8481 18.216 46.0534 18.1733 46.2294 18.088C46.4054 18.0027 46.5441 17.88 46.6454 17.72C46.7468 17.56 46.7974 17.3707 46.7974 17.152C46.7974 16.9227 46.7468 16.7333 46.6454 16.584C46.5494 16.4293 46.4188 16.3147 46.2534 16.24C46.0934 16.16 45.9201 16.12 45.7334 16.12C45.5201 16.12 45.3281 16.144 45.1574 16.192C44.9921 16.24 44.8294 16.3253 44.6694 16.448L44.6934 15.872C44.7788 15.76 44.8774 15.6693 44.9894 15.6C45.1014 15.5253 45.2321 15.4693 45.3814 15.432C45.5308 15.3947 45.7068 15.376 45.9094 15.376C46.3041 15.376 46.6348 15.4587 46.9014 15.624C47.1734 15.7893 47.3788 16.0107 47.5174 16.288C47.6561 16.56 47.7254 16.864 47.7254 17.2C47.7254 17.5627 47.6348 17.8853 47.4534 18.168C47.2774 18.4507 47.0321 18.6747 46.7174 18.84C46.4028 19 46.0401 19.08 45.6294 19.08ZM44.6694 16.448L44.1654 15.944L44.4134 13.4H45.2534L44.9654 16.048L44.6694 16.448ZM44.5734 14.224L44.4134 13.4H47.4134V14.224H44.5734ZM50.6048 19.08C50.1835 19.08 49.7968 18.9627 49.4448 18.728C49.0981 18.488 48.8208 18.152 48.6128 17.72C48.4048 17.288 48.3008 16.7787 48.3008 16.192C48.3008 15.6053 48.4021 15.0987 48.6048 14.672C48.8128 14.24 49.0901 13.9067 49.4368 13.672C49.7835 13.4373 50.1675 13.32 50.5888 13.32C51.0155 13.32 51.4021 13.4373 51.7488 13.672C52.0955 13.9067 52.3701 14.24 52.5728 14.672C52.7808 15.0987 52.8848 15.608 52.8848 16.2C52.8848 16.7867 52.7808 17.296 52.5728 17.728C52.3701 18.16 52.0955 18.4933 51.7488 18.728C51.4075 18.9627 51.0261 19.08 50.6048 19.08ZM50.5888 18.216C50.8661 18.216 51.1061 18.1413 51.3088 17.992C51.5115 17.8427 51.6688 17.6187 51.7808 17.32C51.8981 17.0213 51.9568 16.6453 51.9568 16.192C51.9568 15.744 51.8981 15.3707 51.7808 15.072C51.6688 14.7733 51.5088 14.552 51.3008 14.408C51.0981 14.2587 50.8608 14.184 50.5888 14.184C50.3168 14.184 50.0768 14.2587 49.8688 14.408C49.6661 14.552 49.5088 14.7733 49.3968 15.072C49.2848 15.3653 49.2288 15.7387 49.2288 16.192C49.2288 16.6453 49.2848 17.0213 49.3968 17.32C49.5088 17.6187 49.6661 17.8427 49.8688 17.992C50.0768 18.1413 50.3168 18.216 50.5888 18.216ZM55.263 20.68C54.8577 20.68 54.503 20.6053 54.199 20.456C53.895 20.312 53.6497 20.1067 53.463 19.84L54.039 19.264C54.1937 19.456 54.3697 19.6 54.567 19.696C54.7643 19.792 55.0017 19.84 55.279 19.84C55.6257 19.84 55.9003 19.7493 56.103 19.568C56.3057 19.392 56.407 19.1493 56.407 18.84V17.896L56.559 17.048L56.407 16.192V15.16H57.287V18.84C57.287 19.208 57.2017 19.528 57.031 19.8C56.8603 20.0773 56.623 20.2933 56.319 20.448C56.015 20.6027 55.663 20.68 55.263 20.68ZM55.223 18.92C54.8817 18.92 54.5723 18.8373 54.295 18.672C54.023 18.5013 53.807 18.2693 53.647 17.976C53.4923 17.6827 53.415 17.3547 53.415 16.992C53.415 16.6293 53.4923 16.304 53.647 16.016C53.807 15.728 54.023 15.5013 54.295 15.336C54.5723 15.1653 54.8817 15.08 55.223 15.08C55.527 15.08 55.7937 15.1413 56.023 15.264C56.2523 15.3867 56.431 15.5573 56.559 15.776C56.687 15.9893 56.751 16.24 56.751 16.528V17.472C56.751 17.7547 56.6843 18.0053 56.551 18.224C56.423 18.4427 56.2443 18.6133 56.015 18.736C55.7857 18.8587 55.5217 18.92 55.223 18.92ZM55.399 18.088C55.6123 18.088 55.799 18.0427 55.959 17.952C56.119 17.8613 56.2417 17.736 56.327 17.576C56.4177 17.4107 56.463 17.2187 56.463 17C56.463 16.7813 56.4177 16.592 56.327 16.432C56.2417 16.2667 56.119 16.1387 55.959 16.048C55.799 15.9573 55.6123 15.912 55.399 15.912C55.1857 15.912 54.9963 15.9573 54.831 16.048C54.671 16.1387 54.5457 16.2667 54.455 16.432C54.3643 16.592 54.319 16.7813 54.319 17C54.319 17.2133 54.3643 17.4027 54.455 17.568C54.5457 17.7333 54.671 17.8613 54.831 17.952C54.9963 18.0427 55.1857 18.088 55.399 18.088Z" fill="black" fill-opacity="0.65"/>
<rect width="58" height="10" rx="5" fill="white"/>
<rect width="29" height="10" rx="5" fill="#F31C1C"/>
</svg>
