<svg width="360" height="116" viewBox="0 0 360 116" fill="none" xmlns="http://www.w3.org/2000/svg">
<path d="M19.9185 9.766V6.966C19.9185 6.44333 19.9091 5.74333 19.8905 4.866C18.5651 4.866 17.6925 4.88467 17.2725 4.922C17.2445 4.81 17.2305 4.642 17.2305 4.418C17.2305 4.166 17.2771 3.998 17.3705 3.914C17.4731 3.82067 17.6318 3.76933 17.8465 3.76C18.0798 3.75067 18.6258 3.746 19.4845 3.746H21.1365C22.7045 3.746 23.6518 3.732 23.9785 3.704C24.0065 3.816 24.0205 3.97933 24.0205 4.194C24.0205 4.446 23.9691 4.61867 23.8665 4.712C23.7731 4.796 23.6191 4.84267 23.4045 4.852C23.1431 4.86133 22.4945 4.866 21.4585 4.866C21.4118 5.874 21.3885 6.7 21.3885 7.344V10.158C21.3885 11.3993 21.4771 12.314 21.6545 12.902C21.3931 12.9953 21.1038 13.042 20.7865 13.042C20.4411 13.042 20.2031 12.9813 20.0725 12.86C19.9511 12.7387 19.8905 12.5333 19.8905 12.244C19.8905 12.0947 19.8951 11.726 19.9045 11.138C19.9138 10.55 19.9185 10.0927 19.9185 9.766ZM28.6934 9.85C28.6934 9.10333 28.5347 8.48267 28.2174 7.988C27.9094 7.484 27.4894 7.232 26.9574 7.232C26.4161 7.232 25.9961 7.43733 25.6974 7.848C25.3987 8.25867 25.2494 8.80467 25.2494 9.486C25.2494 10.242 25.3987 10.8673 25.6974 11.362C26.0054 11.8567 26.4254 12.104 26.9574 12.104C27.5081 12.104 27.9327 11.8987 28.2314 11.488C28.5394 11.0773 28.6934 10.5313 28.6934 9.85ZM26.9574 13.14C25.9867 13.14 25.2027 12.8273 24.6054 12.202C24.0174 11.5673 23.7234 10.7227 23.7234 9.668C23.7234 8.61333 24.0174 7.77333 24.6054 7.148C25.2027 6.52267 25.9867 6.21 26.9574 6.21C27.9374 6.21 28.7261 6.52267 29.3234 7.148C29.9207 7.77333 30.2194 8.61333 30.2194 9.668C30.2194 10.7227 29.9207 11.5673 29.3234 12.202C28.7261 12.8273 27.9374 13.14 26.9574 13.14ZM34.476 12.104C34.9146 12.104 35.3393 11.8987 35.75 11.488C35.7313 9.77067 35.722 8.45 35.722 7.526C35.33 7.33 34.938 7.232 34.546 7.232C34.014 7.232 33.5893 7.43733 33.272 7.848C32.964 8.25867 32.81 8.79533 32.81 9.458C32.81 10.242 32.9686 10.8813 33.286 11.376C33.6126 11.8613 34.0093 12.104 34.476 12.104ZM31.284 9.668C31.284 8.632 31.5686 7.79667 32.138 7.162C32.7166 6.52733 33.4166 6.21 34.238 6.21C34.7793 6.21 35.2833 6.34067 35.75 6.602C35.75 4.93133 35.694 3.61533 35.582 2.654C35.8433 2.61667 36.0953 2.598 36.338 2.598C36.646 2.598 36.884 2.66333 37.052 2.794C37.22 2.92467 37.304 3.11133 37.304 3.354C37.304 3.58733 37.2806 4.44133 37.234 5.916C37.1966 7.38133 37.178 8.69733 37.178 9.864C37.178 11.4133 37.2666 12.426 37.444 12.902C37.2106 12.9953 36.954 13.042 36.674 13.042C36.1513 13.042 35.862 12.846 35.806 12.454C35.2646 12.9113 34.6906 13.14 34.084 13.14C33.328 13.14 32.67 12.8133 32.11 12.16C31.5593 11.5067 31.284 10.676 31.284 9.668ZM42.4041 10.998C42.4041 10.5687 42.4134 10.2373 42.4321 10.004C42.1521 10.0413 41.9468 10.0693 41.8161 10.088C41.6948 10.1067 41.5268 10.1347 41.3121 10.172C41.0974 10.2093 40.9388 10.2513 40.8361 10.298C40.7428 10.3447 40.6401 10.4007 40.5281 10.466C40.4161 10.5313 40.3368 10.6153 40.2901 10.718C40.2434 10.8113 40.2201 10.9233 40.2201 11.054C40.2201 11.4273 40.3134 11.7027 40.5001 11.88C40.6868 12.0573 40.9248 12.146 41.2141 12.146C41.6901 12.146 42.0961 11.9687 42.4321 11.614C42.4134 11.4927 42.4041 11.2873 42.4041 10.998ZM42.4601 9.15C42.4601 8.83267 42.4508 8.59 42.4321 8.422C42.4228 8.254 42.3854 8.06267 42.3201 7.848C42.2641 7.63333 42.1614 7.47933 42.0121 7.386C41.8721 7.28333 41.6808 7.232 41.4381 7.232C41.1301 7.232 40.8361 7.33467 40.5561 7.54C40.2854 7.736 40.0894 8.01133 39.9681 8.366C39.1374 8.35667 38.7221 8.10933 38.7221 7.624C38.7221 7.22267 39.0021 6.88667 39.5621 6.616C40.1314 6.34533 40.7754 6.21 41.4941 6.21C42.3528 6.21 42.9781 6.38733 43.3701 6.742C43.7714 7.09667 43.9721 7.73133 43.9721 8.646C43.9721 8.674 43.9674 8.89333 43.9581 9.304C43.9488 9.71467 43.9441 10.116 43.9441 10.508C43.9441 11.572 44.0328 12.37 44.2101 12.902C43.9394 13.0047 43.6734 13.056 43.4121 13.056C42.8894 13.056 42.5768 12.8413 42.4741 12.412C41.9141 12.8973 41.2841 13.14 40.5841 13.14C40.0428 13.14 39.5901 12.972 39.2261 12.636C38.8714 12.3 38.6941 11.8053 38.6941 11.152C38.6941 10.6293 38.8061 10.242 39.0301 9.99C39.2541 9.738 39.5528 9.55133 39.9261 9.43C40.4861 9.25267 41.3308 9.15933 42.4601 9.15ZM46.2897 16.5C46.103 16.5 45.921 16.43 45.7437 16.29C45.5757 16.15 45.4357 15.9727 45.3237 15.758C45.585 15.5807 45.9257 15.2493 46.3457 14.764C46.7657 14.2787 47.167 13.7187 47.5497 13.084C47.2043 11.936 46.7563 10.6853 46.2057 9.332C45.6643 7.97867 45.2117 7.12 44.8477 6.756C45.305 6.43867 45.6737 6.28 45.9537 6.28C46.3083 6.28 46.5603 6.43867 46.7097 6.756C46.915 7.18533 47.1997 7.85267 47.5637 8.758C47.9277 9.654 48.231 10.4987 48.4737 11.292C48.791 10.508 49.0523 9.682 49.2577 8.814C49.463 7.946 49.5657 7.246 49.5657 6.714C49.5657 6.546 49.5563 6.406 49.5377 6.294C49.7523 6.238 49.9903 6.21 50.2517 6.21C50.7557 6.21 51.0077 6.406 51.0077 6.798C51.0077 7.22733 50.8397 7.96933 50.5037 9.024C50.1677 10.0787 49.771 11.1007 49.3137 12.09C48.4737 13.91 47.7037 15.254 47.0037 16.122C46.7983 16.374 46.5603 16.5 46.2897 16.5ZM53.0771 4.726C53.0771 4.306 52.8485 4.054 52.3911 3.97C52.2978 3.79267 52.2511 3.61533 52.2511 3.438C52.2511 3.214 52.3491 3.02733 52.5451 2.878C52.7411 2.71933 52.9791 2.64 53.2591 2.64C53.5578 2.64 53.8145 2.752 54.0291 2.976C54.2438 3.2 54.3511 3.54533 54.3511 4.012C54.3511 4.628 54.1551 5.19267 53.7631 5.706C53.3805 6.21933 52.9231 6.476 52.3911 6.476C52.1018 6.476 51.9571 6.29867 51.9571 5.944C51.9571 5.85067 51.9618 5.78067 51.9711 5.734H52.0411C52.3398 5.734 52.5871 5.63133 52.7831 5.426C52.9791 5.22067 53.0771 4.98733 53.0771 4.726ZM59.1711 8.226C58.9844 7.61933 58.4664 7.316 57.6171 7.316C57.3744 7.316 57.1644 7.386 56.9871 7.526C56.8097 7.65667 56.7211 7.83867 56.7211 8.072C56.7211 8.352 56.8424 8.57133 57.0851 8.73C57.3371 8.88867 57.6404 9.00533 57.9951 9.08C58.3497 9.15467 58.7044 9.24333 59.0591 9.346C59.4137 9.44867 59.7124 9.64 59.9551 9.92C60.2071 10.2 60.3331 10.5733 60.3331 11.04C60.3331 11.7213 60.0624 12.244 59.5211 12.608C58.9891 12.9627 58.3591 13.14 57.6311 13.14C56.9871 13.14 56.4177 13.0327 55.9231 12.818C55.4284 12.6033 55.1811 12.3373 55.1811 12.02C55.1811 11.6187 55.4704 11.2967 56.0491 11.054C56.3291 11.7073 56.9357 12.034 57.8691 12.034C58.5784 12.034 58.9331 11.796 58.9331 11.32C58.9331 11.04 58.8071 10.83 58.5551 10.69C58.3124 10.5407 58.0137 10.4333 57.6591 10.368C57.3044 10.2933 56.9497 10.2 56.5951 10.088C56.2404 9.976 55.9371 9.77067 55.6851 9.472C55.4424 9.17333 55.3211 8.772 55.3211 8.268C55.3211 7.596 55.5871 7.08733 56.1191 6.742C56.6604 6.38733 57.2951 6.21 58.0231 6.21C58.3031 6.21 58.5924 6.24267 58.8911 6.308C59.1991 6.364 59.4931 6.49 59.7731 6.686C60.0624 6.87267 60.2071 7.11067 60.2071 7.4C60.2071 7.58667 60.1137 7.75467 59.9271 7.904C59.7404 8.044 59.4884 8.15133 59.1711 8.226ZM73.8622 6.896V10.158C73.8622 11.418 73.9509 12.342 74.1282 12.93C73.9976 13.0047 73.7456 13.042 73.3722 13.042C72.9896 13.042 72.7329 12.9813 72.6022 12.86C72.4716 12.7387 72.4062 12.5333 72.4062 12.244V5.944C71.7902 7.47467 71.0062 9.81733 70.0542 12.972C69.9049 13.0093 69.7322 13.028 69.5362 13.028C69.0509 13.028 68.7522 12.9067 68.6402 12.664C68.3602 12.048 67.9449 10.9467 67.3942 9.36C66.8436 7.764 66.4282 6.616 66.1482 5.916V10.158C66.1482 11.418 66.2369 12.342 66.4142 12.93C66.1622 13.0047 65.9196 13.042 65.6862 13.042C65.3596 13.042 65.1356 12.9813 65.0142 12.86C64.9022 12.7387 64.8462 12.5333 64.8462 12.244C64.8462 12.0947 64.8509 11.726 64.8602 11.138C64.8696 10.55 64.8742 10.0927 64.8742 9.766V6.238C64.8742 5.19267 64.7856 4.37133 64.6082 3.774C64.9816 3.69933 65.3129 3.662 65.6022 3.662C66.1342 3.662 66.5402 3.886 66.8202 4.334C67.1749 4.90333 67.5202 5.61733 67.8562 6.476C68.2016 7.32533 68.4629 8.044 68.6402 8.632C68.8269 9.22 69.0836 10.0647 69.4102 11.166C70.1942 8.21667 71.0622 5.93 72.0142 4.306C72.2569 3.87667 72.6536 3.662 73.2042 3.662C73.5682 3.662 73.8716 3.69933 74.1142 3.774C73.9462 4.334 73.8622 5.37467 73.8622 6.896ZM78.0341 10.242C77.7821 10.242 77.4414 10.2327 77.0121 10.214C77.1054 10.8767 77.3154 11.362 77.6421 11.67C77.9781 11.978 78.3888 12.132 78.8741 12.132C79.1261 12.132 79.3874 12.0667 79.6581 11.936C79.9288 11.8053 80.1294 11.6187 80.2601 11.376C80.7174 11.6187 80.9461 11.88 80.9461 12.16C80.9461 12.4773 80.7268 12.72 80.2881 12.888C79.8494 13.056 79.3594 13.14 78.8181 13.14C77.9408 13.14 77.1568 12.8507 76.4661 12.272C75.7848 11.6933 75.4441 10.858 75.4441 9.766C75.4441 8.618 75.7708 7.74067 76.4241 7.134C77.0868 6.518 77.8661 6.21 78.7621 6.21C79.4808 6.21 80.0594 6.406 80.4981 6.798C80.9461 7.19 81.1701 7.65667 81.1701 8.198C81.1701 8.63667 81.0861 9.00067 80.9181 9.29C80.7594 9.57 80.5214 9.77533 80.2041 9.906C79.8868 10.0367 79.5648 10.1253 79.2381 10.172C78.9114 10.2187 78.5101 10.242 78.0341 10.242ZM78.6361 7.232C78.1974 7.232 77.8241 7.4 77.5161 7.736C77.2081 8.072 77.0261 8.604 76.9701 9.332C77.5674 9.332 78.0061 9.318 78.2861 9.29C79.1914 9.178 79.6441 8.82333 79.6441 8.226C79.6441 7.95533 79.5461 7.722 79.3501 7.526C79.1634 7.33 78.9254 7.232 78.6361 7.232ZM85.949 10.998C85.949 10.5687 85.9584 10.2373 85.977 10.004C85.697 10.0413 85.4917 10.0693 85.361 10.088C85.2397 10.1067 85.0717 10.1347 84.857 10.172C84.6424 10.2093 84.4837 10.2513 84.381 10.298C84.2877 10.3447 84.185 10.4007 84.073 10.466C83.961 10.5313 83.8817 10.6153 83.835 10.718C83.7884 10.8113 83.765 10.9233 83.765 11.054C83.765 11.4273 83.8584 11.7027 84.045 11.88C84.2317 12.0573 84.4697 12.146 84.759 12.146C85.235 12.146 85.641 11.9687 85.977 11.614C85.9584 11.4927 85.949 11.2873 85.949 10.998ZM86.005 9.15C86.005 8.83267 85.9957 8.59 85.977 8.422C85.9677 8.254 85.9304 8.06267 85.865 7.848C85.809 7.63333 85.7064 7.47933 85.557 7.386C85.417 7.28333 85.2257 7.232 84.983 7.232C84.675 7.232 84.381 7.33467 84.101 7.54C83.8304 7.736 83.6344 8.01133 83.513 8.366C82.6824 8.35667 82.267 8.10933 82.267 7.624C82.267 7.22267 82.547 6.88667 83.107 6.616C83.6764 6.34533 84.3204 6.21 85.039 6.21C85.8977 6.21 86.523 6.38733 86.915 6.742C87.3164 7.09667 87.517 7.73133 87.517 8.646C87.517 8.674 87.5124 8.89333 87.503 9.304C87.4937 9.71467 87.489 10.116 87.489 10.508C87.489 11.572 87.5777 12.37 87.755 12.902C87.4844 13.0047 87.2184 13.056 86.957 13.056C86.4344 13.056 86.1217 12.8413 86.019 12.412C85.459 12.8973 84.829 13.14 84.129 13.14C83.5877 13.14 83.135 12.972 82.771 12.636C82.4164 12.3 82.239 11.8053 82.239 11.152C82.239 10.6293 82.351 10.242 82.575 9.99C82.799 9.738 83.0977 9.55133 83.471 9.43C84.031 9.25267 84.8757 9.15933 86.005 9.15ZM89.8346 2.598C90.4972 2.598 90.8286 2.85467 90.8286 3.368C90.8286 3.424 90.8146 3.64333 90.7866 4.026C90.7586 4.39933 90.7306 4.94067 90.7026 5.65C90.6839 6.35933 90.6746 7.148 90.6746 8.016C90.6746 9.808 90.6932 10.9607 90.7306 11.474C90.7679 11.9873 90.8752 12.454 91.0526 12.874C90.7819 12.9953 90.5066 13.056 90.2266 13.056C89.8252 13.056 89.5546 12.972 89.4146 12.804C89.2746 12.6267 89.2046 12.3327 89.2046 11.922C89.2232 10.1673 89.2326 8.87933 89.2326 8.058C89.2326 5.23 89.1906 3.43333 89.1066 2.668C89.3679 2.62133 89.6106 2.598 89.8346 2.598Z" fill="black"/>
<g filter="url(#filter0_dd_1001_9781)">
<rect x="24" y="36" width="53" height="52" rx="10" fill="#FAFEFC"/>
</g>
<g filter="url(#filter1_dd_1001_9781)">
<rect x="110" y="36" width="53" height="52" rx="10" fill="#FAFEFC"/>
</g>
<g filter="url(#filter2_dd_1001_9781)">
<rect x="196" y="36" width="53" height="52" rx="10" fill="#FAFEFC"/>
</g>
<g filter="url(#filter3_dd_1001_9781)">
<rect x="282" y="36" width="53" height="52" rx="10" fill="#FAFEFC"/>
</g>
<path d="M121 76.1H151V46.1H121V76.1Z" fill="black"/>
<path d="M36 77.1H66V47.1H36V77.1Z" fill="black"/>
<path d="M32.3586 95.04C32.2319 95.04 32.0486 95.0533 31.8086 95.08C31.8353 95.5867 31.8486 96.2633 31.8486 97.11C32.0219 97.1233 32.1719 97.13 32.2986 97.13C33.2986 97.13 33.7986 96.7867 33.7986 96.1C33.7986 95.3933 33.3186 95.04 32.3586 95.04ZM32.7586 100.33C33.1186 100.33 33.4219 100.22 33.6686 100C33.9153 99.7733 34.0386 99.4667 34.0386 99.08C34.0386 98.6467 33.9019 98.3167 33.6286 98.09C33.3619 97.8633 33.0286 97.75 32.6286 97.75C32.2686 97.75 32.0053 97.7667 31.8386 97.8C31.8386 98.0867 31.8219 98.48 31.7886 98.98C31.7619 99.48 31.7353 99.81 31.7086 99.97C31.8153 100.07 31.9686 100.157 32.1686 100.23C32.3753 100.297 32.5719 100.33 32.7586 100.33ZM30.6486 100.47C30.7553 99.71 30.8086 98.5967 30.8086 97.13C30.8086 95.89 30.7653 94.9767 30.6786 94.39C31.1919 94.31 31.7486 94.27 32.3486 94.27C33.1086 94.27 33.7286 94.4033 34.2086 94.67C34.6953 94.9367 34.9386 95.3767 34.9386 95.99C34.9386 96.6567 34.6486 97.12 34.0686 97.38C34.8086 97.6933 35.1786 98.2633 35.1786 99.09C35.1786 99.7233 34.9619 100.217 34.5286 100.57C34.1019 100.923 33.5786 101.1 32.9586 101.1C31.9519 101.1 31.1819 100.89 30.6486 100.47ZM36.5866 96.22C36.8266 96.22 36.9966 96.2633 37.0966 96.35C37.2033 96.4367 37.2566 96.5733 37.2566 96.76V96.88C37.6433 96.3933 38.02 96.15 38.3866 96.15C38.7733 96.15 38.9666 96.29 38.9666 96.57C38.9666 96.7567 38.8466 97 38.6066 97.3C38.4666 97.18 38.31 97.12 38.1366 97.12C37.7966 97.12 37.49 97.3033 37.2166 97.67C37.1966 98.0967 37.1866 98.53 37.1866 98.97C37.1866 99.8433 37.2766 100.49 37.4566 100.91C37.2766 100.997 37.08 101.04 36.8666 101.04C36.58 101.04 36.3866 100.977 36.2866 100.85C36.1866 100.723 36.1366 100.52 36.1366 100.24C36.1366 100.16 36.14 99.9333 36.1466 99.56C36.1533 99.1867 36.1566 98.8933 36.1566 98.68C36.1566 97.5667 36.1266 96.7633 36.0666 96.27C36.26 96.2367 36.4333 96.22 36.5866 96.22ZM41.3706 99.03C41.1906 99.03 40.9473 99.0233 40.6406 99.01C40.7073 99.4833 40.8573 99.83 41.0906 100.05C41.3306 100.27 41.624 100.38 41.9706 100.38C42.1506 100.38 42.3373 100.333 42.5306 100.24C42.724 100.147 42.8673 100.013 42.9606 99.84C43.2873 100.013 43.4506 100.2 43.4506 100.4C43.4506 100.627 43.294 100.8 42.9806 100.92C42.6673 101.04 42.3173 101.1 41.9306 101.1C41.304 101.1 40.744 100.893 40.2506 100.48C39.764 100.067 39.5206 99.47 39.5206 98.69C39.5206 97.87 39.754 97.2433 40.2206 96.81C40.694 96.37 41.2506 96.15 41.8906 96.15C42.404 96.15 42.8173 96.29 43.1306 96.57C43.4506 96.85 43.6106 97.1833 43.6106 97.57C43.6106 97.8833 43.5506 98.1433 43.4306 98.35C43.3173 98.55 43.1473 98.6967 42.9206 98.79C42.694 98.8833 42.464 98.9467 42.2306 98.98C41.9973 99.0133 41.7106 99.03 41.3706 99.03ZM41.8006 96.88C41.4873 96.88 41.2206 97 41.0006 97.24C40.7806 97.48 40.6506 97.86 40.6106 98.38C41.0373 98.38 41.3506 98.37 41.5506 98.35C42.1973 98.27 42.5206 98.0167 42.5206 97.59C42.5206 97.3967 42.4506 97.23 42.3106 97.09C42.1773 96.95 42.0073 96.88 41.8006 96.88ZM47.0241 99.57C47.0241 99.2633 47.0308 99.0267 47.0441 98.86C46.8441 98.8867 46.6975 98.9067 46.6041 98.92C46.5175 98.9333 46.3975 98.9533 46.2441 98.98C46.0908 99.0067 45.9775 99.0367 45.9041 99.07C45.8375 99.1033 45.7641 99.1433 45.6841 99.19C45.6041 99.2367 45.5475 99.2967 45.5141 99.37C45.4808 99.4367 45.4641 99.5167 45.4641 99.61C45.4641 99.8767 45.5308 100.073 45.6641 100.2C45.7975 100.327 45.9675 100.39 46.1741 100.39C46.5141 100.39 46.8041 100.263 47.0441 100.01C47.0308 99.9233 47.0241 99.7767 47.0241 99.57ZM47.0641 98.25C47.0641 98.0233 47.0575 97.85 47.0441 97.73C47.0375 97.61 47.0108 97.4733 46.9641 97.32C46.9241 97.1667 46.8508 97.0567 46.7441 96.99C46.6441 96.9167 46.5075 96.88 46.3341 96.88C46.1141 96.88 45.9041 96.9533 45.7041 97.1C45.5108 97.24 45.3708 97.4367 45.2841 97.69C44.6908 97.6833 44.3941 97.5067 44.3941 97.16C44.3941 96.8733 44.5941 96.6333 44.9941 96.44C45.4008 96.2467 45.8608 96.15 46.3741 96.15C46.9875 96.15 47.4341 96.2767 47.7141 96.53C48.0008 96.7833 48.1441 97.2367 48.1441 97.89C48.1441 97.91 48.1408 98.0667 48.1341 98.36C48.1275 98.6533 48.1241 98.94 48.1241 99.22C48.1241 99.98 48.1875 100.55 48.3141 100.93C48.1208 101.003 47.9308 101.04 47.7441 101.04C47.3708 101.04 47.1475 100.887 47.0741 100.58C46.6741 100.927 46.2241 101.1 45.7241 101.1C45.3375 101.1 45.0141 100.98 44.7541 100.74C44.5008 100.5 44.3741 100.147 44.3741 99.68C44.3741 99.3067 44.4541 99.03 44.6141 98.85C44.7741 98.67 44.9875 98.5367 45.2541 98.45C45.6541 98.3233 46.2575 98.2567 47.0641 98.25ZM51.4395 96.88C51.1329 96.88 50.7829 97.03 50.3895 97.33C50.3962 97.5833 50.3995 98.1333 50.3995 98.98C50.4062 99.8267 50.4295 100.493 50.4695 100.98C50.2895 101.007 50.1229 101.02 49.9695 101.02C49.5362 101.02 49.3195 100.887 49.3195 100.62C49.3195 100.573 49.3229 100.41 49.3295 100.13C49.3429 99.85 49.3529 99.4233 49.3595 98.85C49.3662 98.2767 49.3695 97.6133 49.3695 96.86C49.3695 95.2867 49.3395 94.2067 49.2795 93.62C49.4662 93.5867 49.6395 93.57 49.7995 93.57C50.2729 93.57 50.5095 93.7533 50.5095 94.12C50.5095 94.18 50.4995 94.3233 50.4795 94.55C50.4662 94.77 50.4495 95.0667 50.4295 95.44C50.4095 95.8067 50.3995 96.1967 50.3995 96.61C50.8395 96.3033 51.2862 96.15 51.7395 96.15C52.2062 96.15 52.5595 96.2767 52.7995 96.53C53.0462 96.7767 53.1695 97.0833 53.1695 97.45C53.1695 97.83 53.0429 98.1733 52.7895 98.48C52.5429 98.7867 52.1995 98.9767 51.7595 99.05C52.0062 99.4767 52.2462 99.8067 52.4795 100.04C52.6729 100.227 52.8362 100.32 52.9695 100.32C53.1029 100.32 53.2329 100.3 53.3595 100.26C53.4329 100.427 53.4695 100.553 53.4695 100.64C53.4695 100.793 53.3862 100.91 53.2195 100.99C53.0595 101.063 52.8595 101.1 52.6195 101.1C52.3462 101.1 52.0862 100.96 51.8395 100.68C51.4862 100.273 51.1429 99.6933 50.8095 98.94C50.6962 98.8933 50.6395 98.8033 50.6395 98.67C50.6395 98.5833 50.6629 98.4767 50.7095 98.35C50.8495 98.39 50.9995 98.41 51.1595 98.41C51.4529 98.41 51.6829 98.3233 51.8495 98.15C52.0229 97.9767 52.1095 97.7767 52.1095 97.55C52.1095 97.3633 52.0495 97.2067 51.9295 97.08C51.8162 96.9467 51.6529 96.88 51.4395 96.88ZM55.5812 95.92V96.26C56.1412 96.26 56.5678 96.2433 56.8612 96.21C56.8945 96.2833 56.9112 96.39 56.9112 96.53C56.9112 96.6967 56.8712 96.8133 56.7912 96.88C56.7112 96.94 56.5845 96.9733 56.4112 96.98C56.2178 96.9867 55.9412 96.99 55.5812 96.99V98.97C55.5812 99.85 55.6445 100.503 55.7712 100.93C55.6245 100.997 55.4545 101.03 55.2612 101.03C54.9812 101.03 54.7878 100.99 54.6812 100.91C54.5812 100.823 54.5312 100.683 54.5312 100.49C54.5312 100.13 54.5345 99.5767 54.5412 98.83C54.5478 98.0767 54.5512 97.4667 54.5512 97C54.4578 97 54.2012 97.02 53.7812 97.06C53.7545 96.9533 53.7412 96.83 53.7412 96.69C53.7412 96.55 53.7778 96.4533 53.8512 96.4C53.9245 96.3467 54.0278 96.3067 54.1612 96.28C54.2812 96.2667 54.4112 96.26 54.5512 96.26C54.5645 95.4267 54.7078 94.8167 54.9812 94.43C55.2545 94.0367 55.7378 93.84 56.4312 93.84C56.6978 93.84 56.9212 93.8867 57.1012 93.98C57.2812 94.0667 57.3712 94.19 57.3712 94.35C57.3712 94.53 57.2478 94.72 57.0012 94.92C56.7612 94.7 56.5112 94.59 56.2512 94.59C56.0645 94.59 55.9112 94.6633 55.7912 94.81C55.6512 95.0033 55.5812 95.3733 55.5812 95.92ZM60.1101 99.57C60.1101 99.2633 60.1167 99.0267 60.1301 98.86C59.9301 98.8867 59.7834 98.9067 59.6901 98.92C59.6034 98.9333 59.4834 98.9533 59.3301 98.98C59.1767 99.0067 59.0634 99.0367 58.9901 99.07C58.9234 99.1033 58.8501 99.1433 58.7701 99.19C58.6901 99.2367 58.6334 99.2967 58.6001 99.37C58.5667 99.4367 58.5501 99.5167 58.5501 99.61C58.5501 99.8767 58.6167 100.073 58.7501 100.2C58.8834 100.327 59.0534 100.39 59.2601 100.39C59.6001 100.39 59.8901 100.263 60.1301 100.01C60.1167 99.9233 60.1101 99.7767 60.1101 99.57ZM60.1501 98.25C60.1501 98.0233 60.1434 97.85 60.1301 97.73C60.1234 97.61 60.0967 97.4733 60.0501 97.32C60.0101 97.1667 59.9367 97.0567 59.8301 96.99C59.7301 96.9167 59.5934 96.88 59.4201 96.88C59.2001 96.88 58.9901 96.9533 58.7901 97.1C58.5967 97.24 58.4567 97.4367 58.3701 97.69C57.7767 97.6833 57.4801 97.5067 57.4801 97.16C57.4801 96.8733 57.6801 96.6333 58.0801 96.44C58.4867 96.2467 58.9467 96.15 59.4601 96.15C60.0734 96.15 60.5201 96.2767 60.8001 96.53C61.0867 96.7833 61.2301 97.2367 61.2301 97.89C61.2301 97.91 61.2267 98.0667 61.2201 98.36C61.2134 98.6533 61.2101 98.94 61.2101 99.22C61.2101 99.98 61.2734 100.55 61.4001 100.93C61.2067 101.003 61.0167 101.04 60.8301 101.04C60.4567 101.04 60.2334 100.887 60.1601 100.58C59.7601 100.927 59.3101 101.1 58.8101 101.1C58.4234 101.1 58.1001 100.98 57.8401 100.74C57.5867 100.5 57.4601 100.147 57.4601 99.68C57.4601 99.3067 57.5401 99.03 57.7001 98.85C57.8601 98.67 58.0734 98.5367 58.3401 98.45C58.7401 98.3233 59.3434 98.2567 60.1501 98.25ZM65.0455 97.59C64.9121 97.1567 64.5421 96.94 63.9355 96.94C63.7621 96.94 63.6121 96.99 63.4855 97.09C63.3588 97.1833 63.2955 97.3133 63.2955 97.48C63.2955 97.68 63.3821 97.8367 63.5555 97.95C63.7355 98.0633 63.9521 98.1467 64.2055 98.2C64.4588 98.2533 64.7121 98.3167 64.9655 98.39C65.2188 98.4633 65.4321 98.6 65.6055 98.8C65.7855 99 65.8755 99.2667 65.8755 99.6C65.8755 100.087 65.6821 100.46 65.2955 100.72C64.9155 100.973 64.4655 101.1 63.9455 101.1C63.4855 101.1 63.0788 101.023 62.7255 100.87C62.3721 100.717 62.1955 100.527 62.1955 100.3C62.1955 100.013 62.4021 99.7833 62.8155 99.61C63.0155 100.077 63.4488 100.31 64.1155 100.31C64.6221 100.31 64.8755 100.14 64.8755 99.8C64.8755 99.6 64.7855 99.45 64.6055 99.35C64.4321 99.2433 64.2188 99.1667 63.9655 99.12C63.7121 99.0667 63.4588 99 63.2055 98.92C62.9521 98.84 62.7355 98.6933 62.5555 98.48C62.3821 98.2667 62.2955 97.98 62.2955 97.62C62.2955 97.14 62.4855 96.7767 62.8655 96.53C63.2521 96.2767 63.7055 96.15 64.2255 96.15C64.4255 96.15 64.6321 96.1733 64.8455 96.22C65.0655 96.26 65.2755 96.35 65.4755 96.49C65.6821 96.6233 65.7855 96.7933 65.7855 97C65.7855 97.1333 65.7188 97.2533 65.5855 97.36C65.4521 97.46 65.2721 97.5367 65.0455 97.59ZM66.7107 96.26C66.7707 96.2533 66.9207 96.25 67.1607 96.25C67.1474 95.8567 67.1274 95.52 67.1007 95.24C67.2407 95.2133 67.404 95.2 67.5907 95.2C68.0507 95.2 68.2807 95.3233 68.2807 95.57C68.2807 95.73 68.2707 95.96 68.2507 96.26C68.9707 96.26 69.4707 96.24 69.7507 96.2C69.7907 96.2733 69.8107 96.3767 69.8107 96.51C69.8107 96.69 69.7707 96.8133 69.6907 96.88C69.6107 96.94 69.484 96.9733 69.3107 96.98C69.1107 96.9867 68.7507 96.99 68.2307 96.99C68.2174 97.6167 68.2107 98.2933 68.2107 99.02C68.2107 99.2333 68.2174 99.41 68.2307 99.55C68.244 99.69 68.274 99.83 68.3207 99.97C68.3674 100.11 68.4374 100.217 68.5307 100.29C68.624 100.357 68.744 100.39 68.8907 100.39C69.0974 100.39 69.3107 100.273 69.5307 100.04C69.704 100.233 69.7907 100.397 69.7907 100.53C69.7907 100.723 69.6907 100.867 69.4907 100.96C69.2974 101.053 69.0774 101.1 68.8307 101.1C67.7174 101.1 67.1607 100.493 67.1607 99.28C67.1607 98.9667 67.1607 98.5333 67.1607 97.98C67.1674 97.42 67.1707 97.0867 67.1707 96.98C66.744 97.0067 66.4407 97.0333 66.2607 97.06C66.234 96.9867 66.2207 96.8767 66.2207 96.73C66.2207 96.5567 66.2574 96.44 66.3307 96.38C66.4107 96.32 66.5374 96.28 66.7107 96.26ZM36.8476 106.904C36.725 106.888 36.629 106.845 36.5596 106.776C36.4903 106.701 36.4556 106.613 36.4556 106.512C36.4556 106.304 36.6316 106.104 36.9836 105.912C37.3356 105.715 37.7143 105.616 38.1196 105.616C38.557 105.616 38.933 105.744 39.2476 106C39.5676 106.256 39.7276 106.616 39.7276 107.08C39.7276 107.373 39.677 107.653 39.5756 107.92C39.4743 108.181 39.3036 108.453 39.0636 108.736C38.8236 109.013 38.5783 109.267 38.3276 109.496C38.0823 109.725 37.7383 110.021 37.2956 110.384C37.397 110.389 37.605 110.392 37.9196 110.392C38.4636 110.392 38.861 110.379 39.1116 110.352C39.3676 110.325 39.621 110.264 39.8716 110.168C39.9463 110.328 39.9836 110.464 39.9836 110.576C39.9836 110.741 39.917 110.851 39.7836 110.904C39.5756 110.979 39.133 111.016 38.4556 111.016C37.629 111.016 37.0476 111.011 36.7116 111C36.4556 111 36.3276 110.875 36.3276 110.624C36.3276 110.571 36.3303 110.533 36.3356 110.512C37.3383 109.616 38.0156 108.947 38.3676 108.504C38.7196 108.056 38.8956 107.632 38.8956 107.232C38.8956 106.923 38.805 106.677 38.6236 106.496C38.4476 106.315 38.2316 106.224 37.9756 106.224C37.7676 106.224 37.5596 106.288 37.3516 106.416C37.149 106.539 36.981 106.701 36.8476 106.904ZM43.2889 106.408C42.8729 106.408 42.3849 106.392 41.8249 106.36L41.7129 107.56C41.9102 107.528 42.0969 107.512 42.2729 107.512C42.8489 107.512 43.2862 107.667 43.5849 107.976C43.8835 108.28 44.0329 108.68 44.0329 109.176C44.0329 109.72 43.8542 110.173 43.4969 110.536C43.1449 110.899 42.6595 111.08 42.0409 111.08C41.6302 111.08 41.3129 111.032 41.0889 110.936C40.8649 110.835 40.7529 110.709 40.7529 110.56C40.7529 110.347 40.8782 110.216 41.1289 110.168C41.2942 110.381 41.5742 110.488 41.9689 110.488C42.3475 110.488 42.6409 110.368 42.8489 110.128C43.0622 109.888 43.1689 109.608 43.1689 109.288C43.1689 108.957 43.0462 108.675 42.8009 108.44C42.5555 108.2 42.2195 108.08 41.7929 108.08C41.5742 108.08 41.3635 108.093 41.1609 108.12C41.1075 108.067 41.0809 107.939 41.0809 107.736C41.0809 107.656 41.1155 106.973 41.1849 105.688C41.3502 105.699 41.9129 105.704 42.8729 105.704C43.2729 105.704 43.5875 105.683 43.8169 105.64C43.8702 105.736 43.8969 105.848 43.8969 105.976C43.8969 106.264 43.6942 106.408 43.2889 106.408ZM48.1941 110.336C47.8368 110.832 47.3568 111.08 46.7541 111.08C46.1515 111.08 45.6715 110.835 45.3141 110.344C44.9568 109.848 44.7781 109.184 44.7781 108.352C44.7781 107.515 44.9568 106.851 45.3141 106.36C45.6715 105.864 46.1515 105.616 46.7541 105.616C47.3568 105.616 47.8368 105.864 48.1941 106.36C48.5568 106.851 48.7381 107.515 48.7381 108.352C48.7381 109.179 48.5568 109.84 48.1941 110.336ZM47.8741 108.48C47.8741 108.112 47.8341 107.763 47.7541 107.432C47.6795 107.096 47.5541 106.808 47.3781 106.568C47.2021 106.328 46.9968 106.208 46.7621 106.208C46.4368 106.208 46.1675 106.395 45.9541 106.768C45.7461 107.136 45.6421 107.587 45.6421 108.12C45.6421 108.515 45.6795 108.888 45.7541 109.24C45.8341 109.587 45.9595 109.883 46.1301 110.128C46.3061 110.368 46.5141 110.488 46.7541 110.488C47.0901 110.488 47.3595 110.296 47.5621 109.912C47.7701 109.528 47.8741 109.051 47.8741 108.48ZM52.7141 107.704C52.4688 107.704 52.1888 107.824 51.8741 108.064C51.8795 108.267 51.8821 108.707 51.8821 109.384C51.8875 110.061 51.9061 110.595 51.9381 110.984C51.7941 111.005 51.6608 111.016 51.5381 111.016C51.1915 111.016 51.0181 110.909 51.0181 110.696C51.0181 110.659 51.0208 110.528 51.0261 110.304C51.0368 110.08 51.0448 109.739 51.0501 109.28C51.0555 108.821 51.0581 108.291 51.0581 107.688C51.0581 106.429 51.0341 105.565 50.9861 105.096C51.1355 105.069 51.2741 105.056 51.4021 105.056C51.7808 105.056 51.9701 105.203 51.9701 105.496C51.9701 105.544 51.9621 105.659 51.9461 105.84C51.9355 106.016 51.9221 106.253 51.9061 106.552C51.8901 106.845 51.8821 107.157 51.8821 107.488C52.2341 107.243 52.5915 107.12 52.9541 107.12C53.3275 107.12 53.6101 107.221 53.8021 107.424C53.9995 107.621 54.0981 107.867 54.0981 108.16C54.0981 108.464 53.9968 108.739 53.7941 108.984C53.5968 109.229 53.3221 109.381 52.9701 109.44C53.1675 109.781 53.3595 110.045 53.5461 110.232C53.7008 110.381 53.8315 110.456 53.9381 110.456C54.0448 110.456 54.1488 110.44 54.2501 110.408C54.3088 110.541 54.3381 110.643 54.3381 110.712C54.3381 110.835 54.2715 110.928 54.1381 110.992C54.0101 111.051 53.8501 111.08 53.6581 111.08C53.4395 111.08 53.2315 110.968 53.0341 110.744C52.7515 110.419 52.4768 109.955 52.2101 109.352C52.1195 109.315 52.0741 109.243 52.0741 109.136C52.0741 109.067 52.0928 108.981 52.1301 108.88C52.2421 108.912 52.3621 108.928 52.4901 108.928C52.7248 108.928 52.9088 108.859 53.0421 108.72C53.1808 108.581 53.2501 108.421 53.2501 108.24C53.2501 108.091 53.2021 107.965 53.1061 107.864C53.0155 107.757 52.8848 107.704 52.7141 107.704ZM56.7874 110.504C56.9314 110.504 57.0808 110.467 57.2354 110.392C57.3901 110.317 57.5048 110.211 57.5794 110.072C57.8408 110.211 57.9714 110.36 57.9714 110.52C57.9714 110.701 57.8461 110.84 57.5954 110.936C57.3448 111.032 57.0648 111.08 56.7554 111.08C56.5261 111.08 56.2994 111.043 56.0754 110.968C55.8568 110.888 55.6514 110.773 55.4594 110.624C55.2674 110.475 55.1128 110.272 54.9954 110.016C54.8834 109.76 54.8274 109.467 54.8274 109.136C54.8274 108.475 55.0194 107.973 55.4034 107.632C55.7874 107.291 56.2248 107.12 56.7154 107.12C57.0141 107.12 57.2968 107.192 57.5634 107.336C57.8354 107.475 57.9714 107.669 57.9714 107.92C57.9714 108.032 57.9154 108.123 57.8034 108.192C57.6914 108.261 57.5394 108.307 57.3474 108.328C57.3048 108.136 57.2088 107.987 57.0594 107.88C56.9101 107.773 56.7581 107.72 56.6034 107.72C56.3474 107.72 56.1341 107.843 55.9634 108.088C55.7928 108.333 55.7074 108.653 55.7074 109.048C55.7074 109.555 55.8061 109.925 56.0034 110.16C56.2061 110.389 56.4674 110.504 56.7874 110.504ZM60.6584 109.856C60.6584 109.611 60.6637 109.421 60.6744 109.288C60.5144 109.309 60.397 109.325 60.3224 109.336C60.253 109.347 60.157 109.363 60.0344 109.384C59.9117 109.405 59.821 109.429 59.7624 109.456C59.709 109.483 59.6504 109.515 59.5864 109.552C59.5224 109.589 59.477 109.637 59.4504 109.696C59.4237 109.749 59.4104 109.813 59.4104 109.888C59.4104 110.101 59.4637 110.259 59.5704 110.36C59.677 110.461 59.813 110.512 59.9784 110.512C60.2504 110.512 60.4824 110.411 60.6744 110.208C60.6637 110.139 60.6584 110.021 60.6584 109.856ZM60.6904 108.8C60.6904 108.619 60.685 108.48 60.6744 108.384C60.669 108.288 60.6477 108.179 60.6104 108.056C60.5784 107.933 60.5197 107.845 60.4344 107.792C60.3544 107.733 60.245 107.704 60.1064 107.704C59.9304 107.704 59.7624 107.763 59.6024 107.88C59.4477 107.992 59.3357 108.149 59.2664 108.352C58.7917 108.347 58.5544 108.205 58.5544 107.928C58.5544 107.699 58.7144 107.507 59.0344 107.352C59.3597 107.197 59.7277 107.12 60.1384 107.12C60.629 107.12 60.9864 107.221 61.2104 107.424C61.4397 107.627 61.5544 107.989 61.5544 108.512C61.5544 108.528 61.5517 108.653 61.5464 108.888C61.541 109.123 61.5384 109.352 61.5384 109.576C61.5384 110.184 61.589 110.64 61.6904 110.944C61.5357 111.003 61.3837 111.032 61.2344 111.032C60.9357 111.032 60.757 110.909 60.6984 110.664C60.3784 110.941 60.0184 111.08 59.6184 111.08C59.309 111.08 59.0504 110.984 58.8424 110.792C58.6397 110.6 58.5384 110.317 58.5384 109.944C58.5384 109.645 58.6024 109.424 58.7304 109.28C58.8584 109.136 59.029 109.029 59.2424 108.96C59.5624 108.859 60.045 108.805 60.6904 108.8ZM62.8787 105.056C63.2574 105.056 63.4467 105.203 63.4467 105.496C63.4467 105.528 63.4387 105.653 63.4227 105.872C63.4067 106.085 63.3907 106.395 63.3747 106.8C63.364 107.205 63.3587 107.656 63.3587 108.152C63.3587 109.176 63.3694 109.835 63.3907 110.128C63.412 110.421 63.4734 110.688 63.5747 110.928C63.42 110.997 63.2627 111.032 63.1027 111.032C62.8734 111.032 62.7187 110.984 62.6387 110.888C62.5587 110.787 62.5187 110.619 62.5187 110.384C62.5294 109.381 62.5347 108.645 62.5347 108.176C62.5347 106.56 62.5107 105.533 62.4627 105.096C62.612 105.069 62.7507 105.056 62.8787 105.056Z" fill="black"/>
<path d="M124.654 98.76V96.69C124.654 95.75 124.631 94.9767 124.584 94.37C124.738 94.35 124.921 94.34 125.134 94.34C125.568 94.34 125.784 94.4667 125.784 94.72C125.784 94.76 125.778 94.8967 125.764 95.13C125.751 95.3567 125.738 95.6433 125.724 95.99C125.711 96.33 125.704 96.6533 125.704 96.96V97.82C125.704 99.14 125.728 99.94 125.774 100.22C126.041 100.233 126.254 100.24 126.414 100.24C127.394 100.24 128.028 100.163 128.314 100.01C128.388 100.157 128.424 100.32 128.424 100.5C128.424 100.72 128.338 100.863 128.164 100.93C127.998 100.99 127.718 101.02 127.324 101.02H126.454C125.861 101.02 125.418 101.013 125.124 101C124.938 100.993 124.808 100.947 124.734 100.86C124.668 100.773 124.634 100.63 124.634 100.43C124.634 100.323 124.638 100.077 124.644 99.69C124.651 99.3033 124.654 98.9933 124.654 98.76ZM132.069 100.53C131.629 100.91 131.122 101.1 130.549 101.1C129.569 101.1 129.079 100.627 129.079 99.68C129.079 99.6333 129.082 99.38 129.089 98.92C129.102 98.4533 129.109 98.1167 129.109 97.91C129.109 97.2233 129.052 96.6867 128.939 96.3C129.119 96.24 129.302 96.21 129.489 96.21C129.735 96.21 129.912 96.25 130.019 96.33C130.125 96.41 130.179 96.5433 130.179 96.73C130.179 97.0767 130.169 97.55 130.149 98.15C130.129 98.75 130.119 99.1367 130.119 99.31C130.119 99.65 130.189 99.91 130.329 100.09C130.475 100.27 130.662 100.36 130.889 100.36C131.275 100.36 131.645 100.19 131.999 99.85C131.992 99.5767 131.989 99.1533 131.989 98.58C131.989 97.58 131.965 96.8033 131.919 96.25C132.105 96.2233 132.272 96.21 132.419 96.21C132.845 96.21 133.059 96.34 133.059 96.6C133.059 96.72 133.052 97.0533 133.039 97.6C133.025 98.1467 133.019 98.6 133.019 98.96C133.019 99.7933 133.082 100.447 133.209 100.92C133.069 100.993 132.902 101.03 132.709 101.03C132.582 101.03 132.482 101.02 132.409 101C132.335 100.987 132.265 100.943 132.199 100.87C132.132 100.79 132.089 100.677 132.069 100.53ZM135.402 96.71C135.875 96.3367 136.408 96.15 137.002 96.15C137.408 96.15 137.738 96.27 137.992 96.51C138.245 96.75 138.372 97.1367 138.372 97.67C138.372 97.7433 138.365 98.0033 138.352 98.45C138.345 98.8967 138.342 99.2233 138.342 99.43C138.342 99.9767 138.428 100.47 138.602 100.91C138.395 100.997 138.208 101.04 138.042 101.04C137.768 101.04 137.575 100.983 137.462 100.87C137.348 100.757 137.292 100.543 137.292 100.23C137.292 99.8833 137.298 99.4667 137.312 98.98C137.325 98.4867 137.332 98.1467 137.332 97.96C137.332 97.5933 137.258 97.32 137.112 97.14C136.965 96.96 136.775 96.87 136.542 96.87C136.188 96.87 135.822 97.0433 135.442 97.39C135.455 98.2833 135.462 98.9333 135.462 99.34C135.462 99.98 135.482 100.527 135.522 100.98C135.342 101.007 135.175 101.02 135.022 101.02C134.588 101.02 134.372 100.887 134.372 100.62C134.372 100.427 134.378 100.113 134.392 99.68C134.412 99.2467 134.422 98.8567 134.422 98.51C134.422 97.4033 134.358 96.6767 134.232 96.33C134.392 96.2567 134.565 96.22 134.752 96.22C134.945 96.22 135.095 96.25 135.202 96.31C135.308 96.37 135.375 96.5033 135.402 96.71ZM141.874 100.38C142.054 100.38 142.241 100.333 142.434 100.24C142.627 100.147 142.771 100.013 142.864 99.84C143.191 100.013 143.354 100.2 143.354 100.4C143.354 100.627 143.197 100.8 142.884 100.92C142.571 101.04 142.221 101.1 141.834 101.1C141.547 101.1 141.264 101.053 140.984 100.96C140.711 100.86 140.454 100.717 140.214 100.53C139.974 100.343 139.781 100.09 139.634 99.77C139.494 99.45 139.424 99.0833 139.424 98.67C139.424 97.8433 139.664 97.2167 140.144 96.79C140.624 96.3633 141.171 96.15 141.784 96.15C142.157 96.15 142.511 96.24 142.844 96.42C143.184 96.5933 143.354 96.8367 143.354 97.15C143.354 97.29 143.284 97.4033 143.144 97.49C143.004 97.5767 142.814 97.6333 142.574 97.66C142.521 97.42 142.401 97.2333 142.214 97.1C142.027 96.9667 141.837 96.9 141.644 96.9C141.324 96.9 141.057 97.0533 140.844 97.36C140.631 97.6667 140.524 98.0667 140.524 98.56C140.524 99.1933 140.647 99.6567 140.894 99.95C141.147 100.237 141.474 100.38 141.874 100.38ZM147.193 97.96C147.193 97.5933 147.119 97.32 146.973 97.14C146.826 96.96 146.636 96.87 146.403 96.87C146.036 96.87 145.669 97.0467 145.303 97.4C145.309 97.6467 145.313 98.1867 145.313 99.02C145.319 99.8467 145.343 100.5 145.383 100.98C145.203 101.007 145.036 101.02 144.883 101.02C144.449 101.02 144.233 100.887 144.233 100.62C144.233 100.58 144.236 100.42 144.243 100.14C144.256 99.86 144.266 99.4333 144.273 98.86C144.279 98.28 144.283 97.6133 144.283 96.86C144.283 95.2867 144.253 94.2067 144.193 93.62C144.379 93.5867 144.553 93.57 144.713 93.57C145.186 93.57 145.423 93.7533 145.423 94.12C145.423 94.1467 145.413 94.2633 145.393 94.47C145.379 94.6767 145.363 94.98 145.343 95.38C145.323 95.7733 145.313 96.2067 145.313 96.68C145.773 96.3267 146.289 96.15 146.863 96.15C147.269 96.15 147.599 96.27 147.853 96.51C148.106 96.75 148.233 97.1367 148.233 97.67C148.233 97.71 148.229 97.81 148.223 97.97C148.223 98.13 148.219 98.3433 148.213 98.61C148.206 98.87 148.203 99.1433 148.203 99.43C148.203 99.9767 148.289 100.47 148.463 100.91C148.256 100.997 148.069 101.04 147.903 101.04C147.629 101.04 147.436 100.983 147.323 100.87C147.209 100.757 147.153 100.543 147.153 100.23C147.153 99.9767 147.159 99.5467 147.173 98.94C147.186 98.3267 147.193 98 147.193 97.96Z" fill="black"/>
<path d="M211.417 95.92C211.317 95.6667 211.13 95.4567 210.857 95.29C210.584 95.1233 210.3 95.04 210.007 95.04C209.667 95.04 209.38 95.1233 209.147 95.29C208.92 95.4567 208.807 95.7033 208.807 96.03C208.807 96.23 208.87 96.4 208.997 96.54C209.124 96.6733 209.287 96.78 209.487 96.86C209.694 96.9333 209.917 97.0033 210.157 97.07C210.404 97.1367 210.647 97.2133 210.887 97.3C211.134 97.3867 211.357 97.49 211.557 97.61C211.764 97.73 211.93 97.9033 212.057 98.13C212.184 98.3567 212.247 98.6267 212.247 98.94C212.247 99.3333 212.18 99.6767 212.047 99.97C211.914 100.257 211.727 100.48 211.487 100.64C211.254 100.8 211 100.917 210.727 100.99C210.454 101.063 210.157 101.1 209.837 101.1C209.284 101.1 208.79 101 208.357 100.8C207.93 100.6 207.717 100.363 207.717 100.09C207.717 99.8167 207.91 99.59 208.297 99.41C208.43 99.6633 208.66 99.8767 208.987 100.05C209.314 100.223 209.644 100.31 209.977 100.31C210.364 100.31 210.684 100.223 210.937 100.05C211.197 99.87 211.327 99.6 211.327 99.24C211.327 99.0267 211.24 98.8467 211.067 98.7C210.9 98.5533 210.69 98.4433 210.437 98.37C210.184 98.2967 209.907 98.2067 209.607 98.1C209.307 97.9867 209.03 97.8667 208.777 97.74C208.524 97.6067 208.31 97.4033 208.137 97.13C207.97 96.8567 207.887 96.5267 207.887 96.14C207.887 95.5467 208.11 95.0867 208.557 94.76C209.004 94.4333 209.557 94.27 210.217 94.27C210.497 94.27 210.777 94.3067 211.057 94.38C211.337 94.4467 211.58 94.56 211.787 94.72C211.994 94.8733 212.097 95.0533 212.097 95.26C212.097 95.6067 211.87 95.8267 211.417 95.92ZM214.31 96.71C214.783 96.3367 215.317 96.15 215.91 96.15C216.317 96.15 216.647 96.27 216.9 96.51C217.153 96.75 217.28 97.1367 217.28 97.67C217.28 97.7433 217.273 98.0033 217.26 98.45C217.253 98.8967 217.25 99.2233 217.25 99.43C217.25 99.9767 217.337 100.47 217.51 100.91C217.303 100.997 217.117 101.04 216.95 101.04C216.677 101.04 216.483 100.983 216.37 100.87C216.257 100.757 216.2 100.543 216.2 100.23C216.2 99.8833 216.207 99.4667 216.22 98.98C216.233 98.4867 216.24 98.1467 216.24 97.96C216.24 97.5933 216.167 97.32 216.02 97.14C215.873 96.96 215.683 96.87 215.45 96.87C215.097 96.87 214.73 97.0433 214.35 97.39C214.363 98.2833 214.37 98.9333 214.37 99.34C214.37 99.98 214.39 100.527 214.43 100.98C214.25 101.007 214.083 101.02 213.93 101.02C213.497 101.02 213.28 100.887 213.28 100.62C213.28 100.427 213.287 100.113 213.3 99.68C213.32 99.2467 213.33 98.8567 213.33 98.51C213.33 97.4033 213.267 96.6767 213.14 96.33C213.3 96.2567 213.473 96.22 213.66 96.22C213.853 96.22 214.003 96.25 214.11 96.31C214.217 96.37 214.283 96.5033 214.31 96.71ZM220.982 99.57C220.982 99.2633 220.989 99.0267 221.002 98.86C220.802 98.8867 220.655 98.9067 220.562 98.92C220.475 98.9333 220.355 98.9533 220.202 98.98C220.049 99.0067 219.935 99.0367 219.862 99.07C219.795 99.1033 219.722 99.1433 219.642 99.19C219.562 99.2367 219.505 99.2967 219.472 99.37C219.439 99.4367 219.422 99.5167 219.422 99.61C219.422 99.8767 219.489 100.073 219.622 100.2C219.755 100.327 219.925 100.39 220.132 100.39C220.472 100.39 220.762 100.263 221.002 100.01C220.989 99.9233 220.982 99.7767 220.982 99.57ZM221.022 98.25C221.022 98.0233 221.015 97.85 221.002 97.73C220.995 97.61 220.969 97.4733 220.922 97.32C220.882 97.1667 220.809 97.0567 220.702 96.99C220.602 96.9167 220.465 96.88 220.292 96.88C220.072 96.88 219.862 96.9533 219.662 97.1C219.469 97.24 219.329 97.4367 219.242 97.69C218.649 97.6833 218.352 97.5067 218.352 97.16C218.352 96.8733 218.552 96.6333 218.952 96.44C219.359 96.2467 219.819 96.15 220.332 96.15C220.945 96.15 221.392 96.2767 221.672 96.53C221.959 96.7833 222.102 97.2367 222.102 97.89C222.102 97.91 222.099 98.0667 222.092 98.36C222.085 98.6533 222.082 98.94 222.082 99.22C222.082 99.98 222.145 100.55 222.272 100.93C222.079 101.003 221.889 101.04 221.702 101.04C221.329 101.04 221.105 100.887 221.032 100.58C220.632 100.927 220.182 101.1 219.682 101.1C219.295 101.1 218.972 100.98 218.712 100.74C218.459 100.5 218.332 100.147 218.332 99.68C218.332 99.3067 218.412 99.03 218.572 98.85C218.732 98.67 218.945 98.5367 219.212 98.45C219.612 98.3233 220.215 98.2567 221.022 98.25ZM225.558 100.38C225.738 100.38 225.924 100.333 226.118 100.24C226.311 100.147 226.454 100.013 226.548 99.84C226.874 100.013 227.038 100.2 227.038 100.4C227.038 100.627 226.881 100.8 226.568 100.92C226.254 101.04 225.904 101.1 225.518 101.1C225.231 101.1 224.948 101.053 224.668 100.96C224.394 100.86 224.138 100.717 223.898 100.53C223.658 100.343 223.464 100.09 223.318 99.77C223.178 99.45 223.108 99.0833 223.108 98.67C223.108 97.8433 223.348 97.2167 223.828 96.79C224.308 96.3633 224.854 96.15 225.468 96.15C225.841 96.15 226.194 96.24 226.528 96.42C226.868 96.5933 227.038 96.8367 227.038 97.15C227.038 97.29 226.968 97.4033 226.828 97.49C226.688 97.5767 226.498 97.6333 226.258 97.66C226.204 97.42 226.084 97.2333 225.898 97.1C225.711 96.9667 225.521 96.9 225.328 96.9C225.008 96.9 224.741 97.0533 224.528 97.36C224.314 97.6667 224.208 98.0667 224.208 98.56C224.208 99.1933 224.331 99.6567 224.578 99.95C224.831 100.237 225.158 100.38 225.558 100.38ZM230.036 96.88C229.73 96.88 229.38 97.03 228.986 97.33C228.993 97.5833 228.996 98.1333 228.996 98.98C229.003 99.8267 229.026 100.493 229.066 100.98C228.886 101.007 228.72 101.02 228.566 101.02C228.133 101.02 227.916 100.887 227.916 100.62C227.916 100.573 227.92 100.41 227.926 100.13C227.94 99.85 227.95 99.4233 227.956 98.85C227.963 98.2767 227.966 97.6133 227.966 96.86C227.966 95.2867 227.936 94.2067 227.876 93.62C228.063 93.5867 228.236 93.57 228.396 93.57C228.87 93.57 229.106 93.7533 229.106 94.12C229.106 94.18 229.096 94.3233 229.076 94.55C229.063 94.77 229.046 95.0667 229.026 95.44C229.006 95.8067 228.996 96.1967 228.996 96.61C229.436 96.3033 229.883 96.15 230.336 96.15C230.803 96.15 231.156 96.2767 231.396 96.53C231.643 96.7767 231.766 97.0833 231.766 97.45C231.766 97.83 231.64 98.1733 231.386 98.48C231.14 98.7867 230.796 98.9767 230.356 99.05C230.603 99.4767 230.843 99.8067 231.076 100.04C231.27 100.227 231.433 100.32 231.566 100.32C231.7 100.32 231.83 100.3 231.956 100.26C232.03 100.427 232.066 100.553 232.066 100.64C232.066 100.793 231.983 100.91 231.816 100.99C231.656 101.063 231.456 101.1 231.216 101.1C230.943 101.1 230.683 100.96 230.436 100.68C230.083 100.273 229.74 99.6933 229.406 98.94C229.293 98.8933 229.236 98.8033 229.236 98.67C229.236 98.5833 229.26 98.4767 229.306 98.35C229.446 98.39 229.596 98.41 229.756 98.41C230.05 98.41 230.28 98.3233 230.446 98.15C230.62 97.9767 230.706 97.7767 230.706 97.55C230.706 97.3633 230.646 97.2067 230.526 97.08C230.413 96.9467 230.25 96.88 230.036 96.88ZM235.488 97.59C235.355 97.1567 234.985 96.94 234.378 96.94C234.205 96.94 234.055 96.99 233.928 97.09C233.801 97.1833 233.738 97.3133 233.738 97.48C233.738 97.68 233.825 97.8367 233.998 97.95C234.178 98.0633 234.395 98.1467 234.648 98.2C234.901 98.2533 235.155 98.3167 235.408 98.39C235.661 98.4633 235.875 98.6 236.048 98.8C236.228 99 236.318 99.2667 236.318 99.6C236.318 100.087 236.125 100.46 235.738 100.72C235.358 100.973 234.908 101.1 234.388 101.1C233.928 101.1 233.521 101.023 233.168 100.87C232.815 100.717 232.638 100.527 232.638 100.3C232.638 100.013 232.845 99.7833 233.258 99.61C233.458 100.077 233.891 100.31 234.558 100.31C235.065 100.31 235.318 100.14 235.318 99.8C235.318 99.6 235.228 99.45 235.048 99.35C234.875 99.2433 234.661 99.1667 234.408 99.12C234.155 99.0667 233.901 99 233.648 98.92C233.395 98.84 233.178 98.6933 232.998 98.48C232.825 98.2667 232.738 97.98 232.738 97.62C232.738 97.14 232.928 96.7767 233.308 96.53C233.695 96.2767 234.148 96.15 234.668 96.15C234.868 96.15 235.075 96.1733 235.288 96.22C235.508 96.26 235.718 96.35 235.918 96.49C236.125 96.6233 236.228 96.7933 236.228 97C236.228 97.1333 236.161 97.2533 236.028 97.36C235.895 97.46 235.715 97.5367 235.488 97.59Z" fill="black"/>
<path d="M295.585 100.47C295.679 99.8633 295.732 98.7433 295.745 97.11C295.745 95.9433 295.702 95.0367 295.615 94.39C296.035 94.31 296.572 94.27 297.225 94.27C297.765 94.27 298.249 94.3267 298.675 94.44C299.109 94.5533 299.502 94.7367 299.855 94.99C300.215 95.2367 300.492 95.5867 300.685 96.04C300.885 96.4933 300.985 97.0367 300.985 97.67C300.985 98.67 300.709 99.4933 300.155 100.14C299.602 100.78 298.812 101.1 297.785 101.1C296.839 101.1 296.105 100.89 295.585 100.47ZM296.745 95.08C296.772 95.5133 296.785 96.0233 296.785 96.61C296.785 97.99 296.739 99.1033 296.645 99.95C296.965 100.183 297.362 100.3 297.835 100.3C298.209 100.3 298.532 100.227 298.805 100.08C299.079 99.9267 299.285 99.7267 299.425 99.48C299.572 99.2267 299.679 98.9667 299.745 98.7C299.812 98.4267 299.845 98.1433 299.845 97.85C299.845 96.9167 299.625 96.2167 299.185 95.75C298.752 95.2767 298.129 95.04 297.315 95.04C297.189 95.04 296.999 95.0533 296.745 95.08ZM302.562 96.22C303.042 96.22 303.282 96.3967 303.282 96.75C303.282 96.79 303.272 96.9267 303.252 97.16C303.232 97.3867 303.212 97.67 303.192 98.01C303.179 98.35 303.172 98.6733 303.172 98.98C303.172 99.8733 303.259 100.523 303.432 100.93C303.266 101.003 303.076 101.04 302.862 101.04C302.569 101.04 302.369 100.98 302.262 100.86C302.162 100.74 302.112 100.537 302.112 100.25C302.112 100.143 302.116 99.8867 302.122 99.48C302.129 99.0667 302.132 98.75 302.132 98.53C302.132 97.5633 302.102 96.8067 302.042 96.26C302.202 96.2333 302.376 96.22 302.562 96.22ZM302.612 95.8C302.412 95.8 302.242 95.7333 302.102 95.6C301.962 95.4667 301.892 95.2967 301.892 95.09C301.892 94.89 301.966 94.7233 302.112 94.59C302.259 94.45 302.432 94.38 302.632 94.38C302.826 94.38 302.992 94.45 303.132 94.59C303.272 94.7233 303.342 94.89 303.342 95.09C303.342 95.29 303.269 95.46 303.122 95.6C302.976 95.7333 302.806 95.8 302.612 95.8ZM305.573 96.71C306.046 96.3367 306.579 96.15 307.173 96.15C307.579 96.15 307.909 96.27 308.163 96.51C308.416 96.75 308.543 97.1367 308.543 97.67C308.543 97.7433 308.536 98.0033 308.523 98.45C308.516 98.8967 308.513 99.2233 308.513 99.43C308.513 99.9767 308.599 100.47 308.773 100.91C308.566 100.997 308.379 101.04 308.213 101.04C307.939 101.04 307.746 100.983 307.633 100.87C307.519 100.757 307.463 100.543 307.463 100.23C307.463 99.8833 307.469 99.4667 307.483 98.98C307.496 98.4867 307.503 98.1467 307.503 97.96C307.503 97.5933 307.429 97.32 307.283 97.14C307.136 96.96 306.946 96.87 306.713 96.87C306.359 96.87 305.993 97.0433 305.613 97.39C305.626 98.2833 305.633 98.9333 305.633 99.34C305.633 99.98 305.653 100.527 305.693 100.98C305.513 101.007 305.346 101.02 305.193 101.02C304.759 101.02 304.543 100.887 304.543 100.62C304.543 100.427 304.549 100.113 304.563 99.68C304.583 99.2467 304.593 98.8567 304.593 98.51C304.593 97.4033 304.529 96.6767 304.403 96.33C304.563 96.2567 304.736 96.22 304.923 96.22C305.116 96.22 305.266 96.25 305.373 96.31C305.479 96.37 305.546 96.5033 305.573 96.71ZM310.895 96.71C311.368 96.3367 311.902 96.15 312.495 96.15C312.902 96.15 313.232 96.27 313.485 96.51C313.738 96.75 313.865 97.1367 313.865 97.67C313.865 97.7433 313.858 98.0033 313.845 98.45C313.838 98.8967 313.835 99.2233 313.835 99.43C313.835 99.9767 313.922 100.47 314.095 100.91C313.888 100.997 313.702 101.04 313.535 101.04C313.262 101.04 313.068 100.983 312.955 100.87C312.842 100.757 312.785 100.543 312.785 100.23C312.785 99.8833 312.792 99.4667 312.805 98.98C312.818 98.4867 312.825 98.1467 312.825 97.96C312.825 97.5933 312.752 97.32 312.605 97.14C312.458 96.96 312.268 96.87 312.035 96.87C311.682 96.87 311.315 97.0433 310.935 97.39C310.948 98.2833 310.955 98.9333 310.955 99.34C310.955 99.98 310.975 100.527 311.015 100.98C310.835 101.007 310.668 101.02 310.515 101.02C310.082 101.02 309.865 100.887 309.865 100.62C309.865 100.427 309.872 100.113 309.885 99.68C309.905 99.2467 309.915 98.8567 309.915 98.51C309.915 97.4033 309.852 96.6767 309.725 96.33C309.885 96.2567 310.058 96.22 310.245 96.22C310.438 96.22 310.588 96.25 310.695 96.31C310.802 96.37 310.868 96.5033 310.895 96.71ZM316.767 99.03C316.587 99.03 316.344 99.0233 316.037 99.01C316.104 99.4833 316.254 99.83 316.487 100.05C316.727 100.27 317.02 100.38 317.367 100.38C317.547 100.38 317.734 100.333 317.927 100.24C318.12 100.147 318.264 100.013 318.357 99.84C318.684 100.013 318.847 100.2 318.847 100.4C318.847 100.627 318.69 100.8 318.377 100.92C318.064 101.04 317.714 101.1 317.327 101.1C316.7 101.1 316.14 100.893 315.647 100.48C315.16 100.067 314.917 99.47 314.917 98.69C314.917 97.87 315.15 97.2433 315.617 96.81C316.09 96.37 316.647 96.15 317.287 96.15C317.8 96.15 318.214 96.29 318.527 96.57C318.847 96.85 319.007 97.1833 319.007 97.57C319.007 97.8833 318.947 98.1433 318.827 98.35C318.714 98.55 318.544 98.6967 318.317 98.79C318.09 98.8833 317.86 98.9467 317.627 98.98C317.394 99.0133 317.107 99.03 316.767 99.03ZM317.197 96.88C316.884 96.88 316.617 97 316.397 97.24C316.177 97.48 316.047 97.86 316.007 98.38C316.434 98.38 316.747 98.37 316.947 98.35C317.594 98.27 317.917 98.0167 317.917 97.59C317.917 97.3967 317.847 97.23 317.707 97.09C317.574 96.95 317.404 96.88 317.197 96.88ZM320.421 96.22C320.661 96.22 320.831 96.2633 320.931 96.35C321.037 96.4367 321.091 96.5733 321.091 96.76V96.88C321.477 96.3933 321.854 96.15 322.221 96.15C322.607 96.15 322.801 96.29 322.801 96.57C322.801 96.7567 322.681 97 322.441 97.3C322.301 97.18 322.144 97.12 321.971 97.12C321.631 97.12 321.324 97.3033 321.051 97.67C321.031 98.0967 321.021 98.53 321.021 98.97C321.021 99.8433 321.111 100.49 321.291 100.91C321.111 100.997 320.914 101.04 320.701 101.04C320.414 101.04 320.221 100.977 320.121 100.85C320.021 100.723 319.971 100.52 319.971 100.24C319.971 100.16 319.974 99.9333 319.981 99.56C319.987 99.1867 319.991 98.8933 319.991 98.68C319.991 97.5667 319.961 96.7633 319.901 96.27C320.094 96.2367 320.267 96.22 320.421 96.22Z" fill="black"/>
<path d="M207 74.1H237V44.1H207V74.1Z" fill="black"/>
<path d="M294 76.1H324V46.1H294V76.1Z" fill="black"/>
<line x1="-0.000694442" y1="115.75" x2="359.999" y2="114.75" stroke="#EBEBEB" stroke-width="0.5"/>
<line x1="13" y1="115" x2="88" y2="115" stroke="#69AA33" stroke-width="2"/>
<defs>
<filter id="filter0_dd_1001_9781" x="21" y="33" width="61" height="60" filterUnits="userSpaceOnUse" color-interpolation-filters="sRGB">
<feFlood flood-opacity="0" result="BackgroundImageFix"/>
<feColorMatrix in="SourceAlpha" type="matrix" values="0 0 0 0 0 0 0 0 0 0 0 0 0 0 0 0 0 0 127 0" result="hardAlpha"/>
<feOffset dx="1" dy="1"/>
<feGaussianBlur stdDeviation="2"/>
<feComposite in2="hardAlpha" operator="out"/>
<feColorMatrix type="matrix" values="0 0 0 0 0.74902 0 0 0 0 0.482353 0 0 0 0 0.72549 0 0 0 0.2 0"/>
<feBlend mode="normal" in2="BackgroundImageFix" result="effect1_dropShadow_1001_9781"/>
<feColorMatrix in="SourceAlpha" type="matrix" values="0 0 0 0 0 0 0 0 0 0 0 0 0 0 0 0 0 0 127 0" result="hardAlpha"/>
<feOffset dx="1" dy="1"/>
<feGaussianBlur stdDeviation="2"/>
<feComposite in2="hardAlpha" operator="out"/>
<feColorMatrix type="matrix" values="0 0 0 0 0.952941 0 0 0 0 0.901961 0 0 0 0 0.94902 0 0 0 0.4 0"/>
<feBlend mode="normal" in2="effect1_dropShadow_1001_9781" result="effect2_dropShadow_1001_9781"/>
<feBlend mode="normal" in="SourceGraphic" in2="effect2_dropShadow_1001_9781" result="shape"/>
</filter>
<filter id="filter1_dd_1001_9781" x="107" y="33" width="61" height="60" filterUnits="userSpaceOnUse" color-interpolation-filters="sRGB">
<feFlood flood-opacity="0" result="BackgroundImageFix"/>
<feColorMatrix in="SourceAlpha" type="matrix" values="0 0 0 0 0 0 0 0 0 0 0 0 0 0 0 0 0 0 127 0" result="hardAlpha"/>
<feOffset dx="1" dy="1"/>
<feGaussianBlur stdDeviation="2"/>
<feComposite in2="hardAlpha" operator="out"/>
<feColorMatrix type="matrix" values="0 0 0 0 0.74902 0 0 0 0 0.482353 0 0 0 0 0.72549 0 0 0 0.2 0"/>
<feBlend mode="normal" in2="BackgroundImageFix" result="effect1_dropShadow_1001_9781"/>
<feColorMatrix in="SourceAlpha" type="matrix" values="0 0 0 0 0 0 0 0 0 0 0 0 0 0 0 0 0 0 127 0" result="hardAlpha"/>
<feOffset dx="1" dy="1"/>
<feGaussianBlur stdDeviation="2"/>
<feComposite in2="hardAlpha" operator="out"/>
<feColorMatrix type="matrix" values="0 0 0 0 0.952941 0 0 0 0 0.901961 0 0 0 0 0.94902 0 0 0 0.4 0"/>
<feBlend mode="normal" in2="effect1_dropShadow_1001_9781" result="effect2_dropShadow_1001_9781"/>
<feBlend mode="normal" in="SourceGraphic" in2="effect2_dropShadow_1001_9781" result="shape"/>
</filter>
<filter id="filter2_dd_1001_9781" x="193" y="33" width="61" height="60" filterUnits="userSpaceOnUse" color-interpolation-filters="sRGB">
<feFlood flood-opacity="0" result="BackgroundImageFix"/>
<feColorMatrix in="SourceAlpha" type="matrix" values="0 0 0 0 0 0 0 0 0 0 0 0 0 0 0 0 0 0 127 0" result="hardAlpha"/>
<feOffset dx="1" dy="1"/>
<feGaussianBlur stdDeviation="2"/>
<feComposite in2="hardAlpha" operator="out"/>
<feColorMatrix type="matrix" values="0 0 0 0 0.74902 0 0 0 0 0.482353 0 0 0 0 0.72549 0 0 0 0.2 0"/>
<feBlend mode="normal" in2="BackgroundImageFix" result="effect1_dropShadow_1001_9781"/>
<feColorMatrix in="SourceAlpha" type="matrix" values="0 0 0 0 0 0 0 0 0 0 0 0 0 0 0 0 0 0 127 0" result="hardAlpha"/>
<feOffset dx="1" dy="1"/>
<feGaussianBlur stdDeviation="2"/>
<feComposite in2="hardAlpha" operator="out"/>
<feColorMatrix type="matrix" values="0 0 0 0 0.952941 0 0 0 0 0.901961 0 0 0 0 0.94902 0 0 0 0.4 0"/>
<feBlend mode="normal" in2="effect1_dropShadow_1001_9781" result="effect2_dropShadow_1001_9781"/>
<feBlend mode="normal" in="SourceGraphic" in2="effect2_dropShadow_1001_9781" result="shape"/>
</filter>
<filter id="filter3_dd_1001_9781" x="279" y="33" width="61" height="60" filterUnits="userSpaceOnUse" color-interpolation-filters="sRGB">
<feFlood flood-opacity="0" result="BackgroundImageFix"/>
<feColorMatrix in="SourceAlpha" type="matrix" values="0 0 0 0 0 0 0 0 0 0 0 0 0 0 0 0 0 0 127 0" result="hardAlpha"/>
<feOffset dx="1" dy="1"/>
<feGaussianBlur stdDeviation="2"/>
<feComposite in2="hardAlpha" operator="out"/>
<feColorMatrix type="matrix" values="0 0 0 0 0.74902 0 0 0 0 0.482353 0 0 0 0 0.72549 0 0 0 0.2 0"/>
<feBlend mode="normal" in2="BackgroundImageFix" result="effect1_dropShadow_1001_9781"/>
<feColorMatrix in="SourceAlpha" type="matrix" values="0 0 0 0 0 0 0 0 0 0 0 0 0 0 0 0 0 0 127 0" result="hardAlpha"/>
<feOffset dx="1" dy="1"/>
<feGaussianBlur stdDeviation="2"/>
<feComposite in2="hardAlpha" operator="out"/>
<feColorMatrix type="matrix" values="0 0 0 0 0.952941 0 0 0 0 0.901961 0 0 0 0 0.94902 0 0 0 0.4 0"/>
<feBlend mode="normal" in2="effect1_dropShadow_1001_9781" result="effect2_dropShadow_1001_9781"/>
<feBlend mode="normal" in="SourceGraphic" in2="effect2_dropShadow_1001_9781" result="shape"/>
</filter>
</defs>
</svg>
