<svg width="59" height="21" viewBox="0 0 59 21" fill="none" xmlns="http://www.w3.org/2000/svg">
<path d="M1.43516 16.552V17.432C1.43516 18.1413 1.48582 18.664 1.58716 19C1.43782 19.0533 1.27249 19.08 1.09116 19.08C0.893823 19.08 0.757823 19.0453 0.683156 18.976C0.613823 18.9067 0.579156 18.7893 0.579156 18.624C0.579156 18.5387 0.581823 18.328 0.587156 17.992C0.59249 17.656 0.595156 17.3947 0.595156 17.208V15.544C0.595156 14.808 0.557823 14.208 0.483156 13.744C1.06449 13.696 1.65916 13.672 2.26716 13.672C3.05649 13.672 3.50182 13.712 3.60316 13.792C3.65116 13.84 3.67516 13.9253 3.67516 14.048C3.67516 14.208 3.65382 14.352 3.61116 14.48C3.31782 14.368 2.85382 14.312 2.21916 14.312C1.96316 14.312 1.69116 14.32 1.40316 14.336C1.42449 14.5013 1.43516 14.8587 1.43516 15.408V15.92H2.03516C2.46182 15.92 2.76582 15.9093 2.94716 15.888C2.96849 15.936 2.97916 16.0213 2.97916 16.144C2.97916 16.2933 2.95249 16.3973 2.89916 16.456C2.84582 16.5093 2.76049 16.5387 2.64316 16.544C2.50982 16.5493 2.33116 16.552 2.10716 16.552H1.43516ZM5.85759 17.856C5.85759 17.6107 5.86293 17.4213 5.87359 17.288C5.71359 17.3093 5.59626 17.3253 5.52159 17.336C5.45226 17.3467 5.35626 17.3627 5.23359 17.384C5.11093 17.4053 5.02026 17.4293 4.96159 17.456C4.90826 17.4827 4.84959 17.5147 4.78559 17.552C4.72159 17.5893 4.67626 17.6373 4.64959 17.696C4.62293 17.7493 4.60959 17.8133 4.60959 17.888C4.60959 18.1013 4.66293 18.2587 4.76959 18.36C4.87626 18.4613 5.01226 18.512 5.17759 18.512C5.44959 18.512 5.68159 18.4107 5.87359 18.208C5.86293 18.1387 5.85759 18.0213 5.85759 17.856ZM5.88959 16.8C5.88959 16.6187 5.88426 16.48 5.87359 16.384C5.86826 16.288 5.84693 16.1787 5.80959 16.056C5.77759 15.9333 5.71893 15.8453 5.63359 15.792C5.55359 15.7333 5.44426 15.704 5.30559 15.704C5.12959 15.704 4.96159 15.7627 4.80159 15.88C4.64693 15.992 4.53493 16.1493 4.46559 16.352C3.99093 16.3467 3.75359 16.2053 3.75359 15.928C3.75359 15.6987 3.91359 15.5067 4.23359 15.352C4.55893 15.1973 4.92693 15.12 5.33759 15.12C5.82826 15.12 6.18559 15.2213 6.40959 15.424C6.63893 15.6267 6.75359 15.9893 6.75359 16.512C6.75359 16.528 6.75093 16.6533 6.74559 16.888C6.74026 17.1227 6.73759 17.352 6.73759 17.576C6.73759 18.184 6.78826 18.64 6.88959 18.944C6.73493 19.0027 6.58293 19.032 6.43359 19.032C6.13493 19.032 5.95626 18.9093 5.89759 18.664C5.57759 18.9413 5.21759 19.08 4.81759 19.08C4.50826 19.08 4.24959 18.984 4.04159 18.792C3.83893 18.6 3.73759 18.3173 3.73759 17.944C3.73759 17.6453 3.80159 17.424 3.92959 17.28C4.05759 17.136 4.22826 17.0293 4.44159 16.96C4.76159 16.8587 5.24426 16.8053 5.88959 16.8ZM7.64591 15.208C7.69391 15.2027 7.81391 15.2 8.00591 15.2C7.99524 14.8853 7.97924 14.616 7.95791 14.392C8.06991 14.3707 8.20057 14.36 8.34991 14.36C8.71791 14.36 8.90191 14.4587 8.90191 14.656C8.90191 14.784 8.89391 14.968 8.87791 15.208C9.45391 15.208 9.85391 15.192 10.0779 15.16C10.1099 15.2187 10.1259 15.3013 10.1259 15.408C10.1259 15.552 10.0939 15.6507 10.0299 15.704C9.96591 15.752 9.86457 15.7787 9.72591 15.784C9.56591 15.7893 9.27791 15.792 8.86191 15.792C8.85124 16.2933 8.84591 16.8347 8.84591 17.416C8.84591 17.5867 8.85124 17.728 8.86191 17.84C8.87257 17.952 8.89657 18.064 8.93391 18.176C8.97124 18.288 9.02724 18.3733 9.10191 18.432C9.17657 18.4853 9.27257 18.512 9.38991 18.512C9.55524 18.512 9.72591 18.4187 9.90191 18.232C10.0406 18.3867 10.1099 18.5173 10.1099 18.624C10.1099 18.7787 10.0299 18.8933 9.86991 18.968C9.71524 19.0427 9.53924 19.08 9.34191 19.08C8.45124 19.08 8.00591 18.5947 8.00591 17.624C8.00591 17.3733 8.00591 17.0267 8.00591 16.584C8.01124 16.136 8.01391 15.8693 8.01391 15.784C7.67257 15.8053 7.42991 15.8267 7.28591 15.848C7.26457 15.7893 7.25391 15.7013 7.25391 15.584C7.25391 15.4453 7.28324 15.352 7.34191 15.304C7.40591 15.256 7.50724 15.224 7.64591 15.208ZM12.7825 16.272C12.6758 15.9253 12.3798 15.752 11.8945 15.752C11.7558 15.752 11.6358 15.792 11.5345 15.872C11.4331 15.9467 11.3825 16.0507 11.3825 16.184C11.3825 16.344 11.4518 16.4693 11.5905 16.56C11.7345 16.6507 11.9078 16.7173 12.1105 16.76C12.3131 16.8027 12.5158 16.8533 12.7185 16.912C12.9211 16.9707 13.0918 17.08 13.2305 17.24C13.3745 17.4 13.4465 17.6133 13.4465 17.88C13.4465 18.2693 13.2918 18.568 12.9825 18.776C12.6785 18.9787 12.3185 19.08 11.9025 19.08C11.5345 19.08 11.2091 19.0187 10.9265 18.896C10.6438 18.7733 10.5025 18.6213 10.5025 18.44C10.5025 18.2107 10.6678 18.0267 10.9985 17.888C11.1585 18.2613 11.5051 18.448 12.0385 18.448C12.4438 18.448 12.6465 18.312 12.6465 18.04C12.6465 17.88 12.5745 17.76 12.4305 17.68C12.2918 17.5947 12.1211 17.5333 11.9185 17.496C11.7158 17.4533 11.5131 17.4 11.3105 17.336C11.1078 17.272 10.9345 17.1547 10.7905 16.984C10.6518 16.8133 10.5825 16.584 10.5825 16.296C10.5825 15.912 10.7345 15.6213 11.0385 15.424C11.3478 15.2213 11.7105 15.12 12.1265 15.12C12.2865 15.12 12.4518 15.1387 12.6225 15.176C12.7985 15.208 12.9665 15.28 13.1265 15.392C13.2918 15.4987 13.3745 15.6347 13.3745 15.8C13.3745 15.9067 13.3211 16.0027 13.2145 16.088C13.1078 16.168 12.9638 16.2293 12.7825 16.272Z" fill="black"/>
<path d="M33.0032 19.08C32.6298 19.08 32.2912 19.0133 31.9872 18.88C31.6885 18.7413 31.4352 18.5413 31.2272 18.28L31.8512 17.656C31.9632 17.8267 32.1205 17.9627 32.3232 18.064C32.5258 18.1653 32.7472 18.216 32.9872 18.216C33.2165 18.216 33.4138 18.1733 33.5792 18.088C33.7445 18.0027 33.8725 17.8827 33.9632 17.728C34.0592 17.5733 34.1072 17.3947 34.1072 17.192C34.1072 16.9787 34.0592 16.7973 33.9632 16.648C33.8725 16.4987 33.7392 16.384 33.5632 16.304C33.3925 16.2187 33.1845 16.176 32.9392 16.176C32.8432 16.176 32.7445 16.184 32.6432 16.2C32.5418 16.2107 32.4512 16.2293 32.3712 16.256L32.7792 15.728C32.8912 15.6853 33.0085 15.6507 33.1312 15.624C33.2592 15.592 33.3818 15.576 33.4992 15.576C33.7872 15.576 34.0458 15.6453 34.2752 15.784C34.5098 15.9227 34.6938 16.1173 34.8272 16.368C34.9658 16.6133 35.0352 16.904 35.0352 17.24C35.0352 17.6027 34.9498 17.9227 34.7792 18.2C34.6085 18.4773 34.3712 18.6933 34.0672 18.848C33.7632 19.0027 33.4085 19.08 33.0032 19.08ZM32.3712 16.256V15.712L33.8672 13.968L34.9712 13.944L33.4112 15.736L32.3712 16.256ZM31.5072 14.224V13.4H34.9712V13.944L34.1792 14.224H31.5072ZM37.9475 19.08C37.5261 19.08 37.1395 18.9627 36.7875 18.728C36.4408 18.488 36.1635 18.152 35.9555 17.72C35.7475 17.288 35.6435 16.7787 35.6435 16.192C35.6435 15.6053 35.7448 15.0987 35.9475 14.672C36.1555 14.24 36.4328 13.9067 36.7795 13.672C37.1261 13.4373 37.5101 13.32 37.9315 13.32C38.3581 13.32 38.7448 13.4373 39.0915 13.672C39.4381 13.9067 39.7128 14.24 39.9155 14.672C40.1235 15.0987 40.2275 15.608 40.2275 16.2C40.2275 16.7867 40.1235 17.296 39.9155 17.728C39.7128 18.16 39.4381 18.4933 39.0915 18.728C38.7501 18.9627 38.3688 19.08 37.9475 19.08ZM37.9315 18.216C38.2088 18.216 38.4488 18.1413 38.6515 17.992C38.8541 17.8427 39.0115 17.6187 39.1235 17.32C39.2408 17.0213 39.2995 16.6453 39.2995 16.192C39.2995 15.744 39.2408 15.3707 39.1235 15.072C39.0115 14.7733 38.8515 14.552 38.6435 14.408C38.4408 14.2587 38.2035 14.184 37.9315 14.184C37.6595 14.184 37.4195 14.2587 37.2115 14.408C37.0088 14.552 36.8515 14.7733 36.7395 15.072C36.6275 15.3653 36.5715 15.7387 36.5715 16.192C36.5715 16.6453 36.6275 17.0213 36.7395 17.32C36.8515 17.6187 37.0088 17.8427 37.2115 17.992C37.4195 18.1413 37.6595 18.216 37.9315 18.216ZM40.5897 19.32L42.8297 13.08H43.6537L41.4137 19.32H40.5897ZM45.6646 19.08C45.2753 19.08 44.9286 19.0133 44.6246 18.88C44.3206 18.7413 44.0646 18.5413 43.8566 18.28L44.4806 17.656C44.5926 17.8267 44.7499 17.9627 44.9526 18.064C45.1606 18.1653 45.3926 18.216 45.6486 18.216C45.8833 18.216 46.0886 18.1733 46.2646 18.088C46.4406 18.0027 46.5793 17.88 46.6806 17.72C46.7819 17.56 46.8326 17.3707 46.8326 17.152C46.8326 16.9227 46.7819 16.7333 46.6806 16.584C46.5846 16.4293 46.4539 16.3147 46.2886 16.24C46.1286 16.16 45.9553 16.12 45.7686 16.12C45.5553 16.12 45.3633 16.144 45.1926 16.192C45.0273 16.24 44.8646 16.3253 44.7046 16.448L44.7286 15.872C44.8139 15.76 44.9126 15.6693 45.0246 15.6C45.1366 15.5253 45.2673 15.4693 45.4166 15.432C45.5659 15.3947 45.7419 15.376 45.9446 15.376C46.3393 15.376 46.6699 15.4587 46.9366 15.624C47.2086 15.7893 47.4139 16.0107 47.5526 16.288C47.6913 16.56 47.7606 16.864 47.7606 17.2C47.7606 17.5627 47.6699 17.8853 47.4886 18.168C47.3126 18.4507 47.0673 18.6747 46.7526 18.84C46.4379 19 46.0753 19.08 45.6646 19.08ZM44.7046 16.448L44.2006 15.944L44.4486 13.4H45.2886L45.0006 16.048L44.7046 16.448ZM44.6086 14.224L44.4486 13.4H47.4486V14.224H44.6086ZM50.64 19.08C50.2186 19.08 49.832 18.9627 49.48 18.728C49.1333 18.488 48.856 18.152 48.648 17.72C48.44 17.288 48.336 16.7787 48.336 16.192C48.336 15.6053 48.4373 15.0987 48.64 14.672C48.848 14.24 49.1253 13.9067 49.472 13.672C49.8186 13.4373 50.2026 13.32 50.624 13.32C51.0506 13.32 51.4373 13.4373 51.784 13.672C52.1306 13.9067 52.4053 14.24 52.608 14.672C52.816 15.0987 52.92 15.608 52.92 16.2C52.92 16.7867 52.816 17.296 52.608 17.728C52.4053 18.16 52.1306 18.4933 51.784 18.728C51.4426 18.9627 51.0613 19.08 50.64 19.08ZM50.624 18.216C50.9013 18.216 51.1413 18.1413 51.344 17.992C51.5466 17.8427 51.704 17.6187 51.816 17.32C51.9333 17.0213 51.992 16.6453 51.992 16.192C51.992 15.744 51.9333 15.3707 51.816 15.072C51.704 14.7733 51.544 14.552 51.336 14.408C51.1333 14.2587 50.896 14.184 50.624 14.184C50.352 14.184 50.112 14.2587 49.904 14.408C49.7013 14.552 49.544 14.7733 49.432 15.072C49.32 15.3653 49.264 15.7387 49.264 16.192C49.264 16.6453 49.32 17.0213 49.432 17.32C49.544 17.6187 49.7013 17.8427 49.904 17.992C50.112 18.1413 50.352 18.216 50.624 18.216ZM55.2982 20.68C54.8928 20.68 54.5382 20.6053 54.2342 20.456C53.9302 20.312 53.6848 20.1067 53.4982 19.84L54.0742 19.264C54.2288 19.456 54.4048 19.6 54.6022 19.696C54.7995 19.792 55.0368 19.84 55.3142 19.84C55.6608 19.84 55.9355 19.7493 56.1382 19.568C56.3408 19.392 56.4422 19.1493 56.4422 18.84V17.896L56.5942 17.048L56.4422 16.192V15.16H57.3222V18.84C57.3222 19.208 57.2368 19.528 57.0662 19.8C56.8955 20.0773 56.6582 20.2933 56.3542 20.448C56.0502 20.6027 55.6982 20.68 55.2982 20.68ZM55.2582 18.92C54.9168 18.92 54.6075 18.8373 54.3302 18.672C54.0582 18.5013 53.8422 18.2693 53.6822 17.976C53.5275 17.6827 53.4502 17.3547 53.4502 16.992C53.4502 16.6293 53.5275 16.304 53.6822 16.016C53.8422 15.728 54.0582 15.5013 54.3302 15.336C54.6075 15.1653 54.9168 15.08 55.2582 15.08C55.5622 15.08 55.8288 15.1413 56.0582 15.264C56.2875 15.3867 56.4662 15.5573 56.5942 15.776C56.7222 15.9893 56.7862 16.24 56.7862 16.528V17.472C56.7862 17.7547 56.7195 18.0053 56.5862 18.224C56.4582 18.4427 56.2795 18.6133 56.0502 18.736C55.8208 18.8587 55.5568 18.92 55.2582 18.92ZM55.4342 18.088C55.6475 18.088 55.8342 18.0427 55.9942 17.952C56.1542 17.8613 56.2768 17.736 56.3622 17.576C56.4528 17.4107 56.4982 17.2187 56.4982 17C56.4982 16.7813 56.4528 16.592 56.3622 16.432C56.2768 16.2667 56.1542 16.1387 55.9942 16.048C55.8342 15.9573 55.6475 15.912 55.4342 15.912C55.2208 15.912 55.0315 15.9573 54.8662 16.048C54.7062 16.1387 54.5808 16.2667 54.4902 16.432C54.3995 16.592 54.3542 16.7813 54.3542 17C54.3542 17.2133 54.3995 17.4027 54.4902 17.568C54.5808 17.7333 54.7062 17.8613 54.8662 17.952C55.0315 18.0427 55.2208 18.088 55.4342 18.088Z" fill="black" fill-opacity="0.65"/>
<rect width="58" height="10" rx="5" fill="white"/>
<rect width="26" height="10" rx="5" fill="#F3C51C"/>
</svg>
