<svg width="59" height="21" viewBox="0 0 59 21" fill="none" xmlns="http://www.w3.org/2000/svg">
<path d="M1.43516 16.552V17.432C1.43516 18.1413 1.48582 18.664 1.58716 19C1.43782 19.0533 1.27249 19.08 1.09116 19.08C0.893823 19.08 0.757823 19.0453 0.683156 18.976C0.613823 18.9067 0.579156 18.7893 0.579156 18.624C0.579156 18.5387 0.581823 18.328 0.587156 17.992C0.59249 17.656 0.595156 17.3947 0.595156 17.208V15.544C0.595156 14.808 0.557823 14.208 0.483156 13.744C1.06449 13.696 1.65916 13.672 2.26716 13.672C3.05649 13.672 3.50182 13.712 3.60316 13.792C3.65116 13.84 3.67516 13.9253 3.67516 14.048C3.67516 14.208 3.65382 14.352 3.61116 14.48C3.31782 14.368 2.85382 14.312 2.21916 14.312C1.96316 14.312 1.69116 14.32 1.40316 14.336C1.42449 14.5013 1.43516 14.8587 1.43516 15.408V15.92H2.03516C2.46182 15.92 2.76582 15.9093 2.94716 15.888C2.96849 15.936 2.97916 16.0213 2.97916 16.144C2.97916 16.2933 2.95249 16.3973 2.89916 16.456C2.84582 16.5093 2.76049 16.5387 2.64316 16.544C2.50982 16.5493 2.33116 16.552 2.10716 16.552H1.43516ZM4.60378 15.176C4.98778 15.176 5.17978 15.3173 5.17978 15.6C5.17978 15.632 5.17178 15.7413 5.15578 15.928C5.13978 16.1093 5.12378 16.336 5.10778 16.608C5.09711 16.88 5.09178 17.1387 5.09178 17.384C5.09178 18.0987 5.16111 18.6187 5.29978 18.944C5.16645 19.0027 5.01445 19.032 4.84378 19.032C4.60911 19.032 4.44911 18.984 4.36378 18.888C4.28378 18.792 4.24378 18.6293 4.24378 18.4C4.24378 18.3147 4.24645 18.1093 4.25178 17.784C4.25711 17.4533 4.25978 17.2 4.25978 17.024C4.25978 16.2507 4.23578 15.6453 4.18778 15.208C4.31578 15.1867 4.45445 15.176 4.60378 15.176ZM4.64378 14.84C4.48378 14.84 4.34778 14.7867 4.23578 14.68C4.12378 14.5733 4.06778 14.4373 4.06778 14.272C4.06778 14.112 4.12645 13.9787 4.24378 13.872C4.36111 13.76 4.49978 13.704 4.65978 13.704C4.81445 13.704 4.94778 13.76 5.05978 13.872C5.17178 13.9787 5.22778 14.112 5.22778 14.272C5.22778 14.432 5.16911 14.568 5.05178 14.68C4.93445 14.7867 4.79845 14.84 4.64378 14.84ZM8.70797 17.016C8.70797 16.5733 8.62797 16.2453 8.46797 16.032C8.3133 15.8133 8.11864 15.704 7.88397 15.704C7.57464 15.704 7.28664 15.8373 7.01997 16.104C7.0253 16.424 7.02797 16.7787 7.02797 17.168C7.02797 17.5307 7.01997 17.8427 7.00397 18.104C7.25997 18.36 7.54264 18.488 7.85197 18.488C8.13997 18.488 8.3533 18.344 8.49197 18.056C8.63597 17.768 8.70797 17.4213 8.70797 17.016ZM8.17197 15.12C8.58797 15.12 8.92664 15.2773 9.18797 15.592C9.4493 15.9013 9.57997 16.368 9.57997 16.992C9.57997 17.5787 9.4253 18.0747 9.11597 18.48C8.80664 18.88 8.3613 19.08 7.77997 19.08C7.1453 19.08 6.6013 18.8933 6.14797 18.52C6.1853 18.2053 6.20397 17.6373 6.20397 16.816C6.20397 16.3413 6.19064 15.6533 6.16397 14.752C6.1373 13.8453 6.10797 13.2907 6.07597 13.088C6.1773 13.0667 6.31864 13.056 6.49997 13.056C6.8733 13.056 7.05997 13.2 7.05997 13.488C7.05997 13.552 7.05197 13.784 7.03597 14.184C7.01997 14.584 7.01197 15.0347 7.01197 15.536C7.3533 15.2587 7.73997 15.12 8.17197 15.12ZM10.6717 15.176C10.8637 15.176 10.9997 15.2107 11.0797 15.28C11.165 15.3493 11.2077 15.4587 11.2077 15.608V15.704C11.517 15.3147 11.8183 15.12 12.1117 15.12C12.421 15.12 12.5757 15.232 12.5757 15.456C12.5757 15.6053 12.4797 15.8 12.2877 16.04C12.1757 15.944 12.0503 15.896 11.9117 15.896C11.6397 15.896 11.3943 16.0427 11.1757 16.336C11.1597 16.6773 11.1517 17.024 11.1517 17.376C11.1517 18.0747 11.2237 18.592 11.3677 18.928C11.2237 18.9973 11.0663 19.032 10.8957 19.032C10.6663 19.032 10.5117 18.9813 10.4317 18.88C10.3517 18.7787 10.3117 18.616 10.3117 18.392C10.3117 18.328 10.3143 18.1467 10.3197 17.848C10.325 17.5493 10.3277 17.3147 10.3277 17.144C10.3277 16.2533 10.3037 15.6107 10.2557 15.216C10.4103 15.1893 10.549 15.176 10.6717 15.176ZM14.4988 17.424C14.3548 17.424 14.1602 17.4187 13.9148 17.408C13.9682 17.7867 14.0882 18.064 14.2748 18.24C14.4668 18.416 14.7015 18.504 14.9788 18.504C15.1228 18.504 15.2722 18.4667 15.4268 18.392C15.5815 18.3173 15.6962 18.2107 15.7708 18.072C16.0322 18.2107 16.1628 18.36 16.1628 18.52C16.1628 18.7013 16.0375 18.84 15.7868 18.936C15.5362 19.032 15.2562 19.08 14.9468 19.08C14.4455 19.08 13.9975 18.9147 13.6028 18.584C13.2135 18.2533 13.0188 17.776 13.0188 17.152C13.0188 16.496 13.2055 15.9947 13.5788 15.648C13.9575 15.296 14.4028 15.12 14.9148 15.12C15.3255 15.12 15.6562 15.232 15.9068 15.456C16.1628 15.68 16.2908 15.9467 16.2908 16.256C16.2908 16.5067 16.2428 16.7147 16.1468 16.88C16.0562 17.04 15.9202 17.1573 15.7388 17.232C15.5575 17.3067 15.3735 17.3573 15.1868 17.384C15.0002 17.4107 14.7708 17.424 14.4988 17.424ZM14.8428 15.704C14.5922 15.704 14.3788 15.8 14.2028 15.992C14.0268 16.184 13.9228 16.488 13.8908 16.904C14.2322 16.904 14.4828 16.896 14.6428 16.88C15.1602 16.816 15.4188 16.6133 15.4188 16.272C15.4188 16.1173 15.3628 15.984 15.2508 15.872C15.1442 15.76 15.0082 15.704 14.8428 15.704ZM19.1497 16.272C19.043 15.9253 18.747 15.752 18.2617 15.752C18.123 15.752 18.003 15.792 17.9017 15.872C17.8003 15.9467 17.7497 16.0507 17.7497 16.184C17.7497 16.344 17.819 16.4693 17.9577 16.56C18.1017 16.6507 18.275 16.7173 18.4777 16.76C18.6803 16.8027 18.883 16.8533 19.0857 16.912C19.2883 16.9707 19.459 17.08 19.5977 17.24C19.7417 17.4 19.8137 17.6133 19.8137 17.88C19.8137 18.2693 19.659 18.568 19.3497 18.776C19.0457 18.9787 18.6857 19.08 18.2697 19.08C17.9017 19.08 17.5763 19.0187 17.2937 18.896C17.011 18.7733 16.8697 18.6213 16.8697 18.44C16.8697 18.2107 17.035 18.0267 17.3657 17.888C17.5257 18.2613 17.8723 18.448 18.4057 18.448C18.811 18.448 19.0137 18.312 19.0137 18.04C19.0137 17.88 18.9417 17.76 18.7977 17.68C18.659 17.5947 18.4883 17.5333 18.2857 17.496C18.083 17.4533 17.8803 17.4 17.6777 17.336C17.475 17.272 17.3017 17.1547 17.1577 16.984C17.019 16.8133 16.9497 16.584 16.9497 16.296C16.9497 15.912 17.1017 15.6213 17.4057 15.424C17.715 15.2213 18.0777 15.12 18.4937 15.12C18.6537 15.12 18.819 15.1387 18.9897 15.176C19.1657 15.208 19.3337 15.28 19.4937 15.392C19.659 15.4987 19.7417 15.6347 19.7417 15.8C19.7417 15.9067 19.6883 16.0027 19.5817 16.088C19.475 16.168 19.331 16.2293 19.1497 16.272Z" fill="black"/>
<path d="M33.0032 19.08C32.6298 19.08 32.2912 19.0133 31.9872 18.88C31.6885 18.7413 31.4352 18.5413 31.2272 18.28L31.8512 17.656C31.9632 17.8267 32.1205 17.9627 32.3232 18.064C32.5258 18.1653 32.7472 18.216 32.9872 18.216C33.2165 18.216 33.4138 18.1733 33.5792 18.088C33.7445 18.0027 33.8725 17.8827 33.9632 17.728C34.0592 17.5733 34.1072 17.3947 34.1072 17.192C34.1072 16.9787 34.0592 16.7973 33.9632 16.648C33.8725 16.4987 33.7392 16.384 33.5632 16.304C33.3925 16.2187 33.1845 16.176 32.9392 16.176C32.8432 16.176 32.7445 16.184 32.6432 16.2C32.5418 16.2107 32.4512 16.2293 32.3712 16.256L32.7792 15.728C32.8912 15.6853 33.0085 15.6507 33.1312 15.624C33.2592 15.592 33.3818 15.576 33.4992 15.576C33.7872 15.576 34.0458 15.6453 34.2752 15.784C34.5098 15.9227 34.6938 16.1173 34.8272 16.368C34.9658 16.6133 35.0352 16.904 35.0352 17.24C35.0352 17.6027 34.9498 17.9227 34.7792 18.2C34.6085 18.4773 34.3712 18.6933 34.0672 18.848C33.7632 19.0027 33.4085 19.08 33.0032 19.08ZM32.3712 16.256V15.712L33.8672 13.968L34.9712 13.944L33.4112 15.736L32.3712 16.256ZM31.5072 14.224V13.4H34.9712V13.944L34.1792 14.224H31.5072ZM37.9475 19.08C37.5261 19.08 37.1395 18.9627 36.7875 18.728C36.4408 18.488 36.1635 18.152 35.9555 17.72C35.7475 17.288 35.6435 16.7787 35.6435 16.192C35.6435 15.6053 35.7448 15.0987 35.9475 14.672C36.1555 14.24 36.4328 13.9067 36.7795 13.672C37.1261 13.4373 37.5101 13.32 37.9315 13.32C38.3581 13.32 38.7448 13.4373 39.0915 13.672C39.4381 13.9067 39.7128 14.24 39.9155 14.672C40.1235 15.0987 40.2275 15.608 40.2275 16.2C40.2275 16.7867 40.1235 17.296 39.9155 17.728C39.7128 18.16 39.4381 18.4933 39.0915 18.728C38.7501 18.9627 38.3688 19.08 37.9475 19.08ZM37.9315 18.216C38.2088 18.216 38.4488 18.1413 38.6515 17.992C38.8541 17.8427 39.0115 17.6187 39.1235 17.32C39.2408 17.0213 39.2995 16.6453 39.2995 16.192C39.2995 15.744 39.2408 15.3707 39.1235 15.072C39.0115 14.7733 38.8515 14.552 38.6435 14.408C38.4408 14.2587 38.2035 14.184 37.9315 14.184C37.6595 14.184 37.4195 14.2587 37.2115 14.408C37.0088 14.552 36.8515 14.7733 36.7395 15.072C36.6275 15.3653 36.5715 15.7387 36.5715 16.192C36.5715 16.6453 36.6275 17.0213 36.7395 17.32C36.8515 17.6187 37.0088 17.8427 37.2115 17.992C37.4195 18.1413 37.6595 18.216 37.9315 18.216ZM40.5897 19.32L42.8297 13.08H43.6537L41.4137 19.32H40.5897ZM45.6646 19.08C45.2753 19.08 44.9286 19.0133 44.6246 18.88C44.3206 18.7413 44.0646 18.5413 43.8566 18.28L44.4806 17.656C44.5926 17.8267 44.7499 17.9627 44.9526 18.064C45.1606 18.1653 45.3926 18.216 45.6486 18.216C45.8833 18.216 46.0886 18.1733 46.2646 18.088C46.4406 18.0027 46.5793 17.88 46.6806 17.72C46.7819 17.56 46.8326 17.3707 46.8326 17.152C46.8326 16.9227 46.7819 16.7333 46.6806 16.584C46.5846 16.4293 46.4539 16.3147 46.2886 16.24C46.1286 16.16 45.9553 16.12 45.7686 16.12C45.5553 16.12 45.3633 16.144 45.1926 16.192C45.0273 16.24 44.8646 16.3253 44.7046 16.448L44.7286 15.872C44.8139 15.76 44.9126 15.6693 45.0246 15.6C45.1366 15.5253 45.2673 15.4693 45.4166 15.432C45.5659 15.3947 45.7419 15.376 45.9446 15.376C46.3393 15.376 46.6699 15.4587 46.9366 15.624C47.2086 15.7893 47.4139 16.0107 47.5526 16.288C47.6913 16.56 47.7606 16.864 47.7606 17.2C47.7606 17.5627 47.6699 17.8853 47.4886 18.168C47.3126 18.4507 47.0673 18.6747 46.7526 18.84C46.4379 19 46.0753 19.08 45.6646 19.08ZM44.7046 16.448L44.2006 15.944L44.4486 13.4H45.2886L45.0006 16.048L44.7046 16.448ZM44.6086 14.224L44.4486 13.4H47.4486V14.224H44.6086ZM50.64 19.08C50.2186 19.08 49.832 18.9627 49.48 18.728C49.1333 18.488 48.856 18.152 48.648 17.72C48.44 17.288 48.336 16.7787 48.336 16.192C48.336 15.6053 48.4373 15.0987 48.64 14.672C48.848 14.24 49.1253 13.9067 49.472 13.672C49.8186 13.4373 50.2026 13.32 50.624 13.32C51.0506 13.32 51.4373 13.4373 51.784 13.672C52.1306 13.9067 52.4053 14.24 52.608 14.672C52.816 15.0987 52.92 15.608 52.92 16.2C52.92 16.7867 52.816 17.296 52.608 17.728C52.4053 18.16 52.1306 18.4933 51.784 18.728C51.4426 18.9627 51.0613 19.08 50.64 19.08ZM50.624 18.216C50.9013 18.216 51.1413 18.1413 51.344 17.992C51.5466 17.8427 51.704 17.6187 51.816 17.32C51.9333 17.0213 51.992 16.6453 51.992 16.192C51.992 15.744 51.9333 15.3707 51.816 15.072C51.704 14.7733 51.544 14.552 51.336 14.408C51.1333 14.2587 50.896 14.184 50.624 14.184C50.352 14.184 50.112 14.2587 49.904 14.408C49.7013 14.552 49.544 14.7733 49.432 15.072C49.32 15.3653 49.264 15.7387 49.264 16.192C49.264 16.6453 49.32 17.0213 49.432 17.32C49.544 17.6187 49.7013 17.8427 49.904 17.992C50.112 18.1413 50.352 18.216 50.624 18.216ZM55.2982 20.68C54.8928 20.68 54.5382 20.6053 54.2342 20.456C53.9302 20.312 53.6848 20.1067 53.4982 19.84L54.0742 19.264C54.2288 19.456 54.4048 19.6 54.6022 19.696C54.7995 19.792 55.0368 19.84 55.3142 19.84C55.6608 19.84 55.9355 19.7493 56.1382 19.568C56.3408 19.392 56.4422 19.1493 56.4422 18.84V17.896L56.5942 17.048L56.4422 16.192V15.16H57.3222V18.84C57.3222 19.208 57.2368 19.528 57.0662 19.8C56.8955 20.0773 56.6582 20.2933 56.3542 20.448C56.0502 20.6027 55.6982 20.68 55.2982 20.68ZM55.2582 18.92C54.9168 18.92 54.6075 18.8373 54.3302 18.672C54.0582 18.5013 53.8422 18.2693 53.6822 17.976C53.5275 17.6827 53.4502 17.3547 53.4502 16.992C53.4502 16.6293 53.5275 16.304 53.6822 16.016C53.8422 15.728 54.0582 15.5013 54.3302 15.336C54.6075 15.1653 54.9168 15.08 55.2582 15.08C55.5622 15.08 55.8288 15.1413 56.0582 15.264C56.2875 15.3867 56.4662 15.5573 56.5942 15.776C56.7222 15.9893 56.7862 16.24 56.7862 16.528V17.472C56.7862 17.7547 56.7195 18.0053 56.5862 18.224C56.4582 18.4427 56.2795 18.6133 56.0502 18.736C55.8208 18.8587 55.5568 18.92 55.2582 18.92ZM55.4342 18.088C55.6475 18.088 55.8342 18.0427 55.9942 17.952C56.1542 17.8613 56.2768 17.736 56.3622 17.576C56.4528 17.4107 56.4982 17.2187 56.4982 17C56.4982 16.7813 56.4528 16.592 56.3622 16.432C56.2768 16.2667 56.1542 16.1387 55.9942 16.048C55.8342 15.9573 55.6475 15.912 55.4342 15.912C55.2208 15.912 55.0315 15.9573 54.8662 16.048C54.7062 16.1387 54.5808 16.2667 54.4902 16.432C54.3995 16.592 54.3542 16.7813 54.3542 17C54.3542 17.2133 54.3995 17.4027 54.4902 17.568C54.5808 17.7333 54.7062 17.8613 54.8662 17.952C55.0315 18.0427 55.2208 18.088 55.4342 18.088Z" fill="black" fill-opacity="0.65"/>
<rect width="58" height="10" rx="5" fill="white"/>
<rect width="26" height="10" rx="5" fill="#A4DF73"/>
</svg>
