<svg width="360" height="216" viewBox="0 0 360 216" fill="none" xmlns="http://www.w3.org/2000/svg">
<g opacity="0.6">
<path d="M0.910323 115.459C0.622932 117.961 0.961225 120.278 1.79772 122.668C2.15854 123.699 2.64233 124.82 2.9144 125.947C3.18017 124.123 3.59458 122.308 4.17522 120.548C4.0491 118.745 3.9464 117.027 4.46172 115.243C5.09867 113.036 6.10589 110.929 6.61896 108.692C6.63382 108.627 6.74958 108.633 6.73652 108.701C6.36985 110.64 5.55678 112.463 4.95452 114.347C4.37253 116.166 4.36037 117.922 4.45406 119.75C4.94461 118.395 5.53155 117.077 6.22615 115.817C6.72886 114.906 7.28247 114.024 7.86266 113.157C8.82393 110.062 10.5149 107.039 10.2321 103.75C10.2253 103.673 10.3577 103.65 10.3658 103.729C10.6956 106.836 9.21988 109.638 8.27618 112.551C10.8726 108.784 13.9073 105.282 15.5659 101.023C15.5911 100.957 15.6961 100.994 15.6772 101.058C14.097 106.473 9.44692 110.66 6.69463 115.577C6.20634 116.449 5.78921 117.334 5.42434 118.23C6.38201 116.801 7.63157 115.569 9.14015 114.531C11.6654 112.795 14.6429 111.356 16.0038 108.637C16.0353 108.574 16.1492 108.609 16.1182 108.674C15.0407 110.932 12.8415 112.364 10.687 113.766C9.36673 114.626 8.01581 115.499 6.95904 116.625C6.15362 117.484 5.50542 118.48 4.94595 119.488C4.79009 119.936 4.64955 120.387 4.51667 120.839C4.51802 120.863 4.51937 120.886 4.52072 120.909C4.52433 120.963 4.49775 121.004 4.46036 121.032C4.16982 122.047 3.93243 123.073 3.73559 124.108C5.22795 121.616 8.13112 119.782 10.4501 117.994C10.4924 117.961 10.5451 118.02 10.5046 118.053C8.93294 119.364 7.19102 120.542 5.74957 121.972C4.57748 123.134 4.01306 124.395 3.4536 125.748C3.18558 127.493 3.00314 129.257 2.83647 131.029C3.7509 128.114 6.30453 125.555 8.41222 123.331C8.46087 123.28 8.55816 123.34 8.50906 123.392C7.33878 124.63 6.1757 125.868 5.1928 127.233C4.11982 128.722 3.66395 130.364 2.78106 131.912C2.74142 131.982 2.59638 131.974 2.61439 131.88C2.62611 131.821 2.64367 131.762 2.65673 131.702C2.60763 131.693 2.56169 131.661 2.56034 131.603C2.53151 130.206 2.59008 128.788 2.73557 127.37C2.62026 126.6 2.50808 125.838 2.2779 125.072C1.96483 124.032 1.56077 123.015 1.23509 121.977C0.566165 119.847 0.349506 117.637 0.784196 115.45C0.799511 115.38 0.918431 115.386 0.910323 115.459Z" fill="#472C18"/>
<path d="M16.104 108.684C16.4986 108.432 16.8959 108.179 17.2337 107.867C17.5711 107.555 17.8495 107.18 17.959 106.758C18.0536 106.393 17.818 105.947 17.3346 106.024C17.1405 106.055 16.9716 106.166 16.8454 106.303C16.7193 106.438 16.631 106.598 16.5441 106.757C16.5297 106.421 15.9914 105.057 15.4409 105.841C14.6342 106.991 15.3725 107.808 16.104 108.684Z" fill="#F1A006"/>
<path d="M10.475 118.023C10.9993 117.953 11.5273 117.883 12.016 117.734C12.5043 117.586 12.9561 117.353 13.248 117.005C13.4998 116.705 13.4336 116.19 12.8876 116.06C12.6921 116.013 12.4444 116.04 12.2516 116.115C12.0611 116.188 11.9007 116.301 11.7426 116.412C11.9178 115.96 11.7804 114.64 10.948 115.097C9.61237 115.829 10.0592 116.899 10.475 118.023Z" fill="#F1A006"/>
<path d="M8.42829 123.429C8.95307 123.36 9.48056 123.289 9.96931 123.141C10.4576 122.992 10.9094 122.759 11.2013 122.411C11.4531 122.111 11.3869 121.597 10.8409 121.466C10.6454 121.419 10.3977 121.446 10.2049 121.521C10.0143 121.595 9.85398 121.707 9.69587 121.818C9.8711 121.367 9.73372 120.046 8.90128 120.503C7.56522 121.236 8.01252 122.306 8.42829 123.429Z" fill="#F1A006"/>
<path d="M15.5076 101.114C15.9207 100.886 16.3982 100.802 16.7585 100.512C17.1018 100.236 17.359 99.827 17.4905 99.4236C17.6126 99.0496 17.3842 98.5837 16.9392 98.4927C16.445 98.3915 16.163 98.8006 16.095 99.179C16.1 98.7881 15.5716 97.6173 14.9779 98.1259C13.918 99.0327 14.8783 100.243 15.5076 101.114Z" fill="#F1A006"/>
<path d="M10.3881 103.94C10.7408 103.643 11.1899 103.474 11.4773 103.125C11.7512 102.792 11.9102 102.345 11.948 101.926C11.9827 101.538 11.6543 101.123 11.1976 101.114C10.6908 101.104 10.507 101.556 10.5259 101.939C10.4421 101.555 9.66014 100.504 9.19392 101.11C8.36103 102.19 9.57501 103.201 10.3881 103.94Z" fill="#F1A006"/>
<path d="M6.70884 108.698C7.062 108.4 7.51065 108.232 7.79804 107.882C8.07192 107.549 8.23138 107.102 8.26876 106.683C8.30345 106.295 7.97507 105.88 7.51831 105.872C7.01155 105.862 6.82776 106.314 6.84668 106.697C6.7629 106.313 5.9809 105.262 5.51423 105.867C4.68133 106.948 5.89532 107.959 6.70884 108.698Z" fill="#F1A006"/>
<path d="M0.76981 115.486C1.19324 115.129 1.73244 114.926 2.07749 114.507C2.40587 114.107 2.59732 113.571 2.64236 113.068C2.68426 112.601 2.28966 112.103 1.74145 112.093C1.13288 112.081 0.912607 112.624 0.93513 113.083C0.834678 112.623 -0.10407 111.361 -0.664438 112.088C-1.66355 113.385 -0.206328 114.599 0.76981 115.486Z" fill="#F1A006"/>
<path d="M10.4453 67.4602C10.1476 67.2437 9.7881 67.2006 9.37819 67.332C8.04619 67.7608 6.61825 69.8674 6.06824 70.7536C5.34075 71.9251 4.76011 73.1438 4.43488 74.1461C4.46732 73.8137 4.50246 73.48 4.54525 73.1434C4.57363 72.9186 4.60696 72.688 4.6439 72.4555C4.6448 72.4515 4.6484 72.4478 4.6484 72.4434C4.6484 72.4394 4.6484 72.4354 4.6484 72.4313C4.73218 71.9062 4.84254 71.3682 5.01822 70.839L5.04706 70.7766C5.28265 70.2647 5.50471 69.7811 6.09571 68.9964C6.49797 68.4625 7.20834 67.8354 7.83493 67.2824C8.69755 66.5211 9.37909 65.9195 9.35296 65.5608C9.34711 65.4818 9.30882 65.4165 9.23945 65.3661C9.02278 65.2089 8.77232 65.1654 8.49484 65.2371C7.13266 65.591 5.32904 68.8514 4.82543 70.7955C4.74029 71.0518 4.67408 71.3101 4.61462 71.5677C4.34299 69.154 2.6236 64.8785 1.01998 64.1212C0.678532 63.96 0.357806 63.9596 0.0654597 64.12C-0.0232799 64.1688 -0.0786848 64.2417 -0.0994058 64.336C-0.209768 64.8394 0.714568 65.9412 1.78485 67.2167C2.45063 68.0103 3.13892 68.8308 3.52721 69.47C3.94253 70.1535 4.15155 70.9095 4.35335 71.641C4.42948 71.9159 4.44569 72.123 4.4493 72.4196C4.41146 72.6578 4.37723 72.894 4.34795 73.1245C4.18353 74.421 4.09794 75.6881 4.08938 76.9241C3.39388 73.8737 1.56007 69.7944 -0.167879 68.9787C-0.587704 68.7804 -0.980501 68.7792 -1.33951 68.9767C-1.44537 69.0351 -1.51159 69.1218 -1.53636 69.2346C-1.67285 69.8581 -0.459774 71.3041 0.825378 72.8351C1.66142 73.8318 2.5263 74.8623 3.01459 75.6659C3.53667 76.5255 3.79974 77.4766 4.0538 78.3959C4.09479 78.5446 4.12092 78.6768 4.13893 78.809C4.14929 78.9863 4.16055 79.1632 4.17452 79.3394C4.17497 79.3615 4.17543 79.3837 4.17543 79.4067C4.17543 79.4171 4.17858 79.4272 4.18308 79.4365C4.23308 80.0374 4.30245 80.6294 4.39164 81.2126C3.18937 78.5204 0.599701 75.5333 -2.15664 73.8834C-2.80304 73.4961 -3.37738 73.4167 -3.73234 73.6653C-3.96747 73.8298 -4.05756 74.1256 -3.96297 74.4186C-3.88143 74.6721 -3.68774 74.8877 -3.49044 75.0827C-2.60574 75.9601 -1.4742 76.663 -0.38004 77.3424C0.899255 78.1368 2.2218 78.9585 3.12496 80.0519C3.78263 80.8478 4.1993 81.7639 4.60246 82.6497C4.65336 82.7613 4.69209 82.8633 4.72633 82.9649C4.77633 83.1837 4.82949 83.4009 4.88579 83.6165C4.88714 83.6246 4.8885 83.6322 4.88985 83.6403C4.89075 83.6451 4.8939 83.6488 4.8957 83.6532C4.99661 84.0385 5.10516 84.4205 5.22498 84.7965C5.36417 85.2334 5.51914 85.6634 5.684 86.0882C4.94976 84.9735 3.92542 83.6705 2.81955 82.4704C1.91728 81.4914 -0.321029 79.2043 -1.6215 79.1117C-1.93727 79.0891 -2.18276 79.2007 -2.33096 79.4353C-2.68142 79.989 -0.974646 81.1537 1.00196 82.5026C2.06773 83.2296 3.16955 83.9817 3.89298 84.614C4.66687 85.2906 5.293 86.116 5.89796 86.9148C6.11013 87.1945 6.24077 87.4202 6.39752 87.7305L6.39797 87.7313C6.41464 87.7643 6.43131 87.7978 6.44888 87.8328C6.44933 87.8336 6.45023 87.8345 6.45068 87.8353C7.82141 90.6185 9.76603 93.0728 12.1818 95.0399C12.212 95.0645 12.2562 95.0705 12.2922 95.0576C12.303 95.0536 12.3134 95.048 12.3219 95.0411C12.3602 95.0097 12.3593 94.9581 12.3201 94.9259C9.90252 92.9576 7.9597 90.4972 6.59707 87.7043C6.59392 87.6978 6.59031 87.691 6.58716 87.6845C6.54932 87.5975 6.50608 87.5056 6.45969 87.4113C6.29797 87.0667 6.14391 86.7177 5.99977 86.3639C6.07364 85.9222 6.14527 85.6171 6.31464 85.2221C6.76509 84.1715 7.23086 83.0854 7.96871 82.1459C8.65791 81.269 9.80522 80.1821 10.9142 79.1314C12.9683 77.1857 14.7427 75.5051 14.0192 74.924C13.6814 74.6523 13.2733 74.5842 12.8075 74.7208C11.0908 75.2266 9.17774 78.279 8.43268 79.5695C7.07996 81.913 6.09031 84.3839 5.85067 85.9854C5.69526 85.582 5.54841 85.1742 5.41598 84.7595C5.36328 84.5934 5.31373 84.4258 5.26463 84.2581C5.26823 84.2464 5.26958 84.2347 5.26643 84.2223C5.16823 83.8374 5.11868 83.5758 5.11958 83.2131C5.12228 82.2757 5.12499 81.3069 5.39751 80.3924C5.77229 79.137 6.64392 78.0372 7.48673 76.9737C8.20791 76.0637 8.95386 75.123 9.40117 74.0768C9.50072 73.8439 9.58855 73.5928 9.55882 73.3333C9.52414 73.033 9.31828 72.7755 9.03539 72.6768C8.6043 72.5264 8.10926 72.742 7.67592 73.2672C5.80562 75.5337 4.66282 79.0645 4.71102 81.9307C4.55516 81.0864 4.44209 80.2224 4.37182 79.339C4.37182 79.3301 4.37182 79.3208 4.37137 79.3119C4.39164 78.9641 4.36597 78.545 4.30245 78.0799C4.27452 77.232 4.28218 76.3687 4.33038 75.4894C4.33443 75.4821 4.34029 75.4753 4.34164 75.4668C4.34614 75.439 4.35065 75.412 4.35561 75.3854C4.35561 75.3854 4.3556 75.385 4.35605 75.3846C4.4047 75.1057 4.45696 74.9038 4.57588 74.6463C4.91282 73.9148 5.26147 73.1584 5.82229 72.5091C6.34707 71.9018 7.22681 71.151 8.07817 70.4251C9.44305 69.2604 10.6219 68.2545 10.5881 67.7133C10.5818 67.6085 10.5336 67.5242 10.4453 67.4602Z" fill="#3A4513"/>
<path d="M356.446 140.46C356.148 140.244 355.789 140.201 355.379 140.332C354.047 140.761 352.619 142.867 352.069 143.754C351.341 144.925 350.761 146.144 350.435 147.146C350.467 146.814 350.502 146.48 350.545 146.143C350.574 145.919 350.607 145.688 350.644 145.455C350.645 145.451 350.648 145.448 350.648 145.443C350.648 145.439 350.648 145.435 350.648 145.431C350.732 144.906 350.843 144.368 351.018 143.839L351.047 143.777C351.283 143.265 351.505 142.781 352.096 141.996C352.498 141.462 353.208 140.835 353.835 140.282C354.698 139.521 355.379 138.919 355.353 138.561C355.347 138.482 355.309 138.416 355.239 138.366C355.023 138.209 354.773 138.165 354.495 138.237C353.133 138.591 351.33 141.851 350.826 143.795V143.796C350.741 144.052 350.675 144.31 350.615 144.568C350.343 142.154 348.625 137.878 347.02 137.121C346.679 136.96 346.358 136.96 346.066 137.12C345.977 137.169 345.922 137.242 345.901 137.336C345.791 137.839 346.715 138.941 347.785 140.217C348.451 141.01 349.139 141.831 349.528 142.47C349.943 143.153 350.152 143.91 350.354 144.641C350.43 144.916 350.446 145.123 350.45 145.42C350.412 145.658 350.378 145.894 350.348 146.125C350.184 147.421 350.098 148.688 350.089 149.924C349.394 146.874 347.56 142.794 345.832 141.979C345.412 141.78 345.02 141.779 344.66 141.977C344.555 142.035 344.488 142.122 344.464 142.235C344.327 142.858 345.541 144.304 346.825 145.835C347.661 146.832 348.526 147.862 349.015 148.666C349.537 149.526 349.8 150.477 350.054 151.396C350.095 151.545 350.121 151.677 350.139 151.809C350.149 151.986 350.161 152.164 350.175 152.339C350.175 152.362 350.175 152.384 350.175 152.407C350.175 152.417 350.179 152.427 350.183 152.436C350.233 153.037 350.302 153.629 350.392 154.213C349.189 151.52 346.6 148.533 343.843 146.883C343.197 146.496 342.623 146.417 342.268 146.665C342.033 146.83 341.942 147.126 342.037 147.419C342.119 147.672 342.312 147.888 342.51 148.083C343.394 148.96 344.526 149.663 345.62 150.342C346.899 151.137 348.222 151.959 349.125 153.052C349.783 153.848 350.199 154.764 350.602 155.65C350.653 155.761 350.692 155.863 350.726 155.965C350.776 156.184 350.829 156.401 350.886 156.617C350.887 156.625 350.889 156.632 350.89 156.64C350.891 156.645 350.894 156.649 350.896 156.653C350.997 157.038 351.105 157.421 351.225 157.797C351.364 158.233 351.519 158.663 351.684 159.088C350.95 157.973 349.925 156.671 348.82 155.47C347.917 154.491 345.679 152.204 344.379 152.112C344.063 152.089 343.817 152.201 343.669 152.435C343.319 152.989 345.025 154.154 347.002 155.503C348.068 156.23 349.17 156.982 349.893 157.614C350.667 158.291 351.293 159.116 351.898 159.915C352.11 160.194 352.241 160.42 352.398 160.73L352.398 160.731C352.415 160.764 352.431 160.798 352.449 160.833C352.449 160.834 352.45 160.834 352.451 160.835C353.821 163.618 355.766 166.073 358.182 168.04C358.212 168.064 358.256 168.071 358.292 168.058C358.303 168.054 358.313 168.048 358.322 168.041C358.36 168.01 358.359 167.958 358.32 167.926C355.903 165.958 353.96 163.497 352.597 160.704C352.594 160.698 352.59 160.691 352.587 160.685C352.55 160.597 352.506 160.506 352.46 160.411C352.298 160.067 352.144 159.718 352 159.364C352.074 158.922 352.145 158.617 352.315 158.222C352.765 157.171 353.231 156.085 353.969 155.146C354.658 154.269 355.805 153.182 356.915 152.131C358.969 150.185 360.743 148.505 360.02 147.924C359.682 147.652 359.274 147.584 358.808 147.72C357.091 148.226 355.178 151.279 354.433 152.569C353.08 154.913 352.09 157.383 351.851 158.985C351.696 158.582 351.549 158.174 351.417 157.759C351.364 157.593 351.315 157.425 351.266 157.258C351.269 157.246 351.27 157.234 351.267 157.222C351.169 156.837 351.119 156.575 351.12 156.213C351.123 155.275 351.126 154.306 351.399 153.392C351.774 152.137 352.645 151.037 353.488 149.974C354.209 149.064 354.955 148.123 355.403 147.076C355.502 146.843 355.59 146.592 355.56 146.333C355.525 146.033 355.32 145.775 355.037 145.676C354.606 145.526 354.111 145.742 353.677 146.267C351.807 148.533 350.664 152.064 350.712 154.93C350.557 154.086 350.443 153.222 350.373 152.339C350.373 152.33 350.373 152.32 350.373 152.312C350.393 151.964 350.367 151.545 350.304 151.08C350.276 150.232 350.284 149.368 350.332 148.489C350.336 148.482 350.342 148.475 350.343 148.466C350.347 148.439 350.352 148.412 350.357 148.385L350.357 148.384C350.406 148.105 350.458 147.903 350.577 147.646C350.914 146.914 351.263 146.158 351.824 145.509C352.348 144.901 353.228 144.151 354.079 143.425C355.444 142.26 356.623 141.254 356.589 140.713C356.582 140.609 356.534 140.525 356.446 140.46Z" fill="#3A4513"/>
<path d="M344.387 115.312C344.304 115.147 344.172 114.988 343.982 114.825C343.349 114.279 342.25 113.953 341.372 114.388C340.728 114.707 340.308 115.391 340.277 116.172C340.246 116.931 340.555 117.64 340.804 118.122C340.581 118.308 340.251 118.484 340.013 118.547C339.991 117.93 339.94 117.321 339.857 116.724C339.833 116.479 339.797 116.315 339.758 116.142C339.741 116.062 339.723 115.981 339.706 115.89C339.756 115.804 339.802 115.725 339.846 115.652C340.149 115.142 340.301 114.885 340.327 114.32C340.361 113.566 340.078 112.784 339.622 112.373C338.992 111.805 337.982 111.948 337.311 112.384C337.113 112.513 336.962 112.647 336.851 112.794C336.599 113.13 336.512 113.6 336.619 114.051C336.703 114.403 336.891 114.739 337.211 115.108C337.673 115.638 338.901 116.081 339.553 115.968C339.567 116.039 339.582 116.106 339.596 116.17C339.634 116.34 339.669 116.501 339.693 116.738L339.694 116.739C339.694 116.74 339.694 116.74 339.694 116.74C339.859 117.929 339.9 119.161 339.823 120.412C339.783 120.275 339.732 120.162 339.67 120.087C339.754 119.737 339.507 118.257 339.376 117.903C339.126 117.233 338.5 116.479 337.664 116.303C337.061 116.177 336.444 116.378 335.882 116.885C335.426 117.296 335.324 118.178 335.64 118.98C335.99 119.867 336.75 120.432 337.727 120.53C338.031 120.56 338.277 120.554 338.499 120.521C338.837 120.472 339.118 120.363 339.456 120.231L339.554 120.193C339.676 120.363 339.777 120.797 339.74 121.348C339.739 121.354 339.741 121.36 339.742 121.365C339.585 122.8 339.273 124.252 338.809 125.686C338.8 125.409 338.747 125.181 338.658 125.05C338.759 124.69 338.423 123.091 338.267 122.765C338.05 122.315 337.396 121.412 336.476 121.217C335.946 121.104 335.416 121.244 334.9 121.632C334.358 122.038 334.074 122.823 334.208 123.539C334.361 124.359 335.028 125.012 336.087 125.375C336.526 125.526 337.034 125.561 337.524 125.49C337.885 125.437 338.234 125.324 338.539 125.159C338.638 125.345 338.69 125.776 338.6 126.305C338.284 127.197 337.906 128.093 337.472 128.989C337.46 129.002 337.453 129.016 337.452 129.031C337.213 129.521 336.958 130.011 336.684 130.502C336.625 130.113 336.44 129.728 336.257 129.487C336.386 128.967 336.525 128.204 336.306 127.46C336.084 126.704 335.501 126.12 334.785 125.935C333.812 125.684 332.803 126.218 332.31 126.876C332.162 127.072 332.071 127.254 332.028 127.431C331.931 127.838 332.087 128.298 332.445 128.661C332.722 128.943 333.104 129.168 333.647 129.368C334.332 129.621 335.026 129.604 335.759 129.585C335.881 129.581 336.003 129.579 336.126 129.577C336.334 129.853 336.543 130.325 336.54 130.757C335.73 132.177 334.777 133.597 333.681 135.008C333.655 135.041 333.665 135.087 333.702 135.11C333.721 135.122 333.742 135.126 333.762 135.123C333.784 135.12 333.804 135.109 333.817 135.092C334.915 133.678 335.871 132.254 336.684 130.83C336.693 130.821 336.699 130.809 336.702 130.797C337.029 130.221 337.333 129.646 337.613 129.071C337.649 129.04 337.687 129.007 337.731 128.969C337.938 128.79 338.221 128.544 338.62 128.32C339.379 128.366 340.262 129.33 341.398 129.563C342.66 129.82 343.74 128.986 343.868 128.404C344.071 127.481 343.463 125.796 341.108 126.127C339.322 126.379 338.69 127.747 338.497 128.217C338.196 128.39 337.961 128.571 337.78 128.722C338.24 127.743 338.629 126.766 338.948 125.792C339.095 125.34 339.226 124.886 339.345 124.431C339.347 124.429 339.351 124.428 339.353 124.426C339.411 124.376 339.465 124.319 339.516 124.264C339.712 124.056 339.896 123.859 340.38 123.948C340.5 123.97 340.651 124.019 340.81 124.072C341.057 124.153 341.337 124.245 341.578 124.256C341.83 124.267 342.068 124.256 342.29 124.223C342.812 124.147 343.245 123.953 343.564 123.647C344.013 123.217 344.218 122.586 344.13 121.914C344.059 121.383 343.669 120.93 343.136 120.761C342.904 120.688 342.641 120.609 342.453 120.604C342.174 120.595 341.876 120.68 341.54 120.862C340.966 121.175 340.509 121.632 340.252 122.148C339.994 122.668 339.939 123.257 340.095 123.78C339.757 123.801 339.571 123.978 339.419 124.138C339.867 122.308 340.068 120.47 340.02 118.696C340.298 118.634 340.692 118.426 340.946 118.205C341.071 118.181 341.195 118.16 341.319 118.138C342.03 118.013 342.7 117.896 343.299 117.516C343.772 117.215 344.086 116.921 344.285 116.592C344.539 116.169 344.578 115.69 344.387 115.312Z" fill="#B55B24"/>
<path d="M357.391 105.488C342.606 109.794 326.661 102.535 321.849 89.3066L321.238 87.5526L374.817 71.9492L375.478 73.6886C380.29 86.9171 372.177 101.182 357.391 105.488Z" fill="#DE3116"/>
<path d="M353.19 96.3505C353.514 96.7286 353.797 97.1191 354.084 97.5084L354.494 98.098L354.871 98.6973C354.995 98.8976 355.158 99.0866 355.308 99.2792C355.455 99.4727 355.538 99.6851 355.552 99.9172C355.565 100.15 355.546 100.392 355.468 100.651C355.397 100.908 355.285 101.177 355.056 101.48C355.008 101.543 354.919 101.567 354.842 101.542C354.458 101.418 354.19 101.259 353.964 101.089C353.73 100.92 353.555 100.735 353.413 100.54C353.271 100.345 353.199 100.13 353.191 99.8954C353.185 99.6605 353.192 99.4223 353.16 99.195L353.072 98.5119L353.015 97.8195C352.991 97.354 352.963 96.8894 352.976 96.4126C352.978 96.3538 353.032 96.307 353.098 96.3086C353.135 96.3098 353.169 96.3264 353.19 96.3505Z" fill="#D63333"/>
<path d="M349.475 87.3505C349.799 87.729 350.083 88.1191 350.369 88.5084L350.779 89.098L351.156 89.6973C351.28 89.8976 351.442 90.0866 351.593 90.2792C351.74 90.4727 351.823 90.6851 351.837 90.9172C351.851 91.1497 351.831 91.3915 351.753 91.6507C351.682 91.9078 351.57 92.1766 351.341 92.4797C351.293 92.543 351.204 92.5667 351.127 92.5421C350.743 92.4176 350.475 92.2592 350.249 92.0888C350.015 91.9203 349.84 91.7349 349.698 91.5399C349.557 91.3448 349.485 91.1296 349.476 90.8954C349.47 90.6605 349.478 90.4223 349.446 90.195L349.357 89.5119L349.3 88.8195C349.276 88.354 349.248 87.8894 349.261 87.4126C349.263 87.3538 349.318 87.307 349.383 87.3086C349.42 87.3094 349.454 87.326 349.475 87.3505Z" fill="#D63333"/>
<path d="M332.558 89.5823C332.354 90.0228 332.118 90.4375 331.885 90.8542L331.519 91.4668L331.128 92.0588C330.995 92.2547 330.894 92.4756 330.783 92.6879C330.669 92.8983 330.505 93.0692 330.287 93.1961C330.069 93.3227 329.825 93.4287 329.535 93.498C329.251 93.5713 328.934 93.6189 328.526 93.5935C328.441 93.5883 328.374 93.531 328.359 93.4589C328.288 93.099 328.307 92.8121 328.359 92.5517C328.405 92.2865 328.497 92.0584 328.615 91.8509C328.733 91.6437 328.905 91.4801 329.127 91.3564C329.352 91.2347 329.586 91.1214 329.789 90.9828L330.406 90.5725L331.048 90.182C331.486 89.9301 331.922 89.6762 332.39 89.4485C332.448 89.4203 332.521 89.4397 332.552 89.4912C332.571 89.5199 332.571 89.5541 332.558 89.5823Z" fill="#D63333"/>
<path d="M339.468 94.6292C339.264 95.0697 339.028 95.4844 338.795 95.9011L338.428 96.5133L338.037 97.1053C337.905 97.3012 337.804 97.522 337.692 97.7344C337.578 97.9448 337.415 98.1157 337.197 98.2426C336.979 98.3692 336.735 98.4752 336.445 98.5445C336.161 98.6178 335.844 98.6654 335.437 98.64C335.351 98.6347 335.284 98.5775 335.269 98.5054C335.198 98.1455 335.217 97.8589 335.269 97.5982C335.315 97.333 335.407 97.1049 335.525 96.8974C335.643 96.6902 335.815 96.5266 336.037 96.4029C336.262 96.2816 336.496 96.1679 336.701 96.0293L337.317 95.619L337.959 95.2289C338.397 94.977 338.833 94.7231 339.301 94.4954C339.36 94.4672 339.432 94.4865 339.463 94.5381C339.481 94.5663 339.481 94.6006 339.468 94.6292Z" fill="#D63333"/>
<path d="M340.628 86.9577C340.424 87.3982 340.188 87.8129 339.955 88.2296L339.589 88.8418L339.198 89.4338C339.065 89.6297 338.964 89.8506 338.853 90.063C338.739 90.2733 338.575 90.4442 338.357 90.5711C338.139 90.6977 337.895 90.8037 337.605 90.873C337.321 90.9463 337.004 90.9939 336.597 90.9685C336.512 90.9633 336.444 90.9061 336.43 90.8339C336.358 90.474 336.377 90.1875 336.429 89.9267C336.475 89.6615 336.567 89.4334 336.685 89.2259C336.803 89.0187 336.976 88.8551 337.197 88.7314C337.422 88.6097 337.656 88.4964 337.86 88.3578L338.477 87.9475L339.119 87.557C339.557 87.3051 339.993 87.0512 340.461 86.8235C340.519 86.7953 340.591 86.8147 340.623 86.8663C340.641 86.8953 340.641 86.9291 340.628 86.9577Z" fill="#D63333"/>
<path d="M345.569 96.9282C345.603 97.4042 345.594 97.8693 345.589 98.3356L345.561 99.0295L345.501 99.7151C345.478 99.9432 345.496 100.181 345.5 100.416C345.501 100.65 345.438 100.867 345.305 101.067C345.171 101.267 345.004 101.458 344.777 101.634C344.558 101.812 344.297 101.979 343.918 102.116C343.839 102.145 343.75 102.12 343.702 102.061C343.461 101.766 343.337 101.501 343.255 101.246C343.167 100.99 343.137 100.749 343.141 100.516C343.145 100.283 343.22 100.069 343.358 99.8702C343.5 99.6728 343.655 99.4785 343.77 99.2742L344.123 98.6628L344.508 98.0599C344.778 97.6613 345.045 97.2619 345.353 96.873C345.391 96.8251 345.466 96.8138 345.519 96.8476C345.55 96.8674 345.567 96.8976 345.569 96.9282Z" fill="#D63333"/>
<path d="M356.175 81.0684C356.708 81.0886 357.224 81.145 357.742 81.1986L358.51 81.2965L359.266 81.4223C359.517 81.4662 359.784 81.4759 360.045 81.4968C360.305 81.5206 360.54 81.5996 360.748 81.7394C360.956 81.8793 361.151 82.0482 361.322 82.2682C361.497 82.4818 361.655 82.7317 361.768 83.0831C361.792 83.1568 361.755 83.233 361.684 83.2697C361.331 83.4535 361.023 83.5353 360.732 83.5812C360.438 83.6332 360.166 83.6344 359.908 83.6062C359.65 83.578 359.419 83.4893 359.213 83.3451C359.008 83.198 358.809 83.0396 358.593 82.9158L357.951 82.5382L357.321 82.1324C356.906 81.8503 356.491 81.571 356.091 81.2554C356.042 81.2163 356.037 81.149 356.081 81.1047C356.106 81.0793 356.141 81.0672 356.175 81.0684Z" fill="#D63333"/>
<path d="M359.451 92.7672C359.956 92.9192 360.435 93.1013 360.915 93.2815L361.623 93.5664L362.31 93.8751C362.537 93.9799 362.79 94.0552 363.035 94.1403C363.277 94.2277 363.479 94.3619 363.635 94.5477C363.792 94.7339 363.926 94.9443 364.023 95.1982C364.125 95.4468 364.199 95.7261 364.199 96.0917C364.199 96.1682 364.14 96.2323 364.06 96.2501C363.663 96.3387 363.342 96.3411 363.048 96.3125C362.749 96.2895 362.489 96.2231 362.249 96.132C362.01 96.0409 361.816 95.8982 361.662 95.7084C361.512 95.5162 361.369 95.3147 361.201 95.1422L360.701 94.6195L360.221 94.0734C359.911 93.6994 359.598 93.3278 359.312 92.9252C359.276 92.8756 359.293 92.8095 359.348 92.7777C359.38 92.7604 359.418 92.7576 359.451 92.7672Z" fill="#D63333"/>
<g opacity="0.43">
<path d="M349.309 81.4337C358.741 81.2399 367.172 84.4793 372.297 89.5705C374.789 84.4394 375.282 78.5075 373.199 72.7815C373.159 72.6726 373.117 72.5654 373.076 72.457L322.633 87.1472C322.671 87.256 322.707 87.3653 322.747 87.4741C323.383 89.2223 324.226 90.8598 325.243 92.3719C329.762 86.0655 338.806 81.6497 349.309 81.4337Z" fill="#FF3D3D"/>
</g>
<path d="M377.616 71L374.303 71.9648C374.346 72.0785 374.391 72.1913 374.432 72.3054C379.189 85.3783 371.17 99.476 356.558 103.731C341.946 107.987 326.189 100.813 321.432 87.7399C321.391 87.6255 321.352 87.511 321.313 87.3966L318 88.3614C318.04 88.4758 318.078 88.5903 318.119 88.7047C323.479 103.436 341.171 111.49 357.636 106.695C374.101 101.9 383.104 86.0715 377.744 71.3405C377.703 71.2261 377.659 71.1132 377.616 71Z" fill="#A1B559"/>
<path d="M377.606 71.0028C382.359 85.502 373.388 100.847 357.221 105.555C341.055 110.263 323.706 102.583 318.009 88.3585L318 88.3614C318.04 88.4758 318.078 88.5903 318.119 88.7047C323.479 103.436 341.171 111.49 357.636 106.695C374.101 101.9 383.104 86.0715 377.744 71.3405C377.703 71.2261 377.658 71.1136 377.615 71L377.606 71.0028Z" fill="#A1B559"/>
<path d="M24.5084 131.651L18.2985 124.876L22.6906 120.85C23.6122 120.005 25.1249 120.155 26.0691 121.185L28.8593 124.23C29.8038 125.26 29.8218 126.78 28.9002 127.624L24.5081 131.65L24.5084 131.651Z" fill="#B5754E"/>
<path opacity="0.4" d="M29.0161 124.403L27.8086 123.086C28.666 124.021 28.6827 125.401 27.8458 126.168L23.3001 130.335L24.5075 131.652L29.0532 127.486C29.8898 126.719 29.8735 125.339 29.0161 124.403Z" fill="#B5754E"/>
<path d="M22.5733 122.084C22.3426 121.712 22.8791 121.411 23.1101 121.784C23.3401 122.156 22.804 122.457 22.5733 122.084Z" fill="#DBB49C"/>
<path d="M24.003 122.764C23.7723 122.391 24.3088 122.091 24.5398 122.464C24.7701 122.836 24.234 123.137 24.003 122.764Z" fill="#DBB49C"/>
<path d="M24.5291 121.551C24.519 121.534 24.5092 121.518 24.4991 121.502C24.2684 121.13 24.8049 120.829 25.0358 121.202C25.046 121.219 25.0558 121.235 25.0662 121.251C25.2962 121.624 24.7598 121.923 24.5291 121.551Z" fill="#DBB49C"/>
<path d="M15.4367 151.158C9.78398 156.483 -0.0313817 165.24 -2.76253 166.198C-5.49395 167.158 -9.81643 163.239 -12.4154 160.464C-15.0155 157.689 -18.646 153.118 -17.5206 150.445C-16.397 147.771 -7.06733 138.495 -1.41458 133.171C4.05849 128.015 8.20485 124.705 12.1394 126.099C16.0728 127.493 19.2447 122.263 19.2447 122.263C19.2447 122.263 18.2631 121.015 19.7973 120.314C20.0824 120.046 22.4986 122.16 25.1949 125.038C27.8903 127.915 29.8435 130.465 29.5584 130.733C28.765 132.225 27.5844 131.165 27.5844 131.165C27.5844 131.165 22.1811 134.013 23.3233 138.037C24.4637 142.06 20.9098 146.003 15.4367 151.158Z" fill="#E0DEFF"/>
<path d="M16.7217 147.931C16.7547 147.9 16.8246 147.819 16.7637 147.778C16.2026 147.398 13.1322 144.016 10.106 139.265C7.14319 134.613 2.89242 132.18 2.04734 132.07C1.97783 132.059 1.9248 132.071 1.89183 132.102C1.86094 132.131 1.84677 132.176 1.8493 132.237C0.95209 133.009 0.0154057 133.87 -0.970922 134.799C-5.94474 139.484 -14.1537 147.648 -15.1436 150C-16.1331 152.351 -12.9388 156.374 -10.6508 158.816C-8.3638 161.258 -4.55945 164.706 -2.15673 163.862C0.245988 163.019 8.88426 155.313 13.8578 150.628C14.8438 149.699 15.7598 148.815 16.5837 147.966C16.645 147.972 16.6905 147.96 16.7217 147.931Z" fill="#E0DD24"/>
<g opacity="0.46">
<path d="M19.6273 122.73C20.8749 124.06 22.078 125.415 23.2993 126.754C24.514 128.1 25.7476 129.42 26.9872 130.759C25.5488 129.643 24.2473 128.352 23.0197 127.007C21.801 125.653 20.6404 124.242 19.6273 122.73Z" fill="#B1E2F8"/>
</g>
<path opacity="0.31" d="M15.4377 151.159C20.9108 146.004 24.4647 142.061 23.3234 138.038C22.1809 134.014 27.5845 131.166 27.5845 131.166C27.5845 131.166 28.7657 132.226 29.5584 130.735C29.7803 130.526 28.6449 128.935 26.8624 126.885C26.0703 128.275 24.927 127.253 24.927 127.253C24.927 127.253 19.5238 130.101 20.666 134.125C21.8073 138.148 18.2533 142.091 12.7803 147.246C7.12752 152.571 -2.68783 161.328 -5.41898 162.286C-8.1504 163.245 -12.4729 159.327 -15.0721 156.552C-15.6387 155.947 -16.2535 155.255 -16.8584 154.517C-15.7883 156.623 -13.9298 158.848 -12.4147 160.466C-9.81575 163.24 -5.49297 167.159 -2.76154 166.199C-0.0303969 165.242 9.78496 156.484 15.4377 151.159Z" fill="#E0DEFF"/>
<path d="M319.548 74.1138C319.235 73.9944 318.927 73.8604 318.63 73.7161C314.567 71.7366 312.976 67.8356 314.67 64.0082C315.598 61.9124 317.189 60.2175 318.728 58.5783C319.665 57.5801 320.55 56.6373 321.286 55.619C321.791 54.9202 322.202 53.9635 322.637 52.9504C323.68 50.521 324.862 47.7711 328.006 47.0682L328.195 47L328.439 47.0059C329.255 47.0256 330.471 47.1426 331.638 47.5874C332.986 48.1017 333.92 48.9358 334.338 49.9998C334.859 51.324 334.696 52.741 334.552 53.9909C334.501 54.4394 334.452 54.8634 334.434 55.2639C334.352 57.1565 335.074 58.8109 335.955 60.6235C337.373 63.5413 337.958 65.9541 336.499 68.9629C335.657 70.7011 334.54 72.0963 333.181 73.1093C331.846 74.1041 330.456 74.4672 329.148 74.7541L329.066 74.7721L328.983 74.7794C325.569 75.0815 322.502 75.24 319.548 74.1138Z" fill="#9ABF20"/>
<path d="M332.427 72.2986C331.315 73.1272 330.169 73.4442 328.868 73.7294C325.594 74.0191 322.19 74.2489 319.194 72.7894C315.678 71.0764 314.284 67.7416 315.766 64.3957C317.157 61.2529 320.254 58.9879 322.276 56.1906C324.089 53.6813 324.561 48.8602 328.373 48.0721C328.387 48.0693 328.396 48.0627 328.408 48.0586C330.24 48.1029 332.564 48.6605 333.227 50.3485C333.825 51.87 333.326 53.6487 333.257 55.2222C333.165 57.338 333.948 59.1361 334.875 61.0432C336.136 63.6387 336.741 65.8144 335.418 68.5425C334.729 69.9637 333.767 71.3 332.427 72.2986Z" fill="#E0DD38"/>
<path opacity="0.71" d="M334.873 61.0436C333.946 59.1365 333.163 57.3384 333.255 55.2226C333.324 53.6492 333.824 51.8705 333.225 50.3489C332.961 49.6771 332.432 49.1867 331.777 48.834C331.846 48.9496 331.909 49.069 331.959 49.1974C332.557 50.7189 332.058 52.4976 331.989 54.0711C331.897 56.1869 332.68 57.985 333.607 59.8921C334.868 62.4876 335.474 64.6637 334.151 67.3914C333.462 68.8122 332.499 70.1489 331.159 71.1475C330.048 71.9757 328.901 72.2931 327.6 72.5783C324.327 72.868 320.922 73.0978 317.926 71.6383C317.462 71.4119 317.037 71.1558 316.648 70.8765C317.298 71.6279 318.149 72.2813 319.192 72.7894C322.188 74.249 325.593 74.0192 328.866 73.7295C330.167 73.4443 331.314 73.1269 332.425 72.2986C333.765 71.3001 334.728 69.9637 335.417 68.5426C336.74 65.8152 336.134 63.6391 334.873 61.0436Z" fill="#E0DD38"/>
<path d="M329.047 70.0819C326.395 72.071 322.657 70.3577 322.19 67.4639C322.119 67.0212 322.118 66.5872 322.167 66.1659C322.478 65.2404 322.725 64.3121 323.37 63.5316C323.613 63.261 323.888 63.0142 324.19 62.7934C325.241 62.0994 326.781 61.7872 328.028 62.0952C331.447 62.9401 331.407 68.3122 329.047 70.0819Z" fill="#75473B"/>
<path opacity="0.27" d="M329.308 62.7344C330.423 64.7104 329.923 67.8334 328.231 69.1029C326.431 70.4528 324.134 70.0946 322.695 68.8222C323.902 70.8301 326.844 71.7331 329.045 70.0821C331.059 68.5713 331.382 64.4383 329.308 62.7344Z" fill="#92584A"/>
<g opacity="0.28">
<path d="M323.633 65.1571C323.694 64.6801 323.921 64.2485 324.217 63.8557C324.52 63.4673 324.919 63.1209 325.411 62.8751C325.906 62.6342 326.505 62.5242 327.068 62.5958C327.639 62.6515 328.125 62.9399 328.477 63.2804C327.937 63.2604 327.485 63.1922 327.055 63.2752C326.631 63.3358 326.249 63.4566 325.873 63.6342C325.501 63.82 325.139 64.0526 324.775 64.3132C324.407 64.5732 324.044 64.8584 323.633 65.1571Z" fill="white"/>
</g>
<g opacity="0.39">
<path d="M328.236 49.4375C327.535 49.7341 326.977 50.2298 326.514 50.7676C326.04 51.3024 325.656 51.8963 325.333 52.5134C325.004 53.1302 324.748 53.773 324.505 54.4244C324.262 55.0896 323.974 55.742 323.647 56.3778C322.985 57.6464 322.166 58.8474 321.208 59.9487C320.729 60.4952 320.246 61.0373 319.748 61.5699C319.494 61.8326 319.236 62.0929 318.971 62.347C318.704 62.5983 318.437 62.8561 318.117 63.0555C318.665 62.5675 319.107 61.997 319.562 61.4391C320.02 60.8832 320.469 60.3198 320.909 59.7521C321.782 58.6217 322.572 57.4415 323.209 56.1965C323.538 55.578 323.82 54.9411 324.073 54.2949C324.345 53.6414 324.615 52.9779 325.002 52.365C325.376 51.7478 325.808 51.1546 326.335 50.6316C326.598 50.371 326.893 50.1353 327.206 49.9248C327.52 49.7168 327.862 49.533 328.236 49.4375Z" fill="white"/>
</g>
<path d="M31.4982 52.2619C31.4982 52.2619 33.027 50.4129 32.6459 47.9138C32.2648 45.4147 31.4594 45 31.4594 45C31.4594 45 30.4945 46.8418 30.7558 48.8278C31.0166 50.8135 31.4982 52.2619 31.4982 52.2619Z" fill="#5A6632"/>
<path opacity="0.57" d="M31.2841 46.2401C31.2841 46.2401 32.0895 46.6544 32.4706 49.1539C32.5206 49.4823 32.5368 49.7991 32.5291 50.1021C32.6908 49.4686 32.7692 48.7259 32.6453 47.9138C32.2643 45.4147 31.4589 45 31.4589 45C31.4589 45 30.7913 46.2796 30.7188 47.8549C30.9399 46.901 31.2841 46.2401 31.2841 46.2401Z" fill="#5A6632"/>
<path d="M31.9656 52.2366C31.9656 52.2366 31.3237 49.7109 33.4575 47.7346C34.98 46.324 36.3769 45.8984 36.3769 45.8984C36.3769 45.8984 36.3102 47.4162 34.7755 49.4103C33.2836 51.3488 31.9656 52.2366 31.9656 52.2366Z" fill="#5A6632"/>
<path opacity="0.4" d="M33.7931 48.4285C34.7408 47.5508 35.6395 47.0543 36.1832 46.8048C36.3598 46.239 36.3769 45.8984 36.3769 45.8984C36.3769 45.8984 34.98 46.3244 33.4575 47.7346C31.3237 49.7109 31.9656 52.2366 31.9656 52.2366C31.9656 52.2366 32.0548 52.1762 32.2111 52.0549C32.2052 51.1428 32.4453 49.6767 33.7931 48.4285Z" fill="#5A6632"/>
<path d="M31.4889 52.1771C31.4889 52.1771 31.9155 49.7776 30.1844 48.4352C28.4533 47.0931 27.3906 47.0117 27.3906 47.0117C27.3906 47.0117 27.7587 48.7386 28.9415 50.0919C30.1983 51.5303 31.4889 52.1771 31.4889 52.1771Z" fill="#5A6632"/>
<path opacity="0.69" d="M30.1844 48.4352C28.4533 47.0931 27.3906 47.0117 27.3906 47.0117C27.3906 47.0117 27.428 47.1858 27.5163 47.4659C27.956 47.5868 28.8159 47.9181 29.9798 48.8204C31.2339 49.7929 31.3555 51.3199 31.3276 52.0877C31.4299 52.1465 31.4898 52.1767 31.4898 52.1767C31.4898 52.1767 31.9155 49.7772 30.1844 48.4352Z" fill="#5A6632"/>
<path d="M37.0399 51.412C38.3111 52.0053 38.8598 53.4069 38.8508 54.6897C38.8323 57.3706 36.9508 59.7237 35.0746 61.8138C33.9935 63.0184 32.671 64.0162 30.9444 64.0392C29.1457 64.0634 27.743 62.7077 26.6389 61.437C25.2722 59.8636 23.9312 58.1689 23.5542 56.2046C23.1772 54.2408 24.0524 51.9452 26.0921 51.1444C28.2777 50.2864 29.7043 51.6276 31.7471 51.7461C33.6156 51.8545 35.0278 50.473 37.0399 51.412Z" fill="#BA1900"/>
<path opacity="0.39" d="M38.8513 54.689C38.8603 53.4063 38.3116 52.0046 37.0404 51.4113C35.0287 50.4723 33.6165 51.8539 31.7471 51.7458C30.4124 51.6685 29.3408 51.0692 28.1484 50.9023C28.1615 50.9072 28.175 50.9104 28.1881 50.9152C30.3827 51.7543 30.2651 53.6029 31.5665 55.0167C32.7571 56.3104 34.8494 56.2866 35.4607 58.2416C35.8467 59.4768 35.0796 60.7939 34.0278 61.6656C32.7165 62.7525 31.0458 63.3252 29.2777 63.6553C29.7926 63.8991 30.3462 64.0462 30.9453 64.0381C32.6719 64.0148 33.994 63.0169 35.0755 61.8127C36.9512 59.7227 38.8324 57.3695 38.8513 54.689Z" fill="#BA1900"/>
<path d="M27.9451 53.163C27.8406 53.3814 27.7852 53.6599 27.9627 53.8364C28.0834 53.9561 28.2865 53.9903 28.46 53.948C28.6334 53.9053 28.7789 53.7961 28.8888 53.6683C29.0419 53.4898 29.1365 53.2569 29.0789 53.0376C28.8955 52.34 28.1473 52.739 27.9451 53.163Z" fill="#DB144B"/>
<path d="M28.9685 56.6764C28.864 56.8948 28.8086 57.1733 28.9861 57.3498C29.1068 57.4695 29.31 57.5041 29.4834 57.4614C29.6568 57.4187 29.8023 57.3095 29.9118 57.1817C30.0654 57.0032 30.1595 56.7703 30.1019 56.551C29.919 55.8538 29.1708 56.2528 28.9685 56.6764Z" fill="#DB144B"/>
<path d="M35.067 53.4971C35.0787 53.7345 35.021 54.0126 34.785 54.1218C34.6251 54.1955 34.421 54.1637 34.2755 54.0694C34.13 53.9747 34.0372 53.8264 33.9845 53.6724C33.9115 53.4572 33.9151 53.2094 34.0552 53.0224C34.5016 52.4271 35.0444 53.0369 35.067 53.4971Z" fill="#DB144B"/>
<path d="M34.325 57.0187C34.3367 57.2561 34.279 57.5342 34.043 57.6434C33.8831 57.7172 33.679 57.6853 33.5335 57.5906C33.388 57.4959 33.2948 57.348 33.2425 57.1936C33.1691 56.9784 33.1731 56.7302 33.3132 56.5436C33.7596 55.9487 34.3024 56.5585 34.325 57.0187Z" fill="#DB144B"/>
<path d="M32.1143 54.2994C32.0211 54.5219 31.8458 54.7577 31.581 54.775C31.4012 54.7867 31.2278 54.6859 31.1355 54.5477C31.0431 54.4095 31.0224 54.2406 31.0418 54.0806C31.0688 53.8569 31.181 53.63 31.3918 53.5075C32.0639 53.117 32.2954 53.8678 32.1143 54.2994Z" fill="#DB144B"/>
<path d="M32.0128 58.7291C31.9195 58.9516 31.7443 59.1873 31.4794 59.2046C31.3001 59.2163 31.1263 59.1156 31.0339 58.9773C30.9416 58.8391 30.9209 58.6703 30.9402 58.5103C30.9672 58.2866 31.0794 58.0597 31.2902 57.9372C31.9623 57.5467 32.1938 58.2979 32.0128 58.7291Z" fill="#DB144B"/>
<path d="M26.3396 52.0991C25.968 52.2321 25.6635 52.5094 25.522 52.8443C25.4662 52.9769 25.44 53.1397 25.5409 53.2489C25.6256 53.3404 25.7779 53.3625 25.9067 53.3343C26.0355 53.3057 26.1477 53.236 26.2563 53.1671C26.4216 53.0627 26.5905 52.9551 26.7076 52.8072C26.8247 52.6593 26.8819 52.4606 26.8027 52.2938C26.7234 52.1269 26.4779 52.0245 26.3035 52.1168" fill="#DB144B"/>
<path d="M25.6241 55.4025C25.5782 55.5758 25.5989 55.7705 25.7196 55.9123C25.8403 56.0542 26.0728 56.1235 26.2498 56.0425C26.407 55.9704 26.4836 55.8075 26.5196 55.6528C26.5638 55.463 26.5615 55.2518 26.4399 55.091C26.1092 54.6541 25.7124 55.0684 25.6241 55.4025Z" fill="#DB144B"/>
<path d="M25.9388 58.6607C25.8018 58.7892 25.7054 58.9637 25.7252 59.1403C25.7451 59.3168 25.9063 59.4848 26.105 59.4905C26.2541 59.4949 26.3915 59.4119 26.487 59.3091C26.5933 59.1943 26.6613 59.0464 26.6487 58.8977C26.6365 58.7489 26.5343 58.6034 26.3793 58.549C26.2243 58.4946 26.0135 58.5341 25.9383 58.6671" fill="#DB144B"/>
<path d="M36.7488 52.3658C37.0903 52.5532 37.3376 52.8724 37.4133 53.2242C37.4434 53.3632 37.438 53.5281 37.3178 53.6203C37.2169 53.6977 37.0628 53.6965 36.9412 53.649C36.8196 53.6014 36.7223 53.5152 36.6286 53.4313C36.4853 53.3032 36.3394 53.1714 36.252 53.0078C36.1646 52.8441 36.1457 52.6394 36.2556 52.4875C36.3655 52.3351 36.6268 52.2715 36.7813 52.3887" fill="#DB144B"/>
<path d="M36.8217 55.6722C36.8613 55.8467 36.8338 56.0409 36.7086 56.1792C36.5829 56.3174 36.3482 56.3803 36.1739 56.2944C36.019 56.2183 35.9482 56.053 35.9176 55.8975C35.8802 55.7064 35.8897 55.4952 36.0172 55.3385C36.3627 54.9105 36.7451 55.3357 36.8217 55.6722Z" fill="#DB144B"/>
<path d="M31.505 62.4614C31.5334 62.6371 31.4992 62.8293 31.3686 62.9631C31.2379 63.0969 30.9978 63.1502 30.8325 63.0522C30.7082 62.9785 30.6496 62.8398 30.6388 62.7064C30.6267 62.5577 30.6668 62.4018 30.7731 62.2873C30.8794 62.1724 31.0568 62.1068 31.2186 62.1426C31.3803 62.1785 31.5082 62.3268 31.4834 62.4743" fill="#DB144B"/>
<path d="M35.9156 58.9561C36.0223 59.1061 36.0791 59.2939 36.021 59.4635C35.9633 59.6336 35.7687 59.7702 35.5728 59.7416C35.4255 59.7202 35.3083 59.6151 35.2376 59.4974C35.1583 59.3664 35.1237 59.2092 35.1678 59.0658C35.212 58.9219 35.3439 58.7969 35.5075 58.7703C35.671 58.7437 35.8561 58.832 35.9012 58.9755" fill="#DB144B"/>
<path d="M29.0936 60.8169C29.0571 61.0112 28.9422 61.2014 28.7517 61.2997C28.5611 61.3977 28.2904 61.3791 28.149 61.2284C28.0233 61.0946 28.0233 60.8992 28.0611 60.7279C28.1071 60.5175 28.2111 60.3031 28.412 60.1862C28.9584 59.8682 29.1638 60.4425 29.0936 60.8169Z" fill="#DB144B"/>
<path d="M33.8535 60.434C33.9319 60.6177 33.9409 60.8342 33.8319 61.005C33.7229 61.1759 33.4796 61.2827 33.272 61.217C33.0878 61.1586 32.9774 60.9901 32.9125 60.8253C32.8332 60.623 32.8013 60.3913 32.908 60.1994C33.1999 59.6775 33.7022 60.0793 33.8535 60.434Z" fill="#DB144B"/>
<g opacity="0.54">
<path d="M24.9351 53.3516C24.9351 53.3516 23.3491 55.2864 24.9761 57.617L24.9351 53.3516Z" fill="#DB144B"/>
<path d="M24.9357 53.3516C24.688 54.0943 24.5362 54.7843 24.5556 55.4843C24.5682 55.8313 24.592 56.1815 24.6799 56.5309C24.7493 56.886 24.8758 57.2318 24.9767 57.617C24.6569 57.3527 24.3889 57.029 24.2204 56.6607C24.0335 56.298 23.9483 55.8934 23.9384 55.4907C23.9272 55.0869 24.0182 54.6835 24.1848 54.3143C24.3497 53.9464 24.5943 53.6022 24.9357 53.3516Z" fill="white"/>
</g>
<path d="M21.798 53.7418C21.798 53.7418 22.4386 51.1899 20.7584 48.7477C19.0782 46.305 18.0277 46.2051 18.0277 46.2051C18.0277 46.2051 17.9705 48.5172 19.262 50.4754C20.5534 52.4336 21.798 53.7418 21.798 53.7418Z" fill="#768541"/>
<path opacity="0.57" d="M18.4831 47.5669C18.4831 47.5669 19.5335 47.6668 21.2137 50.1095C21.4345 50.4303 21.6142 50.7531 21.7615 51.0715C21.6038 50.346 21.3043 49.5412 20.7583 48.7477C19.0781 46.305 18.0277 46.2051 18.0277 46.2051C18.0277 46.2051 17.9907 47.8103 18.7245 49.4783C18.4646 48.3955 18.4831 47.5669 18.4831 47.5669Z" fill="#768541"/>
<path d="M21.862 53.8038C21.862 53.8038 20.3611 51.1826 22.0904 48.4684C23.3247 46.5315 24.7296 45.7109 24.7296 45.7109C24.7296 45.7109 25.1333 47.3996 24.0693 49.9829C23.035 52.494 21.862 53.8038 21.862 53.8038Z" fill="#768541"/>
<path opacity="0.4" d="M22.6822 49.1482C23.4507 47.9424 24.2844 47.1698 24.8052 46.758C24.8218 46.0902 24.7336 45.7109 24.7336 45.7109C24.7336 45.7109 23.3286 46.5315 22.0943 48.4684C20.365 51.1826 21.866 53.8038 21.866 53.8038C21.866 53.8038 21.9452 53.7148 22.0795 53.5419C21.7858 52.5384 21.5898 50.8622 22.6822 49.1482Z" fill="#768541"/>
<path d="M21.7596 53.7135C21.7596 53.7135 20.9704 51.0424 18.4807 50.3581C15.9911 49.6737 14.8438 50.0264 14.8438 50.0264C14.8438 50.0264 16.1136 51.6711 18.0388 52.5924C20.0853 53.5713 21.7596 53.7135 21.7596 53.7135Z" fill="#768541"/>
<path opacity="0.69" d="M18.4807 50.3581C15.9911 49.6737 14.8438 50.0264 14.8438 50.0264C14.8438 50.0264 14.9721 50.192 15.2077 50.4471C15.7271 50.3919 16.7915 50.3834 18.4654 50.8433C20.2695 51.339 21.1799 52.8769 21.5452 53.6869C21.6817 53.7059 21.7596 53.7131 21.7596 53.7131C21.7596 53.7131 20.9704 51.0424 18.4807 50.3581Z" fill="#768541"/>
<path d="M26.7115 49.3164C28.3386 49.4112 29.6291 50.6432 30.2787 51.9808C31.6359 54.7765 30.8881 57.9973 30.0102 60.9425C29.5043 62.64 28.6417 64.2214 26.8579 64.9553C24.9993 65.7198 22.8444 64.8868 21.0434 64.0191C18.8137 62.9447 16.5483 61.7333 15.1479 59.8455C13.7469 57.9578 13.4785 55.2105 15.1884 53.5396C17.0209 51.7486 19.1934 52.5571 21.3786 51.8405C23.3777 51.1844 24.1367 49.1673 26.7115 49.3164Z" fill="#DE1E00"/>
<path opacity="0.58" d="M30.2799 51.9808C29.6303 50.6428 28.3398 49.4108 26.7127 49.3165C24.1379 49.167 23.3789 51.1844 21.3793 51.8405C19.9514 52.3093 18.5288 52.1263 17.2031 52.4431C17.2189 52.4426 17.2347 52.4402 17.2509 52.4402C19.9644 52.4108 20.7919 54.3815 22.8712 55.3169C24.7739 56.1729 26.9379 55.2879 28.5776 57.07C29.6136 58.196 29.492 59.8814 28.8461 61.2207C28.0406 62.8903 26.5969 64.1727 24.9276 65.2431C25.5879 65.285 26.2397 65.2105 26.8587 64.9558C28.6425 64.2219 29.5051 62.6405 30.011 60.943C30.8889 57.9974 31.6371 54.7765 30.2799 51.9808Z" fill="#DE1E00"/>
<path d="M18.1485 54.878C18.1521 55.148 18.2372 55.4608 18.5129 55.5712C18.6999 55.6457 18.9287 55.5986 19.0877 55.4825C19.2463 55.3669 19.3413 55.1936 19.39 55.0154C19.458 54.7668 19.4363 54.4855 19.2638 54.2811C18.7147 53.6311 18.1417 54.3537 18.1485 54.878Z" fill="#ED1651"/>
<path d="M21.0196 58.1121C21.0232 58.3822 21.1083 58.6949 21.384 58.8053C21.571 58.8803 21.8002 58.8327 21.9588 58.7167C22.1174 58.601 22.2124 58.4277 22.261 58.2496C22.3291 58.0009 22.307 57.7196 22.1349 57.5153C21.5858 56.8656 21.0128 57.5882 21.0196 58.1121Z" fill="#ED1651"/>
<path d="M25.7251 52.2985C25.8589 52.5407 25.9418 52.8538 25.7526 53.0642C25.6242 53.2068 25.3958 53.2576 25.1958 53.2189C24.9958 53.1802 24.8228 53.0646 24.6895 52.9259C24.5026 52.7321 24.3791 52.473 24.4291 52.2207C24.5877 51.4179 25.4652 51.8285 25.7251 52.2985Z" fill="#ED1651"/>
<path d="M26.7681 56.2671C26.9023 56.5093 26.9852 56.8224 26.7955 57.0328C26.6672 57.1755 26.4388 57.2262 26.2388 57.1876C26.0388 57.1489 25.8658 57.0332 25.7325 56.8946C25.5455 56.7007 25.4221 56.4412 25.4721 56.1893C25.6307 55.3865 26.5082 55.7976 26.7681 56.2671Z" fill="#ED1651"/>
<path d="M23.0674 54.3461C23.0845 54.6157 23.0233 54.9328 22.7571 55.0598C22.5764 55.1456 22.344 55.1126 22.1769 55.0066C22.0098 54.901 21.9016 54.7338 21.8395 54.5593C21.7525 54.3154 21.753 54.0333 21.9093 53.8189C22.4075 53.137 23.0341 53.823 23.0674 54.3461Z" fill="#ED1651"/>
<path d="M25.2393 58.9965C25.2564 59.2661 25.1952 59.5832 24.9289 59.7102C24.7483 59.796 24.5159 59.7626 24.3488 59.657C24.1816 59.5514 24.0735 59.3842 24.0114 59.2097C23.9244 58.9658 23.9249 58.6837 24.0812 58.4693C24.5794 57.7874 25.206 58.4734 25.2393 58.9965Z" fill="#ED1651"/>
<path d="M15.9308 54.4332C15.6124 54.7242 15.4385 55.1377 15.4633 55.5443C15.4732 55.7051 15.5299 55.8853 15.6908 55.9574C15.8259 56.0179 15.9957 55.9784 16.1151 55.8957C16.2349 55.8131 16.3151 55.6942 16.3926 55.5782C16.511 55.4012 16.6313 55.2203 16.6773 55.018C16.7232 54.8161 16.6804 54.5856 16.5124 54.4449C16.3439 54.3042 16.0367 54.2986 15.902 54.4659" fill="#ED1651"/>
<path d="M16.8801 58.1622C16.9215 58.3612 17.0431 58.5551 17.2413 58.653C17.4395 58.751 17.717 58.7276 17.8598 58.5704C17.9864 58.4306 17.9823 58.2299 17.9405 58.0541C17.8886 57.8385 17.7778 57.6197 17.5688 57.5028C17.0003 57.184 16.8003 57.7781 16.8801 58.1622Z" fill="#ED1651"/>
<path d="M18.8867 61.4223C18.8101 61.6121 18.7993 61.8334 18.911 62.0091C19.0227 62.1848 19.2763 62.2928 19.4858 62.2175C19.6434 62.1606 19.7434 62.018 19.7898 61.8717C19.8412 61.7085 19.8362 61.5267 19.747 61.3772C19.6578 61.2277 19.4768 61.1185 19.2876 61.1253C19.0984 61.1322 18.8993 61.2603 18.8894 61.4296" fill="#ED1651"/>
<path d="M26.8981 50.4287C27.349 50.4831 27.7706 50.7137 28.0301 51.0486C28.1328 51.1807 28.2121 51.3545 28.1341 51.4995C28.0688 51.6217 27.908 51.6837 27.7571 51.6841C27.6062 51.6845 27.4607 51.6349 27.3202 51.5862C27.1053 51.5116 26.8859 51.4351 26.7111 51.3008C26.5364 51.1666 26.4116 50.9615 26.4476 50.758C26.4837 50.5545 26.7229 50.3808 26.9436 50.4392" fill="#ED1651"/>
<path d="M28.671 53.8372C28.8021 54.0025 28.8728 54.2157 28.8134 54.4107C28.7539 54.6062 28.5422 54.7682 28.3165 54.7504C28.1165 54.7347 27.9579 54.5921 27.8462 54.4429C27.7093 54.2596 27.6106 54.0363 27.6625 53.8203C27.8025 53.2339 28.4183 53.5188 28.671 53.8372Z" fill="#ED1651"/>
<path d="M26.6286 63.0878C26.7485 63.2587 26.8115 63.4727 26.7444 63.6657C26.6773 63.8583 26.4548 64.0127 26.2322 63.9788C26.0651 63.9534 25.9331 63.8329 25.853 63.6991C25.7638 63.5496 25.7255 63.3707 25.7773 63.2079C25.8291 63.0447 25.9795 62.9036 26.1665 62.8742C26.353 62.8448 26.562 62.9467 26.612 63.1103" fill="#ED1651"/>
<path d="M29.4144 57.6252C29.6022 57.7372 29.7581 57.9093 29.7851 58.1096C29.8121 58.3099 29.6802 58.5324 29.4617 58.5832C29.2973 58.6214 29.122 58.5602 28.9874 58.4671C28.8374 58.3635 28.7207 58.2144 28.6932 58.0467C28.6657 57.8791 28.7382 57.6949 28.895 57.5998C29.0518 57.5047 29.2892 57.5208 29.4099 57.6514" fill="#ED1651"/>
<path d="M23.2753 62.3651C23.337 62.5819 23.3153 62.8274 23.1676 63.0075C23.0194 63.188 22.7289 63.2795 22.5041 63.1812C22.3045 63.0937 22.2045 62.8906 22.1554 62.6968C22.0955 62.459 22.0933 62.1934 22.2424 61.9895C22.6473 61.4337 23.1559 61.9468 23.2753 62.3651Z" fill="#ED1651"/>
<path d="M28.0301 60.0123C28.2063 60.1714 28.3265 60.3923 28.3013 60.6152C28.2756 60.8376 28.0774 61.0488 27.8279 61.0657C27.6062 61.0806 27.4049 60.9509 27.2526 60.8062C27.0662 60.6285 26.9139 60.4004 26.9265 60.1569C26.9616 59.4944 27.6905 59.7056 28.0301 60.0123Z" fill="#ED1651"/>
<g opacity="0.54">
<path d="M15.1174 56.3125C15.2079 57.183 15.3967 57.9757 15.7791 58.7024C15.9719 59.0614 16.1823 59.4181 16.4597 59.7437C16.7206 60.0827 17.0381 60.3853 17.3512 60.7319C16.8926 60.5756 16.4557 60.3442 16.098 60.0287C15.7241 59.7268 15.4327 59.3427 15.2178 58.9317C15.0003 58.5198 14.8863 58.0672 14.8638 57.6187C14.8404 57.1713 14.9084 56.7163 15.1174 56.3125Z" fill="white"/>
</g>
<path d="M358.202 16.2128C358.202 16.2128 363.292 12.0831 364.536 7.598C364.536 7.598 360.106 9.56993 357.273 13.2781C357.273 13.2781 361.968 5.78766 360.617 0C355.611 3.85925 354.247 12.36 354.247 12.36C354.518 7.87446 352.343 3.89955 352.343 3.89955C350.28 8.13723 351.514 14.1832 351.514 14.1832C350.58 11.101 347.956 9.05247 347.956 9.05247C347.036 13.4884 350.715 16.2934 350.715 16.2934L354.183 16.9817L357.403 18.3213C357.403 18.3213 362.229 18.0973 364.514 14.0748C364.514 14.0748 361.038 14.2727 358.202 16.2128Z" fill="#708525"/>
<g opacity="0.57">
<path d="M352.317 6.96093C352.317 6.96093 354.115 10.2483 353.891 13.9572C353.891 13.9572 353.994 13.3217 354.248 12.3496C354.515 7.86811 352.343 3.89844 352.343 3.89844C350.768 7.13382 351.115 11.4207 351.368 13.2689C351.257 11.4993 351.333 8.98203 352.317 6.96093Z" fill="#94D602"/>
<path d="M348.689 11.221C348.689 11.221 350.859 12.9149 351.631 15.4643C351.631 15.4643 351.505 14.8465 351.416 13.8946C350.412 10.9744 347.957 9.05078 347.957 9.05078C347.528 11.1158 348.096 12.8266 348.826 14.0663C348.57 13.249 348.466 12.2934 348.689 11.221Z" fill="#94D602"/>
<path d="M358.201 16.2128C358.201 16.2128 363.291 12.0831 364.535 7.598C364.535 7.598 360.105 9.56993 357.272 13.278C357.272 13.278 361.967 5.78766 360.617 0C355.746 3.75446 354.324 11.8977 354.25 12.3386C354.844 10.0685 356.265 5.967 359.158 3.73673C360.275 8.52291 356.392 14.7172 356.392 14.7172C358.735 11.6507 362.398 10.0197 362.398 10.0197C361.369 13.7286 357.16 17.1441 357.16 17.1441C359.505 15.5402 362.38 15.3761 362.38 15.3761C361.777 16.4373 360.96 17.178 360.128 17.6959C361.614 17.1341 363.377 16.0737 364.513 14.0748C364.514 14.0744 361.037 14.2727 358.201 16.2128Z" fill="#94D602"/>
</g>
<mask id="mask0_1001_8010" style="mask-type:luminance" maskUnits="userSpaceOnUse" x="342" y="16" width="19" height="33">
<path d="M354.309 16.6403C341.324 13.2453 342.472 30.281 342.054 39.2674C341.842 43.8428 342.289 46.2641 342.779 47.5388C343.158 48.5242 344.521 48.8804 345.433 48.2328C346.613 47.3949 348.448 45.5697 351.021 41.6117C356.076 33.8368 367.296 20.0344 354.309 16.6403Z" fill="white"/>
</mask>
<g mask="url(#mask0_1001_8010)">
<path d="M354.309 16.6403C341.324 13.2453 342.472 30.281 342.054 39.2674C341.842 43.8428 342.289 46.2641 342.779 47.5388C343.158 48.5242 344.521 48.8804 345.433 48.2328C346.613 47.3949 348.448 45.5697 351.021 41.6117C356.076 33.8368 367.296 20.0344 354.309 16.6403Z" fill="#FC7802"/>
</g>
<mask id="mask1_1001_8010" style="mask-type:luminance" maskUnits="userSpaceOnUse" x="342" y="16" width="19" height="33">
<path d="M354.309 16.6403C341.324 13.2453 342.472 30.281 342.054 39.2674C341.842 43.8428 342.289 46.2641 342.779 47.5388C343.158 48.5242 344.521 48.8804 345.433 48.2328C346.613 47.3949 348.448 45.5697 351.021 41.6117C356.076 33.8368 367.296 20.0344 354.309 16.6403Z" fill="white"/>
</mask>
<g mask="url(#mask1_1001_8010)">
<path opacity="0.29" d="M354.309 16.6415C352.795 16.2458 351.475 16.1305 350.32 16.2454C360.08 19.3494 352.334 33.0534 348.949 40.8577C347.097 45.1264 345.604 47.185 344.584 48.1777C344.425 48.3324 344.236 48.4396 344.039 48.5202C344.507 48.6077 345.016 48.5303 345.433 48.2345C346.613 47.3966 348.447 45.5714 351.021 41.6134C356.075 33.8381 367.295 20.0357 354.309 16.6415Z" fill="#FF943B"/>
</g>
<mask id="mask2_1001_8010" style="mask-type:luminance" maskUnits="userSpaceOnUse" x="342" y="16" width="19" height="33">
<path d="M354.309 16.6403C341.324 13.2453 342.472 30.281 342.054 39.2674C341.842 43.8428 342.289 46.2641 342.779 47.5388C343.158 48.5242 344.521 48.8804 345.433 48.2328C346.613 47.3949 348.448 45.5697 351.021 41.6117C356.076 33.8368 367.296 20.0344 354.309 16.6403Z" fill="white"/>
</mask>
<g mask="url(#mask2_1001_8010)">
<g opacity="0.75">
<path d="M355.617 24.125C356.444 24.2636 357.218 24.4631 357.99 24.6574C358.759 24.8577 359.517 25.066 360.274 25.282C361.03 25.4981 361.784 25.7221 362.54 25.9627C363.295 26.209 364.054 26.4572 364.809 26.7897C363.972 26.8727 363.147 26.8272 362.332 26.7317C361.517 26.6305 360.714 26.4653 359.931 26.2404C359.149 26.0159 358.386 25.7326 357.658 25.3876C356.933 25.0374 356.233 24.6384 355.617 24.125Z" fill="#E59A03"/>
</g>
</g>
<mask id="mask3_1001_8010" style="mask-type:luminance" maskUnits="userSpaceOnUse" x="342" y="16" width="19" height="33">
<path d="M354.309 16.6403C341.324 13.2453 342.472 30.281 342.054 39.2674C341.842 43.8428 342.289 46.2641 342.779 47.5388C343.158 48.5242 344.521 48.8804 345.433 48.2328C346.613 47.3949 348.448 45.5697 351.021 41.6117C356.076 33.8368 367.296 20.0344 354.309 16.6403Z" fill="white"/>
</mask>
<g mask="url(#mask3_1001_8010)">
<g opacity="0.75">
<path d="M337.812 20.3125C339.354 20.7868 340.853 21.2797 342.383 21.7093C343.908 22.1535 345.451 22.5315 347.004 22.9772C345.373 22.924 343.765 22.6258 342.212 22.1881C340.664 21.7367 339.157 21.1427 337.812 20.3125Z" fill="#E59A03"/>
</g>
</g>
<mask id="mask4_1001_8010" style="mask-type:luminance" maskUnits="userSpaceOnUse" x="342" y="16" width="19" height="33">
<path d="M354.309 16.6403C341.324 13.2453 342.472 30.281 342.054 39.2674C341.842 43.8428 342.289 46.2641 342.779 47.5388C343.158 48.5242 344.521 48.8804 345.433 48.2328C346.613 47.3949 348.448 45.5697 351.021 41.6117C356.076 33.8368 367.296 20.0344 354.309 16.6403Z" fill="white"/>
</mask>
<g mask="url(#mask4_1001_8010)">
<g opacity="0.75">
<path d="M347.445 41.8379C348.987 42.3122 350.485 42.8051 352.016 43.2347C353.541 43.6789 355.084 44.0569 356.637 44.5026C355.006 44.4498 353.399 44.1512 351.845 43.7135C350.296 43.2617 348.789 42.6677 347.445 41.8379Z" fill="#E59A03"/>
</g>
</g>
<mask id="mask5_1001_8010" style="mask-type:luminance" maskUnits="userSpaceOnUse" x="342" y="16" width="19" height="33">
<path d="M354.309 16.6403C341.324 13.2453 342.472 30.281 342.054 39.2674C341.842 43.8428 342.289 46.2641 342.779 47.5388C343.158 48.5242 344.521 48.8804 345.433 48.2328C346.613 47.3949 348.448 45.5697 351.021 41.6117C356.076 33.8368 367.296 20.0344 354.309 16.6403Z" fill="white"/>
</mask>
<g mask="url(#mask5_1001_8010)">
<g opacity="0.75">
<path d="M345.438 42.5625C346.96 43.0824 348.44 43.62 349.953 44.0952C351.461 44.5844 352.989 45.0084 354.524 45.5005C352.896 45.3989 351.301 45.0523 349.764 44.5683C348.234 44.071 346.749 43.4322 345.438 42.5625Z" fill="#E59A03"/>
</g>
</g>
<mask id="mask6_1001_8010" style="mask-type:luminance" maskUnits="userSpaceOnUse" x="342" y="16" width="19" height="33">
<path d="M354.309 16.6403C341.324 13.2453 342.472 30.281 342.054 39.2674C341.842 43.8428 342.289 46.2641 342.779 47.5388C343.158 48.5242 344.521 48.8804 345.433 48.2328C346.613 47.3949 348.448 45.5697 351.021 41.6117C356.076 33.8368 367.296 20.0344 354.309 16.6403Z" fill="white"/>
</mask>
<g mask="url(#mask6_1001_8010)">
<g opacity="0.75">
<path d="M342.934 15.6055C344.428 16.187 345.879 16.7847 347.367 17.3211C348.848 17.8716 350.353 18.3572 351.861 18.9118C350.24 18.7437 348.664 18.3323 347.153 17.7866C345.65 17.2268 344.2 16.528 342.934 15.6055Z" fill="#E59A03"/>
</g>
</g>
<mask id="mask7_1001_8010" style="mask-type:luminance" maskUnits="userSpaceOnUse" x="342" y="16" width="19" height="33">
<path d="M354.309 16.6403C341.324 13.2453 342.472 30.281 342.054 39.2674C341.842 43.8428 342.289 46.2641 342.779 47.5388C343.158 48.5242 344.521 48.8804 345.433 48.2328C346.613 47.3949 348.448 45.5697 351.021 41.6117C356.076 33.8368 367.296 20.0344 354.309 16.6403Z" fill="white"/>
</mask>
<g mask="url(#mask7_1001_8010)">
<g opacity="0.75">
<path d="M338.609 32.6562C340.151 33.1306 341.65 33.6235 343.18 34.0531C344.705 34.4972 346.248 34.8752 347.801 35.321C346.17 35.2678 344.563 34.9695 343.009 34.5319C341.461 34.0801 339.953 33.4861 338.609 32.6562Z" fill="#E59A03"/>
</g>
</g>
<mask id="mask8_1001_8010" style="mask-type:luminance" maskUnits="userSpaceOnUse" x="342" y="16" width="19" height="33">
<path d="M354.309 16.6403C341.324 13.2453 342.472 30.281 342.054 39.2674C341.842 43.8428 342.289 46.2641 342.779 47.5388C343.158 48.5242 344.521 48.8804 345.433 48.2328C346.613 47.3949 348.448 45.5697 351.021 41.6117C356.076 33.8368 367.296 20.0344 354.309 16.6403Z" fill="white"/>
</mask>
<g mask="url(#mask8_1001_8010)">
<g opacity="0.75">
<path d="M334.875 36.7344C336.416 37.2087 337.915 37.7016 339.446 38.1312C340.971 38.5753 342.514 38.9534 344.067 39.3991C342.435 39.3463 340.828 39.0477 339.275 38.61C337.726 38.1582 336.219 37.5642 334.875 36.7344Z" fill="#E59A03"/>
</g>
</g>
<mask id="mask9_1001_8010" style="mask-type:luminance" maskUnits="userSpaceOnUse" x="342" y="16" width="19" height="33">
<path d="M354.309 16.6403C341.324 13.2453 342.472 30.281 342.054 39.2674C341.842 43.8428 342.289 46.2641 342.779 47.5388C343.158 48.5242 344.521 48.8804 345.433 48.2328C346.613 47.3949 348.448 45.5697 351.021 41.6117C356.076 33.8368 367.296 20.0344 354.309 16.6403Z" fill="white"/>
</mask>
<g mask="url(#mask9_1001_8010)">
<g opacity="0.75">
<path d="M352.402 31.6094C353.229 31.748 354.003 31.9471 354.775 32.1418C355.544 32.3421 356.302 32.5504 357.059 32.7668C357.815 32.9824 358.57 33.2069 359.325 33.4475C360.08 33.6938 360.839 33.942 361.594 34.2745C360.757 34.3575 359.932 34.312 359.116 34.2165C358.302 34.1153 357.498 33.9501 356.716 33.7252C355.933 33.5007 355.171 33.2174 354.442 32.8724C353.717 32.5214 353.019 32.1224 352.402 31.6094Z" fill="#E59A03"/>
</g>
</g>
<mask id="mask10_1001_8010" style="mask-type:luminance" maskUnits="userSpaceOnUse" x="342" y="16" width="19" height="33">
<path d="M354.309 16.6403C341.324 13.2453 342.472 30.281 342.054 39.2674C341.842 43.8428 342.289 46.2641 342.779 47.5388C343.158 48.5242 344.521 48.8804 345.433 48.2328C346.613 47.3949 348.448 45.5697 351.021 41.6117C356.076 33.8368 367.296 20.0344 354.309 16.6403Z" fill="white"/>
</mask>
<g mask="url(#mask10_1001_8010)">
<g opacity="0.75">
<path d="M338.703 30.6641C339.53 30.8027 340.304 31.0018 341.076 31.1964C341.845 31.3967 342.603 31.6051 343.359 31.8211C344.116 32.0367 344.87 32.2612 345.626 32.5018C346.381 32.748 347.14 32.9963 347.895 33.3288C347.058 33.4118 346.233 33.3663 345.418 33.2708C344.603 33.1696 343.8 33.0044 343.017 32.7795C342.235 32.555 341.472 32.2717 340.744 31.9267C340.018 31.5761 339.319 31.1775 338.703 30.6641Z" fill="#E59A03"/>
</g>
</g>
<mask id="mask11_1001_8010" style="mask-type:luminance" maskUnits="userSpaceOnUse" x="342" y="16" width="19" height="33">
<path d="M354.309 16.6403C341.324 13.2453 342.472 30.281 342.054 39.2674C341.842 43.8428 342.289 46.2641 342.779 47.5388C343.158 48.5242 344.521 48.8804 345.433 48.2328C346.613 47.3949 348.448 45.5697 351.021 41.6117C356.076 33.8368 367.296 20.0344 354.309 16.6403Z" fill="white"/>
</mask>
<g mask="url(#mask11_1001_8010)">
<g opacity="0.75">
<path d="M350.301 28.418C351.127 28.5566 351.901 28.7557 352.673 28.9503C353.442 29.1506 354.201 29.359 354.957 29.575C355.714 29.7906 356.468 30.0151 357.224 30.2557C357.978 30.5019 358.737 30.7502 359.492 31.0827C358.655 31.1657 357.831 31.1202 357.015 31.0246C356.2 30.9235 355.397 30.7583 354.614 30.5334C353.832 30.3089 353.069 30.0256 352.341 29.681C351.616 29.33 350.917 28.931 350.301 28.418Z" fill="#E59A03"/>
</g>
</g>
<mask id="mask12_1001_8010" style="mask-type:luminance" maskUnits="userSpaceOnUse" x="342" y="16" width="19" height="33">
<path d="M354.309 16.6403C341.324 13.2453 342.472 30.281 342.054 39.2674C341.842 43.8428 342.289 46.2641 342.779 47.5388C343.158 48.5242 344.521 48.8804 345.433 48.2328C346.613 47.3949 348.448 45.5697 351.021 41.6117C356.076 33.8368 367.296 20.0344 354.309 16.6403Z" fill="white"/>
</mask>
<g mask="url(#mask12_1001_8010)">
<g opacity="0.75">
<path d="M341.57 23.0859C342.397 23.2246 343.171 23.4237 343.943 23.6183C344.712 23.8186 345.47 24.027 346.227 24.243C346.983 24.4586 347.738 24.6831 348.493 24.9237C349.248 25.1699 350.007 25.4182 350.762 25.7507C349.925 25.8337 349.1 25.7881 348.285 25.6926C347.47 25.5915 346.667 25.4262 345.884 25.2013C345.102 24.9769 344.339 24.6936 343.611 24.349C342.886 23.998 342.187 23.599 341.57 23.0859Z" fill="#E59A03"/>
</g>
</g>
<path d="M324.435 144.655C324.408 143.818 324.464 143.027 324.747 142.224C324.885 141.831 325.064 141.449 325.267 141.08C325.452 140.744 325.699 140.431 325.812 140.069C325.833 140.003 325.737 139.981 325.693 140.018C325.055 140.55 324.7 141.52 324.454 142.253C324.194 143.029 324.066 143.887 324.308 144.679C324.329 144.745 324.438 144.719 324.435 144.655Z" fill="#403227"/>
<path d="M321.18 140.828C321.119 140.804 321.148 140.728 321.212 140.741C322.146 140.942 323.078 141.405 323.813 141.952C323.989 142.083 324.162 142.221 324.318 142.373C324.326 142.349 324.332 142.325 324.337 142.299C324.442 141.739 324.163 141.162 323.683 140.8C323.148 140.396 322.419 140.247 321.72 140.268C321.021 140.288 320.34 140.465 319.672 140.648C320.33 141.151 320.988 141.655 321.646 142.158C322.026 142.448 322.421 142.746 322.9 142.872C323.321 142.983 323.942 142.855 324.226 142.553C323.371 141.709 321.992 141.153 321.18 140.828Z" fill="#768541"/>
<path d="M330.08 143.285C326.443 141.895 324.355 144.665 324.355 144.665C324.355 144.665 322.138 142.132 318.544 143.609C313.941 145.499 315.357 160.2 324.664 153.482C334.424 159.664 334.667 145.037 330.08 143.285Z" fill="#94D602"/>
<path opacity="0.28" d="M330.079 143.285C328.716 142.764 327.571 142.827 326.672 143.11C329.584 146.236 331.868 151.006 331.217 154.165C334.092 151.695 333.215 144.483 330.079 143.285Z" fill="#94D602"/>
<g opacity="0.28">
<path d="M322.709 145.381C321.5 145.333 320.518 145.368 319.754 145.766C319.373 145.963 319.013 146.223 318.663 146.559C318.485 146.722 318.331 146.917 318.133 147.095C317.964 147.292 317.794 147.496 317.568 147.695C317.538 147.424 317.564 147.156 317.591 146.881C317.663 146.619 317.733 146.347 317.867 146.094C318.128 145.586 318.581 145.115 319.178 144.816C319.776 144.514 320.498 144.442 321.123 144.56C321.748 144.683 322.315 144.953 322.709 145.381Z" fill="white"/>
</g>
<path d="M40.3314 84.4113C40.1958 85.2568 39.857 86.0015 39.8183 86.8729C39.73 88.8517 40.3291 90.6781 39.9309 92.6795C39.5453 94.6184 38.7372 96.8821 37.1448 98.3112C35.3538 99.9184 32.6835 101.041 30.1889 101.371C28.1956 101.634 26.4433 101.264 24.501 100.934C23.801 100.815 23.2307 100.875 22.5491 101.04C22.0063 101.173 21.4235 101.411 20.8554 101.407C19.5532 101.4 19.0171 100.411 19.1698 99.3864C19.3027 98.4933 19.7883 97.7691 19.6396 96.8531C19.4414 95.6323 18.9671 94.5595 19.0018 93.2977C19.0721 90.766 19.882 87.8582 21.7563 85.8891C23.7888 83.918 26.0217 82.603 29.0082 82.125C30.5947 81.8711 32.0285 82.0299 33.5826 82.3692C34.588 82.5884 35.6597 82.8411 36.6989 82.6505C37.4471 82.5135 37.8011 82.2906 38.6273 82.3885C39.8696 82.5361 40.5187 83.2429 40.3314 84.4113Z" fill="#9CBF28"/>
<g opacity="0.5">
<path opacity="0.65" d="M40.3335 84.4107C40.5209 83.242 39.8713 82.5351 38.6299 82.3876C37.8033 82.2892 37.4492 82.5121 36.7015 82.6495C36.2843 82.7261 35.8623 82.7293 35.4411 82.6939C35.4168 83.4274 35.2767 84.1222 35.3807 84.879C35.6505 86.8445 36.5708 88.5605 36.5388 90.5929C36.5078 92.562 36.1186 94.9128 34.8046 96.5531C33.3266 98.3977 30.8937 99.8912 28.4914 100.577C27.2806 100.923 26.1184 101.005 24.9297 101.008C26.704 101.315 28.3446 101.614 30.1906 101.37C32.6852 101.04 35.3555 99.9178 37.1465 98.3106C38.7389 96.8815 39.547 94.6178 39.9326 92.6789C40.3308 90.6776 39.7317 88.8511 39.82 86.8723C39.8592 86.001 40.1979 85.2566 40.3335 84.4107Z" fill="#9CBF28"/>
<path d="M22.7994 100.966C22.0873 100.95 21.535 101.09 20.8922 101.352C20.8539 101.368 20.8156 101.385 20.7773 101.402C20.8044 101.403 20.8301 101.406 20.8575 101.406C21.4256 101.409 22.0084 101.171 22.5512 101.039C22.6675 101.011 22.7778 100.99 22.8886 100.969C22.8585 100.968 22.8292 100.967 22.7994 100.966Z" fill="#C7E06E"/>
</g>
<path d="M25.5415 94.5664C25.1429 94.5664 25.142 95.121 25.5415 95.121C25.9402 95.121 25.9411 94.5664 25.5415 94.5664Z" fill="#444D26"/>
<path d="M23.9321 95.8398C23.5335 95.8398 23.5326 96.3944 23.9321 96.3944C24.3308 96.3944 24.3317 95.8398 23.9321 95.8398Z" fill="#444D26"/>
<path d="M26.5337 96.7246C26.135 96.7246 26.1341 97.2792 26.5337 97.2792C26.9328 97.2792 26.9333 96.7246 26.5337 96.7246Z" fill="#444D26"/>
<path d="M24.375 97.5938C24.3574 97.5938 24.3403 97.5938 24.3228 97.5938C23.9241 97.5938 23.9232 98.1483 24.3228 98.1483C24.3403 98.1483 24.3574 98.1483 24.375 98.1483C24.7741 98.1483 24.7746 97.5938 24.375 97.5938Z" fill="#444D26"/>
<path d="M23.229 93.3906C22.8304 93.3906 22.8295 93.9452 23.229 93.9452C23.6277 93.9452 23.6281 93.3906 23.229 93.3906Z" fill="#444D26"/>
<path d="M21.2774 97.5405C21.2598 97.5715 21.2423 97.6025 21.2242 97.6336C21.0436 97.9507 21.5783 98.232 21.7594 97.9137C21.7769 97.8826 21.7945 97.8516 21.8125 97.8206C21.9932 97.503 21.4589 97.2221 21.2774 97.5405Z" fill="#444D26"/>
<path d="M21.5181 95.8905C21.9167 95.8905 21.9176 95.3359 21.5181 95.3359C21.1194 95.3359 21.1185 95.8905 21.5181 95.8905Z" fill="#444D26"/>
<g opacity="0.36">
<path d="M22.7344 86.4456C23.2272 85.8487 23.8375 85.3349 24.4939 84.8782C25.1515 84.4204 25.875 84.0376 26.6362 83.7228C27.3975 83.4077 28.2173 83.2021 29.0462 83.0925C29.8764 82.9732 30.7286 83.0272 31.5336 83.1775C30.7061 83.2364 29.9061 83.2936 29.1277 83.4782C28.3543 83.6599 27.5898 83.8719 26.8669 84.181C25.4051 84.7694 24.0466 85.5537 22.7344 86.4456Z" fill="white"/>
</g>
<path d="M15.7637 31.4569C15.1718 33.5671 14.3018 35.205 13.2799 36.461C11.4559 38.6947 9.14507 39.7183 7.05741 40.022C5.97282 40.1812 4.94473 40.1413 4.08325 39.9781C4.07974 39.9773 4.07973 39.9773 4.07856 39.9803C4.07505 39.9795 4.07505 39.9795 4.07505 39.9795C3.9558 39.9574 3.83675 39.9325 3.71551 39.9029C3.50184 39.8512 3.2835 39.7877 3.06265 39.7169C1.9834 39.3613 0.822804 38.7486 -0.221562 37.8361C-0.289064 37.7779 -0.353067 37.7206 -0.419756 37.6589C-0.458225 37.6252 -0.495865 37.588 -0.53405 37.5511C-0.711097 37.3826 -0.889842 37.2033 -1.05716 37.0125C-1.91251 36.062 -2.639 34.8711 -3.10322 33.4085C-3.75041 31.3856 -3.89503 28.8424 -3.20021 25.7072C-2.46294 22.3836 -1.24815 19.8487 0.165469 17.9518C0.754576 17.1561 1.38216 16.4743 2.02387 15.8939C2.41539 15.5386 2.80977 15.2192 3.20626 14.9387C3.40923 14.7961 3.61021 14.66 3.81173 14.5376C4.31404 14.2232 4.81467 13.9643 5.30302 13.7546C5.3553 13.7323 5.40757 13.71 5.45976 13.6881C6.55236 13.2412 7.57734 13.0398 8.42189 13.0316C8.75452 13.0284 9.05676 13.0529 9.32863 13.1048L9.32936 13.1017C9.33287 13.1025 9.33287 13.1025 9.33287 13.1025C9.38881 13.1125 9.44787 13.1269 9.50651 13.1412C10.3831 13.3534 11.4594 13.9285 12.504 14.8862C13.4818 15.7826 14.4278 17.0162 15.1611 18.6069C16.3696 21.2194 16.9952 24.7931 16.2102 29.4237C16.0888 30.1476 15.9388 30.8228 15.7637 31.4569Z" fill="#FC6C02"/>
<path d="M-5.75998 37.5954C-5.75919 37.596 -5.75788 37.5963 -5.75656 37.5966C-5.75525 37.5969 -5.75446 37.5975 -5.75314 37.5978L-5.75305 37.5974C-2.11683 38.6644 4.78192 37.6764 7.31584 28.2559C10.1281 17.7994 4.95268 12.2022 2.02849 11.3351L2.02858 11.3347C2.02727 11.3344 2.02639 11.3342 2.02507 11.3339C2.02376 11.3336 2.02297 11.333 2.02166 11.3327L2.02156 11.3331C-0.906125 10.4773 -8.30203 12.3736 -11.6398 22.6751C-14.6473 31.9563 -9.39379 36.5219 -5.75998 37.5954Z" fill="#FC6C02"/>
<path d="M-4.02994 10.202C-4.03082 10.2018 -4.03214 10.2015 -4.03336 10.2008C-4.03424 10.2006 -4.03547 10.1999 -4.03635 10.1997C-7.67257 9.13273 -14.5713 10.1208 -17.1052 19.5413C-19.9175 29.9977 -14.7425 35.5949 -11.8179 36.462L-11.818 36.4624C-11.8171 36.4626 -11.8158 36.4629 -11.8145 36.4632C-11.8131 36.4635 -11.8124 36.4641 -11.811 36.4644L-11.8109 36.464C-8.88325 37.3199 -1.48782 35.4235 1.85038 25.122C4.85784 15.8412 -0.395697 11.2756 -4.02994 10.202Z" fill="#FC7802"/>
<path d="M10.2333 41.8058C10.2333 41.8058 10.2333 41.8058 10.2298 41.805C10.2298 41.805 10.2298 41.805 10.2263 41.8042C10.1704 41.7942 10.1113 41.7798 10.0525 41.7658C9.51495 41.6354 8.90507 41.3692 8.27121 40.9643C7.87018 40.7066 7.46372 40.3921 7.05902 40.0218C6.41796 39.4374 5.7907 38.7028 5.22644 37.8231C4.68852 36.9775 4.21126 35.997 3.83541 34.8733C3.73827 34.5846 3.64922 34.2808 3.56883 33.9715C2.95993 31.682 2.78077 28.8653 3.35213 25.4874C3.7661 23.0517 4.50806 21.1246 5.45106 19.6193C5.76212 19.1157 6.09997 18.6604 6.45484 18.2475C6.72418 17.9291 7.01085 17.6357 7.29921 17.3671C7.53625 17.1488 7.78065 16.9466 8.02521 16.7618C8.89834 16.0977 9.82122 15.6271 10.7413 15.3129C10.7674 15.302 10.7928 15.2942 10.8217 15.2872C11.391 15.0974 11.9579 14.9662 12.5078 14.8865C13.5924 14.7272 14.6205 14.7672 15.482 14.9304L15.4894 14.9321C15.6087 14.9542 15.7277 14.9796 15.849 15.0088C19.5647 15.9092 24.8125 19.9818 22.7647 29.2045C20.4191 39.7742 13.2302 42.3753 10.2333 41.8058Z" fill="#FC7802"/>
<path d="M17.0668 12.0592C17.1157 12.0667 17.1256 11.9979 17.0763 11.9902C17.0273 11.9827 17.0175 12.0516 17.0668 12.0592Z" fill="#734B26"/>
<path d="M7.01966 6.63117C7.59235 6.78788 7.95069 7.31334 7.84465 7.83399C7.43663 9.83637 6.93644 14.4908 10.8379 15.3434L3.96818 18.1905L0.19214 13.1807C0.19214 13.1807 4.71784 12.9405 5.64056 7.38674C5.7375 6.80526 6.38474 6.45764 7.01966 6.63117Z" fill="#492101"/>
<path d="M0.482274 12.8068C0.481048 12.8061 0.480098 12.8063 0.47922 12.8061C0.478342 12.8059 0.477017 12.8056 0.476139 12.8054C-2.99872 11.967 -9.49491 13.3729 -11.5917 22.8986C-13.9192 33.4717 -8.84357 38.7217 -6.04903 39.405L-6.04912 39.4054C-6.04824 39.4056 -6.04694 39.4059 -6.04607 39.4061C-6.04519 39.4063 -6.04386 39.4066 -6.04298 39.4068L-6.04289 39.4064C-3.2452 40.0781 3.69195 37.7391 6.52161 27.2874C9.07159 17.8715 3.95551 13.6522 0.482274 12.8068Z" fill="#FF8700"/>
<path d="M16.4489 29.1325C16.406 29.3071 16.3588 29.484 16.3116 29.6609C16.1418 30.2897 15.9563 30.8863 15.762 31.4569C15.0653 33.4545 14.2149 35.1076 13.2782 36.461C11.7189 38.7135 9.93261 40.1433 8.26795 40.9646C6.4657 41.8535 4.80704 42.0306 3.74586 41.7771L3.74513 41.7802C3.74513 41.7802 3.74583 41.7771 3.74241 41.7759C3.09051 41.6179 2.31275 41.2096 1.53611 40.5436C0.820316 39.9304 0.103007 39.101 -0.515673 38.0441C-0.51837 38.0398 -0.521581 38.0358 -0.524279 38.0314C-0.604304 37.8972 -0.683156 37.7558 -0.756878 37.6123C-0.861759 37.4194 -0.961148 37.2207 -1.05828 37.0122C-1.62975 35.7785 -2.07029 34.2974 -2.27278 32.5634C-2.51479 30.4953 -2.41891 28.0699 -1.80301 25.2713C-1.12633 22.1947 0.00900385 19.9686 1.35298 18.3861C1.70435 17.9724 2.07161 17.6042 2.44908 17.2738C3.25398 16.5688 4.10629 16.0533 4.95899 15.6947C4.96052 15.6881 4.96449 15.689 4.968 15.6898C5.29951 15.5469 5.63269 15.4289 5.96137 15.3305C6.08274 15.2972 6.2042 15.2636 6.32441 15.2334C7.78248 14.8715 9.17326 14.9122 10.2674 15.1771C10.2709 15.1779 10.2709 15.1779 10.2709 15.1779C10.422 15.2143 10.5785 15.2595 10.7375 15.3118C10.7707 15.3199 10.8028 15.331 10.8353 15.3426C12.2923 15.8283 13.9393 16.8759 15.1615 18.6061C16.7566 20.8627 17.6378 24.2856 16.4489 29.1325Z" fill="#FF8700"/>
<path d="M9.74359 28.8365C8.6216 33.0297 6.95662 35.9196 5.22574 37.8232C4.50837 38.6158 3.77783 39.2408 3.06399 39.717C2.53997 40.0715 2.02538 40.3409 1.53857 40.5439C0.430759 41.0046 -0.543922 41.0961 -1.21777 40.9331L-1.22243 40.9353L-1.22171 40.9322C-1.89942 40.7678 -2.72467 40.2365 -3.49793 39.3169C-3.8399 38.9131 -4.17326 38.4277 -4.48001 37.8649C-4.8822 37.1185 -5.23938 36.2368 -5.51007 35.2084C-6.16169 32.727 -6.29954 29.4079 -5.35194 25.1791C-5.31291 25.0036 -5.27075 24.8326 -5.22894 24.6611C-4.2927 20.8449 -2.75697 18.4017 -1.08188 16.9169C-0.153643 16.0918 0.815894 15.5591 1.74968 15.2519C2.25032 15.0872 2.73964 14.9857 3.20761 14.9388C3.56816 14.9006 3.91249 14.8968 4.23935 14.9167C4.55335 14.9402 4.85446 14.9855 5.12677 15.0516L5.13071 15.0525C5.39951 15.1177 5.67748 15.2094 5.96376 15.3312C6.15375 15.4155 6.34489 15.5108 6.53729 15.6167C7.04443 15.9035 7.5488 16.2806 8.02365 16.7618C8.43254 17.1781 8.81948 17.6696 9.15483 18.2427C10.4587 20.4491 11.0703 23.8729 9.74359 28.8365Z" fill="#FC7802"/>
<path opacity="0.46" d="M15.8471 15.0076C15.7253 14.9784 15.6069 14.9527 15.4876 14.931L15.4801 14.9293C14.6186 14.7661 13.591 14.7262 12.5059 14.8854C11.4613 13.9277 10.3849 13.353 9.50844 13.1404C9.44936 13.126 9.39064 13.112 9.33479 13.1017C9.33479 13.1017 9.33477 13.1017 9.33126 13.1008L9.33053 13.104C9.05866 13.0521 8.75602 13.0275 8.42382 13.0308C7.57927 13.0389 6.55428 13.2404 5.4616 13.6877C5.40932 13.71 5.35714 13.7319 5.30486 13.7541C5.3038 13.7547 5.3023 13.7552 5.30115 13.7562C4.21136 12.4287 2.9982 11.6207 2.03026 11.3337L2.03035 11.3333C2.02903 11.333 2.02816 11.3328 2.02684 11.3325C2.02596 11.3323 2.02474 11.3316 2.02342 11.3313L2.02333 11.3317C1.16409 11.0805 -0.0814409 11.0694 -1.49514 11.4353C-2.34771 10.8461 -3.22793 10.439 -4.02906 10.2024C-4.03037 10.2021 -4.03125 10.2019 -4.03257 10.2016C-4.03344 10.2014 -4.03467 10.2007 -4.03599 10.2004C-4.87644 9.95392 -5.8925 9.81957 -6.98747 9.87136C-3.74911 9.99644 -1.30232 11.4752 -0.0179313 12.9352C-0.017234 12.9362 -0.0164285 12.9368 -0.0157312 12.9378C-0.0150343 12.9387 -0.0142526 12.9393 -0.0135557 12.9403C0.287652 13.2843 0.575308 13.6851 0.831876 14.1346C1.21851 14.8122 1.84003 15.3569 2.58722 15.7093C3.39454 16.0896 4.00863 16.5362 4.39784 16.9778C4.39853 16.9788 4.39931 16.9794 4.4001 16.98C4.40089 16.9806 4.4016 16.9816 4.40239 16.9822L4.40184 16.9825C4.59316 17.2015 4.77336 17.4688 4.93428 17.7796C5.73939 19.3356 6.95004 20.7343 8.61104 21.5747C8.65906 21.599 8.70305 21.6228 8.74247 21.6463C9.02598 21.8163 9.26681 21.9929 9.46426 22.1753L9.46708 22.173C9.46971 22.1757 9.46971 22.1757 9.46971 22.1757C9.51062 22.2128 9.55185 22.2546 9.59255 22.2966C10.0222 22.7372 10.4217 23.373 10.7172 24.1673C10.9595 24.8191 11.4431 25.3928 12.087 25.7681C12.6432 26.0927 13.1237 26.4511 13.5177 26.8135L13.523 26.8189C13.6101 26.8981 13.6948 26.98 13.7789 27.0664C16.3516 29.7044 18.2107 35.6375 10.6693 41.8605C13.8759 42.1197 20.5257 39.2939 22.7629 29.203C24.8107 19.9807 19.5628 15.9081 15.8471 15.0076Z" fill="#FC7802"/>
<g opacity="0.44">
<path d="M124.429 201.506C124.778 202.65 124.959 203.793 125.09 204.938C125.214 206.081 125.271 207.225 125.272 208.369C125.274 209.513 125.216 210.657 125.092 211.801C124.962 212.945 124.78 214.089 124.429 215.232C124.078 214.089 123.896 212.945 123.766 211.801C123.643 210.657 123.585 209.513 123.586 208.369C123.587 207.225 123.645 206.082 123.768 204.938C123.899 203.793 124.08 202.65 124.429 201.506Z" fill="#FDFFD9"/>
</g>
</g>
</svg>
