<svg width="9" height="12" viewBox="0 0 9 12" fill="none" xmlns="http://www.w3.org/2000/svg">
<path d="M4.98448 3.14288C4.93389 1.39932 4.37242 0.00119424 3.73047 0.0197131L3.87696 5.0764V11.4053C4.3658 11.4053 4.77735 10.9443 4.89902 9.90983C5.00517 9.04575 4.51747 6.70037 4.4376 5.96407C4.79536 5.42785 5.01986 4.36275 4.98448 3.14288Z" fill="#118411"/>
<path d="M8.18935 0.0275558C8.00726 0.0249694 7.85704 0.170636 7.85446 0.352928L7.82435 2.39218L7.54533 2.38814L7.57553 0.348893C7.57822 0.166394 7.43245 0.0166908 7.25027 0.0138975C7.06777 0.0113111 6.91786 0.156771 6.91517 0.33927L6.88506 2.37852L6.60603 2.37449L6.63614 0.335238C6.63873 0.152739 6.49306 0.00282727 6.31067 3.3916e-05C6.12827 -0.00255252 5.97826 0.143118 5.97567 0.325409L5.94557 2.36466C5.9317 3.30529 6.48882 4.07636 7.19016 4.08681C7.89119 4.09695 8.47075 3.34305 8.48472 2.40221L8.51483 0.362962C8.51741 0.18036 8.37195 0.0304526 8.18935 0.0275558Z" fill="#118411"/>
<path d="M6.97497 3.25586H7.42253C7.42253 3.25586 7.78349 10.1509 7.79787 10.2137C7.81236 10.2764 7.98554 11.4048 7.22761 11.4048C6.46979 11.4048 6.65726 10.1823 6.65726 10.1823L6.97497 3.25586Z" fill="#118411"/>
<path d="M1.23654 3.25586H1.68409C1.68409 3.25586 2.04516 10.151 2.05954 10.2137C2.07392 10.2765 2.24721 11.4049 1.48928 11.4049C0.731352 11.4049 0.919024 10.1825 0.919024 10.1825L1.23654 3.25586Z" fill="#118411"/>
<path d="M2.98889 2.59221C2.98889 3.41769 2.31983 4.08686 1.49444 4.08686C0.668956 4.08686 0 3.41769 0 2.59221C0 1.76682 0.336237 0.0195312 1.49444 0.0195312C2.65265 0.0195312 2.98889 1.76693 2.98889 2.59221Z" fill="#118411"/>
<path d="M0.805298 3.05615C0.782433 2.46261 0.976003 1.1964 1.80915 1.16453C2.10421 1.15326 2.33088 1.30265 2.502 1.52653C2.34236 1.00128 2.03096 0.489681 1.4937 0.510373C0.660767 0.542341 0.466992 1.80856 0.490063 2.40209C0.500926 2.68753 0.622798 2.94183 0.811505 3.12733C0.809125 3.10374 0.806332 3.08025 0.805298 3.05615Z" fill="white"/>
</svg>
