<svg width="286" height="300" viewBox="0 0 286 300" fill="none" xmlns="http://www.w3.org/2000/svg">
<path d="M220.849 172.792C220.849 180.82 172.599 187.329 113.079 187.329C53.5594 187.329 5.31055 180.82 5.31055 172.792C5.31055 164.762 53.5594 158.253 113.079 158.253C172.599 158.253 220.849 164.762 220.849 172.792Z" fill="#BCBEC0"/>
<path d="M211.744 172.793C211.744 178.526 167.571 183.176 113.079 183.176C58.5892 183.176 14.4141 178.527 14.4141 172.793C14.4141 167.056 58.5892 162.408 113.079 162.408C167.571 162.408 211.744 167.055 211.744 172.793Z" fill="#C7C8CA"/>
<path d="M21.4209 155.575C21.4209 155.575 7.77474 131.91 0 125.563C3.63117 125.555 16.8517 133.75 26.1137 152.957L21.4209 155.575Z" fill="#579C43"/>
<path d="M0 125.563C0.284983 125.796 0.577516 126.053 0.876653 126.33C6.1309 128.526 12.2911 136.602 16.6809 142.498C19.9337 146.868 21.2095 150.23 21.2775 152.022C21.3105 152.933 21.1633 153.817 20.8925 154.669C21.2322 155.249 21.4218 155.575 21.4218 155.575L26.1146 152.957C16.8517 133.75 3.63117 125.556 0 125.563Z" fill="#7C8A3F"/>
<path d="M24.8351 153.699C24.8351 153.699 7.58987 132.093 6.4707 109.402C6.4707 109.402 16.9018 132.205 30.9094 151.637L24.8351 153.699Z" fill="#83BE2C"/>
<path d="M21.9051 144.916C12.2326 132.308 9.09216 114.967 9.08178 114.814C7.40209 111.44 6.4707 109.402 6.4707 109.402C7.58987 132.093 24.8351 153.699 24.8351 153.699L28.0228 152.617C27.5 151.495 24.3708 148.131 21.9051 144.916Z" fill="#7C8A3F"/>
<path d="M30.3811 153.185C30.3811 153.185 24.671 123.557 26.1544 113.853C23.4216 116.152 18.794 125.07 24.0897 154.162L30.3811 153.185Z" fill="#83BE2C"/>
<path d="M27.0113 151.194C26.4677 146.798 25.9459 142.401 25.3788 138.01C24.8182 133.675 24.6635 129.393 24.8588 125.028C24.9324 123.331 25.0126 121.611 25.2221 119.921C25.3344 118.995 25.4948 118.037 25.9148 117.195C25.9346 115.924 26.0101 114.795 26.1544 113.853C23.4216 116.152 18.794 125.07 24.0897 154.162L27.334 153.659C27.2198 152.84 27.1123 152.016 27.0113 151.194Z" fill="#7C8A3F"/>
<path d="M25.0986 154.343C25.0986 154.343 17.7391 128.953 11.2383 113.684C11.2383 113.684 21.5675 117.037 29.665 153.501L25.0986 154.343Z" fill="#579C43"/>
<path d="M11.2402 113.682C11.428 114.121 11.6158 114.571 11.8045 115.024C12.9379 116.115 13.8466 117.438 14.8299 118.639C16.2331 120.359 17.3721 122.244 18.4724 124.151C20.6796 127.973 22.3923 131.984 23.9418 136.086C25.4894 140.183 27.2002 144.34 27.7702 148.691C27.9919 150.399 28.0476 152.109 27.9702 153.813L29.6679 153.499C21.5694 117.036 11.2402 113.682 11.2402 113.682Z" fill="#7C8A3F"/>
<path d="M53.5767 161.371C57.8873 173.051 51.963 185.74 40.3429 189.712C28.7209 193.683 15.8051 187.434 11.4936 175.754C7.18206 164.074 13.1072 151.385 24.7274 147.413C36.3494 143.442 49.2661 149.691 53.5767 161.371Z" fill="#FFD488"/>
<path d="M22.1471 148.892C22.1471 148.892 3.64591 160.155 18.2319 184.86" stroke="#F5BE70" stroke-width="0.7044" stroke-miterlimit="10" stroke-linecap="round" stroke-linejoin="round"/>
<path d="M27.7637 146.97C27.7637 146.97 49.4544 144.775 54.3331 172.798" stroke="#F5BE70" stroke-width="0.7044" stroke-miterlimit="10" stroke-linecap="round" stroke-linejoin="round"/>
<path d="M34.6313 190.505C34.6313 190.505 19.3036 176.967 24.1521 148.119C24.1521 148.119 6.95119 166.111 26.7811 189.571" stroke="#F5BE70" stroke-width="0.7044" stroke-miterlimit="10" stroke-linecap="round" stroke-linejoin="round"/>
<path d="M45.4061 186.824C45.4061 186.824 48.4182 167.018 25.7441 147.577C25.7441 147.577 51.051 150.851 51.0472 181.091" stroke="#F5BE70" stroke-width="0.7044" stroke-miterlimit="10" stroke-linecap="round" stroke-linejoin="round"/>
<path d="M40.2326 189.324C40.2326 189.324 31.954 159.452 24.9219 147.941" stroke="#F5BE70" stroke-width="0.7044" stroke-miterlimit="10" stroke-linecap="round" stroke-linejoin="round"/>
<path d="M24.7267 147.413C24.6456 147.441 24.5673 147.473 24.4871 147.502C25.8506 147.859 27.1906 148.335 28.5051 148.934C32.6525 150.829 36.5063 153.459 39.6534 156.681C45.354 162.517 49.5032 171.601 45.9419 179.468C44.5415 182.561 42.1871 185.128 39.0731 186.698C36.2931 188.098 33.1856 188.901 30.0612 189.153C28.0739 189.315 25.9686 189.267 23.9199 188.942C28.9741 191.172 34.804 191.605 40.3413 189.713C51.9615 185.741 57.8867 173.052 53.5751 161.372C49.2655 149.691 36.3488 143.442 24.7267 147.413Z" fill="#C0A793"/>
<path d="M133.421 112.898C133.421 112.898 142.383 133.261 119.727 151.965C119.727 151.965 113.104 122.992 133.421 112.898Z" fill="#579C43"/>
<path d="M119.777 151.925C142.371 133.231 133.423 112.898 133.423 112.898C133.364 112.928 133.306 112.959 133.248 112.989L119.777 151.925Z" fill="#83BE2C"/>
<path d="M144.442 124.619C144.442 124.619 144.561 145.744 119.359 152.45C119.359 152.45 124.211 124.911 144.442 124.619Z" fill="#579C43"/>
<path d="M119.412 152.434C144.56 145.714 144.441 124.619 144.441 124.619C144.38 124.619 144.324 124.624 144.263 124.624L119.412 152.434Z" fill="#83BE2C"/>
<path d="M116.036 115.398C116.036 115.398 102.632 132.131 118.45 152.162C118.45 152.162 131.941 127.43 116.036 115.398Z" fill="#579C43"/>
<path d="M118.417 152.119C102.651 132.106 116.036 115.398 116.036 115.398C116.084 115.434 116.126 115.471 116.173 115.506L118.417 152.119Z" fill="#83BE2C"/>
<path d="M138.218 175.398C133.701 188.456 119.506 195.667 106.514 191.506C93.5215 187.344 86.6517 173.387 91.1699 160.328C95.6872 147.271 109.883 140.058 122.874 144.22C135.867 148.381 142.737 162.339 138.218 175.398Z" fill="#392346"/>
<path d="M122.873 144.221C122.783 144.192 122.692 144.167 122.6 144.14C123.542 145.349 124.378 146.646 125.1 148.034C127.386 152.419 128.892 157.252 129.36 162.143C130.206 170.997 127.389 181.676 118.687 186.221C115.265 188.007 111.384 188.709 107.542 188.035C104.113 187.434 100.822 186.093 97.9087 184.263C96.0553 183.096 94.2482 181.671 92.6855 180.041C95.5259 185.315 100.322 189.524 106.512 191.508C119.504 195.669 133.699 188.458 138.217 175.4C142.735 162.34 135.865 148.382 122.873 144.221Z" fill="#773053"/>
<path d="M55.886 114.063C55.886 114.063 70.7042 121.235 65.6179 141.046C65.6179 141.046 48.2434 128.217 55.886 114.063Z" fill="#579C43"/>
<path d="M65.6298 141.004C70.6849 121.226 55.8885 114.063 55.8885 114.063C55.8668 114.104 55.846 114.147 55.8262 114.189L65.6298 141.004Z" fill="#83BE2C"/>
<path d="M74.1274 113.662C74.1274 113.662 81.7964 127.813 65.6364 141.031C65.6364 141.031 59.3291 120.851 74.1274 113.662Z" fill="#579C43"/>
<path d="M65.6699 141.001C81.7837 127.793 74.1269 113.662 74.1269 113.662C74.0826 113.683 74.042 113.706 73.9976 113.726L65.6699 141.001Z" fill="#83BE2C"/>
<path d="M41.0879 124.846C41.0879 124.846 44.3171 140.501 65.5181 141.071C65.5181 141.071 57.3045 121.538 41.0879 124.846Z" fill="#579C43"/>
<path d="M65.4737 141.068C44.3133 140.478 41.0879 124.845 41.0879 124.845C41.136 124.835 41.1823 124.829 41.2294 124.82L65.4737 141.068Z" fill="#83BE2C"/>
<path d="M84.4198 152.258C89.3485 165.737 92.5598 198.882 87.5669 200.571C82.5722 202.261 63.2547 174.405 58.325 160.926C53.3973 147.448 56.4509 136.96 63.0565 134.724C71.7475 131.782 79.4902 138.777 84.4198 152.258Z" fill="#F68746"/>
<path d="M63.0532 134.724C62.2973 134.979 61.5924 135.348 60.9375 135.811C65.1434 135.511 68.9585 137.321 71.9716 140.211C73.8853 142.045 84.425 154.862 87.0153 185.623C87.289 188.865 84.6279 192.447 80.5985 191.832C78.6376 191.533 77.0381 190.486 75.5443 189.273C75.097 188.91 74.6469 188.549 74.1986 188.189C79.8256 195.76 85.2412 201.358 87.5626 200.573C92.5555 198.883 89.3442 165.738 84.4156 152.259C79.4878 138.778 71.7451 131.782 63.0532 134.724Z" fill="#F1AC5C"/>
<path d="M55.9258 150.022C57.0978 149 58.4265 148.407 59.7957 147.921C61.18 147.478 62.6021 147.14 64.1818 147.228L64.211 147.312L60.0996 148.75L55.956 150.106L55.9258 150.022Z" fill="#B13D08"/>
<path d="M63.0762 154.355C64.285 153.32 65.6514 152.714 67.0555 152.217C68.4767 151.761 69.9346 151.41 71.5492 151.487L71.5804 151.57L67.3585 153.045L63.1073 154.438L63.0762 154.355Z" fill="#B13D08"/>
<path d="M72.5312 145.565C73.5872 144.581 74.7998 144.028 76.053 143.581C77.3212 143.177 78.6282 142.878 80.0908 143.005L80.1201 143.089L76.3559 144.41L72.5605 145.648L72.5312 145.565Z" fill="#B13D08"/>
<path d="M74.2656 154.063C75.6651 152.962 77.2221 152.292 78.8178 151.73C80.4305 151.21 82.08 150.794 83.8861 150.805L83.9154 150.888L79.1217 152.558L74.2968 154.145L74.2656 154.063Z" fill="#B13D08"/>
<path d="M58.2031 160.585C59.3591 159.567 60.6727 158.981 62.0259 158.5C63.3941 158.063 64.8011 157.729 66.3648 157.823L66.394 157.906L62.3288 159.328L58.2324 160.668L58.2031 160.585Z" fill="#B13D08"/>
<path d="M72.3926 162.614C73.8279 161.502 75.4208 160.82 77.0533 160.245C78.7009 159.713 80.3863 159.286 82.2283 159.285L82.2575 159.368L77.3552 161.074L72.4237 162.698L72.3926 162.614Z" fill="#B13D08"/>
<path d="M63.2051 171.153C64.5262 170.079 66.0068 169.437 67.5251 168.9C69.0585 168.406 70.6316 168.017 72.3594 168.055L72.3906 168.138L67.8271 169.729L63.2343 171.237L63.2051 171.153Z" fill="#B13D08"/>
<path d="M74.4551 171.349C75.6271 170.325 76.9557 169.732 78.3259 169.247C79.7103 168.804 81.1333 168.465 82.712 168.553L82.7413 168.637L78.6288 170.076L74.4843 171.432L74.4551 171.349Z" fill="#B13D08"/>
<path d="M78.6484 175.17C80.112 174.049 81.7323 173.358 83.3903 172.774C85.0643 172.233 86.778 171.796 88.6464 171.786L88.6757 171.87L83.6923 173.603L78.6786 175.253L78.6484 175.17Z" fill="#B13D08"/>
<path d="M79.3689 179.618C78.079 180.681 76.6324 181.314 75.1442 181.839C73.6419 182.322 72.1009 182.701 70.4043 182.651L70.375 182.568L74.8413 181.01L79.3397 179.534L79.3689 179.618Z" fill="#B13D08"/>
<path d="M78.1953 185.105C79.2956 184.107 80.5526 183.538 81.8501 183.077C83.1627 182.659 84.5131 182.344 86.021 182.456L86.0503 182.54L82.153 183.905L78.2246 185.189L78.1953 185.105Z" fill="#B13D08"/>
<path d="M84.0407 188.498C82.998 189.478 81.7958 190.027 80.5567 190.469C79.3007 190.869 78.007 191.164 76.5566 191.032L76.5273 190.949L80.2538 189.64L84.0114 188.415L84.0407 188.498Z" fill="#B13D08"/>
<path d="M84.4219 194.798C85.1164 193.936 85.9695 193.506 86.8603 193.182C87.7671 192.9 88.7127 192.723 89.813 192.973L89.8441 193.056L87.1632 194.01L84.453 194.881L84.4219 194.798Z" fill="#B13D08"/>
<path d="M195.225 158.507C193.231 151.265 190.755 148.335 191.183 138.632C191.639 128.284 189.795 121.279 178.186 119.012C167.087 116.845 162.379 121.217 157.47 131.582C153.798 139.331 152.692 142.151 148.234 147.031C143.134 152.616 138.781 158.471 136 171.651C132.635 187.607 143.439 197.472 160.406 200.784C177.375 204.096 192.185 200.003 195.55 184.046C197.751 173.612 198.164 169.177 195.225 158.507Z" fill="#579C43"/>
<path d="M191.152 158.434C189.545 152.036 187.494 149.463 187.951 140.862C188.437 131.688 186.957 125.5 177.219 123.598C167.909 121.779 163.908 125.698 159.677 134.925C156.512 141.825 155.553 144.332 151.758 148.699C147.414 153.693 143.696 158.922 141.228 170.624C138.239 184.793 147.224 193.431 161.458 196.211C175.69 198.991 188.184 195.225 191.172 181.057C193.125 171.794 193.517 167.861 191.152 158.434Z" fill="#83BE2C"/>
<path d="M183.59 173.86C181.312 184.663 172.166 191.995 163.162 190.237C154.159 188.479 148.707 178.296 150.984 167.494C153.263 156.692 162.41 149.359 171.414 151.118C180.417 152.875 185.869 163.058 183.59 173.86Z" fill="#5F3814"/>
<path d="M176.457 153.195C178.895 156.358 180.62 160.001 180.978 163.888C181.633 170.986 179.234 178.003 173.679 182.846C168.806 187.095 161.842 187.427 156.583 183.548C152.986 180.896 151.919 176.966 150.484 173.196C150.779 181.675 155.773 188.796 163.163 190.238C172.167 191.996 181.313 184.664 183.591 173.861C185.402 165.27 182.321 157.076 176.457 153.195Z" fill="#EFD0A6"/>
<path d="M195.224 158.508C193.23 151.265 190.754 148.335 191.182 138.632C191.638 128.284 189.794 121.279 178.185 119.012C175.787 118.545 173.688 118.383 171.82 118.519C172.026 118.63 172.228 118.738 172.42 118.846C174.903 120.237 177.354 122.226 178.839 124.629C182.607 130.725 180.639 137.312 180.926 143.97C181.272 152.03 190.558 164.049 187.304 181.433C186.484 185.813 183.966 188.843 180.324 191.415C172.994 196.594 164.711 196.124 156.244 192.598C150.525 190.215 146.86 187.055 143.425 182.426C139.561 177.223 136 171.652 136 171.652C132.635 187.608 143.439 197.472 160.406 200.784C177.375 204.096 192.185 200.003 195.55 184.047C197.75 173.613 198.163 169.178 195.224 158.508Z" fill="#58A614"/>
<path d="M69.5046 56.3557C76.4027 69.6459 84.1774 103.434 79.2535 105.799C74.3304 108.165 50.6523 81.8384 43.7542 68.5491C36.8571 55.2608 38.5943 44.0607 45.1074 40.9329C53.6767 36.8145 62.6055 43.0656 69.5046 56.3557Z" fill="#F47637"/>
<path d="M52.5509 39.8782C50.0785 39.4206 47.5779 39.742 45.1064 40.9295C43.2154 41.8375 41.7301 43.4309 40.7383 45.5545C40.7383 45.5545 42.033 45.5055 47.0494 43.0949C51.6158 40.9014 52.5509 39.8782 52.5509 39.8782Z" fill="#83BE2C"/>
<path d="M66.8175 58.2976C73.0163 70.2386 81.0081 100.116 77.2203 101.936C73.4316 103.755 53.1912 79.6029 46.9923 67.6619C40.7954 55.7228 41.5767 46.0352 46.5884 43.6265C53.1817 40.4579 60.6187 46.3585 66.8175 58.2976Z" fill="#F89D67"/>
<path d="M61.296 60.9541C67.493 72.8933 78.8489 101.154 77.1777 101.957C75.5074 102.76 58.7123 76.9526 52.5135 65.0116C46.3165 53.0706 44.4981 44.6333 46.71 43.571C49.6165 42.1728 55.0981 49.014 61.296 60.9541Z" fill="#F68746"/>
<path d="M45.1067 40.9305C44.3622 41.2873 43.6837 41.7549 43.0703 42.3141C47.3696 41.4816 51.5471 42.8734 55.0453 45.4773C57.2666 47.1325 67.7298 57.7316 74.542 89.1384C75.2611 92.4487 75.1318 97.7818 70.8948 97.6502C68.8301 97.5857 67.0391 96.7051 65.3358 95.6392C64.8243 95.3187 64.3128 95.0045 63.8014 94.6886C70.624 101.796 76.9644 106.896 79.2527 105.796C84.1767 103.431 76.402 69.6426 69.5039 56.3524C62.6048 43.0641 53.676 36.813 45.1067 40.9305Z" fill="#F1AC5C"/>
<path d="M163.919 47.5905C155.043 47.5905 147.82 40.6421 147.82 32.1004C147.82 23.5587 155.042 16.6104 163.919 16.6104C172.796 16.6104 180.019 23.5587 180.019 32.1004C180.019 40.6421 172.796 47.5905 163.919 47.5905ZM163.919 19.9724C156.969 19.9724 151.315 25.4136 151.315 32.1004C151.315 38.7882 156.969 44.2275 163.919 44.2275C170.87 44.2275 176.523 38.7882 176.523 32.1004C176.523 25.4145 170.87 19.9724 163.919 19.9724Z" fill="#FFD488"/>
<path d="M110.236 89.6234C105.055 85.2236 95.929 86.1996 93.1962 90.5031C91.9534 92.4633 93.5057 95.7055 96.2093 98.8152C94.1049 101.373 90.2067 105.953 87.9891 107.568C86.1056 108.938 94.4493 115.77 95.0665 113.579C95.9054 110.613 100.262 106.671 102.832 104.549C106.411 106.866 110.022 108.037 111.913 106.56C117.263 102.379 115.415 94.0231 110.236 89.6234Z" fill="#FFD488"/>
<path d="M110.239 89.624C108.842 88.4392 107.159 87.6475 105.392 87.2017C105.506 87.2861 105.62 87.3696 105.736 87.4477C106.989 88.3093 108.331 89.1909 109.371 90.294C110.979 92.0055 112.286 94.4078 112.872 96.6568C113.363 98.538 113.391 100.648 112.302 102.359C111.373 103.818 110.152 105.261 108.245 105.28C106.047 105.301 104.494 103.358 102.438 102.92C99.4876 102.292 97.304 105.34 95.614 107.199C94.7052 108.196 93.4294 109.952 91.8101 109.708C90.824 109.559 90.0407 108.965 89.3651 108.278C89.0122 107.921 88.797 107.505 88.6054 107.08C88.3903 107.261 88.1846 107.429 87.993 107.568C86.1095 108.938 94.4533 115.77 95.0704 113.58C95.9093 110.613 100.266 106.671 102.836 104.549C106.415 106.866 110.026 108.038 111.917 106.56C117.266 102.379 115.418 94.0238 110.239 89.624Z" fill="#BFB44B"/>
<path d="M99.7904 97.7284C99.7904 97.7284 106.694 94.0468 105.931 92.6858C105.19 91.363 100.697 88.7282 97.301 91.9413C96.1781 93.0036 95.6374 95.2825 99.7904 97.7284Z" fill="#D39346"/>
<path d="M103.914 101.231C103.914 101.231 106.902 94.9257 108.35 94.7432C109.117 94.6469 113.084 99.2492 110.191 102.892C109.235 104.095 106.953 104.893 103.914 101.231Z" fill="#D39346"/>
<path d="M101.038 91.8116C102.091 91.699 103.018 91.8979 104.038 92.1367C104.942 92.3509 106.17 92.6614 107.055 92.2002C107.984 91.7163 108.023 90.9627 107.715 90.1783C107.369 89.925 107.01 89.6871 106.636 89.4755C102.798 87.2938 97.7197 87.607 95.5059 90.6286C97.2988 91.9396 98.9285 92.0368 101.038 91.8116Z" fill="white"/>
<path d="M69.9126 8.47337C66.2569 12.5663 67.176 19.6826 70.8364 21.7699C72.5029 22.7205 75.2206 21.473 77.8157 19.3294C79.9965 20.9446 83.9013 23.9398 85.2856 25.6558C86.4614 27.1112 92.1365 20.5233 90.2813 20.063C87.7703 19.442 84.3986 16.0799 82.5821 14.098C84.4977 11.277 85.4479 8.44432 84.1806 6.98347C80.5966 2.8497 73.5692 4.38137 69.9126 8.47337Z" fill="#FFD488"/>
<path d="M69.9159 8.47198C68.9307 9.57511 68.2815 10.8979 67.9238 12.2816C67.9937 12.1926 68.0625 12.1019 68.1295 12.0102C68.842 11.0232 69.5714 9.96551 70.4915 9.14384C71.9174 7.8673 73.9311 6.82229 75.8212 6.33927C77.4028 5.93706 79.1816 5.89257 80.6367 6.72514C81.8785 7.43422 83.1091 8.37302 83.144 9.86201C83.1864 11.5771 81.5624 12.81 81.2161 14.4207C80.7179 16.7314 83.3129 18.4037 84.8963 19.7048C85.7475 20.403 87.2432 21.3817 87.0545 22.6474C86.9384 23.42 86.4458 24.0374 85.8749 24.5722C85.5777 24.8509 85.2276 25.0225 84.8709 25.1778C85.0266 25.3439 85.17 25.5037 85.2889 25.6517C86.4647 27.1071 92.1398 20.5192 90.2846 20.0589C87.7735 19.4379 84.4019 16.0758 82.5853 14.0938C84.501 11.2729 85.4512 8.4402 84.1839 6.97935C80.5999 2.84831 73.5725 4.37997 69.9159 8.47198Z" fill="#BFB44B"/>
<path d="M76.8601 16.5441C76.8601 16.5441 73.6809 11.1937 72.5429 11.8038C71.4341 12.3949 69.2599 15.9322 72.0059 18.5515C72.9128 19.4159 74.8416 19.8135 76.8601 16.5441Z" fill="#D39346"/>
<path d="M79.7709 13.2857C79.7709 13.2857 74.4185 11.0213 74.2496 9.89094C74.1609 9.29352 78.0006 6.14666 81.1024 8.36653C82.1291 9.09923 82.8255 10.8742 79.7709 13.2857Z" fill="#D39346"/>
<path d="M71.8563 15.6327C71.7516 14.8129 71.9073 14.0865 72.0998 13.2876C72.2696 12.5794 72.5188 11.6179 72.1196 10.9306C71.7035 10.2097 71.0665 10.1879 70.4088 10.4358C70.1964 10.7091 70.0011 10.9923 69.8265 11.2856C68.0261 14.3072 68.345 18.2703 70.9174 19.9663C72.0045 18.5526 72.0696 17.2788 71.8563 15.6327Z" fill="white"/>
<path d="M193.301 125.014C191.507 125.014 189.943 124.204 188.901 122.735C187.587 120.884 187.228 118.076 188.046 116.057C188.979 113.756 188.253 112.584 187.551 111.447C187.494 111.355 187.438 111.266 187.387 111.179C185.134 107.457 185.6 105.106 186.388 103.79C187.363 102.158 189.377 101.185 191.776 101.185C192.101 101.185 192.427 101.203 192.743 101.24C193.154 101.289 193.534 101.314 193.877 101.314C195.231 101.314 195.766 100.952 196.441 100.495C196.736 100.294 197.069 100.067 197.469 99.8791C198.75 99.2672 199.937 98.9585 200.999 98.9585C202.479 98.9585 203.733 99.5459 204.624 100.659C206.169 102.59 206.254 105.803 205.825 107.368C205.17 109.754 206.227 111.482 206.927 112.627L207.031 112.798C209.142 116.283 208.609 118.649 207.791 120.02C206.704 121.841 204.651 122.655 203.098 122.655C202.831 122.655 202.573 122.633 202.33 122.587C201.824 122.492 201.354 122.444 200.933 122.444C199.675 122.444 198.994 122.863 198.205 123.348C198.089 123.419 197.977 123.489 197.865 123.556C196.243 124.523 194.707 125.014 193.301 125.014ZM191.776 103.942C190.726 103.942 189.412 104.264 188.874 105.166C188.295 106.134 188.647 107.777 189.865 109.792C189.913 109.871 189.964 109.953 190.015 110.036C190.818 111.334 192.16 113.505 190.718 117.061C190.303 118.085 190.395 119.951 191.268 121.18C191.782 121.904 192.446 122.255 193.301 122.255C194.165 122.255 195.192 121.904 196.353 121.211C196.454 121.151 196.555 121.088 196.658 121.025C197.576 120.461 198.836 119.685 200.931 119.685C201.537 119.685 202.192 119.751 202.879 119.881C202.923 119.889 202.995 119.899 203.097 119.899C203.683 119.899 204.754 119.565 205.303 118.646C205.935 117.586 205.676 116.046 204.552 114.188L204.453 114.026C203.686 112.772 202.09 110.16 203.049 106.666C203.297 105.77 203.273 103.495 202.351 102.345C202.005 101.911 201.588 101.719 200.998 101.719C200.383 101.719 199.622 101.932 198.741 102.352C198.542 102.447 198.333 102.588 198.091 102.751C197.268 103.309 196.14 104.074 193.876 104.074C193.417 104.074 192.917 104.042 192.391 103.979C192.192 103.955 191.983 103.942 191.776 103.942Z" fill="#C41B25"/>
<path d="M118.899 39.9277C116.148 39.9277 113.752 38.6884 112.155 36.4367C110.141 33.6022 109.59 29.2968 110.845 26.2026C112.276 22.6763 111.162 20.8768 110.085 19.1372C109.998 18.9956 109.914 18.8594 109.832 18.7259C106.383 13.0232 107.098 9.42151 108.303 7.40229C109.798 4.90278 112.884 3.40925 116.56 3.40925C117.058 3.40925 117.558 3.43921 118.043 3.49732C118.673 3.57176 119.257 3.6099 119.781 3.6099C121.856 3.6099 122.675 3.05607 123.711 2.35333C124.163 2.04736 124.674 1.69963 125.284 1.41091C127.248 0.475749 129.069 0 130.695 0C132.963 0 134.884 0.901565 136.25 2.60755C138.618 5.56647 138.747 10.491 138.088 12.888C137.085 16.5405 138.705 19.1917 139.776 20.9458L139.938 21.21C143.174 26.5504 142.357 30.1757 141.101 32.2757C139.434 35.0667 136.289 36.3169 133.911 36.3169C133.501 36.3169 133.105 36.2815 132.732 36.2107C131.957 36.0654 131.236 35.991 130.591 35.991C128.664 35.991 127.62 36.6329 126.41 37.3774C126.234 37.4863 126.061 37.5916 125.889 37.6951C123.405 39.1769 121.052 39.9277 118.899 39.9277ZM116.56 7.63835C114.951 7.63835 112.938 8.13135 112.112 9.51139C111.225 10.9968 111.764 13.5135 113.631 16.6005C113.704 16.7221 113.781 16.8465 113.861 16.9754C115.09 18.962 117.149 22.2904 114.938 27.7407C114.303 29.3096 114.444 32.1677 115.782 34.0525C116.57 35.1611 117.588 35.7004 118.899 35.7004C120.223 35.7004 121.796 35.1611 123.576 34.1007C123.731 34.009 123.885 33.9136 124.043 33.8165C125.451 32.9494 127.38 31.761 130.592 31.761C131.519 31.761 132.525 31.8617 133.578 32.0606C133.644 32.0742 133.754 32.0878 133.911 32.0878C134.809 32.0878 136.45 31.5766 137.292 30.1684C138.261 28.5451 137.863 26.1818 136.14 23.3382L135.989 23.0903C134.813 21.1682 132.367 17.1679 133.838 11.8084C134.215 10.4357 134.18 6.95105 132.768 5.18696C132.236 4.52508 131.598 4.22819 130.695 4.22819C129.75 4.22819 128.587 4.55414 127.233 5.19876C126.929 5.34403 126.609 5.56012 126.241 5.8107C124.977 6.66506 123.247 7.83719 119.78 7.83719C119.077 7.83719 118.311 7.78907 117.504 7.69374C117.198 7.65742 116.879 7.63835 116.56 7.63835Z" fill="#83BE2C"/>
<path d="M11.1391 57.1652C11.1391 57.1652 5.53856 53.0468 2.13575 52.9343C2.13575 52.9343 2.00364 51.3191 4.79496 50.2886C4.79496 50.2886 10.5607 55.3248 11.9733 55.9168L11.1391 57.1652Z" fill="#83BE2C"/>
<path d="M2.13485 52.9345C2.13485 52.9345 2.11409 52.2154 2.7303 51.5962C2.7303 51.5962 6.83895 54.1302 8.93197 55.0835C11.4732 56.2393 11.962 55.9115 11.9734 55.917L11.1382 57.1654C11.1382 57.1654 5.53766 53.0471 2.13485 52.9345Z" fill="#A2B159"/>
<path d="M10.5156 59.6771C9.71823 58.179 8.98313 55.6187 13.2532 54.4184C17.5213 53.22 22.9567 59.9913 26.787 64.0097C30.4965 67.9029 40.9616 71.7316 41.1947 73.1452C41.3617 74.1657 33.0038 76.8568 21.712 68.8063C18.4942 66.511 12.9351 64.2222 10.5156 59.6771Z" fill="#C41B25"/>
<path d="M16.1728 58.6971C17.5524 60.1389 19.8785 60.9225 22.0678 60.8471C19.6917 58.2731 16.7494 55.1508 14.3619 55.8218C13.9288 55.9434 13.5749 56.0869 13.2871 56.2448C14.4138 56.6008 15.4887 57.9808 16.1728 58.6971Z" fill="white"/>
<path d="M33.5878 71.8021C30.1227 70.9178 26.5736 69.6776 23.5803 67.7492C22.045 66.7613 20.6078 65.6491 19.165 64.5406C17.7646 63.4629 16.368 62.377 15.1271 61.1268C13.9664 59.9574 12.8661 58.6835 12.0782 57.2463C11.7224 56.599 11.4865 55.9344 11.3034 55.2534C9.27552 56.5726 9.87568 58.4702 10.5183 59.6777C12.9369 64.2228 18.4969 66.5117 21.7138 68.8069C33.0065 76.8574 41.3634 74.1663 41.1964 73.1458C41.1728 72.9951 41.0247 72.8163 40.7878 72.6138C38.4032 73.0097 35.9025 72.3932 33.5878 71.8021Z" fill="#F64D9F"/>
<path d="M203.836 34.0114C203.836 34.0114 209.436 29.894 212.839 29.7805C212.839 29.7805 212.971 28.1671 210.178 27.1357C210.178 27.1357 204.414 32.1711 203 32.763L203.836 34.0114Z" fill="#83BE2C"/>
<path d="M212.837 29.7807C212.837 29.7807 212.859 29.0626 212.241 28.4434C212.241 28.4434 208.132 30.9765 206.039 31.9298C203.498 33.0865 203.011 32.7578 202.998 32.7633L203.835 34.0117C203.835 34.0117 209.434 29.8942 212.837 29.7807Z" fill="#A2B159"/>
<path d="M204.457 36.5241C205.254 35.0278 205.988 32.4666 201.719 31.2672C197.451 30.0679 192.015 36.841 188.185 40.8585C184.475 44.7517 174.009 48.5804 173.778 49.9931C173.611 51.0145 181.969 53.7047 193.26 45.6542C196.478 43.3589 202.037 41.0692 204.457 36.5241Z" fill="#C41B25"/>
<path d="M198.799 35.5447C197.419 36.9865 195.093 37.7718 192.904 37.6956C195.28 35.1207 198.223 32.0002 200.61 32.6702C201.042 32.7919 201.396 32.9344 201.686 33.0924C200.557 33.4483 199.484 34.8283 198.799 35.5447Z" fill="white"/>
<path d="M181.386 48.6512C184.852 47.7678 188.401 46.5276 191.393 44.5992C192.928 43.6105 194.365 42.4992 195.809 41.3915C197.21 40.3138 198.606 39.2261 199.847 37.9768C201.008 36.8065 202.109 35.5336 202.898 34.0973C203.252 33.4499 203.49 32.7835 203.672 32.1025C205.699 33.4208 205.099 35.3193 204.457 36.5259C202.037 41.071 196.478 43.3608 193.26 45.656C181.969 53.7066 173.612 51.0164 173.778 49.995C173.802 49.8452 173.95 49.6654 174.186 49.4629C176.569 49.8588 179.072 49.2423 181.386 48.6512Z" fill="#F64D9F"/>
<path d="M139.995 59.8159C139.995 77.0801 128.474 87.0872 111.287 87.0872C94.105 87.0872 82.4434 77.1654 82.4434 59.9031C82.4434 48.2917 86.2416 40.3701 95.6214 35.5281C106.829 29.7446 117.464 30.6734 125.896 35.0115C134.163 39.2651 139.995 46.4631 139.995 59.8159Z" fill="#C41B25"/>
<path d="M100.834 50.0684C101.192 49.4547 105.965 50.3553 104.851 52.2638C103.785 54.0851 100.349 50.8983 100.834 50.0684Z" fill="#E3B126"/>
<path d="M100.792 67.9737C100.447 67.3535 103.794 63.9606 104.87 65.8882C105.899 67.7294 101.261 68.8117 100.792 67.9737Z" fill="#E3B126"/>
<path d="M98.8212 61.6043C98.692 60.9097 102.969 58.6817 103.371 60.8353C103.755 62.8926 98.9958 62.5394 98.8212 61.6043Z" fill="#E3B126"/>
<path d="M99.144 55.7283C99.277 55.0347 104.096 54.4009 103.684 56.5527C103.29 58.6082 98.9666 56.6635 99.144 55.7283Z" fill="#E3B126"/>
<path d="M121.655 50.0684C121.297 49.4547 116.524 50.3553 117.639 52.2638C118.704 54.0851 122.14 50.8983 121.655 50.0684Z" fill="#E3B126"/>
<path d="M121.686 66.8698C122.032 66.2488 118.685 62.855 117.61 64.7816C116.58 66.6247 121.218 67.7069 121.686 66.8698Z" fill="#E3B126"/>
<path d="M123.337 61.6043C123.466 60.9097 119.191 58.6817 118.788 60.8353C118.403 62.8926 123.162 62.5394 123.337 61.6043Z" fill="#E3B126"/>
<path d="M123.442 55.7283C123.309 55.0347 118.492 54.4009 118.904 56.5527C119.299 58.6082 123.622 56.6635 123.442 55.7283Z" fill="#E3B126"/>
<path d="M123.382 37.2752C116.041 33.4238 106.781 32.5994 97.0217 37.7328C88.8554 42.0309 85.5488 49.0637 85.5488 59.3722C85.5488 74.6998 95.7025 83.5084 110.662 83.5084C125.624 83.5084 135.657 74.6244 135.657 59.2969C135.658 47.4412 130.579 41.0503 123.382 37.2752ZM90.703 59.7281C90.703 51.6985 93.3302 46.2219 99.8159 42.8744C102.102 41.6932 104.354 40.9214 106.541 40.4902C107.422 43.7396 107.98 47.65 108.273 51.8401C106.058 53.1929 104.53 56.0129 104.53 59.2805C104.53 62.5645 106.073 65.3954 108.305 66.7391C108.068 70.8338 107.645 74.7933 107.078 78.3024C97.1822 77.0422 90.703 70.4253 90.703 59.7281ZM115.544 78.0945C115.195 75.1347 114.518 71.4231 114.057 66.7854C116.334 65.4608 117.911 62.6026 117.911 59.2796C117.911 55.8104 116.194 52.8424 113.757 51.6031C113.962 48.2075 114.364 44.515 115.039 40.4983C117.063 40.9105 118.979 41.6024 120.752 42.5157C126.469 45.4574 130.502 50.4346 130.502 59.6691C130.502 69.8805 124.668 76.4167 115.544 78.0945Z" fill="#FFD488"/>
<path d="M125.938 35.0984C122.028 33.0874 117.646 31.8108 112.95 31.5947C113.223 31.7137 113.495 31.8353 113.764 31.9615C118.265 34.0734 123.216 36.6945 126.522 40.4043C129.314 43.5394 131.034 47.3063 131.718 51.3774C132.449 55.7373 132.77 60.5039 131.489 64.7956C130.214 69.0729 127.775 72.8634 124.185 75.6925C120.417 78.6623 113.013 79.987 108.265 80.1159C93.2649 80.5218 88.6032 73.7605 84.0586 70.1215C87.7841 81.0738 97.8585 87.1732 111.33 87.1732C128.515 87.1732 140.037 77.1679 140.037 59.9028C140.037 46.55 134.205 39.352 125.938 35.0984Z" fill="#F06060"/>
<path d="M200.153 180.152C189.921 185.292 187.382 178.045 189.976 178.157C194.691 178.361 196.989 175.24 196.989 175.24C184.26 174.767 186.916 164.911 189.904 166.095C198.341 169.437 198.591 165.654 198.591 165.654C197.798 165.179 195.032 166.247 192.513 161.192C189.991 156.136 193.692 154.114 194.836 155.257C200.324 160.729 203.66 159.208 203.341 157.022C203.024 154.835 203.017 148.98 205.831 148.793C208.643 148.605 209.753 146.874 211.049 146.212C212.049 145.702 214.242 145.676 215.306 147.708C216.089 149.206 215.755 151.935 217.739 153.862C219.724 155.789 215.361 159.307 213.624 160.747C211.885 162.189 213.348 165.449 221.225 164.822C222.868 164.69 224.263 168.558 218.901 170.757C213.54 172.955 212.194 170.395 211.272 170.25C211.272 170.25 208.867 173.25 217.496 176.096C220.553 177.104 215.79 186.197 205.902 178.469C205.902 178.469 205.489 182.274 209.17 185.115C211.193 186.678 204.315 190.509 200.153 180.152Z" fill="#579C43"/>
<path opacity="0.5" d="M197.733 160.673C196.795 160.685 198.106 162.944 198.666 163.583C199.433 164.457 201.22 165.002 202.447 164.923C203.781 164.838 205.019 163.538 205.684 162.356C207.162 159.724 207.9 157.449 208.782 155.195C209.377 153.676 210.24 151.585 209.923 150.023C209.182 150.567 208.274 151.05 207.005 151.183C204.374 151.463 204.18 157.363 204.402 159.556C204.6 161.523 202.079 160.617 197.733 160.673Z" fill="white"/>
<path d="M194.172 195.431L211.345 151.578" stroke="#83BE2C" stroke-width="0.7762" stroke-miterlimit="10"/>
<path d="M217.495 176.096C208.867 173.25 211.272 170.25 211.272 170.25C212.194 170.395 213.54 172.955 218.9 170.757C224.262 168.558 222.868 164.69 221.225 164.822C213.347 165.448 211.885 162.189 213.624 160.747C215.362 159.307 219.723 155.789 217.739 153.862C215.754 151.936 216.088 149.207 215.305 147.708C214.753 146.653 213.898 146.156 213.063 145.99C213.118 146.178 213.164 146.369 213.206 146.559C213.663 148.631 213.899 150.703 213.711 152.82C213.253 157.987 211.348 162.801 209.462 167.613C208.556 169.923 207.644 172.426 205.704 174.144C203.974 175.677 201.791 176.891 199.7 177.911C196.965 179.247 193.178 179.72 190.465 178.165C190.304 178.166 190.143 178.163 189.977 178.156C187.383 178.044 189.922 185.29 200.153 180.15C204.315 190.508 211.194 186.676 209.169 185.114C205.488 182.273 205.901 178.468 205.901 178.468C215.79 186.197 220.553 177.105 217.495 176.096Z" fill="#A2B159"/>
<path d="M60.2859 184.798C55.7516 195.011 49.0168 190.951 51.0966 189.457C54.8797 186.74 54.6041 182.926 54.6041 182.926C44.4419 190.318 40.0087 181.073 43.1001 180.167C51.8289 177.61 49.532 174.532 49.532 174.532C48.6053 174.648 47.1691 177.16 41.8884 174.784C36.6097 172.408 38.1431 168.589 39.7803 168.775C47.6296 169.664 49.2093 166.455 47.523 164.957C45.8386 163.459 41.979 158.932 44.0315 157.073C46.0858 155.214 45.8036 153.197 46.3708 151.898C46.8105 150.893 48.4893 149.535 50.6502 150.461C52.2431 151.142 53.7794 153.458 56.5839 153.739C59.3894 154.021 58.3306 159.402 57.9343 161.576C57.537 163.751 60.8152 165.381 66.4979 160.095C67.6822 158.992 71.3087 161.135 68.606 166.104C65.9053 171.072 63.1782 169.912 62.3713 170.361C62.3713 170.361 62.4836 174.148 71.0359 171.092C74.0641 170.009 76.3647 179.947 63.6255 179.994C63.6255 179.994 65.809 183.191 70.5282 183.145C73.1242 183.119 70.3244 190.277 60.2859 184.798Z" fill="#579C43"/>
<path opacity="0.5" d="M45.5849 171.202C44.8668 171.783 47.3684 172.732 48.2243 172.885C49.3935 173.094 51.1336 172.426 52.031 171.617C53.0058 170.738 53.1096 168.979 52.8454 167.66C52.2556 164.721 51.3289 162.512 50.5278 160.229C49.989 158.692 49.2803 156.548 48.0054 155.532C47.7893 156.404 47.4052 157.333 46.5125 158.208C44.6602 160.027 48.3942 164.712 50.0097 166.272C51.4601 167.675 48.9123 168.509 45.5849 171.202Z" fill="white"/>
<path d="M65.7124 200.266L50.1289 155.865" stroke="#83BE2C" stroke-width="0.7762" stroke-miterlimit="10"/>
<path d="M71.0348 171.093C62.4825 174.15 62.3702 170.363 62.3702 170.363C63.177 169.913 65.9041 171.073 68.6049 166.105C71.3065 161.136 67.6801 158.994 66.4967 160.096C60.8141 165.382 57.5358 163.751 57.9331 161.578C58.3294 159.403 59.3882 154.022 56.5828 153.74C53.7782 153.458 52.2419 151.144 50.6491 150.462C49.528 149.982 48.5381 150.119 47.7832 150.499C47.9483 150.612 48.1106 150.731 48.2682 150.851C49.9866 152.176 51.5333 153.635 52.7827 155.389C55.8297 159.667 57.5245 164.552 59.2316 169.425C60.0535 171.765 60.9953 174.257 60.6272 176.769C60.296 179.011 59.4071 181.279 58.4616 183.344C57.2225 186.044 54.6049 188.719 51.4823 189.168C51.3578 189.266 51.2313 189.364 51.0973 189.459C49.0175 190.953 55.7533 195.013 60.2866 184.8C70.3261 190.278 73.125 183.121 70.529 183.146C65.8098 183.192 63.6262 179.996 63.6262 179.996C76.3645 179.948 74.063 170.009 71.0348 171.093Z" fill="#A2B159"/>
<path d="M5.31055 172.794C6.72886 218.095 45.5658 258.287 113.079 258.287C177.953 258.287 219.43 218.095 220.849 172.794C220.849 172.794 219.61 183.522 113.079 183.522C39.7821 183.522 5.31055 172.794 5.31055 172.794Z" fill="#E27777"/>
<path d="M50.3946 210.349C54.3107 214.029 60.5398 215.923 65.828 217.359C68.5051 218.087 71.2408 218.444 73.9925 218.79C76.8149 219.145 79.6506 219.436 82.4967 219.535C89.1239 219.767 95.8606 219.059 101.861 216.17C106.531 213.922 110.342 210.493 112.976 206.153C115.309 202.309 116.806 198.141 118.075 193.886C109.92 194.12 99.9636 194.181 87.7896 193.978C65.2948 193.606 48.7243 191.703 37.7109 189.875C38.0318 192.927 37.6053 198.335 50.3946 210.349Z" fill="#FBA2A2"/>
<path d="M187.519 180.824C184.674 186.46 181.605 191.997 178.651 197.504C174.575 205.098 169.57 212.111 162.956 217.876C156.309 223.673 148.481 228.617 140.243 232.04C120.883 240.086 99.5106 240.342 78.9881 237.013C70.2867 235.601 61.9448 233.359 54.2663 229.065C47.2993 225.17 41.0863 220.081 35.9198 214.134C26.304 203.063 20.0797 189.604 16.8968 175.561C9.12391 173.979 5.3125 172.794 5.3125 172.794C6.73081 218.095 45.5677 258.287 113.081 258.287C177.955 258.287 219.432 218.095 220.851 172.794C220.851 172.794 220.287 177.646 187.519 180.824Z" fill="#C93550"/>
<path d="M185.056 73.5422C183.826 69.2069 181.252 66.7147 178.538 65.2275C174.902 63.2346 170.86 63.2718 167.992 65.3228C163.906 68.2445 157.633 77.489 150.019 83.6266C143.647 88.7636 135.984 89.4935 132.948 96.1768C129.362 104.066 132.779 109.341 140.293 113.222C149.701 118.084 157.496 114.071 164.028 108.184C171.554 101.405 188.234 84.7342 185.056 73.5422Z" fill="#392346"/>
<path d="M185.054 73.5426C185.035 73.479 185.014 73.4182 184.995 73.3564C183.878 75.2331 182.648 77.0517 181.426 78.8612C177.325 84.9279 172.759 91.0346 166.661 95.4008C163.293 97.8095 160.035 100.412 156.395 102.443C152.992 104.342 148.781 106.142 144.751 105.895C140.906 105.66 137.322 103.603 135.057 100.63C134.124 99.4084 133.059 97.923 132.872 96.3496C129.415 104.144 132.833 109.371 140.292 113.224C149.7 118.086 157.495 114.073 164.027 108.186C171.551 101.406 188.231 84.7345 185.054 73.5426Z" fill="#773053"/>
<path d="M179.057 65.9288C179.057 65.9288 180.326 61.165 183.478 59.4653C183.478 59.4653 182.159 57.6177 179.006 57.9527C179.006 57.9527 177.595 63.2495 176.562 64.4698L179.057 65.9288Z" fill="#83BE2C"/>
<path d="M183.478 59.4648C183.478 59.4648 183.093 58.9246 182.24 58.4824C182.24 58.4824 180.323 61.0872 179.673 62.0324C178.866 63.2036 177.2 64.2623 176.588 64.4348C176.579 64.4457 176.572 64.4584 176.562 64.4693L179.057 65.9283C179.057 65.9283 180.327 61.1644 183.478 59.4648Z" fill="#A2B159"/>
<path d="M170.967 63.9325C170.967 63.9325 166.47 67.2791 166.352 70.1609C166.352 70.1609 170.195 67.7113 172.899 67.7821C172.899 67.7821 170.895 70.4051 171.413 72.6813C171.413 72.6813 174.918 69.9684 177.485 70.3261C177.485 70.3261 178.831 72.4806 177.811 74.7649C177.811 74.7649 181.531 74.1503 180.7 70.2716C180.7 70.2716 183.584 74.1412 181.393 77.9445C181.393 77.9445 184.779 75.9162 184.675 72.3698C184.675 72.3698 181.528 62.2147 170.967 63.9325Z" fill="#83BE2C"/>
<path d="M184.675 72.3709C184.675 72.3709 183.919 69.9331 181.908 67.6497C182.138 68.5612 182.2 69.5718 181.862 70.3925C181.817 70.5024 180.819 69.7061 180.3 69.5236C180.085 70.2255 179.858 70.9809 179.149 71.3504C179.057 71.3985 178.794 70.2836 178.744 69.7933C178.711 69.4628 178.711 68.6175 178.127 68.613C177.797 68.6094 177.47 68.6348 177.149 68.7129C176.155 68.9535 174.174 69.7661 174.166 69.6807C174.091 69.0352 174.322 68.4423 174.585 67.8549C174.725 67.5435 174.885 67.2384 175.043 66.9351C175.152 66.7236 175.486 66.3777 174.909 66.3759C174.751 66.3713 174.593 66.375 174.436 66.384C173.358 66.3913 172.322 66.384 171.276 66.6773C170.768 66.818 169.226 67.0668 169.26 66.9887C169.859 65.6286 170.96 64.6962 172.112 63.791C171.74 63.8228 171.359 63.87 170.965 63.9317C170.965 63.9317 166.469 67.2783 166.35 70.1601C166.35 70.1601 170.193 67.7105 172.897 67.7813C172.897 67.7813 170.893 70.4043 171.411 72.6805C171.411 72.6805 174.916 69.9676 177.483 70.3253C177.483 70.3253 178.829 72.4798 177.809 74.7642C177.809 74.7642 181.529 74.1495 180.698 70.2709C180.698 70.2709 183.582 74.1404 181.391 77.9437C181.393 77.9455 184.779 75.9172 184.675 72.3709Z" fill="#A2B159"/>
<path d="M24.7314 15.0225L23.4707 15.7933L26.4017 20.2394L26.7603 25.1621L27.5888 25.0804L27.7596 21.1509L30.985 22.7961L31.5738 21.8528L27.6549 19.4395L24.7314 15.0225Z" fill="#579C43"/>
<path d="M28.6967 22.6192C27.6974 22.7518 24.6994 23.8141 26.1621 27.8661C26.85 29.7746 25.9393 31.2254 24.9693 32.344C23.6501 33.8639 25.7685 41.5966 28.6684 40.8739C31.6956 40.1167 32.2241 36.9789 32.7251 33.2891C32.978 31.4134 34.7304 29.9135 33.5159 27.8825C31.8466 25.0906 33.23 22.0128 28.6967 22.6192Z" fill="#83BE2C"/>
<path d="M31.5974 30.0102C30.2168 31.0017 28.9401 32.1493 28.7938 33.9188C28.7117 34.9085 29.1279 35.6176 29.2836 36.4138C29.4525 37.2827 29.8064 38.7099 30.2669 38.7817C30.616 38.837 31.57 35.8318 31.8673 33.641C32.0683 32.152 33.4545 30.9608 32.5099 29.3511C32.19 29.5599 31.889 29.8023 31.5974 30.0102Z" fill="#DCDDDE"/>
<path d="M27.464 32.0213C27.447 32.8702 27.5763 33.7073 27.6725 34.548C27.7735 35.4378 27.8849 36.3321 28.0906 37.2082C28.3652 38.3731 28.8011 39.6433 29.7127 40.4695C29.4013 40.6402 29.0569 40.7764 28.67 40.8735C25.7701 41.5971 23.6526 33.8634 24.9709 32.3436C25.94 31.2259 26.8506 29.7742 26.1636 27.8657C24.7 23.8136 27.699 22.7514 28.6983 22.6188C30.427 22.3882 31.2933 22.6933 31.7982 23.3134C29.1475 25.3517 27.5215 28.9016 27.464 32.0213Z" fill="#DBDCA3"/>
<path d="M30.861 21.0608C31.7858 20.506 35.0414 19.3893 36.7418 23.7283C37.5439 25.7711 39.3463 26.3703 40.9552 26.6527C43.1455 27.0349 46.954 34.8675 44.024 36.1986C40.9675 37.5877 38.2696 35.336 35.1971 32.6041C33.6363 31.2168 31.1016 31.1405 30.6487 28.6456C30.024 25.2118 26.6608 23.5775 30.861 21.0608Z" fill="#83BE2C"/>
<path d="M41.0956 33.7865C40.9182 33.1246 40.5134 32.4582 40.117 31.8962C39.7075 31.3133 39.1573 30.8157 38.5364 30.4417C38.2212 30.251 37.9051 30.0822 37.5211 30.084C37.2163 30.0867 36.9143 30.133 36.6104 30.1375C35.2987 30.1539 33.6389 28.8428 32.7594 29.6327C32.2536 30.0867 34.5486 31.0736 35.5281 31.967C37.4805 33.7511 40.1774 36.3886 41.1343 35.5015C41.5627 35.1057 41.2645 34.4129 41.0956 33.7865Z" fill="#DCDDDE"/>
<path d="M38.6539 28.0458C39.2777 28.7404 39.774 29.5203 40.2996 30.2829C40.8554 31.091 41.4084 31.9054 41.8661 32.7706C42.4776 33.9219 43.0277 35.2656 42.8683 36.5594C43.2485 36.4931 43.6335 36.376 44.0242 36.1989C46.9543 34.8679 43.1457 27.0353 40.9555 26.6531C39.3465 26.3707 37.5442 25.7715 36.7421 23.7286C35.0407 19.3897 31.786 20.5055 30.8612 21.0612C29.2599 22.0208 28.7597 22.8525 28.7861 23.705C32.4522 23.6297 36.3599 25.4936 38.6539 28.0458Z" fill="#DBDCA3"/>
<path d="M86.4672 147.676H87.9601V142.41L90.4004 138.069L89.6558 137.711L87.3222 140.94L85.5151 137.89L84.4922 138.382L86.4569 142.439L86.4672 147.676Z" fill="#579C43"/>
<path d="M87.3455 139.219C88.2627 139.62 91.3853 140.269 92.4073 136.095C92.8885 134.13 94.4663 133.373 95.9063 132.929C97.8672 132.325 100.386 124.704 97.5341 123.822C94.5578 122.9 92.3629 125.276 89.8858 128.133C88.627 129.586 86.3122 129.949 86.2075 132.289C86.0621 135.507 83.1802 137.395 87.3455 139.219Z" fill="#83BE2C"/>
<path d="M89.0141 131.482C90.7306 131.359 92.4489 131.047 93.5577 129.629C94.1768 128.836 94.2202 128.022 94.5335 127.269C94.8741 126.449 95.3705 125.062 95.0223 124.763C94.7571 124.537 92.28 126.581 90.8089 128.277C89.8086 129.431 87.9741 129.723 87.877 131.57C88.262 131.558 88.6517 131.509 89.0141 131.482Z" fill="#DCDDDE"/>
<path d="M93.6242 131.915C94.1092 131.207 94.4687 130.434 94.8556 129.674C95.2652 128.869 95.67 128.059 95.9833 127.213C96.3994 126.088 96.7382 124.791 96.4306 123.623C96.7873 123.64 97.1553 123.702 97.5356 123.821C100.387 124.704 97.8696 132.324 95.9078 132.929C94.4678 133.372 92.89 134.129 92.4087 136.095C91.3867 140.269 88.2633 139.62 87.347 139.218C85.7579 138.521 85.1964 137.816 85.1152 137.032C88.4869 136.678 91.8378 134.52 93.6242 131.915Z" fill="#DBDCA3"/>
<path d="M84.6527 139.419C83.5628 139.41 80.1911 138.676 81.1725 134.133C81.6339 131.995 80.443 130.561 79.2418 129.495C77.6074 128.041 78.753 119.465 81.968 119.852C85.3227 120.256 86.3475 123.547 87.4195 127.436C87.9649 129.414 90.0626 130.786 89.0539 133.125C87.6705 136.345 89.6002 139.46 84.6527 139.419Z" fill="#83BE2C"/>
<path d="M83.0979 123.4C82.88 124.049 82.8488 124.821 82.8715 125.5C82.8932 126.202 83.08 126.908 83.3961 127.543C83.5575 127.867 83.7292 128.171 84.0548 128.369C84.3124 128.523 84.5936 128.639 84.8512 128.793C85.9695 129.455 86.6404 131.418 87.8238 131.204C88.5032 131.082 87.1141 129.065 86.7848 127.805C86.1299 125.294 85.3221 121.676 84.0199 121.931C83.4395 122.044 83.3027 122.784 83.0979 123.4Z" fill="#DCDDDE"/>
<path d="M81.9621 129.504C81.8225 128.596 81.8376 127.682 81.8187 126.766C81.7989 125.798 81.7866 124.823 81.88 123.859C82.0065 122.572 82.2896 121.154 83.1445 120.142C82.7869 120.002 82.3972 119.902 81.9678 119.852C78.7537 119.465 77.6072 128.041 79.2416 129.495C80.4429 130.562 81.6337 131.996 81.1723 134.133C80.1909 138.676 83.5616 139.411 84.6525 139.419C86.5389 139.435 87.4249 138.99 87.8769 138.257C84.7384 136.429 82.4783 132.842 81.9621 129.504Z" fill="#DBDCA3"/>
<path d="M72.9234 29.0039L71.8929 29.1147L72.3157 32.7482L70.9785 35.9241L71.5202 36.1157L72.8715 33.7151L74.3634 35.6871L75.0287 35.2713L73.349 32.6156L72.9234 29.0039Z" fill="#579C43"/>
<path d="M72.9935 34.9055C72.3282 34.6958 70.1201 34.4788 69.7493 37.4359C69.5737 38.8278 68.5461 39.466 67.5874 39.8791C66.2823 40.4393 65.1527 45.8859 67.192 46.2854C69.3199 46.7013 70.6438 44.899 72.1254 42.7436C72.8784 41.6487 74.4477 41.2274 74.3326 39.6049C74.175 37.3724 76.0132 35.857 72.9935 34.9055Z" fill="#83BE2C"/>
<path d="M72.4603 40.367C71.2855 40.5795 70.1248 40.9227 69.4727 41.9831C69.1085 42.576 69.1434 43.1398 68.9877 43.6827C68.8169 44.2747 68.5857 45.2689 68.8508 45.4487C69.0518 45.5848 70.5985 43.9914 71.478 42.7113C72.0762 41.8397 73.3181 41.5028 73.2388 40.2227C72.9727 40.2608 72.7085 40.3225 72.4603 40.367Z" fill="#DCDDDE"/>
<path d="M69.2454 40.4103C68.9661 40.9341 68.7811 41.4925 68.5745 42.0463C68.3574 42.6329 68.1413 43.223 67.9932 43.8286C67.796 44.6376 67.6657 45.5555 67.9724 46.3399C67.7233 46.3553 67.4657 46.3381 67.1939 46.2854C65.1547 45.8869 66.2842 40.4402 67.5893 39.8791C68.5481 39.466 69.5757 38.8278 69.7512 37.4359C70.1221 34.4788 72.3293 34.6958 72.9955 34.9055C74.1477 35.2687 74.5903 35.7145 74.7092 36.2483C72.4095 36.7423 70.2702 38.48 69.2454 40.4103Z" fill="#DBDCA3"/>
<path d="M74.8374 34.5678C75.5904 34.4933 77.975 34.7512 77.6617 37.9571C77.5145 39.4679 78.4487 40.3703 79.3641 41.0177C80.6088 41.8984 80.504 47.9025 78.2534 47.8734C75.9066 47.8434 74.9355 45.6463 73.8852 43.0414C73.3511 41.7186 71.7932 40.926 72.3018 39.2381C73.0001 36.913 71.4185 34.9055 74.8374 34.5678Z" fill="#83BE2C"/>
<path d="M77.1904 45.5088C77.2885 45.0458 77.248 44.5101 77.1781 44.0443C77.1074 43.5604 76.9233 43.0883 76.6516 42.6725C76.5157 42.4618 76.3732 42.2639 76.1316 42.1522C75.941 42.0651 75.7391 42.0051 75.5475 41.918C74.7237 41.5421 74.1047 40.2383 73.3044 40.4735C72.8449 40.6069 73.965 41.8962 74.2924 42.7424C74.9445 44.4266 75.791 46.8634 76.6704 46.592C77.0621 46.4703 77.097 45.9501 77.1904 45.5088Z" fill="#DCDDDE"/>
<path d="M77.4876 41.212C77.6565 41.8285 77.7188 42.4604 77.8056 43.0905C77.8971 43.756 77.9839 44.4278 77.9943 45.1015C78.0113 45.9976 77.9283 46.9991 77.4196 47.759C77.6772 47.8289 77.9537 47.8698 78.2548 47.8734C80.5054 47.9025 80.6101 41.8984 79.3654 41.0177C78.4501 40.3703 77.5159 39.4679 77.6631 37.9571C77.9764 34.7512 75.5918 34.4933 74.8387 34.5678C73.5365 34.6976 72.9599 35.069 72.707 35.6083C75.018 36.6379 76.8648 38.9467 77.4876 41.212Z" fill="#DBDCA3"/>
<path d="M24.5918 98.844H25.6298V95.1869L27.3218 92.1735L26.8056 91.9238L25.1854 94.1673L23.9303 92.0491L23.2207 92.3905L24.5852 95.2078L24.5918 98.844Z" fill="#579C43"/>
<path d="M25.2026 92.9709C25.8396 93.2506 28.009 93.7018 28.7177 90.8019C29.0518 89.4373 30.1483 88.9116 31.1486 88.6047C32.5084 88.1844 34.2579 82.893 32.2772 82.2792C30.2106 81.6392 28.6875 83.2889 26.9663 85.2727C26.0925 86.2814 24.4854 86.5338 24.4118 88.1589C24.3118 90.3952 22.3103 91.7044 25.2026 92.9709Z" fill="#83BE2C"/>
<path d="M26.3602 87.5993C27.552 87.513 28.7448 87.296 29.5157 86.3119C29.946 85.7617 29.9762 85.196 30.1933 84.6731C30.4311 84.1038 30.7755 83.1405 30.533 82.9335C30.349 82.7755 28.6277 84.1964 27.6067 85.374C26.9122 86.1757 25.6392 86.3781 25.5703 87.661C25.8393 87.6501 26.1091 87.6184 26.3602 87.5993Z" fill="#DCDDDE"/>
<path d="M29.5625 87.9007C29.8994 87.4095 30.1485 86.8729 30.4174 86.3454C30.7015 85.7861 30.9836 85.2232 31.2007 84.6349C31.4904 83.8541 31.7244 82.9534 31.5111 82.1436C31.7593 82.1544 32.0132 82.1989 32.2783 82.2797C34.2591 82.8935 32.5095 88.1849 31.1497 88.6052C30.1485 88.9121 29.052 89.4378 28.7189 90.8024C28.0102 93.7014 25.8407 93.2502 25.2038 92.9714C24.1006 92.4893 23.7109 91.9991 23.6543 91.4552C25.9964 91.2073 28.3225 89.7084 29.5625 87.9007Z" fill="#DBDCA3"/>
<path d="M23.3316 93.1081C22.5748 93.1017 20.2345 92.5924 20.9139 89.4383C21.2348 87.9538 20.4091 86.9578 19.5749 86.217C18.4387 85.2083 19.2352 79.2523 21.4669 79.521C23.7968 79.8007 24.5083 82.0868 25.2529 84.7879C25.6303 86.1616 27.0873 87.114 26.3881 88.7392C25.4274 90.9745 26.7674 93.1371 23.3316 93.1081Z" fill="#83BE2C"/>
<path d="M22.2524 81.9861C22.1033 82.4364 22.0807 82.9721 22.0958 83.4433C22.1109 83.9308 22.2392 84.4202 22.461 84.8615C22.5714 85.0857 22.6912 85.2991 22.9177 85.4353C23.0961 85.5433 23.2914 85.625 23.4707 85.7313C24.2464 86.1907 24.7125 87.5535 25.5345 87.4046C26.0063 87.3192 25.0419 85.9192 24.8135 85.0449C24.3596 83.2998 23.7972 80.7885 22.8941 80.9665C22.4893 81.0455 22.3949 81.5575 22.2524 81.9861Z" fill="#DCDDDE"/>
<path d="M21.4642 86.2247C21.367 85.5955 21.3773 84.9591 21.3651 84.3235C21.35 83.6517 21.3424 82.9762 21.4075 82.3052C21.4944 81.4109 21.6925 80.4258 22.2861 79.7249C22.0379 79.6268 21.7661 79.5569 21.4689 79.5215C19.2371 79.2528 18.4407 85.2087 19.5769 86.2174C20.411 86.9574 21.2367 87.9543 20.9159 89.4388C20.2355 92.5929 22.5767 93.1022 23.3335 93.1086C24.6433 93.1204 25.2586 92.8117 25.5719 92.3023C23.392 91.034 21.8227 88.5426 21.4642 86.2247Z" fill="#DBDCA3"/>
<path d="M150.15 68.4866H151.187V64.8304L152.881 61.8152L152.364 61.5664L150.744 63.8099L149.49 61.6917L148.779 62.0331L150.144 64.8504L150.15 68.4866Z" fill="#579C43"/>
<path d="M150.761 62.6134C151.398 62.8931 153.567 63.3443 154.276 60.4444C154.61 59.0798 155.705 58.5532 156.706 58.2454C158.067 57.826 159.817 52.5346 157.836 51.9208C155.77 51.2808 154.245 52.9304 152.525 54.9161C151.651 55.9239 150.044 56.1772 149.971 57.8014C149.87 60.0368 147.869 61.3469 150.761 62.6134Z" fill="#83BE2C"/>
<path d="M151.919 57.2427C153.112 57.1555 154.303 56.9403 155.074 55.9552C155.505 55.405 155.534 54.8394 155.752 54.3155C155.989 53.7462 156.334 52.7829 156.092 52.5759C155.908 52.4189 154.185 53.8389 153.164 55.0173C152.471 55.8181 151.198 56.0206 151.129 57.3017C151.397 57.2953 151.666 57.2617 151.919 57.2427Z" fill="#DCDDDE"/>
<path d="M155.123 57.5417C155.459 57.0496 155.708 56.5131 155.977 55.9856C156.262 55.4263 156.543 54.8634 156.76 54.2768C157.049 53.4951 157.285 52.5936 157.071 51.7837C157.318 51.7946 157.574 51.8391 157.838 51.9199C159.819 52.5336 158.069 57.825 156.707 58.2445C155.706 58.5523 154.612 59.0788 154.277 60.4435C153.569 63.3425 151.399 62.8912 150.762 62.6125C149.659 62.1295 149.27 61.6401 149.213 61.0953C151.554 60.8493 153.881 59.3503 155.123 57.5417Z" fill="#DBDCA3"/>
<path d="M148.89 62.7532C148.133 62.7477 145.794 62.2375 146.473 59.0842C146.794 57.598 145.968 56.6038 145.134 55.8611C143.998 54.8533 144.793 48.8964 147.026 49.1661C149.355 49.4466 150.066 51.7319 150.812 54.433C151.19 55.8057 152.646 56.76 151.947 58.3833C150.986 60.6186 152.326 62.7813 148.89 62.7532Z" fill="#83BE2C"/>
<path d="M147.81 51.6282C147.659 52.0794 147.637 52.6151 147.652 53.0863C147.669 53.5738 147.798 54.0632 148.018 54.5045C148.129 54.7296 148.249 54.9412 148.474 55.0783C148.654 55.1863 148.848 55.2671 149.027 55.3733C149.804 55.8328 150.27 57.1956 151.092 57.0476C151.564 56.9622 150.6 55.5613 150.371 54.687C149.916 52.9419 149.356 50.4306 148.452 50.6086C148.048 50.6876 147.954 51.1996 147.81 51.6282Z" fill="#DCDDDE"/>
<path d="M147.022 55.8674C146.926 55.2382 146.935 54.6027 146.923 53.9671C146.91 53.2953 146.901 52.6189 146.967 51.9479C147.054 51.0545 147.251 50.0694 147.845 49.3676C147.596 49.2704 147.327 49.2005 147.028 49.1651C144.795 48.8955 143.999 54.8524 145.136 55.8601C145.97 56.6019 146.796 57.597 146.475 59.0833C145.795 62.2365 148.135 62.7467 148.892 62.7522C150.203 62.764 150.816 62.4544 151.131 61.945C148.95 60.6767 147.381 58.1844 147.022 55.8674Z" fill="#DBDCA3"/>
<path d="M171.804 278.452C143.941 280.187 123.217 282.58 93.8209 280.251C77.1724 278.932 74.7148 278.716 57.7384 263.86C51.9484 258.796 48.9399 248.995 57.1375 246.025C61.9429 244.285 75.0271 254.716 82.0639 257.322C97.0991 262.886 133.502 260.66 133.796 256.155C134.141 250.803 118.575 252.907 111.018 248.115C99.5699 240.868 109.637 229.055 122.89 233.112C154.96 242.932 171.123 246.054 171.123 246.054L171.804 278.452Z" fill="#FFA67F"/>
<path d="M286.999 246.916L159.451 244.534L159.718 278.954C159.718 278.954 216.097 289.794 286.999 299.523V246.916Z" fill="#FFA67F"/>
</svg>
