<svg width="115" height="116" viewBox="0 0 115 116" fill="none" xmlns="http://www.w3.org/2000/svg">
<g filter="url(#filter0_ii_1001_9765)">
<path d="M112.638 58.0008C112.638 88.5624 87.95 113.338 57.4965 113.338C27.0429 113.338 2.35547 88.5624 2.35547 58.0008C2.35547 27.4392 27.0429 2.66406 57.4965 2.66406C87.95 2.66406 112.638 27.4392 112.638 58.0008ZM16.1407 58.0008C16.1407 80.922 34.6563 99.5034 57.4965 99.5034C80.3367 99.5034 98.8523 80.922 98.8523 58.0008C98.8523 35.0796 80.3367 16.4982 57.4965 16.4982C34.6563 16.4982 16.1407 35.0796 16.1407 58.0008Z" fill="white"/>
</g>
<path d="M38.5702 44.956C39.0422 44.956 39.4982 44.72 39.9382 44.248C39.9302 43.912 39.9022 43.616 39.8542 43.36C39.8142 43.096 39.7462 42.84 39.6502 42.592C39.5542 42.344 39.4102 42.156 39.2182 42.028C39.0262 41.892 38.7942 41.824 38.5222 41.824C38.1302 41.824 37.8222 41.976 37.5982 42.28C37.3822 42.584 37.2742 42.948 37.2742 43.372C37.2742 43.852 37.3942 44.236 37.6342 44.524C37.8822 44.812 38.1942 44.956 38.5702 44.956ZM38.6182 40.924C39.1062 40.924 39.5262 41.02 39.8782 41.212C40.2382 41.404 40.5102 41.668 40.6942 42.004C40.8862 42.34 41.0222 42.7 41.1022 43.084C41.1902 43.468 41.2342 43.888 41.2342 44.344C41.2342 45.152 41.0822 45.912 40.7782 46.624C40.4822 47.336 40.0182 47.932 39.3862 48.412C38.7542 48.884 38.0222 49.12 37.1902 49.12C36.8382 49.12 36.6622 48.944 36.6622 48.592C36.6622 48.52 36.6822 48.376 36.7222 48.16C36.8822 48.192 37.0542 48.208 37.2382 48.208C38.0142 48.208 38.6422 47.9 39.1222 47.284C39.6022 46.66 39.8702 45.908 39.9262 45.028C39.4382 45.58 38.8382 45.856 38.1262 45.856C37.5342 45.856 37.0262 45.648 36.6022 45.232C36.1862 44.808 35.9782 44.252 35.9782 43.564C35.9782 42.876 36.2182 42.264 36.6982 41.728C37.1782 41.192 37.8182 40.924 38.6182 40.924ZM47.2721 48.004C46.7361 48.748 46.0161 49.12 45.1121 49.12C44.2081 49.12 43.4881 48.752 42.9521 48.016C42.4161 47.272 42.1481 46.276 42.1481 45.028C42.1481 43.772 42.4161 42.776 42.9521 42.04C43.4881 41.296 44.2081 40.924 45.1121 40.924C46.0161 40.924 46.7361 41.296 47.2721 42.04C47.8161 42.776 48.0881 43.772 48.0881 45.028C48.0881 46.268 47.8161 47.26 47.2721 48.004ZM46.7921 45.22C46.7921 44.668 46.7321 44.144 46.6121 43.648C46.5001 43.144 46.3121 42.712 46.0481 42.352C45.7841 41.992 45.4761 41.812 45.1241 41.812C44.6361 41.812 44.2321 42.092 43.9121 42.652C43.6001 43.204 43.4441 43.88 43.4441 44.68C43.4441 45.272 43.5001 45.832 43.6121 46.36C43.7321 46.88 43.9201 47.324 44.1761 47.692C44.4401 48.052 44.7521 48.232 45.1121 48.232C45.6161 48.232 46.0201 47.944 46.3241 47.368C46.6361 46.792 46.7921 46.076 46.7921 45.22ZM53.694 48.004C53.158 48.748 52.438 49.12 51.534 49.12C50.63 49.12 49.91 48.752 49.374 48.016C48.838 47.272 48.57 46.276 48.57 45.028C48.57 43.772 48.838 42.776 49.374 42.04C49.91 41.296 50.63 40.924 51.534 40.924C52.438 40.924 53.158 41.296 53.694 42.04C54.238 42.776 54.51 43.772 54.51 45.028C54.51 46.268 54.238 47.26 53.694 48.004ZM53.214 45.22C53.214 44.668 53.154 44.144 53.034 43.648C52.922 43.144 52.734 42.712 52.47 42.352C52.206 41.992 51.898 41.812 51.546 41.812C51.058 41.812 50.654 42.092 50.334 42.652C50.022 43.204 49.866 43.88 49.866 44.68C49.866 45.272 49.922 45.832 50.034 46.36C50.154 46.88 50.342 47.324 50.598 47.692C50.862 48.052 51.174 48.232 51.534 48.232C52.038 48.232 52.442 47.944 52.746 47.368C53.058 46.792 53.214 46.076 53.214 45.22ZM58.026 46.228V43.828C58.026 42.716 57.998 41.796 57.942 41.068C58.182 41.028 58.394 41.008 58.578 41.008C59.114 41.008 59.382 41.16 59.382 41.464C59.382 41.504 59.374 41.648 59.358 41.896C59.342 42.136 59.326 42.468 59.31 42.892C59.294 43.316 59.286 43.764 59.286 44.236C59.838 43.812 60.418 43.284 61.026 42.652C61.634 42.02 62.054 41.476 62.286 41.02C62.518 41.092 62.694 41.172 62.814 41.26C62.934 41.348 62.994 41.476 62.994 41.644C62.994 41.764 62.93 41.92 62.802 42.112C62.682 42.296 62.466 42.54 62.154 42.844C61.85 43.148 61.586 43.404 61.362 43.612C61.146 43.812 60.798 44.128 60.318 44.56C60.422 44.744 60.57 45.008 60.762 45.352C60.954 45.688 61.098 45.944 61.194 46.12C61.298 46.296 61.43 46.516 61.59 46.78C61.758 47.044 61.894 47.244 61.998 47.38C62.11 47.508 62.234 47.648 62.37 47.8C62.506 47.944 62.634 48.048 62.754 48.112C62.882 48.168 63.01 48.196 63.138 48.196C63.258 48.196 63.366 48.184 63.462 48.16C63.534 48.304 63.57 48.432 63.57 48.544C63.57 48.728 63.486 48.872 63.318 48.976C63.158 49.072 62.938 49.12 62.658 49.12C62.282 49.12 61.922 48.96 61.578 48.64C61.234 48.312 60.946 47.96 60.714 47.584C60.482 47.208 60.094 46.512 59.55 45.496C59.534 45.464 59.518 45.44 59.502 45.424C59.494 45.408 59.482 45.388 59.466 45.364C59.458 45.332 59.446 45.304 59.43 45.28L59.286 45.388V46.564C59.286 47.628 59.362 48.412 59.514 48.916C59.29 48.996 59.042 49.036 58.77 49.036C58.474 49.036 58.27 48.984 58.158 48.88C58.054 48.776 58.002 48.6 58.002 48.352C58.002 48.224 58.006 47.908 58.014 47.404C58.022 46.9 58.026 46.508 58.026 46.228ZM66.9707 48.256C67.1867 48.256 67.4107 48.2 67.6427 48.088C67.8747 47.976 68.0467 47.816 68.1587 47.608C68.5507 47.816 68.7467 48.04 68.7467 48.28C68.7467 48.552 68.5587 48.76 68.1827 48.904C67.8067 49.048 67.3867 49.12 66.9227 49.12C66.5787 49.12 66.2387 49.064 65.9027 48.952C65.5747 48.832 65.2667 48.66 64.9787 48.436C64.6907 48.212 64.4587 47.908 64.2827 47.524C64.1147 47.14 64.0307 46.7 64.0307 46.204C64.0307 45.212 64.3187 44.46 64.8947 43.948C65.4707 43.436 66.1267 43.18 66.8627 43.18C67.3107 43.18 67.7347 43.288 68.1347 43.504C68.5427 43.712 68.7467 44.004 68.7467 44.38C68.7467 44.548 68.6627 44.684 68.4947 44.788C68.3267 44.892 68.0987 44.96 67.8107 44.992C67.7467 44.704 67.6027 44.48 67.3787 44.32C67.1547 44.16 66.9267 44.08 66.6947 44.08C66.3107 44.08 65.9907 44.264 65.7347 44.632C65.4787 45 65.3507 45.48 65.3507 46.072C65.3507 46.832 65.4987 47.388 65.7947 47.74C66.0987 48.084 66.4907 48.256 66.9707 48.256ZM72.7771 47.284C72.7771 46.916 72.7851 46.632 72.8011 46.432C72.5611 46.464 72.3851 46.488 72.2731 46.504C72.1691 46.52 72.0251 46.544 71.8411 46.576C71.6571 46.608 71.5211 46.644 71.4331 46.684C71.3531 46.724 71.2651 46.772 71.1691 46.828C71.0731 46.884 71.0051 46.956 70.9651 47.044C70.9251 47.124 70.9051 47.22 70.9051 47.332C70.9051 47.652 70.9851 47.888 71.1451 48.04C71.3051 48.192 71.5091 48.268 71.7571 48.268C72.1651 48.268 72.5131 48.116 72.8011 47.812C72.7851 47.708 72.7771 47.532 72.7771 47.284ZM72.8251 45.7C72.8251 45.428 72.8171 45.22 72.8011 45.076C72.7931 44.932 72.7611 44.768 72.7051 44.584C72.6571 44.4 72.5691 44.268 72.4411 44.188C72.3211 44.1 72.1571 44.056 71.9491 44.056C71.6851 44.056 71.4331 44.144 71.1931 44.32C70.9611 44.488 70.7931 44.724 70.6891 45.028C69.9771 45.02 69.6211 44.808 69.6211 44.392C69.6211 44.048 69.8611 43.76 70.3411 43.528C70.8291 43.296 71.3811 43.18 71.9971 43.18C72.7331 43.18 73.2691 43.332 73.6051 43.636C73.9491 43.94 74.1211 44.484 74.1211 45.268C74.1211 45.292 74.1171 45.48 74.1091 45.832C74.1011 46.184 74.0971 46.528 74.0971 46.864C74.0971 47.776 74.1731 48.46 74.3251 48.916C74.0931 49.004 73.8651 49.048 73.6411 49.048C73.1931 49.048 72.9251 48.864 72.8371 48.496C72.3571 48.912 71.8171 49.12 71.2171 49.12C70.7531 49.12 70.3651 48.976 70.0531 48.688C69.7491 48.4 69.5971 47.976 69.5971 47.416C69.5971 46.968 69.6931 46.636 69.8851 46.42C70.0771 46.204 70.3331 46.044 70.6531 45.94C71.1331 45.788 71.8571 45.708 72.8251 45.7ZM76.1075 40.084C76.6755 40.084 76.9595 40.304 76.9595 40.744C76.9595 40.792 76.9475 40.98 76.9235 41.308C76.8995 41.628 76.8755 42.092 76.8515 42.7C76.8355 43.308 76.8275 43.984 76.8275 44.728C76.8275 46.264 76.8435 47.252 76.8755 47.692C76.9075 48.132 76.9995 48.532 77.1515 48.892C76.9195 48.996 76.6835 49.048 76.4435 49.048C76.0995 49.048 75.8675 48.976 75.7475 48.832C75.6275 48.68 75.5675 48.428 75.5675 48.076C75.5835 46.572 75.5915 45.468 75.5915 44.764C75.5915 42.34 75.5555 40.8 75.4835 40.144C75.7075 40.104 75.9155 40.084 76.1075 40.084ZM39.433 59.92C39.3423 59.936 39.2543 59.944 39.169 59.944C38.9557 59.944 38.849 59.8693 38.849 59.72C38.849 59.7093 38.8543 59.672 38.865 59.608C38.8757 59.5493 38.897 59.4107 38.929 59.192C38.9663 58.9787 39.009 58.72 39.057 58.416C39.105 58.112 39.1797 57.648 39.281 57.024C39.3823 56.3947 39.4917 55.704 39.609 54.952C39.7103 54.3387 39.793 53.7227 39.857 53.104C39.937 53.0773 40.0197 53.064 40.105 53.064C40.3237 53.064 40.433 53.1387 40.433 53.288C40.433 53.3093 40.3903 53.584 40.305 54.112C40.1077 55.344 39.8997 56.664 39.681 58.072C39.5423 58.9307 39.4597 59.5467 39.433 59.92ZM45.1333 58.456C45.512 58.456 45.7786 58.4453 45.9333 58.424C45.9546 58.4987 45.9653 58.5707 45.9653 58.64C45.9653 58.8907 45.8613 59.016 45.6533 59.016C45.616 59.016 45.4373 59.0133 45.1173 59.008C44.8026 59.0027 44.528 59 44.2933 59C43.8346 59 43.5226 59.0027 43.3573 59.008C43.3306 58.912 43.3173 58.832 43.3173 58.768C43.3173 58.544 43.472 58.432 43.7813 58.432H44.2933C44.2933 58.336 44.296 58.0533 44.3013 57.584C44.3066 57.1147 44.3093 56.6853 44.3093 56.296C44.3093 55.544 44.3013 54.872 44.2853 54.28C43.72 54.344 43.3973 54.384 43.3173 54.4C43.3013 54.32 43.2933 54.248 43.2933 54.184C43.2933 53.9333 43.3973 53.7893 43.6053 53.752C44.1813 53.6613 44.576 53.616 44.7893 53.616C44.88 53.616 44.96 53.6453 45.0293 53.704C45.104 53.7627 45.1413 53.8587 45.1413 53.992C45.1413 54.0027 45.1306 54.3253 45.1093 54.96C45.088 55.5947 45.0773 56.1547 45.0773 56.64C45.0773 57.5253 45.096 58.1307 45.1333 58.456ZM49.5746 54.8C49.5746 54.6293 49.4999 54.488 49.3506 54.376C49.2012 54.264 49.0226 54.208 48.8146 54.208C48.6066 54.208 48.4279 54.264 48.2786 54.376C48.1346 54.488 48.0626 54.6293 48.0626 54.8C48.0626 55.0293 48.1346 55.224 48.2786 55.384C48.4226 55.5387 48.6359 55.6827 48.9186 55.816C49.3559 55.608 49.5746 55.2693 49.5746 54.8ZM48.1346 58.224C48.3052 58.4 48.5319 58.488 48.8146 58.488C49.0972 58.488 49.3212 58.4 49.4866 58.224C49.6572 58.0427 49.7426 57.832 49.7426 57.592C49.7426 57.3093 49.6572 57.0827 49.4866 56.912C49.3159 56.7413 49.0306 56.5653 48.6306 56.384C48.3586 56.5493 48.1639 56.72 48.0466 56.896C47.9346 57.0667 47.8786 57.2987 47.8786 57.592C47.8786 57.832 47.9639 58.0427 48.1346 58.224ZM50.1426 58.648C49.8332 58.9413 49.3932 59.088 48.8226 59.088C48.2519 59.088 47.8119 58.9413 47.5026 58.648C47.1932 58.3493 47.0386 57.9947 47.0386 57.584C47.0386 56.96 47.3959 56.4747 48.1106 56.128C47.5346 55.7653 47.2466 55.3227 47.2466 54.8C47.2466 54.448 47.3986 54.1627 47.7026 53.944C48.0119 53.72 48.3826 53.608 48.8146 53.608C49.2466 53.608 49.6172 53.72 49.9266 53.944C50.2359 54.1627 50.3906 54.448 50.3906 54.8C50.3906 55.328 50.0972 55.728 49.5106 56C50.2412 56.3787 50.6066 56.9067 50.6066 57.584C50.6066 57.9947 50.4519 58.3493 50.1426 58.648ZM54.5598 58.336C54.2025 58.832 53.7225 59.08 53.1198 59.08C52.5171 59.08 52.0371 58.8347 51.6798 58.344C51.3225 57.848 51.1438 57.184 51.1438 56.352C51.1438 55.5147 51.3225 54.8507 51.6798 54.36C52.0371 53.864 52.5171 53.616 53.1198 53.616C53.7225 53.616 54.2025 53.864 54.5598 54.36C54.9225 54.8507 55.1038 55.5147 55.1038 56.352C55.1038 57.1787 54.9225 57.84 54.5598 58.336ZM54.2398 56.48C54.2398 56.112 54.1998 55.7627 54.1198 55.432C54.0451 55.096 53.9198 54.808 53.7438 54.568C53.5678 54.328 53.3625 54.208 53.1278 54.208C52.8025 54.208 52.5331 54.3947 52.3198 54.768C52.1118 55.136 52.0078 55.5867 52.0078 56.12C52.0078 56.5147 52.0451 56.888 52.1198 57.24C52.1998 57.5867 52.3251 57.8827 52.4958 58.128C52.6718 58.368 52.8798 58.488 53.1198 58.488C53.4558 58.488 53.7251 58.296 53.9278 57.912C54.1358 57.528 54.2398 57.0507 54.2398 56.48ZM58.8411 58.336C58.4837 58.832 58.0037 59.08 57.4011 59.08C56.7984 59.08 56.3184 58.8347 55.9611 58.344C55.6037 57.848 55.4251 57.184 55.4251 56.352C55.4251 55.5147 55.6037 54.8507 55.9611 54.36C56.3184 53.864 56.7984 53.616 57.4011 53.616C58.0037 53.616 58.4837 53.864 58.8411 54.36C59.2037 54.8507 59.3851 55.5147 59.3851 56.352C59.3851 57.1787 59.2037 57.84 58.8411 58.336ZM58.5211 56.48C58.5211 56.112 58.4811 55.7627 58.4011 55.432C58.3264 55.096 58.2011 54.808 58.0251 54.568C57.8491 54.328 57.6437 54.208 57.4091 54.208C57.0837 54.208 56.8144 54.3947 56.6011 54.768C56.3931 55.136 56.2891 55.5867 56.2891 56.12C56.2891 56.5147 56.3264 56.888 56.4011 57.24C56.4811 57.5867 56.6064 57.8827 56.7771 58.128C56.9531 58.368 57.1611 58.488 57.4011 58.488C57.7371 58.488 58.0064 58.296 58.2091 57.912C58.4171 57.528 58.5211 57.0507 58.5211 56.48ZM63.3611 55.704C63.1157 55.704 62.8357 55.824 62.5211 56.064C62.5264 56.2667 62.5291 56.7067 62.5291 57.384C62.5344 58.0613 62.5531 58.5947 62.5851 58.984C62.4411 59.0053 62.3077 59.016 62.1851 59.016C61.8384 59.016 61.6651 58.9093 61.6651 58.696C61.6651 58.6587 61.6677 58.528 61.6731 58.304C61.6837 58.08 61.6917 57.7387 61.6971 57.28C61.7024 56.8213 61.7051 56.2907 61.7051 55.688C61.7051 54.4293 61.6811 53.5653 61.6331 53.096C61.7824 53.0693 61.9211 53.056 62.0491 53.056C62.4277 53.056 62.6171 53.2027 62.6171 53.496C62.6171 53.544 62.6091 53.6587 62.5931 53.84C62.5824 54.016 62.5691 54.2533 62.5531 54.552C62.5371 54.8453 62.5291 55.1573 62.5291 55.488C62.8811 55.2427 63.2384 55.12 63.6011 55.12C63.9744 55.12 64.2571 55.2213 64.4491 55.424C64.6464 55.6213 64.7451 55.8667 64.7451 56.16C64.7451 56.464 64.6437 56.7387 64.4411 56.984C64.2437 57.2293 63.9691 57.3813 63.6171 57.44C63.8144 57.7813 64.0064 58.0453 64.1931 58.232C64.3477 58.3813 64.4784 58.456 64.5851 58.456C64.6917 58.456 64.7957 58.44 64.8971 58.408C64.9557 58.5413 64.9851 58.6427 64.9851 58.712C64.9851 58.8347 64.9184 58.928 64.7851 58.992C64.6571 59.0507 64.4971 59.08 64.3051 59.08C64.0864 59.08 63.8784 58.968 63.6811 58.744C63.3984 58.4187 63.1237 57.9547 62.8571 57.352C62.7664 57.3147 62.7211 57.2427 62.7211 57.136C62.7211 57.0667 62.7397 56.9813 62.7771 56.88C62.8891 56.912 63.0091 56.928 63.1371 56.928C63.3717 56.928 63.5557 56.8587 63.6891 56.72C63.8277 56.5813 63.8971 56.4213 63.8971 56.24C63.8971 56.0907 63.8491 55.9653 63.7531 55.864C63.6624 55.7573 63.5317 55.704 63.3611 55.704ZM67.4344 58.504C67.5784 58.504 67.7277 58.4667 67.8824 58.392C68.037 58.3173 68.1517 58.2107 68.2264 58.072C68.4877 58.2107 68.6184 58.36 68.6184 58.52C68.6184 58.7013 68.493 58.84 68.2424 58.936C67.9917 59.032 67.7117 59.08 67.4024 59.08C67.173 59.08 66.9464 59.0427 66.7224 58.968C66.5037 58.888 66.2984 58.7733 66.1064 58.624C65.9144 58.4747 65.7597 58.272 65.6424 58.016C65.5304 57.76 65.4744 57.4667 65.4744 57.136C65.4744 56.4747 65.6664 55.9733 66.0504 55.632C66.4344 55.2907 66.8717 55.12 67.3624 55.12C67.661 55.12 67.9437 55.192 68.2104 55.336C68.4824 55.4747 68.6184 55.6693 68.6184 55.92C68.6184 56.032 68.5624 56.1227 68.4504 56.192C68.3384 56.2613 68.1864 56.3067 67.9944 56.328C67.9517 56.136 67.8557 55.9867 67.7064 55.88C67.557 55.7733 67.405 55.72 67.2504 55.72C66.9944 55.72 66.781 55.8427 66.6104 56.088C66.4397 56.3333 66.3544 56.6533 66.3544 57.048C66.3544 57.5547 66.453 57.9253 66.6504 58.16C66.853 58.3893 67.1144 58.504 67.4344 58.504ZM71.3053 57.856C71.3053 57.6107 71.3106 57.4213 71.3213 57.288C71.1613 57.3093 71.044 57.3253 70.9693 57.336C70.9 57.3467 70.804 57.3627 70.6813 57.384C70.5586 57.4053 70.468 57.4293 70.4093 57.456C70.356 57.4827 70.2973 57.5147 70.2333 57.552C70.1693 57.5893 70.124 57.6373 70.0973 57.696C70.0706 57.7493 70.0573 57.8133 70.0573 57.888C70.0573 58.1013 70.1106 58.2587 70.2173 58.36C70.324 58.4613 70.46 58.512 70.6253 58.512C70.8973 58.512 71.1293 58.4107 71.3213 58.208C71.3106 58.1387 71.3053 58.0213 71.3053 57.856ZM71.3373 56.8C71.3373 56.6187 71.332 56.48 71.3213 56.384C71.316 56.288 71.2946 56.1787 71.2573 56.056C71.2253 55.9333 71.1666 55.8453 71.0813 55.792C71.0013 55.7333 70.892 55.704 70.7533 55.704C70.5773 55.704 70.4093 55.7627 70.2493 55.88C70.0946 55.992 69.9826 56.1493 69.9133 56.352C69.4386 56.3467 69.2013 56.2053 69.2013 55.928C69.2013 55.6987 69.3613 55.5067 69.6813 55.352C70.0066 55.1973 70.3746 55.12 70.7853 55.12C71.276 55.12 71.6333 55.2213 71.8573 55.424C72.0866 55.6267 72.2013 55.9893 72.2013 56.512C72.2013 56.528 72.1986 56.6533 72.1933 56.888C72.188 57.1227 72.1853 57.352 72.1853 57.576C72.1853 58.184 72.236 58.64 72.3373 58.944C72.1826 59.0027 72.0306 59.032 71.8813 59.032C71.5826 59.032 71.404 58.9093 71.3453 58.664C71.0253 58.9413 70.6653 59.08 70.2653 59.08C69.956 59.08 69.6973 58.984 69.4893 58.792C69.2866 58.6 69.1853 58.3173 69.1853 57.944C69.1853 57.6453 69.2493 57.424 69.3773 57.28C69.5053 57.136 69.676 57.0293 69.8893 56.96C70.2093 56.8587 70.692 56.8053 71.3373 56.8ZM73.5256 53.056C73.9043 53.056 74.0936 53.2027 74.0936 53.496C74.0936 53.528 74.0856 53.6533 74.0696 53.872C74.0536 54.0853 74.0376 54.3947 74.0216 54.8C74.011 55.2053 74.0056 55.656 74.0056 56.152C74.0056 57.176 74.0163 57.8347 74.0376 58.128C74.059 58.4213 74.1203 58.688 74.2216 58.928C74.067 58.9973 73.9096 59.032 73.7496 59.032C73.5203 59.032 73.3656 58.984 73.2856 58.888C73.2056 58.7867 73.1656 58.6187 73.1656 58.384C73.1763 57.3813 73.1816 56.6453 73.1816 56.176C73.1816 54.56 73.1576 53.5333 73.1096 53.096C73.259 53.0693 73.3976 53.056 73.5256 53.056Z" fill="black"/>
<path d="M57.4965 9.50154C57.4965 5.72531 60.5697 2.62018 64.3167 3.08883C75.4361 4.47957 85.9296 9.24764 94.3458 16.8349C104.466 25.9587 110.869 38.5151 112.322 52.0897C113.775 65.6644 110.177 79.299 102.218 90.372C95.6015 99.5782 86.3594 106.473 75.7909 110.203C72.2268 111.461 68.5602 109.077 67.7601 105.383C66.9616 101.697 69.3316 98.1127 72.8348 96.7149C80.1381 93.8007 86.5143 88.8453 91.1665 82.3723C97.1582 74.0357 99.8675 63.7705 98.7734 53.5505C97.6793 43.3304 92.8591 33.877 85.2395 27.008C79.3266 21.6774 72.0518 18.1952 64.3031 16.9027C60.5783 16.2814 57.4965 13.2778 57.4965 9.50154Z" fill="#69AA33"/>
<g filter="url(#filter1_dd_1001_9765)">
<rect x="35" y="70" width="44" height="14" rx="5" fill="url(#paint0_linear_1001_9765)" shape-rendering="crispEdges"/>
<path d="M43.4227 75.336C43.444 75.544 43.4547 76.0427 43.4547 76.832H44.0547C44.4814 76.832 44.7854 76.8213 44.9667 76.8C44.988 76.848 44.9987 76.9333 44.9987 77.056C44.9987 77.2053 44.972 77.3093 44.9187 77.368C44.8654 77.4213 44.78 77.4507 44.6627 77.456C44.5294 77.4613 44.3507 77.464 44.1267 77.464H43.4547C43.4547 78.5253 43.4734 79.1627 43.5107 79.376C43.7347 79.3867 43.9187 79.392 44.0627 79.392C44.916 79.392 45.468 79.3333 45.7187 79.216C45.7614 79.3387 45.7827 79.48 45.7827 79.64C45.7827 79.7627 45.7587 79.848 45.7107 79.896C45.6094 79.976 45.1534 80.016 44.3427 80.016C43.6174 80.016 43.1747 80.0107 43.0147 80C42.8494 79.9947 42.7374 79.96 42.6787 79.896C42.6254 79.8267 42.5987 79.7093 42.5987 79.544C42.5987 79.4427 42.6014 79.224 42.6067 78.888C42.612 78.552 42.6147 78.2933 42.6147 78.112V76.56C42.6147 75.8133 42.5774 75.208 42.5027 74.744C43.084 74.696 43.6787 74.672 44.2867 74.672C45.076 74.672 45.5214 74.712 45.6227 74.792C45.6707 74.84 45.6947 74.9253 45.6947 75.048C45.6947 75.208 45.6734 75.352 45.6307 75.48C45.3374 75.368 44.8734 75.312 44.2387 75.312C43.9827 75.312 43.7107 75.32 43.4227 75.336ZM48.1124 79.488C48.363 79.488 48.6057 79.3707 48.8404 79.136C48.8297 78.1547 48.8244 77.4 48.8244 76.872C48.6004 76.76 48.3764 76.704 48.1524 76.704C47.8484 76.704 47.6057 76.8213 47.4244 77.056C47.2484 77.2907 47.1604 77.5973 47.1604 77.976C47.1604 78.424 47.251 78.7893 47.4324 79.072C47.619 79.3493 47.8457 79.488 48.1124 79.488ZM46.2884 78.096C46.2884 77.504 46.451 77.0267 46.7764 76.664C47.107 76.3013 47.507 76.12 47.9764 76.12C48.2857 76.12 48.5737 76.1947 48.8404 76.344C48.8404 75.3893 48.8084 74.6373 48.7444 74.088C48.8937 74.0667 49.0377 74.056 49.1764 74.056C49.3524 74.056 49.4884 74.0933 49.5844 74.168C49.6804 74.2427 49.7284 74.3493 49.7284 74.488C49.7284 74.6213 49.715 75.1093 49.6884 75.952C49.667 76.7893 49.6564 77.5413 49.6564 78.208C49.6564 79.0933 49.707 79.672 49.8084 79.944C49.675 79.9973 49.5284 80.024 49.3684 80.024C49.0697 80.024 48.9044 79.912 48.8724 79.688C48.563 79.9493 48.235 80.08 47.8884 80.08C47.4564 80.08 47.0804 79.8933 46.7604 79.52C46.4457 79.1467 46.2884 78.672 46.2884 78.096ZM51.1468 76.176C51.5308 76.176 51.7228 76.3173 51.7228 76.6C51.7228 76.632 51.7148 76.7413 51.6988 76.928C51.6828 77.1093 51.6668 77.336 51.6508 77.608C51.6401 77.88 51.6348 78.1387 51.6348 78.384C51.6348 79.0987 51.7041 79.6187 51.8428 79.944C51.7094 80.0027 51.5574 80.032 51.3868 80.032C51.1521 80.032 50.9921 79.984 50.9068 79.888C50.8268 79.792 50.7868 79.6293 50.7868 79.4C50.7868 79.3147 50.7894 79.1093 50.7948 78.784C50.8001 78.4533 50.8028 78.2 50.8028 78.024C50.8028 77.2507 50.7788 76.6453 50.7308 76.208C50.8588 76.1867 50.9974 76.176 51.1468 76.176ZM51.1868 75.84C51.0268 75.84 50.8908 75.7867 50.7788 75.68C50.6668 75.5733 50.6108 75.4373 50.6108 75.272C50.6108 75.112 50.6694 74.9787 50.7868 74.872C50.9041 74.76 51.0428 74.704 51.2028 74.704C51.3574 74.704 51.4908 74.76 51.6028 74.872C51.7148 74.9787 51.7708 75.112 51.7708 75.272C51.7708 75.432 51.7121 75.568 51.5948 75.68C51.4774 75.7867 51.3414 75.84 51.1868 75.84ZM52.6029 76.208C52.6509 76.2027 52.7709 76.2 52.9629 76.2C52.9523 75.8853 52.9363 75.616 52.9149 75.392C53.0269 75.3707 53.1576 75.36 53.3069 75.36C53.6749 75.36 53.8589 75.4587 53.8589 75.656C53.8589 75.784 53.8509 75.968 53.8349 76.208C54.4109 76.208 54.8109 76.192 55.0349 76.16C55.0669 76.2187 55.0829 76.3013 55.0829 76.408C55.0829 76.552 55.0509 76.6507 54.9869 76.704C54.9229 76.752 54.8216 76.7787 54.6829 76.784C54.5229 76.7893 54.2349 76.792 53.8189 76.792C53.8083 77.2933 53.8029 77.8347 53.8029 78.416C53.8029 78.5867 53.8083 78.728 53.8189 78.84C53.8296 78.952 53.8536 79.064 53.8909 79.176C53.9283 79.288 53.9843 79.3733 54.0589 79.432C54.1336 79.4853 54.2296 79.512 54.3469 79.512C54.5123 79.512 54.6829 79.4187 54.8589 79.232C54.9976 79.3867 55.0669 79.5173 55.0669 79.624C55.0669 79.7787 54.9869 79.8933 54.8269 79.968C54.6723 80.0427 54.4963 80.08 54.2989 80.08C53.4083 80.08 52.9629 79.5947 52.9629 78.624C52.9629 78.3733 52.9629 78.0267 52.9629 77.584C52.9683 77.136 52.9709 76.8693 52.9709 76.784C52.6296 76.8053 52.3869 76.8267 52.2429 76.848C52.2216 76.7893 52.2109 76.7013 52.2109 76.584C52.2109 76.4453 52.2403 76.352 52.2989 76.304C52.3629 76.256 52.4643 76.224 52.6029 76.208ZM61.4743 79.32C61.4743 79.512 61.3143 79.688 60.9943 79.848C60.6796 80.0027 60.2903 80.08 59.8263 80.08C59.0476 80.08 58.4209 79.8293 57.9463 79.328C57.4769 78.8213 57.2423 78.16 57.2423 77.344C57.2423 76.4907 57.4769 75.824 57.9463 75.344C58.4209 74.8587 59.0609 74.616 59.8663 74.616C60.2983 74.616 60.6609 74.7013 60.9543 74.872C61.2476 75.0373 61.3943 75.2427 61.3943 75.488C61.3943 75.7707 61.1836 75.9467 60.7623 76.016C60.6716 75.76 60.5276 75.568 60.3303 75.44C60.1329 75.312 59.9223 75.248 59.6983 75.248C59.2449 75.248 58.8743 75.4347 58.5863 75.808C58.2983 76.176 58.1543 76.6373 58.1543 77.192C58.1543 77.8373 58.2956 78.376 58.5783 78.808C58.8609 79.2347 59.2529 79.448 59.7543 79.448C60.1223 79.448 60.4236 79.3627 60.6583 79.192C60.6476 78.5093 60.6289 77.9493 60.6023 77.512C60.7249 77.496 60.8556 77.488 60.9943 77.488C61.3516 77.488 61.5303 77.5867 61.5303 77.784L61.4983 78.328C61.4823 78.6907 61.4743 79.0213 61.4743 79.32ZM65.019 78.2C65.019 77.7733 64.9283 77.4187 64.747 77.136C64.571 76.848 64.331 76.704 64.027 76.704C63.7177 76.704 63.4777 76.8213 63.307 77.056C63.1363 77.2907 63.051 77.6027 63.051 77.992C63.051 78.424 63.1363 78.7813 63.307 79.064C63.483 79.3467 63.723 79.488 64.027 79.488C64.3417 79.488 64.5843 79.3707 64.755 79.136C64.931 78.9013 65.019 78.5893 65.019 78.2ZM64.027 80.08C63.4723 80.08 63.0243 79.9013 62.683 79.544C62.347 79.1813 62.179 78.6987 62.179 78.096C62.179 77.4933 62.347 77.0133 62.683 76.656C63.0243 76.2987 63.4723 76.12 64.027 76.12C64.587 76.12 65.0377 76.2987 65.379 76.656C65.7203 77.0133 65.891 77.4933 65.891 78.096C65.891 78.6987 65.7203 79.1813 65.379 79.544C65.0377 79.9013 64.587 80.08 64.027 80.08ZM68.6193 78.856C68.6193 78.6107 68.6246 78.4213 68.6353 78.288C68.4753 78.3093 68.358 78.3253 68.2833 78.336C68.214 78.3467 68.118 78.3627 67.9953 78.384C67.8726 78.4053 67.782 78.4293 67.7233 78.456C67.67 78.4827 67.6113 78.5147 67.5473 78.552C67.4833 78.5893 67.438 78.6373 67.4113 78.696C67.3846 78.7493 67.3713 78.8133 67.3713 78.888C67.3713 79.1013 67.4246 79.2587 67.5313 79.36C67.638 79.4613 67.774 79.512 67.9393 79.512C68.2113 79.512 68.4433 79.4107 68.6353 79.208C68.6246 79.1387 68.6193 79.0213 68.6193 78.856ZM68.6513 77.8C68.6513 77.6187 68.646 77.48 68.6353 77.384C68.63 77.288 68.6086 77.1787 68.5713 77.056C68.5393 76.9333 68.4806 76.8453 68.3953 76.792C68.3153 76.7333 68.206 76.704 68.0673 76.704C67.8913 76.704 67.7233 76.7627 67.5633 76.88C67.4086 76.992 67.2966 77.1493 67.2273 77.352C66.7526 77.3467 66.5153 77.2053 66.5153 76.928C66.5153 76.6987 66.6753 76.5067 66.9953 76.352C67.3206 76.1973 67.6886 76.12 68.0993 76.12C68.59 76.12 68.9473 76.2213 69.1713 76.424C69.4006 76.6267 69.5153 76.9893 69.5153 77.512C69.5153 77.528 69.5126 77.6533 69.5073 77.888C69.502 78.1227 69.4993 78.352 69.4993 78.576C69.4993 79.184 69.55 79.64 69.6513 79.944C69.4966 80.0027 69.3446 80.032 69.1953 80.032C68.8966 80.032 68.718 79.9093 68.6593 79.664C68.3393 79.9413 67.9793 80.08 67.5793 80.08C67.27 80.08 67.0113 79.984 66.8033 79.792C66.6006 79.6 66.4993 79.3173 66.4993 78.944C66.4993 78.6453 66.5633 78.424 66.6913 78.28C66.8193 78.136 66.99 78.0293 67.2033 77.96C67.5233 77.8587 68.006 77.8053 68.6513 77.8ZM70.8396 74.056C71.2183 74.056 71.4076 74.2027 71.4076 74.496C71.4076 74.528 71.3996 74.6533 71.3836 74.872C71.3676 75.0853 71.3516 75.3947 71.3356 75.8C71.325 76.2053 71.3196 76.656 71.3196 77.152C71.3196 78.176 71.3303 78.8347 71.3516 79.128C71.373 79.4213 71.4343 79.688 71.5356 79.928C71.381 79.9973 71.2236 80.032 71.0636 80.032C70.8343 80.032 70.6796 79.984 70.5996 79.888C70.5196 79.7867 70.4796 79.6187 70.4796 79.384C70.4903 78.3813 70.4956 77.6453 70.4956 77.176C70.4956 75.56 70.4716 74.5333 70.4236 74.096C70.573 74.0693 70.7116 74.056 70.8396 74.056Z" fill="white"/>
</g>
<defs>
<filter id="filter0_ii_1001_9765" x="1.35547" y="1.66406" width="112.282" height="112.673" filterUnits="userSpaceOnUse" color-interpolation-filters="sRGB">
<feFlood flood-opacity="0" result="BackgroundImageFix"/>
<feBlend mode="normal" in="SourceGraphic" in2="BackgroundImageFix" result="shape"/>
<feColorMatrix in="SourceAlpha" type="matrix" values="0 0 0 0 0 0 0 0 0 0 0 0 0 0 0 0 0 0 127 0" result="hardAlpha"/>
<feOffset dx="1" dy="1"/>
<feGaussianBlur stdDeviation="2"/>
<feComposite in2="hardAlpha" operator="arithmetic" k2="-1" k3="1"/>
<feColorMatrix type="matrix" values="0 0 0 0 0.747939 0 0 0 0 0.481332 0 0 0 0 0.725722 0 0 0 0.25 0"/>
<feBlend mode="normal" in2="shape" result="effect1_innerShadow_1001_9765"/>
<feColorMatrix in="SourceAlpha" type="matrix" values="0 0 0 0 0 0 0 0 0 0 0 0 0 0 0 0 0 0 127 0" result="hardAlpha"/>
<feOffset dx="-1" dy="-1"/>
<feGaussianBlur stdDeviation="2"/>
<feComposite in2="hardAlpha" operator="arithmetic" k2="-1" k3="1"/>
<feColorMatrix type="matrix" values="0 0 0 0 0.937255 0 0 0 0 0.87451 0 0 0 0 0.933333 0 0 0 0.4 0"/>
<feBlend mode="normal" in2="effect1_innerShadow_1001_9765" result="effect2_innerShadow_1001_9765"/>
</filter>
<filter id="filter1_dd_1001_9765" x="32" y="65" width="52" height="26" filterUnits="userSpaceOnUse" color-interpolation-filters="sRGB">
<feFlood flood-opacity="0" result="BackgroundImageFix"/>
<feColorMatrix in="SourceAlpha" type="matrix" values="0 0 0 0 0 0 0 0 0 0 0 0 0 0 0 0 0 0 127 0" result="hardAlpha"/>
<feOffset dx="1" dy="1"/>
<feGaussianBlur stdDeviation="2"/>
<feComposite in2="hardAlpha" operator="out"/>
<feColorMatrix type="matrix" values="0 0 0 0 0.74902 0 0 0 0 0.482353 0 0 0 0 0.72549 0 0 0 0.2 0"/>
<feBlend mode="normal" in2="BackgroundImageFix" result="effect1_dropShadow_1001_9765"/>
<feColorMatrix in="SourceAlpha" type="matrix" values="0 0 0 0 0 0 0 0 0 0 0 0 0 0 0 0 0 0 127 0" result="hardAlpha"/>
<feOffset dx="1" dy="1"/>
<feGaussianBlur stdDeviation="2"/>
<feComposite in2="hardAlpha" operator="out"/>
<feColorMatrix type="matrix" values="0 0 0 0 0.952941 0 0 0 0 0.901961 0 0 0 0 0.94902 0 0 0 0.4 0"/>
<feBlend mode="normal" in2="effect1_dropShadow_1001_9765" result="effect2_dropShadow_1001_9765"/>
<feBlend mode="normal" in="SourceGraphic" in2="effect2_dropShadow_1001_9765" result="shape"/>
</filter>
<linearGradient id="paint0_linear_1001_9765" x1="57" y1="70" x2="57" y2="84" gradientUnits="userSpaceOnUse">
<stop stop-color="#93D056"/>
<stop offset="1" stop-color="#35A329"/>
</linearGradient>
</defs>
</svg>
