<svg width="20" height="20" viewBox="0 0 20 20" fill="none" xmlns="http://www.w3.org/2000/svg">
<g clip-path="url(#clip0_1001_9053)">
<path d="M19.4784 17.0049L11.636 9.1625L2.47348 0H1.75742L1.61121 0.371523C1.22532 1.35215 1.06043 2.35512 1.13446 3.27188C1.21883 4.31687 1.61582 5.2216 2.28258 5.88836L9.43531 13.0411L10.3788 12.0977L16.9914 19.4919C17.6493 20.1497 18.7815 20.1888 19.4784 19.4919C20.1641 18.8062 20.1641 17.6906 19.4784 17.0049Z" fill="#16AA16"/>
<path d="M6.12402 11.3848L0.522031 16.9868C-0.163594 17.6724 -0.163594 18.788 0.522031 19.4737C1.17336 20.125 2.30012 20.1825 3.00895 19.4737L8.61098 13.8716L6.12402 11.3848Z" fill="#16AA16"/>
<path d="M19.1523 3.32961L15.9745 6.50735L15.1455 5.67836L18.3233 2.50059L17.4943 1.6716L14.3166 4.84934L13.4876 4.02035L16.6653 0.842618L15.8364 0.0136719L11.6915 4.1586C11.1844 4.66567 10.8816 5.33895 10.8388 6.0545C10.828 6.23579 10.7869 6.41411 10.7188 6.58371L13.4113 9.27626C13.5809 9.20801 13.7593 9.16696 13.9405 9.15614C14.6561 9.11344 15.3293 8.81059 15.8364 8.30352L19.9813 4.15864L19.1523 3.32961Z" fill="#16AA16"/>
</g>
<defs>
<clipPath id="clip0_1001_9053">
<rect width="20" height="20" fill="white"/>
</clipPath>
</defs>
</svg>
