<svg width="12" height="12" viewBox="0 0 12 12" fill="none" xmlns="http://www.w3.org/2000/svg">
<path d="M1.95 1.2C1.536 1.2 1.2 1.536 1.2 1.95V3.6C1.2 3.75913 1.13679 3.91174 1.02426 4.02426C0.911742 4.13679 0.75913 4.2 0.6 4.2C0.44087 4.2 0.288258 4.13679 0.175736 4.02426C0.0632141 3.91174 0 3.75913 0 3.6V1.95C0 1.43283 0.205446 0.936838 0.571142 0.571142C0.936838 0.205446 1.43283 0 1.95 0H3.6C3.75913 0 3.91174 0.0632141 4.02426 0.175736C4.13679 0.288258 4.2 0.44087 4.2 0.6C4.2 0.75913 4.13679 0.911742 4.02426 1.02426C3.91174 1.13679 3.75913 1.2 3.6 1.2H1.95ZM1.95 10.8C1.536 10.8 1.2 10.464 1.2 10.05V8.4C1.2 8.24087 1.13679 8.08826 1.02426 7.97574C0.911742 7.86321 0.75913 7.8 0.6 7.8C0.44087 7.8 0.288258 7.86321 0.175736 7.97574C0.0632141 8.08826 0 8.24087 0 8.4V10.05C0 10.3061 0.0504382 10.5596 0.148435 10.7962C0.246432 11.0328 0.390067 11.2478 0.571142 11.4289C0.752216 11.6099 0.967183 11.7536 1.20377 11.8516C1.44035 11.9496 1.69392 12 1.95 12H3.6C3.75913 12 3.91174 11.9368 4.02426 11.8243C4.13679 11.7117 4.2 11.5591 4.2 11.4C4.2 11.2409 4.13679 11.0883 4.02426 10.9757C3.91174 10.8632 3.75913 10.8 3.6 10.8H1.95ZM10.8 1.95C10.8 1.536 10.464 1.2 10.05 1.2H8.4C8.24087 1.2 8.08826 1.13679 7.97574 1.02426C7.86321 0.911742 7.8 0.75913 7.8 0.6C7.8 0.44087 7.86321 0.288258 7.97574 0.175736C8.08826 0.0632141 8.24087 0 8.4 0H10.05C10.3061 0 10.5596 0.0504382 10.7962 0.148435C11.0328 0.246432 11.2478 0.390067 11.4289 0.571142C11.6099 0.752216 11.7536 0.967183 11.8516 1.20377C11.9496 1.44035 12 1.69392 12 1.95V3.6C12 3.75913 11.9368 3.91174 11.8243 4.02426C11.7117 4.13679 11.5591 4.2 11.4 4.2C11.2409 4.2 11.0883 4.13679 10.9757 4.02426C10.8632 3.91174 10.8 3.75913 10.8 3.6V1.95ZM10.05 10.8C10.464 10.8 10.8 10.464 10.8 10.05V8.4C10.8 8.24087 10.8632 8.08826 10.9757 7.97574C11.0883 7.86321 11.2409 7.8 11.4 7.8C11.5591 7.8 11.7117 7.86321 11.8243 7.97574C11.9368 8.08826 12 8.24087 12 8.4V10.05C12 10.3061 11.9496 10.5596 11.8516 10.7962C11.7536 11.0328 11.6099 11.2478 11.4289 11.4289C11.2478 11.6099 11.0328 11.7536 10.7962 11.8516C10.5596 11.9496 10.3061 12 10.05 12H8.4C8.24087 12 8.08826 11.9368 7.97574 11.8243C7.86321 11.7117 7.8 11.5591 7.8 11.4C7.8 11.2409 7.86321 11.0883 7.97574 10.9757C8.08826 10.8632 8.24087 10.8 8.4 10.8H10.05ZM6 6.6C6.15913 6.6 6.31174 6.53679 6.42426 6.42426C6.53679 6.31174 6.6 6.15913 6.6 6C6.6 5.84087 6.53679 5.68826 6.42426 5.57574C6.31174 5.46321 6.15913 5.4 6 5.4C5.84087 5.4 5.68826 5.46321 5.57574 5.57574C5.46321 5.68826 5.4 5.84087 5.4 6C5.4 6.15913 5.46321 6.31174 5.57574 6.42426C5.68826 6.53679 5.84087 6.6 6 6.6ZM5.3088 3C5.025 3 4.7652 3.1578 4.638 3.4068L4.3452 4.2H4.0002C3.4482 4.2 3 4.5576 3 5.1V7.4184C3 7.9602 3.4476 8.4 4.0002 8.4H7.9998C8.5518 8.4 9 7.9602 9 7.4184V5.1C9 4.5576 8.5524 4.2 7.9998 4.2H7.6548L7.362 3.4068C7.29864 3.28368 7.20243 3.1805 7.08403 3.1087C6.96563 3.0369 6.82967 2.99928 6.6912 3H5.3088ZM6 7.2C5.68174 7.2 5.37652 7.07357 5.15147 6.84853C4.92643 6.62348 4.8 6.31826 4.8 6C4.8 5.68174 4.92643 5.37652 5.15147 5.15147C5.37652 4.92643 5.68174 4.8 6 4.8C6.31826 4.8 6.62348 4.92643 6.84853 5.15147C7.07357 5.37652 7.2 5.68174 7.2 6C7.2 6.31826 7.07357 6.62348 6.84853 6.84853C6.62348 7.07357 6.31826 7.2 6 7.2Z" fill="#F9ABE2"/>
</svg>
