<svg width="30" height="31" viewBox="0 0 30 31" fill="none" xmlns="http://www.w3.org/2000/svg">
<path d="M30 11.623L23.6854 28.0431C22.9696 29.195 21.1689 30.8563 15 30.8563C8.8311 30.8563 6.72004 29.6225 6.31455 28.0431L0 11.623H30Z" fill="#DAE0D3"/>
<path d="M15 18.0791C23.2843 18.0791 30 15.1886 30 11.623C30 8.05747 23.2843 5.16699 15 5.16699C6.71573 5.16699 0 8.05747 0 11.623C0 15.1886 6.71573 18.0791 15 18.0791Z" fill="#EFEFEF"/>
<path d="M1.76758 11.3738C1.76758 14.5193 7.69235 17.069 14.9999 17.069C22.308 17.069 28.2319 14.5193 28.2319 11.3738C28.2319 8.22837 22.308 5.67871 14.9999 5.67871C7.69235 5.67912 1.76758 8.22878 1.76758 11.3738Z" fill="#B8B8B8"/>
<path d="M1.76758 11.8878C1.76758 14.7495 7.69235 17.0695 14.9999 17.0695C22.308 17.0695 28.2319 14.7495 28.2319 11.8878C28.2319 9.02663 22.308 6.70703 14.9999 6.70703C7.69235 6.70662 1.76758 9.02663 1.76758 11.8878Z" fill="#FFC904"/>
<path d="M6.03711 11.8871C6.04373 12.3224 6.26469 12.7167 6.54481 13.0316C6.82162 13.3593 7.18864 13.5914 7.54737 13.8181C8.28885 14.2427 9.10108 14.5306 9.92573 14.7475C11.5829 15.1683 13.2971 15.3081 14.999 15.2932C16.7012 15.2601 18.4039 15.059 20.0337 14.606C20.8468 14.3825 21.6458 14.0875 22.3612 13.6663C22.7054 13.4428 23.0576 13.2136 23.3091 12.9058C23.5665 12.6083 23.7531 12.2562 23.7543 11.8875C23.7514 11.5192 23.5669 11.1671 23.3091 10.8696C23.0576 10.5618 22.7054 10.3321 22.3612 10.1091C21.6462 9.68788 20.8472 9.39286 20.0341 9.16943C18.4039 8.71842 16.7016 8.51567 14.9994 8.48257C13.2975 8.46767 11.5833 8.60753 9.92614 9.0275C9.10149 9.2439 8.28926 9.53189 7.54778 9.95641C7.18905 10.1832 6.82203 10.4149 6.54522 10.7426C6.26468 11.0575 6.04373 11.4514 6.03711 11.8871ZM6.03711 11.8871C6.03876 11.4518 6.25558 11.0529 6.53363 10.7326C6.80838 10.3996 7.17415 10.1625 7.53206 9.93035C8.27188 9.49506 9.08494 9.19632 9.91 8.96916C11.5638 8.5107 13.2814 8.30796 14.999 8.27444C16.7161 8.25996 18.4457 8.39982 20.126 8.82724C20.9626 9.04737 21.7893 9.33866 22.5552 9.77767C22.928 10.0131 23.3087 10.2527 23.6083 10.6056C23.9087 10.9437 24.1611 11.3847 24.1665 11.8871C24.1594 12.3894 23.9078 12.8301 23.6074 13.1681C23.3079 13.521 22.9272 13.7606 22.5544 13.9961C21.7885 14.4347 20.9618 14.7264 20.1252 14.9465C18.4444 15.3723 16.7153 15.5138 14.9981 15.4989C13.2806 15.4658 11.563 15.2626 9.90917 14.805C9.0837 14.5778 8.27106 14.2795 7.53124 13.8438C7.17291 13.6117 6.80713 13.3746 6.53281 13.0415C6.25517 12.7212 6.03876 12.3224 6.03711 11.8871Z" fill="#FBAA33"/>
<path d="M14.2246 14.3732C15.0939 14.3248 15.9542 14.2619 16.8028 14.1303C17.6494 13.9958 18.4885 13.8158 19.2817 13.5245C19.6781 13.3834 20.0666 13.2134 20.4084 12.9866C20.7531 12.7686 21.058 12.4839 21.1946 12.1363C21.3381 11.7846 21.1867 11.3779 20.9099 11.0725C20.643 10.751 20.2781 10.5094 19.9082 10.2822C20.319 10.4262 20.7133 10.6323 21.0555 10.9318C21.2219 11.0858 21.365 11.2761 21.4577 11.5C21.4991 11.6133 21.5326 11.7333 21.5384 11.8579C21.5351 11.9795 21.5305 12.1086 21.4999 12.2269C21.3655 12.7148 20.991 13.0495 20.6273 13.3119C20.252 13.5746 19.8399 13.7571 19.424 13.9131C18.5853 14.2097 17.7148 14.3835 16.8401 14.4452C16.4023 14.4745 15.9649 14.4899 15.5284 14.4828C15.091 14.465 14.6558 14.4319 14.2246 14.3732Z" fill="#FBAA33"/>
<path d="M17.5367 9.58848C16.974 9.54089 16.4141 9.50241 15.8535 9.50655C15.2936 9.49538 14.7346 9.51897 14.1789 9.56489C13.0696 9.65965 11.9632 9.83012 10.9193 10.1789C10.3992 10.349 9.88773 10.5662 9.45948 10.8782C9.2526 11.0367 9.04654 11.208 8.92489 11.4215C8.80738 11.6313 8.73911 11.8663 8.79331 12.1021C8.90048 12.5834 9.36514 12.9607 9.82318 13.2425C10.2912 13.5387 10.8154 13.7469 11.3438 13.943C10.7893 13.8367 10.2448 13.6662 9.72471 13.42C9.46859 13.2892 9.22115 13.1341 8.99812 12.9375C8.77924 12.741 8.57277 12.4969 8.48505 12.1816C8.38534 11.8683 8.45899 11.5162 8.61084 11.2411C8.76352 10.9572 8.99523 10.7541 9.2257 10.5641C9.70319 10.2029 10.244 9.97329 10.7881 9.78709C11.8854 9.43208 13.0258 9.26987 14.1632 9.24877C15.2986 9.22063 16.439 9.31911 17.5367 9.58848Z" fill="#FBAA33"/>
<path d="M5.88672 14.2939C6.56034 14.6241 7.25878 14.8889 7.97584 15.0896C8.68918 15.3019 9.41618 15.4641 10.1494 15.5874C11.6158 15.8323 13.1004 15.9648 14.5871 15.9796C16.0737 16.0078 17.5621 15.9209 19.0372 15.7297C19.7749 15.6337 20.5089 15.5034 21.2322 15.3271C21.9596 15.1633 22.6726 14.9411 23.3739 14.6746C22.0403 15.371 20.5677 15.7781 19.0864 16.0446C17.6014 16.3132 16.0891 16.4129 14.5813 16.3934C13.0735 16.3678 11.5641 16.2225 10.089 15.8986C8.6205 15.5746 7.15534 15.107 5.88672 14.2939Z" fill="#FBAA33"/>
<path d="M9.00317 8.28126C8.65354 8.53862 8.28487 8.68427 7.9104 8.8175C7.53139 8.93874 7.15279 9.04425 6.71875 9.05832C7.01997 8.74385 7.39402 8.56097 7.77841 8.42525C8.16777 8.30236 8.57244 8.22291 9.00317 8.28126Z" fill="#FBAA33"/>
<path d="M25.0507 10.1475C24.5455 9.7706 23.9951 9.46897 23.4163 9.2356C22.8432 8.99106 22.2507 8.79452 21.6507 8.6286C20.445 8.31496 19.2173 8.08325 17.9756 7.9554C16.7356 7.81472 15.486 7.76175 14.2351 7.75472C12.9835 7.75513 11.7318 7.83167 10.4785 7.9645C11.0901 7.80933 11.7132 7.70548 12.338 7.6099C12.9644 7.52921 13.5946 7.47211 14.2264 7.43652C15.4905 7.36825 16.7604 7.41046 18.0211 7.54411C19.2811 7.68396 20.5331 7.93098 21.7418 8.32489C22.9351 8.73618 24.142 9.25339 25.0507 10.1475Z" fill="#FBAA33"/>
<path d="M10.9147 7.67926C11.7869 8.12034 12.9194 8.16462 13.8934 8.15676C14.6568 8.15179 15.5262 8.19772 16.2619 7.95566C17.391 7.5783 18.4884 6.4905 19.1131 5.48504C19.3469 5.08906 19.5013 4.56068 19.656 4.13863C19.6812 4.06622 19.7201 3.98554 19.7632 3.9003C19.6808 3.66693 19.5857 3.43067 19.4719 3.19482C18.4668 1.02543 16.2167 0.182573 13.8107 0.268637C10.997 0.369183 8.87895 2.28411 8.3998 4.36579C8.35801 4.56192 8.32946 4.76053 8.3125 4.96162C8.74613 6.14087 9.87614 7.16081 10.9147 7.67926Z" fill="#C37C27"/>
<path d="M19.7639 3.90039C19.7134 4.00342 19.682 4.0659 19.6567 4.13831C19.502 4.56077 19.3476 5.08874 19.1139 5.48471C18.4891 6.49018 17.3913 7.57798 16.2626 7.95534C15.5269 8.1974 14.658 8.15146 13.8941 8.15643C12.9201 8.16429 11.7876 8.12002 10.9154 7.67894C9.87726 7.1609 8.74808 6.14178 8.31445 4.96378C8.31445 5.95269 8.36286 6.63955 8.69347 7.44061C9.02531 8.24456 9.55783 8.96163 10.2356 9.50698C10.946 10.0784 11.8013 10.4462 12.7004 10.5898C14.6584 10.9026 16.8832 10.6453 18.4634 9.30257C19.2053 8.6724 19.7374 7.82831 19.9662 6.88036C20.085 6.38798 20.1421 5.87573 20.0808 5.37383C19.9886 4.61994 19.8404 4.09776 19.7639 3.90039Z" fill="#B56C1B"/>
<g opacity="0.15">
<path d="M10.335 2.22252C10.2328 2.31106 10.1525 2.41782 10.1107 2.53699C9.98618 2.88993 10.1749 3.13323 10.5663 3.17336C9.5 3.06247 8.46309 4.66583 9.78178 5.11891C10.9457 5.50702 12.1523 4.25744 11.2473 3.2226C11.3322 3.32067 11.9441 2.50388 11.4178 2.08556C11.1352 1.86088 10.6379 1.96019 10.335 2.22252Z" fill="#EEE8E8"/>
</g>
<path d="M13.6839 1.40654C13.3181 1.39371 12.8873 1.26628 12.541 1.05194C12.5509 1.20421 12.6147 1.35689 12.7049 1.48226C12.8381 1.66804 13.0309 1.79176 13.251 1.86665C13.7385 2.03216 14.3604 1.9581 14.7721 1.78225C15.0745 1.65315 15.5711 1.23318 15.5346 0.854162C15.5346 0.852506 15.5334 0.851264 15.5334 0.849609C15.2309 1.20256 14.2164 1.42516 13.6839 1.40654Z" fill="#E5D7B9"/>
<path d="M14.0504 0.000995164C13.5423 0.0225112 12.9411 0.321671 12.6303 0.723856C12.5521 0.824815 12.5331 0.938188 12.5406 1.05198C12.8869 1.26631 13.3176 1.39333 13.6834 1.40657C14.2159 1.42519 15.2305 1.203 15.5334 0.850052C15.4713 0.258361 14.513 -0.0188658 14.0504 0.000995164Z" fill="#E7E1D9"/>
<path d="M9.99561 5.50195C10.044 5.7018 10.0862 5.89131 10.1255 6.01627C10.2766 6.54879 10.5149 6.94187 10.7735 7.4206C11.1372 8.23325 11.2609 9.04051 11.0383 9.89702C10.8103 10.9931 9.98443 11.3005 9.03028 11.6965C6.80378 12.6126 4.62818 13.3586 2.39258 12.6279C2.92924 13.4194 3.52175 13.8539 3.98724 14.1696C4.65838 14.6248 5.41723 14.9521 6.21498 15.1031C8.60575 15.5553 12.7463 13.6603 12.825 10.857C12.8837 8.75295 11.7305 6.66299 9.99561 5.50195Z" fill="#D4872A"/>
<path d="M9.03106 11.6969C9.98521 11.3009 10.8111 10.9935 11.0391 9.89743C11.2617 9.04051 11.1384 8.23366 10.7743 7.42101C10.5157 6.94228 10.2773 6.54919 10.1263 6.01667C10.087 5.89213 10.0448 5.70262 9.99639 5.50236C8.1398 4.25898 5.66338 4.08644 3.49854 5.83503C1.1417 7.85754 0.889307 10.6054 2.39336 12.6283C4.62896 13.359 6.80456 12.613 9.03106 11.6969Z" fill="#DA962F"/>
<g opacity="0.5">
<g opacity="0.3">
<path d="M3.89638 6.11231C3.70936 7.03915 5.08969 6.50332 4.89191 6.0188C4.77357 5.69192 4.21746 5.77384 4.02671 5.90583L3.89638 6.11231Z" fill="#FFF9F9"/>
</g>
<g opacity="0.3">
<path d="M3.6271 6.98769C2.78136 6.80398 2.35848 8.35354 2.34979 8.93034C2.34565 9.18026 2.41021 10.0666 2.69074 10.1452C3.16699 10.2801 3.31512 9.05157 3.42394 8.77725C3.59069 8.35934 4.5374 7.2045 3.64117 6.99017C3.63579 6.98976 3.63207 6.98976 3.6271 6.98769Z" fill="#FFF9F9"/>
</g>
</g>
<path d="M6.66777 6.11516C6.32021 5.99972 5.94285 5.75642 5.671 5.45312C5.6379 5.60208 5.6561 5.76635 5.707 5.91241C5.78272 6.12798 5.93292 6.30135 6.12284 6.435C6.54364 6.73126 7.1614 6.83512 7.60621 6.78216C7.93308 6.74326 8.52726 6.4801 8.59925 6.10647C8.59967 6.10481 8.59884 6.10357 8.59925 6.10191C8.20948 6.35514 7.1734 6.28274 6.66777 6.11516Z" fill="#F6E7C7"/>
<path d="M7.41438 4.87108C6.92075 4.74861 6.25954 4.86653 5.84826 5.16486C5.74481 5.23975 5.69475 5.3432 5.66992 5.4545C5.94177 5.75738 6.31913 6.00109 6.6667 6.11653C7.17233 6.28452 8.2084 6.35652 8.59859 6.10329C8.70534 5.51863 7.86415 4.9828 7.41438 4.87108Z" fill="#F8F2E9"/>
<path d="M25.1855 5.92676C25.2339 6.12661 25.2761 6.31611 25.3154 6.44107C25.4668 6.97359 25.7048 7.36668 25.9634 7.84541C26.3271 8.65806 26.4508 9.46532 26.2278 10.3218C25.9998 11.4179 25.1739 11.7253 24.2197 12.1213C21.9932 13.0378 19.8176 13.7834 17.582 13.0527C18.1187 13.8443 18.7112 14.2787 19.1767 14.5944C19.8478 15.0496 20.6063 15.3769 21.4044 15.5279C23.7952 15.9801 27.9358 14.0851 28.0144 11.2818C28.0736 9.17734 26.9204 7.0878 25.1855 5.92676Z" fill="#D4872A"/>
<path d="M24.2201 12.1207C25.1742 11.7248 26.0001 11.4177 26.2281 10.3213C26.4511 9.46475 26.3274 8.65749 25.9637 7.84484C25.7051 7.36611 25.4668 6.97302 25.3158 6.4405C25.2765 6.31596 25.2343 6.12645 25.1858 5.92619C23.3293 4.68281 20.8528 4.51026 18.688 6.25886C16.3312 8.28095 16.0788 11.0292 17.5828 13.0521C19.818 13.7829 21.9936 13.0372 24.2201 12.1207Z" fill="#DA962F"/>
<g opacity="0.5">
<g opacity="0.3">
<path d="M19.0878 6.53695C18.9008 7.46379 20.2811 6.92796 20.0833 6.44344C19.965 6.11656 19.4089 6.1989 19.2181 6.33048L19.0878 6.53695Z" fill="#FFF9F9"/>
</g>
<g opacity="0.3">
<path d="M18.8165 7.41152C17.9708 7.2278 17.5475 8.77738 17.5392 9.35417C17.5355 9.60409 17.5996 10.49 17.8802 10.569C18.3564 10.7039 18.5045 9.47541 18.6134 9.20108C18.7801 8.78317 19.7268 7.62834 18.8306 7.41401C18.8256 7.41318 18.8215 7.41317 18.8165 7.41152Z" fill="#FFF9F9"/>
</g>
</g>
<path d="M21.8572 6.53996C21.5097 6.42452 21.1323 6.18122 20.8605 5.87793C20.8274 6.02689 20.8456 6.19115 20.8965 6.33721C20.9722 6.55279 21.122 6.72616 21.3123 6.85981C21.7331 7.15607 22.3509 7.25992 22.7957 7.20696C23.1225 7.16807 23.7167 6.90491 23.7887 6.53127C23.7891 6.52962 23.7883 6.52837 23.7887 6.52672C23.3993 6.78036 22.3629 6.70796 21.8572 6.53996Z" fill="#F6E7C7"/>
<path d="M22.6058 5.29491C22.1122 5.17243 21.451 5.29036 21.0397 5.58869C20.9362 5.66358 20.8862 5.76702 20.8613 5.87791C21.1332 6.18079 21.5105 6.4245 21.8581 6.53995C22.3637 6.70794 23.3998 6.77993 23.79 6.52671C23.8972 5.94205 23.0556 5.40621 22.6058 5.29491Z" fill="#F8F2E9"/>
<path d="M11.7061 13.9879C12.5784 14.4289 13.7108 14.4732 14.6849 14.4653C15.4483 14.4604 16.3176 14.5063 17.0533 14.2643C18.1825 13.8869 19.2798 12.7991 19.9046 11.7936C20.1384 11.3977 20.2927 10.8693 20.4474 10.4472C20.4731 10.3748 20.5116 10.2941 20.5546 10.2089C20.4723 9.97552 20.3771 9.73926 20.2629 9.50341C19.2579 7.33401 17.0078 6.49117 14.6017 6.57723C11.7881 6.67778 9.66997 8.5927 9.19082 10.6744C9.14903 10.8705 9.12048 11.0691 9.10352 11.2702C9.53756 12.4495 10.6676 13.4694 11.7061 13.9879Z" fill="#E8A436"/>
<path d="M20.5549 10.208C20.5044 10.311 20.473 10.3735 20.4477 10.4459C20.293 10.8684 20.1386 11.3964 19.9049 11.7923C19.2801 12.7978 18.1823 13.8856 17.0536 14.263C16.3179 14.505 15.449 14.4591 14.6852 14.464C13.7111 14.4719 12.5787 14.4276 11.7064 13.9866C10.6683 13.4685 9.5391 12.4494 9.10547 11.2714C9.10547 12.2607 9.15388 12.9472 9.48448 13.7482C9.81633 14.5522 10.3489 15.2697 11.0266 15.8146C11.737 16.386 12.5923 16.7539 13.4914 16.8974C15.4494 17.2102 17.6742 16.9529 19.2544 15.6102C19.9963 14.98 20.5284 14.1359 20.7572 13.188C20.876 12.6956 20.9331 12.1833 20.8718 11.6814C20.7796 10.9276 20.6315 10.4054 20.5549 10.208Z" fill="#E08E2D"/>
<g opacity="0.3">
<path d="M11.126 8.53032C11.0238 8.61887 10.9435 8.72603 10.9017 8.84478C10.7772 9.19773 10.9659 9.44102 11.3573 9.48116C10.291 9.37027 9.2541 10.9736 10.5728 11.4267C11.7367 11.8148 12.9429 10.5652 12.0384 9.5304C12.1232 9.62846 12.7352 8.81168 12.2088 8.39336C11.9262 8.16827 11.4289 8.26799 11.126 8.53032Z" fill="#FFF9F9"/>
</g>
<path d="M14.4749 7.71416C14.1091 7.70133 13.6784 7.57389 13.332 7.35956C13.342 7.51183 13.4057 7.66451 13.4959 7.78988C13.6291 7.97566 13.8219 8.09938 14.0421 8.17427C14.5295 8.34019 15.1514 8.26572 15.5631 8.08986C15.8655 7.96035 16.3621 7.54079 16.3257 7.16178C16.3257 7.16012 16.3244 7.15888 16.3244 7.15723C16.022 7.51059 15.0074 7.73319 14.4749 7.71416Z" fill="#E5D7B9"/>
<path d="M14.8434 6.30861C14.3353 6.33013 13.734 6.62929 13.4233 7.03147C13.3451 7.13243 13.3261 7.24581 13.3335 7.35959C13.6798 7.57393 14.1106 7.70136 14.4764 7.71419C15.0085 7.73281 16.0234 7.51062 16.3263 7.15767C16.2647 6.56598 15.3064 6.28875 14.8434 6.30861Z" fill="#E7E1D9"/>
</svg>
