<svg width="16" height="16" viewBox="0 0 16 16" fill="none" xmlns="http://www.w3.org/2000/svg">
<path d="M7.82016 1.84651L7.47349 1.52651C7.37402 1.42488 7.24465 1.35773 7.10429 1.33485C6.96394 1.31198 6.81994 1.33459 6.69335 1.39937C6.56675 1.46416 6.46419 1.56773 6.40065 1.69495C6.33711 1.82218 6.31591 1.96639 6.34016 2.10651C6.4437 3.14825 6.23483 4.19723 5.74016 5.11985C5.43181 5.66801 5.07244 6.18586 4.66683 6.66651C3.82776 7.57596 3.3531 8.76262 3.33349 9.99985C3.32078 10.6162 3.4328 11.2287 3.66282 11.8006C3.89284 12.3726 4.23612 12.8921 4.67202 13.328C5.10792 13.7639 5.62744 14.1072 6.19937 14.3372C6.7713 14.5672 7.38384 14.6792 8.00016 14.6665C8.61648 14.6792 9.22901 14.5672 9.80094 14.3372C10.3729 14.1072 10.8924 13.7639 11.3283 13.328C11.7642 12.8921 12.1075 12.3726 12.3375 11.8006C12.5675 11.2287 12.6795 10.6162 12.6668 9.99985C12.6668 6.17318 9.14683 3.02651 7.82016 1.84651ZM8.00016 13.3332C7.67837 13.3418 7.36133 13.2543 7.08947 13.0819C6.81762 12.9095 6.60328 12.6601 6.47381 12.3653C6.34433 12.0706 6.3056 11.744 6.36253 11.4272C6.41947 11.1104 6.5695 10.8177 6.79349 10.5865C6.9344 10.4205 7.04906 10.2339 7.13349 10.0332C7.24942 9.70012 7.31677 9.35211 7.33349 8.99985C7.33382 8.93404 7.35362 8.8698 7.3904 8.81523C7.42718 8.76065 7.47929 8.71819 7.54016 8.69318C7.60025 8.66595 7.66739 8.65838 7.73203 8.67155C7.79668 8.68472 7.85551 8.71795 7.90016 8.76651L8.01349 8.86651C8.46683 9.26651 9.66683 10.3398 9.66683 11.6665C9.67137 11.8866 9.63136 12.1054 9.54921 12.3097C9.46706 12.5139 9.34446 12.6995 9.18878 12.8551C9.0331 13.0108 8.84756 13.1334 8.6433 13.2156C8.43904 13.2977 8.22027 13.3377 8.00016 13.3332Z" fill="white"/>
</svg>
