<svg width="360" height="60" viewBox="0 0 360 60" fill="none" xmlns="http://www.w3.org/2000/svg">
<path d="M-1 9C-1 4.02944 3.02945 0 8 0H350C354.971 0 359 4.02944 359 9V48C359 52.9706 354.971 57 350 57H185C180.029 57 176 52.9706 176 48V24C176 18.4772 171.523 14 166 14H136C130.477 14 126 18.4772 126 24V48C126 52.9706 121.971 57 117 57H8C3.02945 57 -1 52.9706 -1 48V9Z" fill="#F8FFFC"/>
<rect x="364" y="57" width="11" height="57" transform="rotate(180 364 57)" fill="#F8FFFC"/>
<rect x="4" y="57" width="5" height="57" transform="rotate(180 4 57)" fill="#F8FFFC"/>
<rect x="10" y="8" width="11" height="8" transform="rotate(180 10 8)" fill="#F8FFFC"/>
<rect x="8.5835" y="15.5352" width="49.5" height="33.9304" rx="5.75" fill="white" stroke="#EEE340" stroke-width="0.5"/>
<path d="M31.6575 33.1174C31.5575 32.8441 31.4575 32.5608 31.3575 32.2674C31.2641 31.9674 31.1641 31.6474 31.0575 31.3074C30.9508 30.9674 30.8775 30.7341 30.8375 30.6074C30.5175 31.6141 30.2241 32.4474 29.9575 33.1074C30.3841 33.1208 30.7108 33.1274 30.9375 33.1274C31.2841 33.1274 31.5241 33.1241 31.6575 33.1174ZM30.7275 33.8674C30.5541 33.8674 30.1941 33.8608 29.6475 33.8474C29.2141 34.9608 28.9475 35.7008 28.8475 36.0674C28.2541 36.0008 27.9575 35.8641 27.9575 35.6574C27.9575 35.5641 28.0975 35.1874 28.3775 34.5274C28.6641 33.8608 29.0108 33.0141 29.4175 31.9874C29.8241 30.9608 30.1441 30.0508 30.3775 29.2574C30.5108 29.2374 30.6841 29.2274 30.8975 29.2274C31.0708 29.2274 31.2041 29.2641 31.2975 29.3374C31.3975 29.4041 31.4841 29.5441 31.5575 29.7574C32.0708 31.3574 32.4441 32.4574 32.6775 33.0574C33.1775 34.3574 33.5541 35.2574 33.8075 35.7574C33.5541 35.8908 33.3408 35.9574 33.1675 35.9574C32.8875 35.9574 32.6941 35.8674 32.5875 35.6874C32.5075 35.4808 32.3941 35.1774 32.2475 34.7774C32.1075 34.3708 31.9975 34.0608 31.9175 33.8474C31.2641 33.8608 30.8675 33.8674 30.7275 33.8674ZM34.6799 28.4274C35.1532 28.4274 35.3899 28.6108 35.3899 28.9774C35.3899 29.0174 35.3799 29.1741 35.3599 29.4474C35.3399 29.7141 35.3199 30.1008 35.2999 30.6074C35.2866 31.1141 35.2799 31.6774 35.2799 32.2974C35.2799 33.5774 35.2932 34.4008 35.3199 34.7674C35.3466 35.1341 35.4232 35.4674 35.5499 35.7674C35.3566 35.8541 35.1599 35.8974 34.9599 35.8974C34.6732 35.8974 34.4799 35.8374 34.3799 35.7174C34.2799 35.5908 34.2299 35.3808 34.2299 35.0874C34.2432 33.8341 34.2499 32.9141 34.2499 32.3274C34.2499 30.3074 34.2199 29.0241 34.1599 28.4774C34.3466 28.4441 34.5199 28.4274 34.6799 28.4274ZM37.092 28.4274C37.5653 28.4274 37.802 28.6108 37.802 28.9774C37.802 29.0174 37.792 29.1741 37.772 29.4474C37.752 29.7141 37.732 30.1008 37.712 30.6074C37.6987 31.1141 37.692 31.6774 37.692 32.2974C37.692 33.5774 37.7053 34.4008 37.732 34.7674C37.7587 35.1341 37.8353 35.4674 37.962 35.7674C37.7687 35.8541 37.572 35.8974 37.372 35.8974C37.0853 35.8974 36.892 35.8374 36.792 35.7174C36.692 35.5908 36.642 35.3808 36.642 35.0874C36.6553 33.8341 36.662 32.9141 36.662 32.3274C36.662 30.3074 36.632 29.0241 36.572 28.4774C36.7587 28.4441 36.932 28.4274 37.092 28.4274Z" fill="#AB7D00"/>
<rect x="67.25" y="15.5352" width="49.5" height="33.9304" rx="5.75" fill="white" stroke="#7C1DC9" stroke-width="0.5"/>
<path d="M84.19 31.02C84.0833 30.8267 83.8867 30.66 83.6 30.52C83.3133 30.3733 83.0367 30.3 82.77 30.3C82.55 30.3 82.37 30.36 82.23 30.48C82.0967 30.5933 82.03 30.77 82.03 31.01C82.03 31.2233 82.1067 31.4033 82.26 31.55C82.42 31.6967 82.6133 31.8067 82.84 31.88C83.0733 31.9467 83.3267 32.0333 83.6 32.14C83.8733 32.2467 84.1233 32.36 84.35 32.48C84.5833 32.6 84.7767 32.7867 84.93 33.04C85.09 33.2933 85.17 33.6 85.17 33.96C85.17 34.3533 85.0933 34.6933 84.94 34.98C84.7933 35.2667 84.59 35.49 84.33 35.65C84.07 35.8033 83.79 35.9167 83.49 35.99C83.1967 36.0633 82.88 36.1 82.54 36.1C81.9267 36.1 81.3967 36.0133 80.95 35.84C80.51 35.6667 80.29 35.44 80.29 35.16C80.29 34.9533 80.3467 34.7867 80.46 34.66C80.5733 34.5333 80.7667 34.3967 81.04 34.25C81.2067 34.4833 81.4567 34.68 81.79 34.84C82.1233 34.9933 82.4467 35.07 82.76 35.07C83.0267 35.07 83.2433 35.0067 83.41 34.88C83.5767 34.7533 83.66 34.5567 83.66 34.29C83.66 34.0367 83.55 33.8333 83.33 33.68C83.1167 33.5267 82.8567 33.4033 82.55 33.31C82.2433 33.2167 81.9367 33.1067 81.63 32.98C81.3233 32.8467 81.06 32.63 80.84 32.33C80.6267 32.03 80.52 31.6433 80.52 31.17C80.52 30.83 80.5933 30.5333 80.74 30.28C80.8867 30.0267 81.0833 29.83 81.33 29.69C81.5833 29.5433 81.8567 29.4367 82.15 29.37C82.45 29.3033 82.7733 29.27 83.12 29.27C83.6667 29.27 84.1367 29.35 84.53 29.51C84.9233 29.67 85.12 29.8933 85.12 30.18C85.12 30.3533 85.0367 30.5167 84.87 30.67C84.71 30.8233 84.4833 30.94 84.19 31.02ZM86.6688 28.57C86.9221 28.57 87.1188 28.6133 87.2588 28.7C87.3988 28.7867 87.4688 28.9567 87.4688 29.21C87.4688 29.25 87.4554 29.5433 87.4288 30.09C87.4088 30.6367 87.3988 31.0467 87.3988 31.32V34.06C87.3988 34.94 87.4554 35.5533 87.5688 35.9C87.2888 35.9867 87.0121 36.03 86.7388 36.03C86.4254 36.03 86.2054 35.9767 86.0788 35.87C85.9588 35.7567 85.8988 35.5933 85.8988 35.38C85.8988 35.2733 85.9021 35.04 85.9088 34.68C85.9221 34.32 85.9288 34.0267 85.9288 33.8V31.04C85.9288 30.0867 85.9054 29.3067 85.8588 28.7C86.1121 28.6133 86.3821 28.57 86.6688 28.57ZM90.769 31.15C91.2623 31.15 91.689 31.2733 92.049 31.52C92.409 31.7667 92.589 32.1333 92.589 32.62C92.589 33.6067 91.8823 34.1 90.469 34.1C90.3423 34.1 90.1123 34.0933 89.779 34.08C89.779 34.46 89.8723 34.7367 90.059 34.91C90.2523 35.0833 90.489 35.17 90.769 35.17C91.2623 35.17 91.6457 35.01 91.919 34.69C92.0723 34.7633 92.1957 34.8633 92.289 34.99C92.389 35.11 92.439 35.2333 92.439 35.36C92.439 35.56 92.319 35.72 92.079 35.84C91.8457 35.96 91.6157 36.0333 91.389 36.06C91.169 36.0867 90.9557 36.1 90.749 36.1C90.0157 36.1 89.4157 35.9 88.949 35.5C88.4823 35.0933 88.249 34.4767 88.249 33.65C88.249 33.1033 88.3757 32.6367 88.629 32.25C88.889 31.8567 89.2023 31.5767 89.569 31.41C89.9423 31.2367 90.3423 31.15 90.769 31.15ZM90.689 32.1C90.449 32.1 90.239 32.21 90.059 32.43C89.879 32.6433 89.7857 32.96 89.779 33.38C89.9657 33.3667 90.0957 33.3567 90.169 33.35C90.249 33.3367 90.359 33.3133 90.499 33.28C90.6457 33.2467 90.749 33.2033 90.809 33.15C90.8757 33.09 90.9357 33.01 90.989 32.91C91.0423 32.8033 91.069 32.6733 91.069 32.52C91.069 32.4133 91.0323 32.3167 90.959 32.23C90.8857 32.1433 90.7957 32.1 90.689 32.1ZM95.6909 31.15C96.1842 31.15 96.6109 31.2733 96.9709 31.52C97.3309 31.7667 97.5109 32.1333 97.5109 32.62C97.5109 33.6067 96.8042 34.1 95.3909 34.1C95.2642 34.1 95.0342 34.0933 94.7009 34.08C94.7009 34.46 94.7942 34.7367 94.9809 34.91C95.1742 35.0833 95.4109 35.17 95.6909 35.17C96.1842 35.17 96.5675 35.01 96.8409 34.69C96.9942 34.7633 97.1175 34.8633 97.2109 34.99C97.3109 35.11 97.3609 35.2333 97.3609 35.36C97.3609 35.56 97.2409 35.72 97.0009 35.84C96.7675 35.96 96.5375 36.0333 96.3109 36.06C96.0909 36.0867 95.8775 36.1 95.6709 36.1C94.9375 36.1 94.3375 35.9 93.8709 35.5C93.4042 35.0933 93.1709 34.4767 93.1709 33.65C93.1709 33.1033 93.2975 32.6367 93.5509 32.25C93.8109 31.8567 94.1242 31.5767 94.4909 31.41C94.8642 31.2367 95.2642 31.15 95.6909 31.15ZM95.6109 32.1C95.3709 32.1 95.1609 32.21 94.9809 32.43C94.8009 32.6433 94.7075 32.96 94.7009 33.38C94.8875 33.3667 95.0175 33.3567 95.0909 33.35C95.1709 33.3367 95.2809 33.3133 95.4209 33.28C95.5675 33.2467 95.6709 33.2033 95.7309 33.15C95.7975 33.09 95.8575 33.01 95.9109 32.91C95.9642 32.8033 95.9909 32.6733 95.9909 32.52C95.9909 32.4133 95.9542 32.3167 95.8809 32.23C95.8075 32.1433 95.7175 32.1 95.6109 32.1ZM98.1927 31.4C98.4327 31.28 98.6961 31.22 98.9827 31.22C99.1294 31.22 99.2527 31.2333 99.3527 31.26C99.4527 31.28 99.5494 31.3467 99.6427 31.46C99.7361 31.5667 99.7894 31.72 99.8027 31.92C99.9494 31.6667 100.139 31.4767 100.373 31.35C100.613 31.2167 100.869 31.15 101.143 31.15C101.716 31.15 102.163 31.3633 102.483 31.79C102.809 32.21 102.973 32.75 102.973 33.41C102.973 33.85 102.906 34.2667 102.773 34.66C102.646 35.0533 102.426 35.3933 102.113 35.68C101.799 35.96 101.419 36.1 100.973 36.1C100.533 36.1 100.156 35.9533 99.8427 35.66C99.8427 35.7 99.8427 35.88 99.8427 36.2C99.8494 36.52 99.8527 36.74 99.8527 36.86C99.8594 36.9867 99.8694 37.17 99.8827 37.41C99.8961 37.6567 99.9161 37.86 99.9427 38.02C99.9694 38.1867 100.003 38.33 100.043 38.45C99.8161 38.5033 99.5627 38.53 99.2827 38.53C98.9227 38.53 98.6794 38.4867 98.5527 38.4C98.4261 38.3133 98.3627 38.1667 98.3627 37.96C98.3627 37.3067 98.3661 36.4967 98.3727 35.53C98.3861 34.5633 98.3927 33.89 98.3927 33.51C98.3927 32.45 98.3261 31.7467 98.1927 31.4ZM99.8627 34.92C100.083 35.0733 100.349 35.15 100.663 35.15C100.929 35.15 101.126 34.9933 101.253 34.68C101.386 34.36 101.453 33.9867 101.453 33.56C101.453 33.0667 101.389 32.7033 101.263 32.47C101.136 32.23 100.973 32.11 100.773 32.11C100.433 32.11 100.126 32.2767 99.8527 32.61C99.8594 33.1833 99.8627 33.9533 99.8627 34.92Z" fill="#553FB5"/>
<path d="M136.267 35.9905C136.134 36.0172 135.987 36.0305 135.827 36.0305C135.494 36.0305 135.27 35.9405 135.157 35.7605C134.844 35.2538 134.364 34.4372 133.717 33.3105C133.077 32.1838 132.594 31.3572 132.267 30.8305L132.317 33.4405C132.337 34.7872 132.404 35.6238 132.517 35.9505C132.37 36.0038 132.21 36.0305 132.037 36.0305C131.79 36.0305 131.62 35.9872 131.527 35.9005C131.44 35.8138 131.397 35.6672 131.397 35.4605C131.397 35.3538 131.4 35.0905 131.407 34.6705C131.414 34.2505 131.417 33.9238 131.417 33.6905V31.6905C131.417 30.5772 131.354 29.8172 131.227 29.4105C131.394 29.3572 131.597 29.3305 131.837 29.3305C132.144 29.3305 132.384 29.4272 132.557 29.6205C132.864 29.9605 133.324 30.6372 133.937 31.6505C134.55 32.6572 135.027 33.5138 135.367 34.2205C135.314 33.4605 135.287 32.6538 135.287 31.8005C135.287 30.8072 135.264 29.9972 135.217 29.3705C135.37 29.3505 135.507 29.3405 135.627 29.3405C136.067 29.3405 136.287 29.4672 136.287 29.7205C136.287 29.7605 136.28 29.8972 136.267 30.1305C136.254 30.3572 136.237 30.6438 136.217 30.9905C136.204 31.3305 136.197 31.6538 136.197 31.9605V33.6705C136.197 34.6105 136.22 35.3838 136.267 35.9905ZM140.489 35.5305C140.049 35.9105 139.542 36.1005 138.969 36.1005C137.989 36.1005 137.499 35.6272 137.499 34.6805C137.499 34.6338 137.502 34.3805 137.509 33.9205C137.522 33.4538 137.529 33.1172 137.529 32.9105C137.529 32.2238 137.472 31.6872 137.359 31.3005C137.539 31.2405 137.722 31.2105 137.909 31.2105C138.155 31.2105 138.332 31.2505 138.439 31.3305C138.545 31.4105 138.599 31.5438 138.599 31.7305C138.599 32.0772 138.589 32.5505 138.569 33.1505C138.549 33.7505 138.539 34.1372 138.539 34.3105C138.539 34.6505 138.609 34.9105 138.749 35.0905C138.895 35.2705 139.082 35.3605 139.309 35.3605C139.695 35.3605 140.065 35.1905 140.419 34.8505C140.412 34.5772 140.409 34.1538 140.409 33.5805C140.409 32.5805 140.385 31.8038 140.339 31.2505C140.525 31.2238 140.692 31.2105 140.839 31.2105C141.265 31.2105 141.479 31.3405 141.479 31.6005C141.479 31.7205 141.472 32.0538 141.459 32.6005C141.445 33.1472 141.439 33.6005 141.439 33.9605C141.439 34.7938 141.502 35.4472 141.629 35.9205C141.489 35.9938 141.322 36.0305 141.129 36.0305C141.002 36.0305 140.902 36.0205 140.829 36.0005C140.755 35.9872 140.685 35.9438 140.619 35.8705C140.552 35.7905 140.509 35.6772 140.489 35.5305ZM142.632 31.2605C142.692 31.2538 142.842 31.2505 143.082 31.2505C143.068 30.8572 143.048 30.5205 143.022 30.2405C143.162 30.2138 143.325 30.2005 143.512 30.2005C143.972 30.2005 144.202 30.3238 144.202 30.5705C144.202 30.7305 144.192 30.9605 144.172 31.2605C144.892 31.2605 145.392 31.2405 145.672 31.2005C145.712 31.2738 145.732 31.3772 145.732 31.5105C145.732 31.6905 145.692 31.8138 145.612 31.8805C145.532 31.9405 145.405 31.9738 145.232 31.9805C145.032 31.9872 144.672 31.9905 144.152 31.9905C144.138 32.6172 144.132 33.2938 144.132 34.0205C144.132 34.2338 144.138 34.4105 144.152 34.5505C144.165 34.6905 144.195 34.8305 144.242 34.9705C144.288 35.1105 144.358 35.2172 144.452 35.2905C144.545 35.3572 144.665 35.3905 144.812 35.3905C145.018 35.3905 145.232 35.2738 145.452 35.0405C145.625 35.2338 145.712 35.3972 145.712 35.5305C145.712 35.7238 145.612 35.8672 145.412 35.9605C145.218 36.0538 144.998 36.1005 144.752 36.1005C143.638 36.1005 143.082 35.4938 143.082 34.2805C143.082 33.9672 143.082 33.5338 143.082 32.9805C143.088 32.4205 143.092 32.0872 143.092 31.9805C142.665 32.0072 142.362 32.0338 142.182 32.0605C142.155 31.9872 142.142 31.8772 142.142 31.7305C142.142 31.5572 142.178 31.4405 142.252 31.3805C142.332 31.3205 142.458 31.2805 142.632 31.2605ZM146.892 31.2205C147.132 31.2205 147.302 31.2638 147.402 31.3505C147.509 31.4372 147.562 31.5738 147.562 31.7605V31.8805C147.949 31.3938 148.326 31.1505 148.692 31.1505C149.079 31.1505 149.272 31.2905 149.272 31.5705C149.272 31.7572 149.152 32.0005 148.912 32.3005C148.772 32.1805 148.616 32.1205 148.442 32.1205C148.102 32.1205 147.796 32.3038 147.522 32.6705C147.502 33.0972 147.492 33.5305 147.492 33.9705C147.492 34.8438 147.582 35.4905 147.762 35.9105C147.582 35.9972 147.386 36.0405 147.172 36.0405C146.886 36.0405 146.692 35.9772 146.592 35.8505C146.492 35.7238 146.442 35.5205 146.442 35.2405C146.442 35.1605 146.446 34.9338 146.452 34.5605C146.459 34.1872 146.462 33.8938 146.462 33.6805C146.462 32.5672 146.432 31.7638 146.372 31.2705C146.566 31.2372 146.739 31.2205 146.892 31.2205ZM150.606 31.2205C151.086 31.2205 151.326 31.3972 151.326 31.7505C151.326 31.7905 151.316 31.9272 151.296 32.1605C151.276 32.3872 151.256 32.6705 151.236 33.0105C151.223 33.3505 151.216 33.6738 151.216 33.9805C151.216 34.8738 151.303 35.5238 151.476 35.9305C151.31 36.0038 151.12 36.0405 150.906 36.0405C150.613 36.0405 150.413 35.9805 150.306 35.8605C150.206 35.7405 150.156 35.5372 150.156 35.2505C150.156 35.1438 150.16 34.8872 150.166 34.4805C150.173 34.0672 150.176 33.7505 150.176 33.5305C150.176 32.5638 150.146 31.8072 150.086 31.2605C150.246 31.2338 150.42 31.2205 150.606 31.2205ZM150.656 30.8005C150.456 30.8005 150.286 30.7338 150.146 30.6005C150.006 30.4672 149.936 30.2972 149.936 30.0905C149.936 29.8905 150.01 29.7238 150.156 29.5905C150.303 29.4505 150.476 29.3805 150.676 29.3805C150.87 29.3805 151.036 29.4505 151.176 29.5905C151.316 29.7238 151.386 29.8905 151.386 30.0905C151.386 30.2905 151.313 30.4605 151.166 30.6005C151.02 30.7338 150.85 30.8005 150.656 30.8005ZM152.427 31.2605C152.487 31.2538 152.637 31.2505 152.877 31.2505C152.863 30.8572 152.843 30.5205 152.817 30.2405C152.957 30.2138 153.12 30.2005 153.307 30.2005C153.767 30.2005 153.997 30.3238 153.997 30.5705C153.997 30.7305 153.987 30.9605 153.967 31.2605C154.687 31.2605 155.187 31.2405 155.467 31.2005C155.507 31.2738 155.527 31.3772 155.527 31.5105C155.527 31.6905 155.487 31.8138 155.407 31.8805C155.327 31.9405 155.2 31.9738 155.027 31.9805C154.827 31.9872 154.467 31.9905 153.947 31.9905C153.933 32.6172 153.927 33.2938 153.927 34.0205C153.927 34.2338 153.933 34.4105 153.947 34.5505C153.96 34.6905 153.99 34.8305 154.037 34.9705C154.083 35.1105 154.153 35.2172 154.247 35.2905C154.34 35.3572 154.46 35.3905 154.607 35.3905C154.813 35.3905 155.027 35.2738 155.247 35.0405C155.42 35.2338 155.507 35.3972 155.507 35.5305C155.507 35.7238 155.407 35.8672 155.207 35.9605C155.013 36.0538 154.793 36.1005 154.547 36.1005C153.433 36.1005 152.877 35.4938 152.877 34.2805C152.877 33.9672 152.877 33.5338 152.877 32.9805C152.883 32.4205 152.887 32.0872 152.887 31.9805C152.46 32.0072 152.157 32.0338 151.977 32.0605C151.95 31.9872 151.937 31.8772 151.937 31.7305C151.937 31.5572 151.973 31.4405 152.047 31.3805C152.127 31.3205 152.253 31.2805 152.427 31.2605ZM156.817 31.2205C157.297 31.2205 157.537 31.3972 157.537 31.7505C157.537 31.7905 157.527 31.9272 157.507 32.1605C157.487 32.3872 157.467 32.6705 157.447 33.0105C157.434 33.3505 157.427 33.6738 157.427 33.9805C157.427 34.8738 157.514 35.5238 157.687 35.9305C157.521 36.0038 157.331 36.0405 157.117 36.0405C156.824 36.0405 156.624 35.9805 156.517 35.8605C156.417 35.7405 156.367 35.5372 156.367 35.2505C156.367 35.1438 156.371 34.8872 156.377 34.4805C156.384 34.0672 156.387 33.7505 156.387 33.5305C156.387 32.5638 156.357 31.8072 156.297 31.2605C156.457 31.2338 156.631 31.2205 156.817 31.2205ZM156.867 30.8005C156.667 30.8005 156.497 30.7338 156.357 30.6005C156.217 30.4672 156.147 30.2972 156.147 30.0905C156.147 29.8905 156.221 29.7238 156.367 29.5905C156.514 29.4505 156.687 29.3805 156.887 29.3805C157.081 29.3805 157.247 29.4505 157.387 29.5905C157.527 29.7238 157.597 29.8905 157.597 30.0905C157.597 30.2905 157.524 30.4605 157.377 30.6005C157.231 30.7338 157.061 30.8005 156.867 30.8005ZM162.077 33.7505C162.077 33.2172 161.964 32.7738 161.737 32.4205C161.517 32.0605 161.217 31.8805 160.837 31.8805C160.451 31.8805 160.151 32.0272 159.937 32.3205C159.724 32.6138 159.617 33.0038 159.617 33.4905C159.617 34.0305 159.724 34.4772 159.937 34.8305C160.157 35.1838 160.457 35.3605 160.837 35.3605C161.231 35.3605 161.534 35.2138 161.747 34.9205C161.967 34.6272 162.077 34.2372 162.077 33.7505ZM160.837 36.1005C160.144 36.1005 159.584 35.8772 159.157 35.4305C158.737 34.9772 158.527 34.3738 158.527 33.6205C158.527 32.8672 158.737 32.2672 159.157 31.8205C159.584 31.3738 160.144 31.1505 160.837 31.1505C161.537 31.1505 162.101 31.3738 162.527 31.8205C162.954 32.2672 163.167 32.8672 163.167 33.6205C163.167 34.3738 162.954 34.9772 162.527 35.4305C162.101 35.8772 161.537 36.1005 160.837 36.1005ZM165.228 31.7105C165.701 31.3372 166.235 31.1505 166.828 31.1505C167.235 31.1505 167.565 31.2705 167.818 31.5105C168.071 31.7505 168.198 32.1372 168.198 32.6705C168.198 32.7438 168.191 33.0038 168.178 33.4505C168.171 33.8972 168.168 34.2238 168.168 34.4305C168.168 34.9772 168.255 35.4705 168.428 35.9105C168.221 35.9972 168.035 36.0405 167.868 36.0405C167.595 36.0405 167.401 35.9838 167.288 35.8705C167.175 35.7572 167.118 35.5438 167.118 35.2305C167.118 34.8838 167.125 34.4672 167.138 33.9805C167.151 33.4872 167.158 33.1472 167.158 32.9605C167.158 32.5938 167.085 32.3205 166.938 32.1405C166.791 31.9605 166.601 31.8705 166.368 31.8705C166.015 31.8705 165.648 32.0438 165.268 32.3905C165.281 33.2838 165.288 33.9338 165.288 34.3405C165.288 34.9805 165.308 35.5272 165.348 35.9805C165.168 36.0072 165.001 36.0205 164.848 36.0205C164.415 36.0205 164.198 35.8872 164.198 35.6205C164.198 35.4272 164.205 35.1138 164.218 34.6805C164.238 34.2472 164.248 33.8572 164.248 33.5105C164.248 32.4038 164.185 31.6772 164.058 31.3305C164.218 31.2572 164.391 31.2205 164.578 31.2205C164.771 31.2205 164.921 31.2505 165.028 31.3105C165.135 31.3705 165.201 31.5038 165.228 31.7105Z" fill="#087B08"/>
<rect x="184.583" y="15.7505" width="49.5" height="33.5" rx="5.75" fill="white" stroke="#FDC78D" stroke-width="0.5"/>
<path d="M195.083 32.9405V34.0405C195.083 34.9272 195.147 35.5805 195.273 36.0005C195.087 36.0672 194.88 36.1005 194.653 36.1005C194.407 36.1005 194.237 36.0572 194.143 35.9705C194.057 35.8838 194.013 35.7372 194.013 35.5305C194.013 35.4238 194.017 35.1605 194.023 34.7405C194.03 34.3205 194.033 33.9938 194.033 33.7605V31.6805C194.033 30.7605 193.987 30.0105 193.893 29.4305C194.62 29.3705 195.363 29.3405 196.123 29.3405C197.11 29.3405 197.667 29.3905 197.793 29.4905C197.853 29.5505 197.883 29.6572 197.883 29.8105C197.883 30.0105 197.857 30.1905 197.803 30.3505C197.437 30.2105 196.857 30.1405 196.063 30.1405C195.743 30.1405 195.403 30.1505 195.043 30.1705C195.07 30.3772 195.083 30.8238 195.083 31.5105V32.1505H195.833C196.367 32.1505 196.747 32.1372 196.973 32.1105C197 32.1705 197.013 32.2772 197.013 32.4305C197.013 32.6172 196.98 32.7472 196.913 32.8205C196.847 32.8872 196.74 32.9238 196.593 32.9305C196.427 32.9372 196.203 32.9405 195.923 32.9405H195.083ZM199.044 31.2205C199.524 31.2205 199.764 31.3972 199.764 31.7505C199.764 31.7905 199.754 31.9272 199.734 32.1605C199.714 32.3872 199.694 32.6705 199.674 33.0105C199.661 33.3505 199.654 33.6738 199.654 33.9805C199.654 34.8738 199.741 35.5238 199.914 35.9305C199.748 36.0038 199.558 36.0405 199.344 36.0405C199.051 36.0405 198.851 35.9805 198.744 35.8605C198.644 35.7405 198.594 35.5372 198.594 35.2505C198.594 35.1438 198.598 34.8872 198.604 34.4805C198.611 34.0672 198.614 33.7505 198.614 33.5305C198.614 32.5638 198.584 31.8072 198.524 31.2605C198.684 31.2338 198.858 31.2205 199.044 31.2205ZM199.094 30.8005C198.894 30.8005 198.724 30.7338 198.584 30.6005C198.444 30.4672 198.374 30.2972 198.374 30.0905C198.374 29.8905 198.448 29.7238 198.594 29.5905C198.741 29.4505 198.914 29.3805 199.114 29.3805C199.308 29.3805 199.474 29.4505 199.614 29.5905C199.754 29.7238 199.824 29.8905 199.824 30.0905C199.824 30.2905 199.751 30.4605 199.604 30.6005C199.458 30.7338 199.288 30.8005 199.094 30.8005ZM200.865 31.2605C200.925 31.2538 201.075 31.2505 201.315 31.2505C201.301 30.8572 201.281 30.5205 201.255 30.2405C201.395 30.2138 201.558 30.2005 201.745 30.2005C202.205 30.2005 202.435 30.3238 202.435 30.5705C202.435 30.7305 202.425 30.9605 202.405 31.2605C203.125 31.2605 203.625 31.2405 203.905 31.2005C203.945 31.2738 203.965 31.3772 203.965 31.5105C203.965 31.6905 203.925 31.8138 203.845 31.8805C203.765 31.9405 203.638 31.9738 203.465 31.9805C203.265 31.9872 202.905 31.9905 202.385 31.9905C202.371 32.6172 202.365 33.2938 202.365 34.0205C202.365 34.2338 202.371 34.4105 202.385 34.5505C202.398 34.6905 202.428 34.8305 202.475 34.9705C202.521 35.1105 202.591 35.2172 202.685 35.2905C202.778 35.3572 202.898 35.3905 203.045 35.3905C203.251 35.3905 203.465 35.2738 203.685 35.0405C203.858 35.2338 203.945 35.3972 203.945 35.5305C203.945 35.7238 203.845 35.8672 203.645 35.9605C203.451 36.0538 203.231 36.1005 202.985 36.1005C201.871 36.1005 201.315 35.4938 201.315 34.2805C201.315 33.9672 201.315 33.5338 201.315 32.9805C201.321 32.4205 201.325 32.0872 201.325 31.9805C200.898 32.0072 200.595 32.0338 200.415 32.0605C200.388 31.9872 200.375 31.8772 200.375 31.7305C200.375 31.5572 200.411 31.4405 200.485 31.3805C200.565 31.3205 200.691 31.2805 200.865 31.2605ZM205.775 31.7105C206.249 31.3372 206.782 31.1505 207.375 31.1505C207.782 31.1505 208.112 31.2705 208.365 31.5105C208.619 31.7505 208.745 32.1372 208.745 32.6705C208.745 32.7438 208.739 33.0038 208.725 33.4505C208.719 33.8972 208.715 34.2238 208.715 34.4305C208.715 34.9772 208.802 35.4705 208.975 35.9105C208.769 35.9972 208.582 36.0405 208.415 36.0405C208.142 36.0405 207.949 35.9838 207.835 35.8705C207.722 35.7572 207.665 35.5438 207.665 35.2305C207.665 34.8838 207.672 34.4672 207.685 33.9805C207.699 33.4872 207.705 33.1472 207.705 32.9605C207.705 32.5938 207.632 32.3205 207.485 32.1405C207.339 31.9605 207.149 31.8705 206.915 31.8705C206.562 31.8705 206.195 32.0438 205.815 32.3905C205.829 33.2838 205.835 33.9338 205.835 34.3405C205.835 34.9805 205.855 35.5272 205.895 35.9805C205.715 36.0072 205.549 36.0205 205.395 36.0205C204.962 36.0205 204.745 35.8872 204.745 35.6205C204.745 35.4272 204.752 35.1138 204.765 34.6805C204.785 34.2472 204.795 33.8572 204.795 33.5105C204.795 32.4038 204.732 31.6772 204.605 31.3305C204.765 31.2572 204.939 31.2205 205.125 31.2205C205.319 31.2205 205.469 31.2505 205.575 31.3105C205.682 31.3705 205.749 31.5038 205.775 31.7105ZM211.647 34.0305C211.467 34.0305 211.224 34.0238 210.917 34.0105C210.984 34.4838 211.134 34.8305 211.367 35.0505C211.607 35.2705 211.901 35.3805 212.247 35.3805C212.427 35.3805 212.614 35.3338 212.807 35.2405C213.001 35.1472 213.144 35.0138 213.237 34.8405C213.564 35.0138 213.727 35.2005 213.727 35.4005C213.727 35.6272 213.571 35.8005 213.257 35.9205C212.944 36.0405 212.594 36.1005 212.207 36.1005C211.581 36.1005 211.021 35.8938 210.527 35.4805C210.041 35.0672 209.797 34.4705 209.797 33.6905C209.797 32.8705 210.031 32.2438 210.497 31.8105C210.971 31.3705 211.527 31.1505 212.167 31.1505C212.681 31.1505 213.094 31.2905 213.407 31.5705C213.727 31.8505 213.887 32.1838 213.887 32.5705C213.887 32.8838 213.827 33.1438 213.707 33.3505C213.594 33.5505 213.424 33.6972 213.197 33.7905C212.971 33.8838 212.741 33.9472 212.507 33.9805C212.274 34.0138 211.987 34.0305 211.647 34.0305ZM212.077 31.8805C211.764 31.8805 211.497 32.0005 211.277 32.2405C211.057 32.4805 210.927 32.8605 210.887 33.3805C211.314 33.3805 211.627 33.3705 211.827 33.3505C212.474 33.2705 212.797 33.0172 212.797 32.5905C212.797 32.3972 212.727 32.2305 212.587 32.0905C212.454 31.9505 212.284 31.8805 212.077 31.8805ZM217.461 32.5905C217.328 32.1572 216.958 31.9405 216.351 31.9405C216.178 31.9405 216.028 31.9905 215.901 32.0905C215.774 32.1838 215.711 32.3138 215.711 32.4805C215.711 32.6805 215.798 32.8372 215.971 32.9505C216.151 33.0638 216.368 33.1472 216.621 33.2005C216.874 33.2538 217.128 33.3172 217.381 33.3905C217.634 33.4638 217.848 33.6005 218.021 33.8005C218.201 34.0005 218.291 34.2672 218.291 34.6005C218.291 35.0872 218.098 35.4605 217.711 35.7205C217.331 35.9738 216.881 36.1005 216.361 36.1005C215.901 36.1005 215.494 36.0238 215.141 35.8705C214.788 35.7172 214.611 35.5272 214.611 35.3005C214.611 35.0138 214.818 34.7838 215.231 34.6105C215.431 35.0772 215.864 35.3105 216.531 35.3105C217.038 35.3105 217.291 35.1405 217.291 34.8005C217.291 34.6005 217.201 34.4505 217.021 34.3505C216.848 34.2438 216.634 34.1672 216.381 34.1205C216.128 34.0672 215.874 34.0005 215.621 33.9205C215.368 33.8405 215.151 33.6938 214.971 33.4805C214.798 33.2672 214.711 32.9805 214.711 32.6205C214.711 32.1405 214.901 31.7772 215.281 31.5305C215.668 31.2772 216.121 31.1505 216.641 31.1505C216.841 31.1505 217.048 31.1738 217.261 31.2205C217.481 31.2605 217.691 31.3505 217.891 31.4905C218.098 31.6238 218.201 31.7938 218.201 32.0005C218.201 32.1338 218.134 32.2538 218.001 32.3605C217.868 32.4605 217.688 32.5372 217.461 32.5905ZM221.826 32.5905C221.693 32.1572 221.323 31.9405 220.716 31.9405C220.543 31.9405 220.393 31.9905 220.266 32.0905C220.14 32.1838 220.076 32.3138 220.076 32.4805C220.076 32.6805 220.163 32.8372 220.336 32.9505C220.516 33.0638 220.733 33.1472 220.986 33.2005C221.24 33.2538 221.493 33.3172 221.746 33.3905C222 33.4638 222.213 33.6005 222.386 33.8005C222.566 34.0005 222.656 34.2672 222.656 34.6005C222.656 35.0872 222.463 35.4605 222.076 35.7205C221.696 35.9738 221.246 36.1005 220.726 36.1005C220.266 36.1005 219.86 36.0238 219.506 35.8705C219.153 35.7172 218.976 35.5272 218.976 35.3005C218.976 35.0138 219.183 34.7838 219.596 34.6105C219.796 35.0772 220.23 35.3105 220.896 35.3105C221.403 35.3105 221.656 35.1405 221.656 34.8005C221.656 34.6005 221.566 34.4505 221.386 34.3505C221.213 34.2438 221 34.1672 220.746 34.1205C220.493 34.0672 220.24 34.0005 219.986 33.9205C219.733 33.8405 219.516 33.6938 219.336 33.4805C219.163 33.2672 219.076 32.9805 219.076 32.6205C219.076 32.1405 219.266 31.7772 219.646 31.5305C220.033 31.2772 220.486 31.1505 221.006 31.1505C221.206 31.1505 221.413 31.1738 221.626 31.2205C221.846 31.2605 222.056 31.3505 222.256 31.4905C222.463 31.6238 222.566 31.7938 222.566 32.0005C222.566 32.1338 222.5 32.2538 222.366 32.3605C222.233 32.4605 222.053 32.5372 221.826 32.5905Z" fill="url(#paint0_linear_1001_8292)"/>
<rect x="243.25" y="15.7505" width="49.5" height="33.5" rx="5.75" fill="white" stroke="#6DA3FF" stroke-width="0.5"/>
<path d="M255.17 31.6405V33.9705C255.17 34.8705 255.233 35.5305 255.36 35.9505C255.267 36.0038 255.087 36.0305 254.82 36.0305C254.547 36.0305 254.363 35.9872 254.27 35.9005C254.177 35.8138 254.13 35.6672 254.13 35.4605V30.9605C253.69 32.0538 253.13 33.7272 252.45 35.9805C252.343 36.0072 252.22 36.0205 252.08 36.0205C251.733 36.0205 251.52 35.9338 251.44 35.7605C251.24 35.3205 250.943 34.5338 250.55 33.4005C250.157 32.2605 249.86 31.4405 249.66 30.9405V33.9705C249.66 34.8705 249.723 35.5305 249.85 35.9505C249.67 36.0038 249.497 36.0305 249.33 36.0305C249.097 36.0305 248.937 35.9872 248.85 35.9005C248.77 35.8138 248.73 35.6672 248.73 35.4605C248.73 35.3538 248.733 35.0905 248.74 34.6705C248.747 34.2505 248.75 33.9238 248.75 33.6905V31.1705C248.75 30.4238 248.687 29.8372 248.56 29.4105C248.827 29.3572 249.063 29.3305 249.27 29.3305C249.65 29.3305 249.94 29.4905 250.14 29.8105C250.393 30.2172 250.64 30.7272 250.88 31.3405C251.127 31.9472 251.313 32.4605 251.44 32.8805C251.573 33.3005 251.757 33.9038 251.99 34.6905C252.55 32.5838 253.17 30.9505 253.85 29.7905C254.023 29.4838 254.307 29.3305 254.7 29.3305C254.96 29.3305 255.177 29.3572 255.35 29.4105C255.23 29.8105 255.17 30.5538 255.17 31.6405ZM258.15 34.0305C257.97 34.0305 257.727 34.0238 257.42 34.0105C257.487 34.4838 257.637 34.8305 257.87 35.0505C258.11 35.2705 258.403 35.3805 258.75 35.3805C258.93 35.3805 259.117 35.3338 259.31 35.2405C259.503 35.1472 259.647 35.0138 259.74 34.8405C260.067 35.0138 260.23 35.2005 260.23 35.4005C260.23 35.6272 260.073 35.8005 259.76 35.9205C259.447 36.0405 259.097 36.1005 258.71 36.1005C258.083 36.1005 257.523 35.8938 257.03 35.4805C256.543 35.0672 256.3 34.4705 256.3 33.6905C256.3 32.8705 256.533 32.2438 257 31.8105C257.473 31.3705 258.03 31.1505 258.67 31.1505C259.183 31.1505 259.597 31.2905 259.91 31.5705C260.23 31.8505 260.39 32.1838 260.39 32.5705C260.39 32.8838 260.33 33.1438 260.21 33.3505C260.097 33.5505 259.927 33.6972 259.7 33.7905C259.473 33.8838 259.243 33.9472 259.01 33.9805C258.777 34.0138 258.49 34.0305 258.15 34.0305ZM258.58 31.8805C258.267 31.8805 258 32.0005 257.78 32.2405C257.56 32.4805 257.43 32.8605 257.39 33.3805C257.817 33.3805 258.13 33.3705 258.33 33.3505C258.977 33.2705 259.3 33.0172 259.3 32.5905C259.3 32.3972 259.23 32.2305 259.09 32.0905C258.957 31.9505 258.787 31.8805 258.58 31.8805ZM263.433 35.3605C263.747 35.3605 264.05 35.2138 264.343 34.9205C264.33 33.6938 264.323 32.7505 264.323 32.0905C264.043 31.9505 263.763 31.8805 263.483 31.8805C263.103 31.8805 262.8 32.0272 262.573 32.3205C262.353 32.6138 262.243 32.9972 262.243 33.4705C262.243 34.0305 262.357 34.4872 262.583 34.8405C262.817 35.1872 263.1 35.3605 263.433 35.3605ZM261.153 33.6205C261.153 32.8805 261.357 32.2838 261.763 31.8305C262.177 31.3772 262.677 31.1505 263.263 31.1505C263.65 31.1505 264.01 31.2438 264.343 31.4305C264.343 30.2372 264.303 29.2972 264.223 28.6105C264.41 28.5838 264.59 28.5705 264.763 28.5705C264.983 28.5705 265.153 28.6172 265.273 28.7105C265.393 28.8038 265.453 28.9372 265.453 29.1105C265.453 29.2772 265.437 29.8872 265.403 30.9405C265.377 31.9872 265.363 32.9272 265.363 33.7605C265.363 34.8672 265.427 35.5905 265.553 35.9305C265.387 35.9972 265.203 36.0305 265.003 36.0305C264.63 36.0305 264.423 35.8905 264.383 35.6105C263.997 35.9372 263.587 36.1005 263.153 36.1005C262.613 36.1005 262.143 35.8672 261.743 35.4005C261.35 34.9338 261.153 34.3405 261.153 33.6205ZM267.226 31.2205C267.706 31.2205 267.946 31.3972 267.946 31.7505C267.946 31.7905 267.936 31.9272 267.916 32.1605C267.896 32.3872 267.876 32.6705 267.856 33.0105C267.843 33.3505 267.836 33.6738 267.836 33.9805C267.836 34.8738 267.923 35.5238 268.096 35.9305C267.93 36.0038 267.74 36.0405 267.526 36.0405C267.233 36.0405 267.033 35.9805 266.926 35.8605C266.826 35.7405 266.776 35.5372 266.776 35.2505C266.776 35.1438 266.78 34.8872 266.786 34.4805C266.793 34.0672 266.796 33.7505 266.796 33.5305C266.796 32.5638 266.766 31.8072 266.706 31.2605C266.866 31.2338 267.04 31.2205 267.226 31.2205ZM267.276 30.8005C267.076 30.8005 266.906 30.7338 266.766 30.6005C266.626 30.4672 266.556 30.2972 266.556 30.0905C266.556 29.8905 266.63 29.7238 266.776 29.5905C266.923 29.4505 267.096 29.3805 267.296 29.3805C267.49 29.3805 267.656 29.4505 267.796 29.5905C267.936 29.7238 268.006 29.8905 268.006 30.0905C268.006 30.2905 267.933 30.4605 267.786 30.6005C267.64 30.7338 267.47 30.8005 267.276 30.8005ZM271.387 35.3805C271.567 35.3805 271.753 35.3338 271.947 35.2405C272.14 35.1472 272.283 35.0138 272.377 34.8405C272.703 35.0138 272.867 35.2005 272.867 35.4005C272.867 35.6272 272.71 35.8005 272.397 35.9205C272.083 36.0405 271.733 36.1005 271.347 36.1005C271.06 36.1005 270.777 36.0538 270.497 35.9605C270.223 35.8605 269.967 35.7172 269.727 35.5305C269.487 35.3438 269.293 35.0905 269.147 34.7705C269.007 34.4505 268.937 34.0838 268.937 33.6705C268.937 32.8438 269.177 32.2172 269.657 31.7905C270.137 31.3638 270.683 31.1505 271.297 31.1505C271.67 31.1505 272.023 31.2405 272.357 31.4205C272.697 31.5938 272.867 31.8372 272.867 32.1505C272.867 32.2905 272.797 32.4038 272.657 32.4905C272.517 32.5772 272.327 32.6338 272.087 32.6605C272.033 32.4205 271.913 32.2338 271.727 32.1005C271.54 31.9672 271.35 31.9005 271.157 31.9005C270.837 31.9005 270.57 32.0538 270.357 32.3605C270.143 32.6672 270.037 33.0672 270.037 33.5605C270.037 34.1938 270.16 34.6572 270.407 34.9505C270.66 35.2372 270.987 35.3805 271.387 35.3805ZM274.355 31.2205C274.835 31.2205 275.075 31.3972 275.075 31.7505C275.075 31.7905 275.065 31.9272 275.045 32.1605C275.025 32.3872 275.005 32.6705 274.985 33.0105C274.972 33.3505 274.965 33.6738 274.965 33.9805C274.965 34.8738 275.052 35.5238 275.225 35.9305C275.059 36.0038 274.869 36.0405 274.655 36.0405C274.362 36.0405 274.162 35.9805 274.055 35.8605C273.955 35.7405 273.905 35.5372 273.905 35.2505C273.905 35.1438 273.909 34.8872 273.915 34.4805C273.922 34.0672 273.925 33.7505 273.925 33.5305C273.925 32.5638 273.895 31.8072 273.835 31.2605C273.995 31.2338 274.169 31.2205 274.355 31.2205ZM274.405 30.8005C274.205 30.8005 274.035 30.7338 273.895 30.6005C273.755 30.4672 273.685 30.2972 273.685 30.0905C273.685 29.8905 273.759 29.7238 273.905 29.5905C274.052 29.4505 274.225 29.3805 274.425 29.3805C274.619 29.3805 274.785 29.4505 274.925 29.5905C275.065 29.7238 275.135 29.8905 275.135 30.0905C275.135 30.2905 275.062 30.4605 274.915 30.6005C274.769 30.7338 274.599 30.8005 274.405 30.8005ZM277.366 31.7105C277.839 31.3372 278.372 31.1505 278.966 31.1505C279.372 31.1505 279.702 31.2705 279.956 31.5105C280.209 31.7505 280.336 32.1372 280.336 32.6705C280.336 32.7438 280.329 33.0038 280.316 33.4505C280.309 33.8972 280.306 34.2238 280.306 34.4305C280.306 34.9772 280.392 35.4705 280.566 35.9105C280.359 35.9972 280.172 36.0405 280.006 36.0405C279.732 36.0405 279.539 35.9838 279.426 35.8705C279.312 35.7572 279.256 35.5438 279.256 35.2305C279.256 34.8838 279.262 34.4672 279.276 33.9805C279.289 33.4872 279.296 33.1472 279.296 32.9605C279.296 32.5938 279.222 32.3205 279.076 32.1405C278.929 31.9605 278.739 31.8705 278.506 31.8705C278.152 31.8705 277.786 32.0438 277.406 32.3905C277.419 33.2838 277.426 33.9338 277.426 34.3405C277.426 34.9805 277.446 35.5272 277.486 35.9805C277.306 36.0072 277.139 36.0205 276.986 36.0205C276.552 36.0205 276.336 35.8872 276.336 35.6205C276.336 35.4272 276.342 35.1138 276.356 34.6805C276.376 34.2472 276.386 33.8572 276.386 33.5105C276.386 32.4038 276.322 31.6772 276.196 31.3305C276.356 31.2572 276.529 31.2205 276.716 31.2205C276.909 31.2205 277.059 31.2505 277.166 31.3105C277.272 31.3705 277.339 31.5038 277.366 31.7105ZM283.238 34.0305C283.058 34.0305 282.814 34.0238 282.508 34.0105C282.574 34.4838 282.724 34.8305 282.958 35.0505C283.198 35.2705 283.491 35.3805 283.838 35.3805C284.018 35.3805 284.204 35.3338 284.398 35.2405C284.591 35.1472 284.734 35.0138 284.828 34.8405C285.154 35.0138 285.318 35.2005 285.318 35.4005C285.318 35.6272 285.161 35.8005 284.848 35.9205C284.534 36.0405 284.184 36.1005 283.798 36.1005C283.171 36.1005 282.611 35.8938 282.118 35.4805C281.631 35.0672 281.388 34.4705 281.388 33.6905C281.388 32.8705 281.621 32.2438 282.088 31.8105C282.561 31.3705 283.118 31.1505 283.758 31.1505C284.271 31.1505 284.684 31.2905 284.998 31.5705C285.318 31.8505 285.478 32.1838 285.478 32.5705C285.478 32.8838 285.418 33.1438 285.298 33.3505C285.184 33.5505 285.014 33.6972 284.788 33.7905C284.561 33.8838 284.331 33.9472 284.098 33.9805C283.864 34.0138 283.578 34.0305 283.238 34.0305ZM283.668 31.8805C283.354 31.8805 283.088 32.0005 282.868 32.2405C282.648 32.4805 282.518 32.8605 282.478 33.3805C282.904 33.3805 283.218 33.3705 283.418 33.3505C284.064 33.2705 284.388 33.0172 284.388 32.5905C284.388 32.3972 284.318 32.2305 284.178 32.0905C284.044 31.9505 283.874 31.8805 283.668 31.8805Z" fill="#0172D0"/>
<rect x="301.917" y="15.7505" width="49.5" height="33.5" rx="5.75" fill="white" stroke="#E74193" stroke-width="0.5"/>
<path d="M312.837 31.6405V33.9705C312.837 34.8705 312.9 35.5305 313.027 35.9505C312.934 36.0038 312.754 36.0305 312.487 36.0305C312.214 36.0305 312.03 35.9872 311.937 35.9005C311.844 35.8138 311.797 35.6672 311.797 35.4605V30.9605C311.357 32.0538 310.797 33.7272 310.117 35.9805C310.01 36.0072 309.887 36.0205 309.747 36.0205C309.4 36.0205 309.187 35.9338 309.107 35.7605C308.907 35.3205 308.61 34.5338 308.217 33.4005C307.824 32.2605 307.527 31.4405 307.327 30.9405V33.9705C307.327 34.8705 307.39 35.5305 307.517 35.9505C307.337 36.0038 307.164 36.0305 306.997 36.0305C306.764 36.0305 306.604 35.9872 306.517 35.9005C306.437 35.8138 306.397 35.6672 306.397 35.4605C306.397 35.3538 306.4 35.0905 306.407 34.6705C306.414 34.2505 306.417 33.9238 306.417 33.6905V31.1705C306.417 30.4238 306.354 29.8372 306.227 29.4105C306.494 29.3572 306.73 29.3305 306.937 29.3305C307.317 29.3305 307.607 29.4905 307.807 29.8105C308.06 30.2172 308.307 30.7272 308.547 31.3405C308.794 31.9472 308.98 32.4605 309.107 32.8805C309.24 33.3005 309.424 33.9038 309.657 34.6905C310.217 32.5838 310.837 30.9505 311.517 29.7905C311.69 29.4838 311.974 29.3305 312.367 29.3305C312.627 29.3305 312.844 29.3572 313.017 29.4105C312.897 29.8105 312.837 30.5538 312.837 31.6405ZM315.817 34.0305C315.637 34.0305 315.394 34.0238 315.087 34.0105C315.154 34.4838 315.304 34.8305 315.537 35.0505C315.777 35.2705 316.07 35.3805 316.417 35.3805C316.597 35.3805 316.784 35.3338 316.977 35.2405C317.17 35.1472 317.314 35.0138 317.407 34.8405C317.734 35.0138 317.897 35.2005 317.897 35.4005C317.897 35.6272 317.74 35.8005 317.427 35.9205C317.114 36.0405 316.764 36.1005 316.377 36.1005C315.75 36.1005 315.19 35.8938 314.697 35.4805C314.21 35.0672 313.967 34.4705 313.967 33.6905C313.967 32.8705 314.2 32.2438 314.667 31.8105C315.14 31.3705 315.697 31.1505 316.337 31.1505C316.85 31.1505 317.264 31.2905 317.577 31.5705C317.897 31.8505 318.057 32.1838 318.057 32.5705C318.057 32.8838 317.997 33.1438 317.877 33.3505C317.764 33.5505 317.594 33.6972 317.367 33.7905C317.14 33.8838 316.91 33.9472 316.677 33.9805C316.444 34.0138 316.157 34.0305 315.817 34.0305ZM316.247 31.8805C315.934 31.8805 315.667 32.0005 315.447 32.2405C315.227 32.4805 315.097 32.8605 315.057 33.3805C315.484 33.3805 315.797 33.3705 315.997 33.3505C316.644 33.2705 316.967 33.0172 316.967 32.5905C316.967 32.3972 316.897 32.2305 316.757 32.0905C316.624 31.9505 316.454 31.8805 316.247 31.8805ZM320.12 31.7105C320.594 31.3372 321.127 31.1505 321.72 31.1505C322.127 31.1505 322.457 31.2705 322.71 31.5105C322.964 31.7505 323.09 32.1372 323.09 32.6705C323.09 32.7438 323.084 33.0038 323.07 33.4505C323.064 33.8972 323.06 34.2238 323.06 34.4305C323.06 34.9772 323.147 35.4705 323.32 35.9105C323.114 35.9972 322.927 36.0405 322.76 36.0405C322.487 36.0405 322.294 35.9838 322.18 35.8705C322.067 35.7572 322.01 35.5438 322.01 35.2305C322.01 34.8838 322.017 34.4672 322.03 33.9805C322.044 33.4872 322.05 33.1472 322.05 32.9605C322.05 32.5938 321.977 32.3205 321.83 32.1405C321.684 31.9605 321.494 31.8705 321.26 31.8705C320.907 31.8705 320.54 32.0438 320.16 32.3905C320.174 33.2838 320.18 33.9338 320.18 34.3405C320.18 34.9805 320.2 35.5272 320.24 35.9805C320.06 36.0072 319.894 36.0205 319.74 36.0205C319.307 36.0205 319.09 35.8872 319.09 35.6205C319.09 35.4272 319.097 35.1138 319.11 34.6805C319.13 34.2472 319.14 33.8572 319.14 33.5105C319.14 32.4038 319.077 31.6772 318.95 31.3305C319.11 31.2572 319.284 31.2205 319.47 31.2205C319.664 31.2205 319.814 31.2505 319.92 31.3105C320.027 31.3705 320.094 31.5038 320.12 31.7105ZM324.253 31.2605C324.313 31.2538 324.463 31.2505 324.703 31.2505C324.689 30.8572 324.669 30.5205 324.643 30.2405C324.783 30.2138 324.946 30.2005 325.133 30.2005C325.593 30.2005 325.823 30.3238 325.823 30.5705C325.823 30.7305 325.813 30.9605 325.793 31.2605C326.513 31.2605 327.013 31.2405 327.293 31.2005C327.333 31.2738 327.353 31.3772 327.353 31.5105C327.353 31.6905 327.313 31.8138 327.233 31.8805C327.153 31.9405 327.026 31.9738 326.853 31.9805C326.653 31.9872 326.293 31.9905 325.773 31.9905C325.759 32.6172 325.753 33.2938 325.753 34.0205C325.753 34.2338 325.759 34.4105 325.773 34.5505C325.786 34.6905 325.816 34.8305 325.863 34.9705C325.909 35.1105 325.979 35.2172 326.073 35.2905C326.166 35.3572 326.286 35.3905 326.433 35.3905C326.639 35.3905 326.853 35.2738 327.073 35.0405C327.246 35.2338 327.333 35.3972 327.333 35.5305C327.333 35.7238 327.233 35.8672 327.033 35.9605C326.839 36.0538 326.619 36.1005 326.373 36.1005C325.259 36.1005 324.703 35.4938 324.703 34.2805C324.703 33.9672 324.703 33.5338 324.703 32.9805C324.709 32.4205 324.713 32.0872 324.713 31.9805C324.286 32.0072 323.983 32.0338 323.803 32.0605C323.776 31.9872 323.763 31.8772 323.763 31.7305C323.763 31.5572 323.799 31.4405 323.873 31.3805C323.953 31.3205 324.079 31.2805 324.253 31.2605ZM328.513 31.2205C328.753 31.2205 328.923 31.2638 329.023 31.3505C329.13 31.4372 329.183 31.5738 329.183 31.7605V31.8805C329.57 31.3938 329.947 31.1505 330.313 31.1505C330.7 31.1505 330.893 31.2905 330.893 31.5705C330.893 31.7572 330.773 32.0005 330.533 32.3005C330.393 32.1805 330.237 32.1205 330.063 32.1205C329.723 32.1205 329.417 32.3038 329.143 32.6705C329.123 33.0972 329.113 33.5305 329.113 33.9705C329.113 34.8438 329.203 35.4905 329.383 35.9105C329.203 35.9972 329.007 36.0405 328.793 36.0405C328.507 36.0405 328.313 35.9772 328.213 35.8505C328.113 35.7238 328.063 35.5205 328.063 35.2405C328.063 35.1605 328.067 34.9338 328.073 34.5605C328.08 34.1872 328.083 33.8938 328.083 33.6805C328.083 32.5672 328.053 31.7638 327.993 31.2705C328.187 31.2372 328.36 31.2205 328.513 31.2205ZM334.707 35.5305C334.267 35.9105 333.761 36.1005 333.187 36.1005C332.207 36.1005 331.717 35.6272 331.717 34.6805C331.717 34.6338 331.721 34.3805 331.727 33.9205C331.741 33.4538 331.747 33.1172 331.747 32.9105C331.747 32.2238 331.691 31.6872 331.577 31.3005C331.757 31.2405 331.941 31.2105 332.127 31.2105C332.374 31.2105 332.551 31.2505 332.657 31.3305C332.764 31.4105 332.817 31.5438 332.817 31.7305C332.817 32.0772 332.807 32.5505 332.787 33.1505C332.767 33.7505 332.757 34.1372 332.757 34.3105C332.757 34.6505 332.827 34.9105 332.967 35.0905C333.114 35.2705 333.301 35.3605 333.527 35.3605C333.914 35.3605 334.284 35.1905 334.637 34.8505C334.631 34.5772 334.627 34.1538 334.627 33.5805C334.627 32.5805 334.604 31.8038 334.557 31.2505C334.744 31.2238 334.911 31.2105 335.057 31.2105C335.484 31.2105 335.697 31.3405 335.697 31.6005C335.697 31.7205 335.691 32.0538 335.677 32.6005C335.664 33.1472 335.657 33.6005 335.657 33.9605C335.657 34.7938 335.721 35.4472 335.847 35.9205C335.707 35.9938 335.541 36.0305 335.347 36.0305C335.221 36.0305 335.121 36.0205 335.047 36.0005C334.974 35.9872 334.904 35.9438 334.837 35.8705C334.771 35.7905 334.727 35.6772 334.707 35.5305ZM339.39 34.5705C339.39 34.2638 339.397 34.0272 339.41 33.8605C339.21 33.8872 339.064 33.9072 338.97 33.9205C338.884 33.9338 338.764 33.9538 338.61 33.9805C338.457 34.0072 338.344 34.0372 338.27 34.0705C338.204 34.1038 338.13 34.1438 338.05 34.1905C337.97 34.2372 337.914 34.2972 337.88 34.3705C337.847 34.4372 337.83 34.5172 337.83 34.6105C337.83 34.8772 337.897 35.0738 338.03 35.2005C338.164 35.3272 338.334 35.3905 338.54 35.3905C338.88 35.3905 339.17 35.2638 339.41 35.0105C339.397 34.9238 339.39 34.7772 339.39 34.5705ZM339.43 33.2505C339.43 33.0238 339.424 32.8505 339.41 32.7305C339.404 32.6105 339.377 32.4738 339.33 32.3205C339.29 32.1672 339.217 32.0572 339.11 31.9905C339.01 31.9172 338.874 31.8805 338.7 31.8805C338.48 31.8805 338.27 31.9538 338.07 32.1005C337.877 32.2405 337.737 32.4372 337.65 32.6905C337.057 32.6838 336.76 32.5072 336.76 32.1605C336.76 31.8738 336.96 31.6338 337.36 31.4405C337.767 31.2472 338.227 31.1505 338.74 31.1505C339.354 31.1505 339.8 31.2772 340.08 31.5305C340.367 31.7838 340.51 32.2372 340.51 32.8905C340.51 32.9105 340.507 33.0672 340.5 33.3605C340.494 33.6538 340.49 33.9405 340.49 34.2205C340.49 34.9805 340.554 35.5505 340.68 35.9305C340.487 36.0038 340.297 36.0405 340.11 36.0405C339.737 36.0405 339.514 35.8872 339.44 35.5805C339.04 35.9272 338.59 36.1005 338.09 36.1005C337.704 36.1005 337.38 35.9805 337.12 35.7405C336.867 35.5005 336.74 35.1472 336.74 34.6805C336.74 34.3072 336.82 34.0305 336.98 33.8505C337.14 33.6705 337.354 33.5372 337.62 33.4505C338.02 33.3238 338.624 33.2572 339.43 33.2505ZM342.166 28.5705C342.639 28.5705 342.876 28.7538 342.876 29.1205C342.876 29.1605 342.866 29.3172 342.846 29.5905C342.826 29.8572 342.806 30.2438 342.786 30.7505C342.772 31.2572 342.766 31.8205 342.766 32.4405C342.766 33.7205 342.779 34.5438 342.806 34.9105C342.832 35.2772 342.909 35.6105 343.036 35.9105C342.842 35.9972 342.646 36.0405 342.446 36.0405C342.159 36.0405 341.966 35.9805 341.866 35.8605C341.766 35.7338 341.716 35.5238 341.716 35.2305C341.729 33.9772 341.736 33.0572 341.736 32.4705C341.736 30.4505 341.706 29.1672 341.646 28.6205C341.832 28.5872 342.006 28.5705 342.166 28.5705Z" fill="#E24294"/>
<defs>
<linearGradient id="paint0_linear_1001_8292" x1="208.333" y1="25.0005" x2="208.333" y2="40.0005" gradientUnits="userSpaceOnUse">
<stop stop-color="#FFAF59"/>
<stop offset="1" stop-color="#D47709"/>
</linearGradient>
</defs>
</svg>
