<svg width="177" height="172" viewBox="0 0 177 172" fill="none" xmlns="http://www.w3.org/2000/svg">
<rect y="17" width="177" height="155" rx="10" fill="url(#paint0_linear_1187_49464)"/>
<path d="M141.042 93.9236C141.042 98.2872 114.815 101.825 82.4626 101.825C50.11 101.825 23.8838 98.2872 23.8838 93.9236C23.8838 89.559 50.11 86.021 82.4626 86.021C114.815 86.021 141.042 89.559 141.042 93.9236Z" fill="#BCBEC0"/>
<path d="M136.093 93.9236C136.093 97.0401 112.082 99.5674 82.4626 99.5674C52.8439 99.5674 28.832 97.0406 28.832 93.9236C28.832 90.8056 52.8439 88.2788 82.4626 88.2788C112.082 88.2788 136.093 90.8051 136.093 93.9236Z" fill="#C7C8CA"/>
<path d="M32.6406 84.5645C32.6406 84.5645 25.2231 71.7011 20.9971 68.251C22.9708 68.2465 30.157 72.701 35.1914 83.1412L32.6406 84.5645Z" fill="#579C43"/>
<path d="M20.9971 68.251C21.152 68.3778 21.311 68.5175 21.4736 68.668C24.3296 69.8613 27.678 74.2511 30.0642 77.4559C31.8322 79.8317 32.5257 81.6592 32.5627 82.6329C32.5806 83.1284 32.5006 83.6085 32.3534 84.0719C32.538 84.3873 32.6411 84.5645 32.6411 84.5645L35.1919 83.1412C30.157 72.701 22.9708 68.247 20.9971 68.251Z" fill="#7C8A3F"/>
<path d="M34.4968 83.5447C34.4968 83.5447 25.123 71.8006 24.5146 59.4668C24.5146 59.4668 30.1846 71.8613 37.7986 82.4239L34.4968 83.5447Z" fill="#83BE2C"/>
<path d="M32.9042 78.7705C27.6466 71.9176 25.9396 62.4915 25.9339 62.4086C25.0209 60.5742 24.5146 59.4668 24.5146 59.4668C25.123 71.8006 34.4968 83.5447 34.4968 83.5447L36.2295 82.9564C35.9453 82.347 34.2445 80.518 32.9042 78.7705Z" fill="#7C8A3F"/>
<path d="M37.5117 83.2651C37.5117 83.2651 34.4079 67.1609 35.2142 61.8857C33.7288 63.1358 31.2134 67.9831 34.0919 83.7966L37.5117 83.2651Z" fill="#83BE2C"/>
<path d="M35.68 82.1824C35.3845 79.7933 35.1009 77.4032 34.7926 75.0161C34.4879 72.6601 34.4038 70.3322 34.51 67.9599C34.55 67.0375 34.5936 66.1023 34.7075 65.1839C34.7685 64.6805 34.8557 64.1598 35.084 63.7019C35.0947 63.0114 35.1358 62.3975 35.2142 61.8853C33.7288 63.1353 31.2134 67.9826 34.0919 83.7962L35.8554 83.5223C35.7933 83.0771 35.7349 82.6295 35.68 82.1824Z" fill="#7C8A3F"/>
<path d="M34.6404 83.8944C34.6404 83.8944 30.64 70.0933 27.1064 61.7935C27.1064 61.7935 32.721 63.616 37.1225 83.4364L34.6404 83.8944Z" fill="#579C43"/>
<path d="M27.1074 61.793C27.2095 62.0318 27.3116 62.2761 27.4142 62.5229C28.0302 63.1156 28.5241 63.8346 29.0586 64.4875C29.8213 65.4223 30.4405 66.4473 31.0385 67.4836C32.2383 69.5613 33.1692 71.7417 34.0115 73.9713C34.8527 76.1981 35.7826 78.4579 36.0924 80.8228C36.213 81.7511 36.2433 82.6803 36.2012 83.6066L37.124 83.4359C32.722 63.616 27.1074 61.793 27.1074 61.793Z" fill="#7C8A3F"/>
<path d="M50.1194 87.7144C52.4624 94.0634 49.2422 100.961 42.926 103.119C36.6087 105.278 29.5882 101.881 27.2446 95.5326C24.9011 89.1835 28.1218 82.2867 34.438 80.1276C40.7553 77.969 47.7763 81.3658 50.1194 87.7144Z" fill="#FFD488"/>
<path d="M33.0351 80.9312C33.0351 80.9312 22.9785 87.0536 30.9069 100.482" stroke="#F5BE70" stroke-width="0.7044" stroke-miterlimit="10" stroke-linecap="round" stroke-linejoin="round"/>
<path d="M36.0879 79.8876C36.0879 79.8876 47.8781 78.6948 50.53 93.9265" stroke="#F5BE70" stroke-width="0.7044" stroke-miterlimit="10" stroke-linecap="round" stroke-linejoin="round"/>
<path d="M39.8217 103.551C39.8217 103.551 31.4901 96.1925 34.1256 80.5117C34.1256 80.5117 24.7759 90.2911 35.5546 103.043" stroke="#F5BE70" stroke-width="0.7044" stroke-miterlimit="10" stroke-linecap="round" stroke-linejoin="round"/>
<path d="M45.6787 101.549C45.6787 101.549 47.3159 90.7839 34.9912 80.2163C34.9912 80.2163 48.747 81.9959 48.745 98.4333" stroke="#F5BE70" stroke-width="0.7044" stroke-miterlimit="10" stroke-linecap="round" stroke-linejoin="round"/>
<path d="M42.8663 102.909C42.8663 102.909 38.3663 86.6718 34.5439 80.415" stroke="#F5BE70" stroke-width="0.7044" stroke-miterlimit="10" stroke-linecap="round" stroke-linejoin="round"/>
<path d="M34.4376 80.1276C34.3935 80.1429 34.3509 80.1602 34.3073 80.176C35.0485 80.3699 35.7768 80.6285 36.4914 80.9542C38.7457 81.9842 40.8405 83.4139 42.5511 85.1654C45.6498 88.3372 47.9051 93.2752 45.9693 97.5515C45.2081 99.2324 43.9284 100.628 42.2357 101.481C40.7246 102.242 39.0355 102.679 37.3372 102.816C36.2569 102.904 35.1126 102.877 33.999 102.701C36.7463 103.913 39.9152 104.148 42.9251 103.12C49.2413 100.961 52.462 94.0639 50.1184 87.7149C47.7759 81.3658 40.7548 77.969 34.4376 80.1276Z" fill="#C0A793"/>
<path d="M93.5201 61.3667C93.5201 61.3667 98.3914 72.4352 86.0764 82.6015C86.0764 82.6015 82.4762 66.8531 93.5201 61.3667Z" fill="#579C43"/>
<path d="M86.1035 82.5798C98.3846 72.4189 93.521 61.3667 93.521 61.3667C93.4887 61.383 93.4574 61.3998 93.4256 61.4161L86.1035 82.5798Z" fill="#83BE2C"/>
<path d="M99.5097 67.7383C99.5097 67.7383 99.5748 79.2208 85.876 82.8659C85.876 82.8659 88.513 67.8967 99.5097 67.7383Z" fill="#579C43"/>
<path d="M85.9053 82.8575C99.5749 79.2045 99.5098 67.7383 99.5098 67.7383C99.4769 67.7383 99.4462 67.7408 99.4133 67.7408L85.9053 82.8575Z" fill="#83BE2C"/>
<path d="M84.0701 62.7246C84.0701 62.7246 76.7844 71.82 85.3827 82.7079C85.3827 82.7079 92.7155 69.2646 84.0701 62.7246Z" fill="#579C43"/>
<path d="M85.3647 82.6847C76.7946 71.8062 84.07 62.7246 84.07 62.7246C84.0962 62.7439 84.1193 62.7641 84.1449 62.7828L85.3647 82.6847Z" fill="#83BE2C"/>
<path d="M96.1274 95.3392C93.672 102.437 85.956 106.357 78.8939 104.095C71.8319 101.833 68.0977 94.2461 70.5537 87.1479C73.0091 80.0502 80.7251 76.1298 87.7866 78.392C94.8492 80.6538 98.5833 88.241 96.1274 95.3392Z" fill="#392346"/>
<path d="M87.7866 78.3921C87.7379 78.3763 87.6881 78.3629 87.6384 78.3481C88.1503 79.005 88.6047 79.7102 88.9971 80.4648C90.2395 82.848 91.0581 85.4754 91.3125 88.134C91.7726 92.9467 90.2415 98.7514 85.5113 101.222C83.6514 102.193 81.5417 102.574 79.4535 102.208C77.5895 101.881 75.8004 101.152 74.217 100.157C73.2096 99.5232 72.2273 98.7484 71.3779 97.8626C72.9219 100.729 75.5286 103.017 78.8934 104.096C85.9555 106.357 93.6715 102.437 96.1269 95.3397C98.5828 88.2411 94.8487 80.6538 87.7866 78.3921Z" fill="#773053"/>
<path d="M51.3743 61.9995C51.3743 61.9995 59.4289 65.8978 56.6642 76.6662C56.6642 76.6662 47.2201 69.6929 51.3743 61.9995Z" fill="#579C43"/>
<path d="M56.6697 76.6435C59.4174 65.8928 51.3747 61.9995 51.3747 61.9995C51.3629 62.0217 51.3516 62.0449 51.3408 62.0676L56.6697 76.6435Z" fill="#83BE2C"/>
<path d="M61.2896 61.7817C61.2896 61.7817 65.4582 69.4736 56.6742 76.6581C56.6742 76.6581 53.2458 65.6894 61.2896 61.7817Z" fill="#579C43"/>
<path d="M56.6924 76.6423C65.4512 69.4627 61.2893 61.7817 61.2893 61.7817C61.2652 61.7931 61.2431 61.8054 61.219 61.8163L56.6924 76.6423Z" fill="#83BE2C"/>
<path d="M43.3311 67.8603C43.3311 67.8603 45.0863 76.3699 56.6103 76.6793C56.6103 76.6793 52.1458 66.0624 43.3311 67.8603Z" fill="#579C43"/>
<path d="M56.5862 76.6781C45.0843 76.3573 43.3311 67.86 43.3311 67.86C43.3572 67.8546 43.3824 67.8511 43.408 67.8462L56.5862 76.6781Z" fill="#83BE2C"/>
<path d="M66.8842 82.7609C69.5633 90.0875 71.3088 108.104 68.5949 109.022C65.8799 109.94 55.3797 94.7991 52.7001 87.4724C50.0216 80.1462 51.6814 74.4457 55.272 73.2302C59.9961 71.6307 64.2047 75.4332 66.8842 82.7609Z" fill="#F68746"/>
<path d="M55.2701 73.2295C54.8593 73.3682 54.4761 73.569 54.1201 73.8202C56.4063 73.6574 58.48 74.6414 60.1178 76.2123C61.1581 77.2092 66.887 84.1756 68.295 100.896C68.4437 102.659 66.9973 104.605 64.8071 104.271C63.7412 104.109 62.8718 103.539 62.0598 102.88C61.8167 102.683 61.572 102.487 61.3283 102.291C64.387 106.406 67.3307 109.449 68.5925 109.022C71.3064 108.104 69.5609 90.0878 66.8819 82.7612C64.2033 75.433 59.9947 71.6305 55.2701 73.2295Z" fill="#F1AC5C"/>
<path d="M51.3965 81.5452C52.0335 80.9895 52.7558 80.6673 53.5 80.4032C54.2525 80.1624 55.0255 79.9788 55.8841 80.0267L55.9 80.0721L53.6652 80.8538L51.4129 81.5906L51.3965 81.5452Z" fill="#B13D08"/>
<path d="M55.2832 83.9006C55.9403 83.338 56.683 83.0089 57.4462 82.7384C58.2187 82.4907 59.0112 82.3002 59.8888 82.3416L59.9057 82.387L57.6109 83.189L55.3001 83.946L55.2832 83.9006Z" fill="#B13D08"/>
<path d="M60.4219 79.1231C60.9958 78.5887 61.655 78.2876 62.3361 78.0448C63.0255 77.8252 63.7359 77.6628 64.531 77.7319L64.5469 77.7773L62.5008 78.4954L60.4378 79.1685L60.4219 79.1231Z" fill="#B13D08"/>
<path d="M61.3652 83.7415C62.1259 83.1434 62.9723 82.7792 63.8396 82.4737C64.7162 82.1909 65.6128 81.9649 66.5946 81.9708L66.6105 82.0162L64.0048 82.9238L61.3822 83.7864L61.3652 83.7415Z" fill="#B13D08"/>
<path d="M52.6338 87.2882C53.2621 86.735 53.9761 86.4161 54.7117 86.1551C55.4554 85.9172 56.2202 85.7361 57.0701 85.7869L57.086 85.8323L54.8763 86.6052L52.6497 87.3336L52.6338 87.2882Z" fill="#B13D08"/>
<path d="M60.3467 88.3903C61.1268 87.7857 61.9927 87.4151 62.8801 87.1027C63.7756 86.8135 64.6917 86.5811 65.693 86.5806L65.7089 86.626L63.0442 87.5533L60.3636 88.4357L60.3467 88.3903Z" fill="#B13D08"/>
<path d="M55.3535 93.0304C56.0716 92.4466 56.8764 92.0972 57.7017 91.8055C58.5352 91.5371 59.3903 91.3258 60.3295 91.3461L60.3464 91.3915L57.8659 92.2561L55.3694 93.0758L55.3535 93.0304Z" fill="#B13D08"/>
<path d="M61.4678 93.138C62.1048 92.5818 62.827 92.2595 63.5718 91.9955C64.3243 91.7547 65.0978 91.5706 65.9559 91.6185L65.9718 91.6639L63.7365 92.4461L61.4837 93.1834L61.4678 93.138Z" fill="#B13D08"/>
<path d="M63.7471 95.2148C64.5426 94.6053 65.4233 94.2298 66.3245 93.9124C67.2345 93.6183 68.166 93.3809 69.1816 93.3755L69.1975 93.4209L66.4887 94.363L63.7635 95.2602L63.7471 95.2148Z" fill="#B13D08"/>
<path d="M64.1388 97.6333C63.4376 98.2112 62.6513 98.5552 61.8424 98.8404C61.0258 99.103 60.1882 99.3088 59.2659 99.2821L59.25 99.2367L61.6777 98.3898L64.1229 97.5874L64.1388 97.6333Z" fill="#B13D08"/>
<path d="M63.5 100.615C64.0981 100.072 64.7813 99.7634 65.4866 99.5127C66.2001 99.2852 66.9341 99.1139 67.7537 99.1751L67.7696 99.2205L65.6512 99.9628L63.5159 100.661L63.5 100.615Z" fill="#B13D08"/>
<path d="M66.6787 102.46C66.1119 102.992 65.4584 103.291 64.7849 103.531C64.1022 103.749 63.399 103.909 62.6106 103.837L62.5947 103.792L64.6203 103.081L66.6628 102.415L66.6787 102.46Z" fill="#B13D08"/>
<path d="M66.8848 105.884C67.2623 105.415 67.726 105.181 68.2102 105.005C68.7031 104.852 69.2171 104.756 69.8152 104.892L69.8321 104.937L68.3748 105.455L66.9017 105.929L66.8848 105.884Z" fill="#B13D08"/>
<path d="M127.113 86.1584C126.03 82.2216 124.684 80.6291 124.917 75.3549C125.164 69.7299 124.162 65.9224 117.852 64.6901C111.819 63.5121 109.26 65.8889 106.592 71.5228C104.596 75.7349 103.994 77.2678 101.571 79.9204C98.7991 82.956 96.433 86.1386 94.9214 93.3029C93.0923 101.976 98.9648 107.338 108.187 109.138C117.411 110.939 125.461 108.714 127.29 100.04C128.487 94.3689 128.711 91.9581 127.113 86.1584Z" fill="#579C43"/>
<path d="M124.899 86.1187C124.025 82.6409 122.91 81.2423 123.159 76.5673C123.423 71.5809 122.618 68.2171 117.326 67.1832C112.265 66.1947 110.09 68.3247 107.79 73.3402C106.07 77.0909 105.549 78.4535 103.486 80.8273C101.125 83.5421 99.1036 86.3842 97.7618 92.7451C96.1374 100.446 101.021 105.142 108.758 106.653C116.494 108.164 123.285 106.117 124.91 98.416C125.971 93.3807 126.184 91.2428 124.899 86.1187Z" fill="#83BE2C"/>
<path d="M120.788 94.504C119.55 100.376 114.579 104.361 109.685 103.405C104.791 102.45 101.827 96.9148 103.066 91.0435C104.304 85.1717 109.276 81.1861 114.17 82.1421C119.064 83.097 122.028 88.6322 120.788 94.504Z" fill="#5F3814"/>
<path d="M116.912 83.2705C118.237 84.9894 119.174 86.9699 119.369 89.0826C119.725 92.9409 118.421 96.7552 115.402 99.3876C112.753 101.697 108.968 101.877 106.109 99.7691C104.154 98.3275 103.574 96.1911 102.794 94.1421C102.954 98.751 105.668 102.622 109.686 103.405C114.58 104.361 119.551 100.376 120.789 94.5038C121.774 89.8337 120.099 85.3798 116.912 83.2705Z" fill="#EFD0A6"/>
<path d="M127.113 86.159C126.029 82.2223 124.683 80.6297 124.916 75.3555C125.164 69.7305 124.162 65.9231 117.851 64.6908C116.548 64.4366 115.407 64.3488 114.392 64.4228C114.504 64.483 114.613 64.5417 114.717 64.6005C116.068 65.3565 117.4 66.4378 118.207 67.7436C120.255 71.0576 119.185 74.638 119.341 78.2569C119.529 82.6378 124.577 89.1709 122.808 98.6201C122.362 101.001 120.994 102.648 119.014 104.046C115.03 106.861 110.527 106.606 105.925 104.689C102.816 103.394 100.824 101.676 98.9571 99.16C96.8567 96.3317 94.9214 93.3036 94.9214 93.3036C93.0923 101.977 98.9648 107.339 108.187 109.139C117.411 110.939 125.461 108.714 127.29 100.041C128.486 94.3695 128.711 91.9587 127.113 86.159Z" fill="#58A614"/>
<path d="M58.7764 30.6319C62.5259 37.8559 66.752 56.2219 64.0755 57.5075C61.3996 58.7936 48.5291 44.4832 44.7795 37.2597C41.0305 30.0367 41.9748 23.9487 45.5151 22.2486C50.173 20.01 55.0264 23.4079 58.7764 30.6319Z" fill="#F47637"/>
<path d="M49.5605 21.6763C48.2166 21.4275 46.8574 21.6023 45.514 22.2478C44.4861 22.7413 43.6787 23.6074 43.1396 24.7617C43.1396 24.7617 43.8434 24.7351 46.5701 23.4248C49.0522 22.2325 49.5605 21.6763 49.5605 21.6763Z" fill="#83BE2C"/>
<path d="M57.3159 31.6881C60.6853 38.1787 65.0293 54.4187 62.9704 55.4082C60.911 56.3972 49.9091 43.2688 46.5397 36.7782C43.1712 30.2885 43.596 25.0227 46.3201 23.7134C49.904 21.9911 53.9464 25.1984 57.3159 31.6881Z" fill="#F89D67"/>
<path d="M54.3149 33.131C57.6834 39.6207 63.856 54.9822 62.9476 55.4185C62.0397 55.8552 52.9105 41.8272 49.5411 35.3365C46.1727 28.8459 45.1842 24.2597 46.3866 23.6823C47.9664 22.9223 50.946 26.6409 54.3149 33.131Z" fill="#F68746"/>
<path d="M45.5151 22.2479C45.1104 22.4418 44.7416 22.696 44.4082 23C46.7451 22.5474 49.0159 23.304 50.9173 24.7194C52.1247 25.619 57.8121 31.3803 61.515 48.4518C61.9058 50.2512 61.8356 53.15 59.5325 53.0785C58.4102 53.0434 57.4367 52.5647 56.5108 51.9854C56.2328 51.8112 55.9548 51.6404 55.6768 51.4687C59.3853 55.3319 62.8317 58.1044 64.0755 57.5063C66.752 56.2207 62.526 37.8547 58.7764 30.6307C55.0264 23.4076 50.173 20.0098 45.5151 22.2479Z" fill="#F1AC5C"/>
<path d="M110.097 25.8674C105.273 25.8674 101.347 22.0906 101.347 17.4476C101.347 12.8047 105.272 9.02783 110.097 9.02783C114.922 9.02783 118.848 12.8047 118.848 17.4476C118.848 22.0906 114.922 25.8674 110.097 25.8674ZM110.097 10.8553C106.32 10.8553 103.246 13.8129 103.246 17.4476C103.246 21.0828 106.32 24.0394 110.097 24.0394C113.876 24.0394 116.949 21.0828 116.949 17.4476C116.949 13.8134 113.876 10.8553 110.097 10.8553Z" fill="#FFD488"/>
<path d="M80.9173 48.7161C78.1013 46.3245 73.1407 46.855 71.6553 49.1943C70.9798 50.2598 71.8235 52.0221 73.2931 53.7124C72.1493 55.1026 70.0303 57.5924 68.8249 58.4698C67.8011 59.2145 72.3365 62.9282 72.6719 61.7374C73.1279 60.1251 75.4961 57.9822 76.8928 56.8289C78.8384 58.0883 80.8014 58.725 81.8293 57.922C84.7371 55.6494 83.7328 51.1076 80.9173 48.7161Z" fill="#FFD488"/>
<path d="M80.9188 48.7161C80.1596 48.0721 79.2445 47.6417 78.2843 47.3994C78.3464 47.4453 78.4085 47.4907 78.471 47.5332C79.1522 48.0015 79.8816 48.4807 80.4469 49.0803C81.3214 50.0106 82.0318 51.3164 82.3504 52.5388C82.6171 53.5614 82.6325 54.7083 82.0405 55.6381C81.5353 56.4317 80.8716 57.2158 79.8349 57.2262C78.6403 57.2375 77.796 56.1814 76.6789 55.9431C75.0749 55.6021 73.888 57.2588 72.9693 58.269C72.4754 58.8114 71.7819 59.7658 70.9017 59.6331C70.3657 59.5521 69.94 59.2289 69.5727 58.8558C69.3809 58.6618 69.2639 58.4353 69.1598 58.2043C69.0428 58.303 68.931 58.3943 68.8269 58.4698C67.8031 59.2146 72.3384 62.9282 72.6739 61.7374C73.1299 60.1251 75.4981 57.9823 76.8948 56.8289C78.8404 58.0884 80.8033 58.725 81.8313 57.9221C84.7386 55.6494 83.7342 51.1077 80.9188 48.7161Z" fill="#BFB44B"/>
<path d="M75.2399 53.1213C75.2399 53.1213 78.9925 51.1201 78.5775 50.3803C78.1749 49.6613 75.7328 48.2291 73.8867 49.9756C73.2764 50.553 72.9824 51.7917 75.2399 53.1213Z" fill="#D39346"/>
<path d="M77.4814 55.0255C77.4814 55.0255 79.1054 51.598 79.8927 51.4989C80.3098 51.4465 82.4661 53.9482 80.8935 55.9281C80.3739 56.582 79.1331 57.0158 77.4814 55.0255Z" fill="#D39346"/>
<path d="M75.9179 49.9058C76.4904 49.8446 76.9946 49.9527 77.5491 50.0825C78.0405 50.199 78.7078 50.3677 79.1889 50.117C79.6936 49.854 79.7152 49.4444 79.5474 49.018C79.3597 48.8803 79.1643 48.751 78.9612 48.636C76.8751 47.4501 74.1145 47.6204 72.9111 49.2628C73.8857 49.9754 74.7715 50.0282 75.9179 49.9058Z" fill="white"/>
<path d="M58.999 4.60521C57.0119 6.82995 57.5115 10.6981 59.5011 11.8327C60.407 12.3494 61.8842 11.6713 63.2948 10.5061C64.4802 11.3841 66.6027 13.0122 67.3551 13.9449C67.9943 14.736 71.079 11.1551 70.0706 10.9049C68.7057 10.5673 66.873 8.73984 65.8856 7.66251C66.9268 6.12917 67.4434 4.58941 66.7545 3.79536C64.8064 1.5484 60.9866 2.38095 58.999 4.60521Z" fill="#FFD488"/>
<path d="M58.9998 4.60453C58.4643 5.20415 58.1114 5.92319 57.917 6.6753C57.9549 6.62694 57.9924 6.57759 58.0288 6.52774C58.4161 5.9913 58.8126 5.41636 59.3127 4.96973C60.0877 4.27586 61.1823 3.70782 62.2097 3.44528C63.0694 3.22665 64.0363 3.20247 64.8272 3.65502C65.5022 4.04045 66.1711 4.55074 66.1901 5.3601C66.2131 6.29234 65.3304 6.96253 65.1421 7.83802C64.8713 9.094 66.2819 10.003 67.1426 10.7102C67.6052 11.0898 68.4182 11.6218 68.3157 12.3097C68.2526 12.7297 67.9848 13.0653 67.6745 13.356C67.5129 13.5075 67.3226 13.6007 67.1287 13.6851C67.2134 13.7754 67.2913 13.8623 67.356 13.9427C67.9951 14.7338 71.0798 11.1529 70.0714 10.9027C68.7065 10.5652 66.8738 8.73769 65.8864 7.66035C66.9277 6.12701 67.4442 4.58726 66.7553 3.7932C64.8072 1.54773 60.9874 2.38028 58.9998 4.60453Z" fill="#BFB44B"/>
<path d="M62.7747 8.99213C62.7747 8.99213 61.0466 6.08387 60.4281 6.41551C59.8254 6.73679 58.6436 8.65951 60.1362 10.0833C60.6291 10.5531 61.6776 10.7693 62.7747 8.99213Z" fill="#D39346"/>
<path d="M64.3575 7.2203C64.3575 7.2203 61.4481 5.98948 61.3563 5.37506C61.3081 5.05033 63.3952 3.33982 65.0812 4.54646C65.6393 4.94472 66.0178 5.90953 64.3575 7.2203Z" fill="#D39346"/>
<path d="M60.0554 8.49624C59.9984 8.0506 60.0831 7.65579 60.1877 7.2215C60.28 6.83656 60.4154 6.31393 60.1985 5.94035C59.9723 5.5485 59.626 5.53665 59.2685 5.67138C59.1531 5.81993 59.047 5.9739 58.9521 6.13331C57.9734 7.77571 58.1468 9.92989 59.545 10.8518C60.1359 10.0834 60.1713 9.39097 60.0554 8.49624Z" fill="white"/>
<path d="M126.068 67.9518C125.092 67.9518 124.243 67.5116 123.676 66.7131C122.962 65.7069 122.767 64.1804 123.212 63.0834C123.719 61.8323 123.324 61.1952 122.942 60.5773C122.911 60.5275 122.881 60.4791 122.853 60.4317C121.629 58.4083 121.882 57.1306 122.31 56.415C122.84 55.5282 123.935 54.9991 125.239 54.9991C125.416 54.9991 125.593 55.009 125.764 55.0293C125.988 55.0559 126.195 55.0692 126.381 55.0692C127.117 55.0692 127.408 54.8728 127.775 54.6241C127.935 54.515 128.116 54.3916 128.333 54.2895C129.03 53.9569 129.675 53.7891 130.252 53.7891C131.057 53.7891 131.739 54.1084 132.223 54.7134C133.062 55.7631 133.109 57.5096 132.875 58.36C132.519 59.6569 133.094 60.5966 133.474 61.2189L133.531 61.3116C134.678 63.2062 134.389 64.4918 133.944 65.237C133.353 66.227 132.237 66.6697 131.393 66.6697C131.248 66.6697 131.108 66.6579 130.976 66.6327C130.7 66.5809 130.445 66.5547 130.216 66.5547C129.532 66.5547 129.163 66.7827 128.733 67.0463C128.671 67.0847 128.61 67.1227 128.549 67.1593C127.667 67.6848 126.832 67.9518 126.068 67.9518ZM125.239 56.4979C124.668 56.4979 123.954 56.6731 123.661 57.1632C123.347 57.6893 123.538 58.5825 124.2 59.6776C124.226 59.7206 124.254 59.765 124.282 59.8104C124.718 60.5161 125.447 61.6961 124.664 63.6287C124.438 64.1854 124.488 65.1995 124.963 65.8677C125.242 66.2611 125.603 66.4521 126.068 66.4521C126.537 66.4521 127.096 66.2611 127.727 65.8845C127.782 65.852 127.837 65.8179 127.893 65.7834C128.392 65.4769 129.076 65.0554 130.215 65.0554C130.544 65.0554 130.901 65.091 131.274 65.1615C131.298 65.166 131.337 65.1714 131.392 65.1714C131.711 65.1714 132.293 64.9898 132.592 64.4904C132.935 63.9144 132.794 63.0769 132.183 62.0672L132.13 61.9794C131.713 61.2973 130.845 59.878 131.367 57.9785C131.501 57.4914 131.488 56.2551 130.987 55.6299C130.799 55.394 130.572 55.2893 130.252 55.2893C129.917 55.2893 129.504 55.4053 129.025 55.6338C128.916 55.6851 128.803 55.7621 128.672 55.8505C128.224 56.154 127.611 56.5695 126.38 56.5695C126.131 56.5695 125.859 56.5522 125.573 56.5182C125.465 56.5049 125.351 56.4979 125.239 56.4979Z" fill="#C41B25"/>
<path d="M85.6263 21.7031C84.1311 21.7031 82.8287 21.0295 81.9604 19.8056C80.8658 18.2648 80.5662 15.9246 81.2484 14.2427C82.026 12.3259 81.4208 11.3478 80.8355 10.4022C80.7878 10.3252 80.7421 10.2512 80.698 10.1787C78.8233 7.07892 79.2115 5.12116 79.8666 4.02359C80.679 2.66496 82.3568 1.85313 84.3547 1.85313C84.6255 1.85313 84.8974 1.86942 85.161 1.901C85.5037 1.94147 85.8207 1.9622 86.1059 1.9622C87.2338 1.9622 87.6785 1.66116 88.2417 1.27918C88.4874 1.11287 88.7654 0.923851 89.0968 0.766915C90.1642 0.258598 91.1541 0 92.0379 0C93.271 0 94.3153 0.490055 95.0576 1.41736C96.3445 3.02571 96.4148 5.70252 96.0567 7.00539C95.5115 8.99078 96.3922 10.4318 96.9744 11.3853L97.0621 11.5289C98.8209 14.4317 98.3772 16.4023 97.6945 17.5438C96.7882 19.0609 95.0786 19.7404 93.786 19.7404C93.5634 19.7404 93.3479 19.7212 93.1453 19.6827C92.7242 19.6037 92.3323 19.5633 91.9815 19.5633C90.9341 19.5633 90.3668 19.9122 89.7087 20.3169C89.6133 20.3761 89.5194 20.4333 89.4256 20.4896C88.0755 21.295 86.7968 21.7031 85.6263 21.7031ZM84.3547 4.15191C83.4802 4.15191 82.3861 4.41988 81.9373 5.17002C81.4551 5.9774 81.748 7.34542 82.7626 9.02335C82.8026 9.08948 82.8441 9.15709 82.8877 9.22717C83.5561 10.307 84.6748 12.1162 83.473 15.0787C83.1278 15.9315 83.2047 17.4851 83.9321 18.5096C84.3604 19.1122 84.9138 19.4053 85.6263 19.4053C86.3459 19.4053 87.201 19.1122 88.1684 18.5358C88.2525 18.4859 88.3366 18.4341 88.4223 18.3813C89.1876 17.91 90.236 17.264 91.982 17.264C92.4862 17.264 93.033 17.3188 93.6054 17.4269C93.6408 17.4343 93.7008 17.4417 93.786 17.4417C94.2743 17.4417 95.1663 17.1638 95.6238 16.3984C96.1506 15.516 95.9342 14.2314 94.9975 12.6857L94.9155 12.551C94.2764 11.5062 92.9468 9.3318 93.7465 6.4186C93.9517 5.67241 93.9322 3.77832 93.1648 2.81943C92.8755 2.45966 92.5288 2.29828 92.0379 2.29828C91.5245 2.29828 90.892 2.47545 90.1565 2.82584C89.9908 2.9048 89.8169 3.02226 89.6169 3.15847C88.9301 3.62286 87.9899 4.25999 86.1054 4.25999C85.7232 4.25999 85.3067 4.23383 84.8682 4.18201C84.7015 4.16227 84.5281 4.15191 84.3547 4.15191Z" fill="#83BE2C"/>
<path d="M27.0516 31.0718C27.0516 31.0718 24.0074 28.8333 22.1578 28.7721C22.1578 28.7721 22.086 27.8941 23.6032 27.334C23.6032 27.334 26.7372 30.0715 27.5051 30.3933L27.0516 31.0718Z" fill="#83BE2C"/>
<path d="M22.1573 28.7724C22.1573 28.7724 22.146 28.3815 22.4809 28.0449C22.4809 28.0449 24.7142 29.4223 25.8519 29.9405C27.2332 30.5687 27.4989 30.3906 27.5051 30.3935L27.0512 31.0721C27.0512 31.0721 24.0069 28.8336 22.1573 28.7724Z" fill="#A2B159"/>
<path d="M26.7131 32.438C26.2797 31.6237 25.8801 30.232 28.2012 29.5796C30.5212 28.9281 33.4756 32.6087 35.5576 34.793C37.574 36.9092 43.2624 38.9903 43.3891 39.7587C43.4799 40.3134 38.9368 41.7762 32.7991 37.4002C31.05 36.1526 28.0283 34.9085 26.7131 32.438Z" fill="#C41B25"/>
<path d="M29.7883 31.9051C30.5382 32.6888 31.8026 33.1147 32.9926 33.0737C31.701 31.6746 30.1017 29.9774 28.804 30.3421C28.5685 30.4083 28.3762 30.4862 28.2197 30.5721C28.8322 30.7656 29.4164 31.5157 29.7883 31.9051Z" fill="white"/>
<path d="M39.2541 39.0284C37.3706 38.5477 35.4415 37.8736 33.8144 36.8254C32.9799 36.2885 32.1987 35.6839 31.4144 35.0813C30.6532 34.4955 29.8941 33.9053 29.2196 33.2257C28.5887 32.5901 27.9906 31.8977 27.5623 31.1165C27.3689 30.7646 27.2407 30.4033 27.1412 30.0332C26.0389 30.7503 26.3651 31.7817 26.7144 32.4381C28.0291 34.9086 31.0513 36.1527 32.7999 37.4003C38.9381 41.7763 43.4806 40.3135 43.3899 39.7588C43.377 39.6769 43.2965 39.5797 43.1678 39.4696C41.8716 39.6848 40.5123 39.3497 39.2541 39.0284Z" fill="#F64D9F"/>
<path d="M131.795 18.4874C131.795 18.4874 134.839 16.2493 136.689 16.1876C136.689 16.1876 136.76 15.3106 135.243 14.75C135.243 14.75 132.109 17.487 131.341 17.8088L131.795 18.4874Z" fill="#83BE2C"/>
<path d="M136.688 16.1874C136.688 16.1874 136.7 15.797 136.364 15.4604C136.364 15.4604 134.131 16.8373 132.993 17.3555C131.612 17.9843 131.347 17.8056 131.34 17.8086L131.795 18.4872C131.795 18.4872 134.838 16.2491 136.688 16.1874Z" fill="#A2B159"/>
<path d="M132.132 19.8531C132.566 19.0398 132.965 17.6476 130.644 16.9957C128.324 16.3438 125.369 20.0253 123.287 22.2091C121.271 24.3253 115.582 26.4064 115.456 27.1743C115.366 27.7295 119.909 29.1918 126.046 24.8159C127.795 23.5683 130.817 22.3236 132.132 19.8531Z" fill="#C41B25"/>
<path d="M129.057 19.3205C128.306 20.1042 127.042 20.5311 125.853 20.4896C127.144 19.09 128.743 17.3938 130.041 17.7581C130.276 17.8242 130.468 17.9017 130.626 17.9875C130.012 18.181 129.429 18.9311 129.057 19.3205Z" fill="white"/>
<path d="M119.592 26.444C121.476 25.9638 123.405 25.2896 125.031 24.2414C125.866 23.704 126.647 23.0999 127.432 22.4978C128.193 21.912 128.952 21.3208 129.627 20.6417C130.258 20.0056 130.856 19.3137 131.285 18.533C131.477 18.1811 131.607 17.8189 131.706 17.4487C132.807 18.1653 132.482 19.1972 132.132 19.8531C130.817 22.3236 127.795 23.5683 126.046 24.8159C119.909 29.1918 115.366 27.7296 115.456 27.1744C115.47 27.0929 115.55 26.9952 115.678 26.8852C116.974 27.1003 118.334 26.7652 119.592 26.444Z" fill="#F64D9F"/>
<path d="M97.0922 32.5137C97.0922 41.8978 90.8299 47.3373 81.4878 47.3373C72.1484 47.3373 65.8096 41.9442 65.8096 32.5611C65.8096 26.2496 67.8741 21.9437 72.9727 19.3118C79.0648 16.1681 84.8455 16.673 89.4285 19.031C93.9223 21.3431 97.0922 25.2556 97.0922 32.5137Z" fill="#C41B25"/>
<path d="M75.8055 27.2147C76.0004 26.881 78.5948 27.3706 77.9891 28.408C77.41 29.398 75.5424 27.6657 75.8055 27.2147Z" fill="#E3B126"/>
<path d="M75.7831 36.9477C75.5953 36.6106 77.4147 34.7664 77.9994 35.8141C78.5585 36.8149 76.038 37.4032 75.7831 36.9477Z" fill="#E3B126"/>
<path d="M74.7115 33.4852C74.6413 33.1076 76.9659 31.8965 77.1844 33.0672C77.3931 34.1854 74.8064 33.9935 74.7115 33.4852Z" fill="#E3B126"/>
<path d="M74.8877 30.2921C74.96 29.9151 77.5795 29.5706 77.3554 30.7403C77.1415 31.8576 74.7912 30.8005 74.8877 30.2921Z" fill="#E3B126"/>
<path d="M87.1233 27.2147C86.9284 26.881 84.334 27.3706 84.9402 28.408C85.5188 29.398 87.3864 27.6657 87.1233 27.2147Z" fill="#E3B126"/>
<path d="M87.1404 36.3473C87.3282 36.0097 85.5093 34.165 84.9246 35.2122C84.365 36.214 86.886 36.8023 87.1404 36.3473Z" fill="#E3B126"/>
<path d="M88.0376 33.4852C88.1079 33.1076 85.7838 31.8965 85.5648 33.0672C85.3555 34.1854 87.9422 33.9935 88.0376 33.4852Z" fill="#E3B126"/>
<path d="M88.0945 30.2921C88.0222 29.9151 85.4037 29.5706 85.6279 30.7403C85.8428 31.8576 88.1925 30.8005 88.0945 30.2921Z" fill="#E3B126"/>
<path d="M88.0615 20.261C84.0714 18.1676 79.038 17.7195 73.7333 20.5098C69.2944 22.846 67.4971 26.6688 67.4971 32.2721C67.4971 40.6036 73.0162 45.3916 81.1477 45.3916C89.2802 45.3916 94.7337 40.5626 94.7337 32.2311C94.7343 25.7869 91.9737 22.3131 88.0615 20.261ZM70.2987 32.4656C70.2987 28.101 71.7267 25.1241 75.2521 23.3045C76.4949 22.6625 77.7188 22.243 78.9078 22.0086C79.3863 23.7748 79.69 25.9004 79.849 28.1779C78.6451 28.9133 77.8147 30.4461 77.8147 32.2223C77.8147 34.0073 78.6533 35.5461 79.8664 36.2765C79.7377 38.5022 79.5079 40.6544 79.1996 42.5618C73.8205 41.8768 70.2987 38.2801 70.2987 32.4656ZM83.8011 42.4488C83.6113 40.84 83.2436 38.8225 82.9932 36.3016C84.2304 35.5816 85.0881 34.028 85.0881 32.2218C85.0881 30.3361 84.1545 28.7228 82.8301 28.0491C82.9414 26.2034 83.1599 24.1963 83.5267 22.013C84.6269 22.2371 85.6682 22.6131 86.632 23.1096C89.7398 24.7086 91.9321 27.414 91.9321 32.4335C91.9321 37.984 88.7607 41.5368 83.8011 42.4488Z" fill="#FFD488"/>
<path d="M89.4514 19.0778C87.3263 17.9847 84.9443 17.2908 82.3919 17.1733C82.5402 17.238 82.6879 17.3041 82.8341 17.3727C85.2808 18.5206 87.9721 19.9454 89.7689 21.9619C91.2867 23.666 92.2212 25.7135 92.5931 27.9264C92.9906 30.2963 93.165 32.8872 92.469 35.22C91.7755 37.545 90.4501 39.6054 88.4989 41.1432C86.4502 42.7574 82.4258 43.4775 79.8452 43.5475C71.6917 43.7681 69.1578 40.093 66.6875 38.115C68.7126 44.0682 74.1886 47.3836 81.5112 47.3836C90.8522 47.3836 97.1151 41.9451 97.1151 32.5605C97.1151 25.3025 93.9452 21.3899 89.4514 19.0778Z" fill="#F06060"/>
<path d="M129.793 97.9242C124.231 100.718 122.851 96.7793 124.261 96.84C126.824 96.9505 128.073 95.2543 128.073 95.2543C121.154 94.9972 122.598 89.6401 124.222 90.2837C128.808 92.0998 128.944 90.0438 128.944 90.0438C128.513 89.7857 127.009 90.3661 125.64 87.6182C124.269 84.8703 126.281 83.7713 126.903 84.3921C129.886 87.3665 131.699 86.5399 131.526 85.3515C131.353 84.1632 131.35 80.9805 132.879 80.8788C134.408 80.7767 135.011 79.8356 135.715 79.4758C136.259 79.1984 137.451 79.1846 138.029 80.2891C138.455 81.1034 138.273 82.5869 139.352 83.6341C140.431 84.6813 138.06 86.5937 137.115 87.3764C136.17 88.1601 136.965 89.9323 141.247 89.5913C142.14 89.5197 142.898 91.6221 139.984 92.8174C137.07 94.0121 136.338 92.6209 135.837 92.542C135.837 92.542 134.53 94.1725 139.22 95.7197C140.882 96.2675 138.292 101.21 132.918 97.0092C132.918 97.0092 132.693 99.0775 134.694 100.622C135.794 101.472 132.055 103.554 129.793 97.9242Z" fill="#579C43"/>
<path opacity="0.5" d="M128.478 87.3362C127.968 87.3427 128.68 88.571 128.985 88.9179C129.402 89.3932 130.373 89.6893 131.04 89.6464C131.765 89.6 132.438 88.8938 132.799 88.2512C133.603 86.8205 134.004 85.5838 134.483 84.3589C134.807 83.5328 135.276 82.3962 135.104 81.5474C134.701 81.843 134.207 82.1055 133.518 82.1781C132.088 82.3301 131.982 85.5369 132.102 86.7292C132.21 87.7982 130.84 87.3056 128.478 87.3362Z" fill="white"/>
<path d="M126.541 106.229L135.876 82.3916" stroke="#83BE2C" stroke-width="0.7762" stroke-miterlimit="10"/>
<path d="M139.219 95.7198C134.529 94.1726 135.836 92.5421 135.836 92.5421C136.337 92.6206 137.069 94.0123 139.983 92.8175C142.897 91.6222 142.139 89.5198 141.246 89.5914C136.964 89.9319 136.17 88.1602 137.114 87.3765C138.059 86.5938 140.43 84.6814 139.351 83.6342C138.273 82.587 138.454 81.1035 138.029 80.2892C137.728 79.7157 137.264 79.4453 136.81 79.355C136.84 79.4571 136.865 79.5613 136.888 79.6644C137.136 80.7906 137.264 81.9168 137.162 83.0677C136.913 85.8762 135.878 88.4928 134.852 91.1084C134.36 92.3644 133.864 93.7245 132.81 94.6583C131.869 95.4918 130.683 96.1516 129.546 96.7063C128.06 97.4323 126.001 97.6894 124.527 96.844C124.439 96.8445 124.351 96.843 124.261 96.8391C122.851 96.7784 124.231 100.717 129.792 97.9233C132.055 103.553 135.794 101.471 134.693 100.621C132.693 99.0772 132.917 97.0088 132.917 97.0088C138.292 101.21 140.881 96.2681 139.219 95.7198Z" fill="#A2B159"/>
<path d="M53.7665 100.45C51.3019 106.001 47.6411 103.794 48.7716 102.982C50.8279 101.505 50.6781 99.4322 50.6781 99.4322C45.1544 103.45 42.7446 98.425 44.425 97.9324C49.1696 96.5427 47.9211 94.8697 47.9211 94.8697C47.4174 94.9324 46.6368 96.2979 43.7664 95.0064C40.8971 93.7149 41.7306 91.6392 42.6205 91.7403C46.8871 92.2235 47.7457 90.4789 46.8291 89.6651C45.9135 88.8508 43.8156 86.3897 44.9313 85.3795C46.0479 84.3688 45.8945 83.2727 46.2028 82.5665C46.4418 82.0202 47.3544 81.2824 48.529 81.7852C49.3948 82.1559 50.2298 83.4143 51.7543 83.5673C53.2792 83.7203 52.7037 86.6453 52.4883 87.8273C52.2723 89.0093 54.0543 89.8951 57.1431 87.0219C57.7869 86.4228 59.7581 87.5875 58.289 90.2884C56.821 92.9889 55.3386 92.3582 54.9001 92.6025C54.9001 92.6025 54.9611 94.6609 59.6098 92.9998C61.2558 92.411 62.5064 97.813 55.5818 97.8387C55.5818 97.8387 56.7687 99.5763 59.3339 99.5511C60.7449 99.5373 59.2231 103.428 53.7665 100.45Z" fill="#579C43"/>
<path opacity="0.5" d="M45.7756 93.0585C45.3852 93.3744 46.745 93.8906 47.2102 93.9735C47.8458 94.087 48.7916 93.7243 49.2794 93.2845C49.8093 92.8063 49.8657 91.8504 49.7221 91.1333C49.4015 89.5358 48.8978 88.3351 48.4623 87.0944C48.1694 86.2589 47.7842 85.0933 47.0913 84.541C46.9738 85.0153 46.765 85.5201 46.2798 85.9959C45.2729 86.9844 47.3026 89.5309 48.1807 90.3793C48.9691 91.1417 47.5842 91.5948 45.7756 93.0585Z" fill="white"/>
<path d="M56.7157 108.858L48.2451 84.7231" stroke="#83BE2C" stroke-width="0.7762" stroke-miterlimit="10"/>
<path d="M59.6084 92.9996C54.9597 94.6608 54.8986 92.6023 54.8986 92.6023C55.3372 92.358 56.8195 92.9883 58.2876 90.2883C59.7561 87.5873 57.7849 86.4226 57.1417 87.0217C54.0528 89.8949 52.2709 89.0086 52.4868 87.8271C52.7023 86.6452 53.2778 83.7201 51.7528 83.5671C50.2284 83.4136 49.3933 82.1557 48.5275 81.7851C47.9181 81.5245 47.3801 81.5985 46.9697 81.8053C47.0595 81.8665 47.1477 81.9311 47.2334 81.9968C48.1674 82.7168 49.0081 83.5099 49.6872 84.4633C51.3435 86.7888 52.2647 89.4439 53.1926 92.0925C53.6394 93.3648 54.1513 94.719 53.9512 96.0845C53.7712 97.303 53.288 98.5363 52.7741 99.6585C52.1006 101.126 50.6777 102.58 48.9804 102.824C48.9127 102.877 48.844 102.931 48.7711 102.982C47.6406 103.795 51.3019 106.001 53.7661 100.45C59.2232 103.427 60.7445 99.5371 59.3334 99.551C56.7683 99.5761 55.5813 97.8385 55.5813 97.8385C62.5054 97.8128 61.2544 92.4104 59.6084 92.9996Z" fill="#A2B159"/>
<path d="M23.8838 93.9233C24.6547 118.547 45.7649 140.394 82.4627 140.394C117.726 140.394 140.271 118.547 141.042 93.9233C141.042 93.9233 140.369 99.7547 82.4627 99.7547C42.6212 99.7547 23.8838 93.9233 23.8838 93.9233Z" fill="#E27777"/>
<path d="M48.3894 114.337C50.5181 116.337 53.904 117.366 56.7784 118.147C58.2336 118.543 59.7206 118.737 61.2163 118.925C62.7505 119.118 64.2919 119.276 65.8389 119.33C69.4412 119.456 73.103 119.071 76.3647 117.501C78.9027 116.279 80.9745 114.415 82.406 112.056C83.6745 109.967 84.488 107.701 85.1779 105.388C80.7452 105.515 75.3332 105.548 68.7159 105.438C56.4886 105.236 47.4815 104.201 41.4951 103.208C41.6695 104.867 41.4377 107.807 48.3894 114.337Z" fill="#FBA2A2"/>
<path d="M122.925 98.288C121.379 101.352 119.71 104.361 118.105 107.355C115.889 111.482 113.169 115.294 109.574 118.428C105.961 121.579 101.706 124.266 97.2279 126.127C86.7046 130.5 75.0872 130.64 63.9319 128.83C59.2022 128.063 54.6679 126.844 50.4941 124.51C46.7072 122.393 43.33 119.627 40.5217 116.394C35.2949 110.377 31.9116 103.061 30.1815 95.4276C25.9565 94.5674 23.8848 93.9233 23.8848 93.9233C24.6557 118.547 45.7659 140.394 82.4636 140.394C117.727 140.394 140.272 118.547 141.043 93.9233C141.043 93.9233 140.736 96.5607 122.925 98.288Z" fill="#C93550"/>
<path d="M121.586 39.9744C120.917 37.6179 119.518 36.2632 118.043 35.4548C116.066 34.3716 113.869 34.3918 112.311 35.5067C110.09 37.0948 106.68 42.1197 102.541 45.4559C99.0774 48.2481 94.9119 48.6449 93.2618 52.2777C91.3127 56.5658 93.17 59.4331 97.2545 61.5428C102.368 64.1856 106.605 62.0043 110.156 58.8043C114.246 55.1198 123.313 46.0579 121.586 39.9744Z" fill="#392346"/>
<path d="M121.585 39.9742C121.574 39.9397 121.563 39.9066 121.552 39.873C120.945 40.8931 120.277 41.8816 119.612 42.8652C117.383 46.1628 114.902 49.4822 111.587 51.8555C109.756 53.1648 107.985 54.5792 106.007 55.6832C104.157 56.7156 101.868 57.6937 99.6773 57.56C97.5876 57.4322 95.6395 56.3139 94.4079 54.6981C93.9012 54.0338 93.3221 53.2265 93.2205 52.3712C91.3416 56.608 93.1995 59.4491 97.2537 61.5436C102.368 64.1864 106.604 62.005 110.155 58.8051C114.245 55.1196 123.312 46.0577 121.585 39.9742Z" fill="#773053"/>
<path d="M118.324 35.8361C118.324 35.8361 119.014 33.2466 120.728 32.3228C120.728 32.3228 120.011 31.3185 118.297 31.5006C118.297 31.5006 117.53 34.3797 116.969 35.043L118.324 35.8361Z" fill="#83BE2C"/>
<path d="M120.728 32.3225C120.728 32.3225 120.518 32.0289 120.055 31.7886C120.055 31.7886 119.013 33.2045 118.659 33.7182C118.221 34.3548 117.315 34.9303 116.983 35.024C116.978 35.03 116.974 35.0369 116.969 35.0428L118.325 35.8359C118.325 35.8359 119.015 33.2464 120.728 32.3225Z" fill="#A2B159"/>
<path d="M113.928 34.7514C113.928 34.7514 111.484 36.5705 111.419 38.1369C111.419 38.1369 113.508 36.8054 114.978 36.8439C114.978 36.8439 113.889 38.2696 114.17 39.5069C114.17 39.5069 116.075 38.0323 117.471 38.2267C117.471 38.2267 118.202 39.3978 117.648 40.6395C117.648 40.6395 119.67 40.3054 119.218 38.1971C119.218 38.1971 120.786 40.3004 119.595 42.3677C119.595 42.3677 121.435 41.2652 121.379 39.3376C121.379 39.3376 119.668 33.8177 113.928 34.7514Z" fill="#83BE2C"/>
<path d="M121.378 39.338C121.378 39.338 120.967 38.0129 119.874 36.7717C119.999 37.2672 120.033 37.8165 119.849 38.2626C119.824 38.3223 119.282 37.8895 119 37.7903C118.883 38.1718 118.76 38.5824 118.374 38.7833C118.324 38.8094 118.181 38.2034 118.154 37.9369C118.136 37.7573 118.136 37.2978 117.819 37.2954C117.639 37.2934 117.461 37.3072 117.287 37.3496C116.747 37.4804 115.67 37.9221 115.666 37.8757C115.625 37.5248 115.75 37.2026 115.893 36.8833C115.97 36.714 116.056 36.5482 116.142 36.3833C116.202 36.2684 116.383 36.0803 116.069 36.0793C115.984 36.0769 115.898 36.0788 115.812 36.0838C115.227 36.0877 114.663 36.0838 114.095 36.2432C113.819 36.3197 112.98 36.4549 112.999 36.4125C113.325 35.6732 113.923 35.1663 114.549 34.6743C114.347 34.6916 114.14 34.7173 113.926 34.7508C113.926 34.7508 111.482 36.5699 111.417 38.1363C111.417 38.1363 113.506 36.8048 114.976 36.8433C114.976 36.8433 113.887 38.269 114.168 39.5063C114.168 39.5063 116.073 38.0317 117.469 38.2261C117.469 38.2261 118.201 39.3972 117.646 40.6389C117.646 40.6389 119.668 40.3048 119.216 38.1965C119.216 38.1965 120.784 40.2998 119.593 42.3672C119.594 42.3682 121.435 41.2656 121.378 39.338Z" fill="#A2B159"/>
<path d="M34.4402 8.16602L33.7549 8.58501L35.3481 11.0017L35.543 13.6775L35.9933 13.6331L36.0862 11.4972L37.8394 12.3915L38.1594 11.8787L36.0292 10.5669L34.4402 8.16602Z" fill="#579C43"/>
<path d="M36.5956 12.2949C36.0524 12.367 34.4228 12.9444 35.2178 15.1469C35.5918 16.1843 35.0968 16.9729 34.5695 17.5809C33.8524 18.4071 35.0039 22.6103 36.5802 22.2174C38.2257 21.8059 38.5129 20.1003 38.7853 18.0947C38.9227 17.0751 39.8752 16.2598 39.2151 15.1558C38.3077 13.6383 39.0597 11.9653 36.5956 12.2949Z" fill="#83BE2C"/>
<path d="M38.1723 16.3119C37.4218 16.8508 36.7279 17.4746 36.6483 18.4365C36.6037 18.9744 36.8299 19.3598 36.9146 19.7926C37.0064 20.2649 37.1987 21.0407 37.449 21.0797C37.6388 21.1098 38.1574 19.4763 38.319 18.2855C38.4282 17.4761 39.1817 16.8286 38.6683 15.9536C38.4944 16.0671 38.3308 16.1989 38.1723 16.3119Z" fill="#DCDDDE"/>
<path d="M35.9264 17.405C35.9172 17.8664 35.9874 18.3214 36.0398 18.7784C36.0946 19.2621 36.1552 19.7482 36.267 20.2244C36.4163 20.8576 36.6532 21.548 37.1487 21.9971C36.9795 22.0899 36.7922 22.1639 36.5819 22.2167C35.0057 22.6101 33.8547 18.4063 34.5712 17.5802C35.098 16.9727 35.593 16.1836 35.2196 15.1462C34.424 12.9437 36.0541 12.3663 36.5973 12.2942C37.537 12.1688 38.0079 12.3347 38.2823 12.6717C36.8415 13.7797 35.9577 15.7093 35.9264 17.405Z" fill="#DBDCA3"/>
<path d="M37.772 11.4479C38.2747 11.1464 40.0443 10.5394 40.9686 12.8979C41.4046 14.0083 42.3843 14.334 43.2588 14.4875C44.4493 14.6952 46.5195 18.9528 44.9269 19.6763C43.2655 20.4313 41.799 19.2074 40.1289 17.7224C39.2805 16.9684 37.9028 16.9269 37.6566 15.5707C37.317 13.7043 35.4889 12.816 37.772 11.4479Z" fill="#83BE2C"/>
<path d="M43.335 18.3652C43.2385 18.0055 43.0185 17.6432 42.8031 17.3377C42.5804 17.0209 42.2814 16.7505 41.9439 16.5471C41.7726 16.4435 41.6007 16.3517 41.392 16.3527C41.2263 16.3542 41.0622 16.3794 40.897 16.3818C40.184 16.3907 39.2818 15.6781 38.8037 16.1074C38.5288 16.3542 39.7762 16.8906 40.3087 17.3762C41.3699 18.346 42.8359 19.7796 43.356 19.2975C43.5889 19.0823 43.4268 18.7058 43.335 18.3652Z" fill="#DCDDDE"/>
<path d="M42.0078 15.2447C42.3469 15.6223 42.6167 16.0462 42.9024 16.4607C43.2045 16.9 43.5051 17.3427 43.7538 17.813C44.0862 18.4387 44.3853 19.1691 44.2986 19.8724C44.5053 19.8364 44.7146 19.7727 44.9269 19.6765C46.5196 18.953 44.4494 14.6955 43.2589 14.4877C42.3843 14.3342 41.4046 14.0085 40.9686 12.8981C40.0438 10.5396 38.2747 11.1461 37.772 11.4482C36.9016 11.9698 36.6297 12.4219 36.6441 12.8853C38.6368 12.8443 40.7609 13.8575 42.0078 15.2447Z" fill="#DBDCA3"/>
<path d="M67.9984 80.2713H68.8098V77.4089L70.1363 75.0489L69.7316 74.8545L68.4631 76.6099L67.4808 74.9517L66.9248 75.2192L67.9927 77.4247L67.9984 80.2713Z" fill="#579C43"/>
<path d="M68.4756 75.6741C68.9741 75.8922 70.6714 76.245 71.227 73.9764C71.4885 72.9079 72.3462 72.4963 73.1289 72.2555C74.1948 71.9268 75.5638 67.7843 74.0137 67.3051C72.3959 66.8037 71.2028 68.0952 69.8564 69.6483C69.1721 70.4384 67.9139 70.6353 67.857 71.9076C67.778 73.6566 66.2115 74.6826 68.4756 75.6741Z" fill="#83BE2C"/>
<path d="M69.3827 71.469C70.3158 71.4018 71.2498 71.2326 71.8525 70.4617C72.189 70.0304 72.2126 69.5882 72.3829 69.1786C72.568 68.7329 72.8378 67.9789 72.6486 67.8165C72.5044 67.6936 71.158 68.805 70.3583 69.7269C69.8146 70.3541 68.8175 70.5125 68.7646 71.5163C68.9739 71.5099 69.1858 71.4833 69.3827 71.469Z" fill="#DCDDDE"/>
<path d="M71.8878 71.7035C72.1515 71.3191 72.3469 70.8986 72.5572 70.4855C72.7798 70.0483 72.9998 69.6076 73.1701 69.1481C73.3963 68.5362 73.5805 67.8314 73.4133 67.1963C73.6072 67.2057 73.8072 67.2397 74.0139 67.3044C75.564 67.7841 74.1955 71.9261 73.1291 72.2548C72.3464 72.4956 71.4887 72.9072 71.2271 73.9756C70.6716 76.2448 68.9738 75.892 68.4758 75.6733C67.612 75.2943 67.3068 74.9113 67.2627 74.485C69.0954 74.293 70.9168 73.1199 71.8878 71.7035Z" fill="#DBDCA3"/>
<path d="M67.0113 75.7832C66.4188 75.7782 64.5861 75.379 65.1196 72.91C65.3704 71.7477 64.7231 70.9685 64.0701 70.3886C63.1817 69.5985 63.8044 64.9368 65.552 65.147C67.3754 65.3666 67.9325 67.1556 68.5152 69.2698C68.8116 70.3447 69.9519 71.0904 69.4036 72.3622C68.6516 74.1121 69.7006 75.8054 67.0113 75.7832Z" fill="#83BE2C"/>
<path d="M66.1665 67.0749C66.048 67.4278 66.0311 67.8478 66.0434 68.2164C66.0552 68.5979 66.1568 68.9819 66.3286 69.3268C66.4163 69.503 66.5097 69.6683 66.6866 69.7759C66.8267 69.8598 66.9795 69.923 67.1196 70.0064C67.7274 70.3662 68.0921 71.4331 68.7353 71.3172C69.1046 71.2505 68.3496 70.1544 68.1706 69.4695C67.8146 68.1044 67.3755 66.1383 66.6677 66.2764C66.3522 66.3381 66.2778 66.7403 66.1665 67.0749Z" fill="#DCDDDE"/>
<path d="M65.5488 70.3931C65.4729 69.8995 65.4811 69.4031 65.4708 68.9051C65.4601 68.379 65.4534 67.849 65.5042 67.3249C65.5729 66.6251 65.7268 65.8542 66.1915 65.3045C65.9971 65.2285 65.7853 65.1742 65.5519 65.1465C63.8048 64.9363 63.1816 69.598 64.07 70.3881C64.723 70.9685 65.3703 71.7477 65.1195 72.9095C64.586 75.3785 66.4182 75.7782 67.0112 75.7827C68.0365 75.7916 68.5181 75.5493 68.7638 75.151C67.0578 74.1576 65.8294 72.2077 65.5488 70.3931Z" fill="#DBDCA3"/>
<path d="M60.6363 15.7656L60.0761 15.8258L60.3059 17.8009L59.5791 19.5272L59.8735 19.6313L60.608 18.3265L61.419 19.3984L61.7806 19.1723L60.8676 17.7288L60.6363 15.7656Z" fill="#579C43"/>
<path d="M60.6741 18.9739C60.3125 18.8599 59.1123 18.7419 58.9107 20.3493C58.8153 21.1058 58.2567 21.4528 57.7356 21.6773C57.0262 21.9818 56.4122 24.9424 57.5206 25.1595C58.6773 25.3856 59.3969 24.406 60.2022 23.2344C60.6116 22.6392 61.4646 22.4102 61.402 21.5283C61.3163 20.3148 62.3155 19.4911 60.6741 18.9739Z" fill="#83BE2C"/>
<path d="M60.3848 21.9422C59.7462 22.0577 59.1153 22.2443 58.7609 22.8207C58.5629 23.1429 58.5819 23.4494 58.4972 23.7445C58.4044 24.0663 58.2787 24.6067 58.4228 24.7044C58.5321 24.7784 59.3728 23.9123 59.8509 23.2165C60.1761 22.7427 60.8511 22.5596 60.808 21.8638C60.6633 21.8845 60.5197 21.9181 60.3848 21.9422Z" fill="#DCDDDE"/>
<path d="M58.6367 21.966C58.4849 22.2508 58.3844 22.5543 58.272 22.8553C58.1541 23.1742 58.0366 23.4949 57.9561 23.8241C57.8489 24.2638 57.7781 24.7628 57.9448 25.1892C57.8094 25.1975 57.6693 25.1882 57.5216 25.1595C56.4132 24.9429 57.0272 21.9823 57.7365 21.6773C58.2577 21.4528 58.8163 21.1058 58.9117 20.3493C59.1133 18.7419 60.313 18.8599 60.6751 18.9739C61.3014 19.1713 61.542 19.4136 61.6066 19.7038C60.3566 19.9723 59.1938 20.9168 58.6367 21.966Z" fill="#DBDCA3"/>
<path d="M61.6761 18.7902C62.0854 18.7497 63.3816 18.8899 63.2113 20.6325C63.1313 21.4537 63.6391 21.9442 64.1366 22.2961C64.8132 22.7748 64.7563 26.0384 63.5329 26.0226C62.2573 26.0063 61.7295 24.812 61.1586 23.3961C60.8682 22.6771 60.0214 22.2463 60.2979 21.3288C60.6774 20.0649 59.8178 18.9738 61.6761 18.7902Z" fill="#83BE2C"/>
<path d="M62.9558 24.7362C63.0091 24.4845 62.987 24.1933 62.9491 23.9402C62.9106 23.6771 62.8106 23.4205 62.6629 23.1945C62.589 23.08 62.5116 22.9724 62.3802 22.9117C62.2766 22.8643 62.1669 22.8318 62.0627 22.7844C61.6149 22.5801 61.2785 21.8714 60.8435 21.9992C60.5937 22.0717 61.2025 22.7725 61.3805 23.2325C61.735 24.1479 62.1951 25.4725 62.6731 25.325C62.886 25.2588 62.905 24.9761 62.9558 24.7362Z" fill="#DCDDDE"/>
<path d="M63.1161 22.4017C63.2079 22.7368 63.2418 23.0803 63.2889 23.4228C63.3387 23.7845 63.3859 24.1497 63.3915 24.5159C63.4008 25.003 63.3556 25.5474 63.0792 25.9604C63.2192 25.9984 63.3695 26.0206 63.5331 26.0226C64.7565 26.0384 64.8134 22.7748 64.1368 22.2961C63.6393 21.9442 63.1315 21.4537 63.2115 20.6325C63.3818 18.8899 62.0856 18.7497 61.6763 18.7902C60.9684 18.8608 60.655 19.0626 60.5176 19.3558C61.7737 19.9154 62.7776 21.1704 63.1161 22.4017Z" fill="#DBDCA3"/>
<path d="M34.3635 53.7274H34.9277V51.7395L35.8474 50.1015L35.5668 49.9658L34.6861 51.1853L34.0039 50.0339L33.6182 50.2195L34.3599 51.7509L34.3635 53.7274Z" fill="#579C43"/>
<path d="M34.6955 50.5347C35.0418 50.6867 36.221 50.932 36.6062 49.3557C36.7878 48.614 37.3838 48.3282 37.9275 48.1614C38.6667 47.9329 39.6176 45.0567 38.541 44.7231C37.4177 44.3752 36.5898 45.2719 35.6542 46.3502C35.1792 46.8985 34.3057 47.0357 34.2657 47.9191C34.2113 49.1346 33.1234 49.8463 34.6955 50.5347Z" fill="#83BE2C"/>
<path d="M35.3248 47.615C35.9727 47.5681 36.621 47.4502 37.0401 46.9152C37.274 46.6161 37.2904 46.3087 37.4084 46.0244C37.5376 45.715 37.7248 45.1914 37.593 45.0788C37.493 44.993 36.5574 45.7653 36.0024 46.4054C35.6249 46.8412 34.933 46.9512 34.8955 47.6486C35.0417 47.6426 35.1884 47.6254 35.3248 47.615Z" fill="#DCDDDE"/>
<path d="M37.065 47.7788C37.2481 47.5118 37.3835 47.2201 37.5297 46.9334C37.6841 46.6294 37.8375 46.3234 37.9554 46.0036C38.1129 45.5792 38.2401 45.0896 38.1242 44.6494C38.2591 44.6553 38.3971 44.6795 38.5412 44.7234C39.6178 45.0571 38.6669 47.9332 37.9277 48.1617C37.3835 48.3285 36.7875 48.6143 36.6064 49.356C36.2212 50.9318 35.042 50.6865 34.6957 50.535C34.0961 50.273 33.8843 50.0065 33.8535 49.7109C35.1266 49.5761 36.391 48.7613 37.065 47.7788Z" fill="#DBDCA3"/>
<path d="M33.679 50.6104C33.2676 50.6069 31.9955 50.3301 32.3649 48.6156C32.5393 47.8087 32.0904 47.2674 31.637 46.8647C31.0194 46.3164 31.4524 43.0789 32.6654 43.225C33.9319 43.377 34.3186 44.6197 34.7233 46.0879C34.9285 46.8345 35.7205 47.3522 35.3404 48.2356C34.8182 49.4506 35.5466 50.6262 33.679 50.6104Z" fill="#83BE2C"/>
<path d="M33.0922 44.5645C33.0112 44.8092 32.9988 45.1004 33.0071 45.3565C33.0153 45.6216 33.085 45.8876 33.2056 46.1274C33.2656 46.2493 33.3307 46.3653 33.4538 46.4393C33.5508 46.498 33.6569 46.5424 33.7544 46.6002C34.176 46.8499 34.4294 47.5907 34.8762 47.5097C35.1326 47.4633 34.6084 46.7023 34.4843 46.2271C34.2376 45.2786 33.9319 43.9135 33.441 44.0102C33.2209 44.0532 33.1697 44.3315 33.0922 44.5645Z" fill="#DCDDDE"/>
<path d="M32.6638 46.8681C32.611 46.5261 32.6167 46.1802 32.61 45.8347C32.6018 45.4695 32.5977 45.1023 32.6331 44.7376C32.6803 44.2515 32.788 43.7161 33.1106 43.3351C32.9757 43.2818 32.828 43.2438 32.6664 43.2245C31.4533 43.0784 31.0204 46.3159 31.638 46.8642C32.0914 47.2664 32.5402 47.8083 32.3658 48.6151C31.996 50.3296 33.2686 50.6065 33.68 50.6099C34.3919 50.6163 34.7263 50.4485 34.8966 50.1717C33.7118 49.4822 32.8588 48.128 32.6638 46.8681Z" fill="#DBDCA3"/>
<path d="M102.612 37.2259H103.176V35.2385L104.097 33.5996L103.816 33.4644L102.935 34.6838L102.253 33.5325L101.867 33.718L102.609 35.2494L102.612 37.2259Z" fill="#579C43"/>
<path d="M102.944 34.0337C103.291 34.1857 104.47 34.431 104.855 32.8547C105.037 32.113 105.632 31.8267 106.176 31.6594C106.916 31.4314 107.867 28.5553 106.79 28.2216C105.667 27.8737 104.838 28.7704 103.903 29.8497C103.428 30.3975 102.554 30.5352 102.515 31.4181C102.46 32.6331 101.373 33.3453 102.944 34.0337Z" fill="#83BE2C"/>
<path d="M103.574 31.1144C104.222 31.0671 104.87 30.9501 105.289 30.4146C105.523 30.1156 105.539 29.8081 105.657 29.5234C105.786 29.2139 105.974 28.6903 105.842 28.5778C105.742 28.4924 104.806 29.2643 104.251 29.9048C103.874 30.3401 103.182 30.4502 103.145 31.1465C103.29 31.1431 103.436 31.1248 103.574 31.1144Z" fill="#DCDDDE"/>
<path d="M105.315 31.2773C105.498 31.0098 105.633 30.7182 105.779 30.4314C105.934 30.1274 106.087 29.8215 106.205 29.5026C106.362 29.0777 106.49 28.5877 106.374 28.1475C106.508 28.1534 106.647 28.1776 106.791 28.2215C107.867 28.5551 106.916 31.4313 106.176 31.6593C105.632 31.8266 105.037 32.1128 104.855 32.8546C104.47 34.4303 103.291 34.1851 102.945 34.0336C102.345 33.771 102.133 33.505 102.103 33.2089C103.375 33.0752 104.64 32.2604 105.315 31.2773Z" fill="#DBDCA3"/>
<path d="M101.928 34.1095C101.516 34.1065 100.245 33.8291 100.614 32.1152C100.788 31.3073 100.34 30.7669 99.8861 30.3632C99.2686 29.8154 99.701 26.5775 100.915 26.7241C102.18 26.8766 102.567 28.1187 102.972 29.5869C103.178 30.3331 103.97 30.8518 103.589 31.7342C103.067 32.9492 103.796 34.1248 101.928 34.1095Z" fill="#83BE2C"/>
<path d="M101.341 28.063C101.259 28.3083 101.247 28.5994 101.255 28.8556C101.264 29.1206 101.334 29.3866 101.454 29.6264C101.514 29.7488 101.579 29.8638 101.702 29.9383C101.799 29.9971 101.905 30.041 102.002 30.0987C102.425 30.3484 102.678 31.0892 103.125 31.0088C103.381 30.9624 102.858 30.2009 102.733 29.7256C102.486 28.7771 102.181 27.412 101.69 27.5088C101.47 27.5517 101.419 27.8301 101.341 28.063Z" fill="#DCDDDE"/>
<path d="M100.912 30.3667C100.86 30.0247 100.865 29.6792 100.859 29.3338C100.851 28.9686 100.847 28.6009 100.883 28.2362C100.93 27.7506 101.037 27.2151 101.36 26.8336C101.224 26.7808 101.078 26.7428 100.916 26.7236C99.7019 26.577 99.2695 29.8149 99.8871 30.3627C100.341 30.7659 100.789 31.3068 100.615 32.1147C100.246 33.8286 101.517 34.106 101.929 34.109C102.642 34.1154 102.975 33.9471 103.146 33.6702C101.96 32.9808 101.107 31.6261 100.912 30.3667Z" fill="#DBDCA3"/>
<path d="M114.383 151.355C99.2374 152.298 87.9725 153.599 71.9941 152.333C62.9446 151.616 61.6088 151.499 52.3811 143.424C49.2339 140.671 47.5986 135.344 52.0545 133.729C54.6665 132.783 61.7785 138.453 65.6035 139.87C73.776 142.894 93.5633 141.684 93.7232 139.236C93.9104 136.326 85.4496 137.47 81.3417 134.865C75.119 130.926 80.5913 124.505 87.7951 126.71C105.227 132.048 114.012 133.745 114.012 133.745L114.383 151.355Z" fill="#FFA67F"/>
<path d="M176.999 134.213L107.669 132.919L107.814 151.628C107.814 151.628 138.459 157.52 176.999 162.809V134.213Z" fill="#FFA67F"/>
<defs>
<linearGradient id="paint0_linear_1187_49464" x1="88.5" y1="17" x2="88.5" y2="172" gradientUnits="userSpaceOnUse">
<stop stop-color="#D7EF98"/>
<stop offset="1" stop-color="#50B745"/>
</linearGradient>
</defs>
</svg>
